%TF.GenerationSoftware,KiCad,Pcbnew,9.0.7*%
%TF.CreationDate,2026-02-28T17:01:53+01:00*%
%TF.ProjectId,esp32-drone-controller,65737033-322d-4647-926f-6e652d636f6e,rev?*%
%TF.SameCoordinates,Original*%
%TF.FileFunction,Copper,L2,Inr*%
%TF.FilePolarity,Positive*%
%FSLAX46Y46*%
G04 Gerber Fmt 4.6, Leading zero omitted, Abs format (unit mm)*
G04 Created by KiCad (PCBNEW 9.0.7) date 2026-02-28 17:01:53*
%MOMM*%
%LPD*%
G01*
G04 APERTURE LIST*
G04 Aperture macros list*
%AMRotRect*
0 Rectangle, with rotation*
0 The origin of the aperture is its center*
0 $1 length*
0 $2 width*
0 $3 Rotation angle, in degrees counterclockwise*
0 Add horizontal line*
21,1,$1,$2,0,0,$3*%
G04 Aperture macros list end*
%TA.AperFunction,ComponentPad*%
%ADD10R,1.570000X1.700000*%
%TD*%
%TA.AperFunction,ComponentPad*%
%ADD11C,1.700000*%
%TD*%
%TA.AperFunction,ComponentPad*%
%ADD12R,1.700000X1.570000*%
%TD*%
%TA.AperFunction,ComponentPad*%
%ADD13RotRect,1.620000X1.620000X315.000000*%
%TD*%
%TA.AperFunction,ComponentPad*%
%ADD14C,1.620000*%
%TD*%
%TA.AperFunction,ComponentPad*%
%ADD15C,0.750000*%
%TD*%
%TA.AperFunction,ComponentPad*%
%ADD16O,2.000000X1.200000*%
%TD*%
%TA.AperFunction,ComponentPad*%
%ADD17O,1.800000X1.200000*%
%TD*%
%TA.AperFunction,ComponentPad*%
%ADD18C,1.600000*%
%TD*%
%TA.AperFunction,ComponentPad*%
%ADD19RotRect,1.620000X1.620000X225.000000*%
%TD*%
%TA.AperFunction,ComponentPad*%
%ADD20RotRect,1.620000X1.620000X135.000000*%
%TD*%
%TA.AperFunction,ComponentPad*%
%ADD21RotRect,1.620000X1.620000X45.000000*%
%TD*%
%TA.AperFunction,ViaPad*%
%ADD22C,0.600000*%
%TD*%
%TA.AperFunction,Conductor*%
%ADD23C,2.000000*%
%TD*%
G04 APERTURE END LIST*
D10*
%TO.N,GND*%
%TO.C,H4*%
X208640000Y-141500000D03*
D11*
%TO.N,+3V3*%
X211180000Y-141500000D03*
%TO.N,GPIO08*%
X213720000Y-141500000D03*
%TO.N,GPIO46*%
X216260000Y-141500000D03*
%TO.N,GPIO10*%
X218800000Y-141500000D03*
%TO.N,GPIO12*%
X221340000Y-141500000D03*
%TO.N,GPIO14*%
X223880000Y-141500000D03*
%TO.N,GPIO48*%
X226420000Y-141500000D03*
%TO.N,GPIO35*%
X228960000Y-141500000D03*
%TO.N,GPIO37*%
X231500000Y-141500000D03*
%TD*%
D12*
%TO.N,GND*%
%TO.C,H2*%
X251500000Y-114580000D03*
D11*
%TO.N,+3V3*%
X251500000Y-112040000D03*
%TO.N,GPIO39*%
X251500000Y-109500000D03*
%TO.N,GPIO40*%
X251500000Y-106960000D03*
%TO.N,GPIO41*%
X251500000Y-104420000D03*
%TO.N,GPIO42*%
X251500000Y-101880000D03*
%TO.N,GPIO44*%
X251500000Y-99340000D03*
%TO.N,GPIO43*%
X251500000Y-96800000D03*
%TO.N,GPIO02*%
X251500000Y-94260000D03*
%TO.N,GPIO01*%
X251500000Y-91720000D03*
%TD*%
D12*
%TO.N,GND*%
%TO.C,H3*%
X188600000Y-114620000D03*
D11*
%TO.N,+3V3*%
X188600000Y-112080000D03*
%TO.N,GPIO18*%
X188600000Y-109540000D03*
%TO.N,GPIO17*%
X188600000Y-107000000D03*
%TO.N,GPIO16*%
X188600000Y-104460000D03*
%TO.N,GPIO15*%
X188600000Y-101920000D03*
%TO.N,GPIO07*%
X188600000Y-99380000D03*
%TO.N,GPIO06*%
X188600000Y-96840000D03*
%TO.N,GPIO05*%
X188600000Y-94300000D03*
%TO.N,GPIO04*%
X188600000Y-91760000D03*
%TD*%
D13*
%TO.N,+8V*%
%TO.C,H8*%
X188707897Y-136007897D03*
D14*
%TO.N,GND*%
X190503948Y-137803948D03*
%TO.N,unconnected-(H8-Pad3)*%
X192300000Y-139600000D03*
%TO.N,GPIO03*%
X194096051Y-141396051D03*
%TD*%
D15*
%TO.N,*%
%TO.C,USBC1*%
X191510000Y-122500000D03*
X191510000Y-128300000D03*
D16*
%TO.N,GND*%
X192010000Y-129730000D03*
D17*
X187830000Y-129730000D03*
X187830000Y-121070000D03*
D16*
X192010000Y-121070000D03*
%TD*%
D18*
%TO.N,+8V*%
%TO.C,CN1*%
X253150000Y-124500000D03*
%TO.N,GND*%
X253150000Y-126500000D03*
%TD*%
D19*
%TO.N,+8V*%
%TO.C,H6*%
X194092103Y-78611846D03*
D14*
%TO.N,GND*%
X192296052Y-80407897D03*
%TO.N,unconnected-(H6-Pad3)*%
X190500000Y-82203949D03*
%TO.N,GPIO04*%
X188703949Y-84000000D03*
%TD*%
D10*
%TO.N,GND*%
%TO.C,H1*%
X208740000Y-137000000D03*
D11*
%TO.N,+3V3*%
X211280000Y-137000000D03*
%TO.N,GPIO03*%
X213820000Y-137000000D03*
%TO.N,GPIO09*%
X216360000Y-137000000D03*
%TO.N,GPIO11*%
X218900000Y-137000000D03*
%TO.N,GPIO13*%
X221440000Y-137000000D03*
%TO.N,GPIO47*%
X223980000Y-137000000D03*
%TO.N,GPIO45*%
X226520000Y-137000000D03*
%TO.N,GPIO36*%
X229060000Y-137000000D03*
%TO.N,GPIO38*%
X231600000Y-137000000D03*
%TD*%
D20*
%TO.N,+8V*%
%TO.C,H5*%
X251296051Y-84296051D03*
D14*
%TO.N,GND*%
X249500000Y-82500000D03*
%TO.N,unconnected-(H5-Pad3)*%
X247703948Y-80703948D03*
%TO.N,GPIO01*%
X245907897Y-78907897D03*
%TD*%
D21*
%TO.N,+8V*%
%TO.C,H7*%
X246005923Y-141294077D03*
D14*
%TO.N,GND*%
X247801974Y-139498026D03*
%TO.N,unconnected-(H7-Pad3)*%
X249598026Y-137701974D03*
%TO.N,GPIO38*%
X251394077Y-135905923D03*
%TD*%
D22*
%TO.N,GND*%
X231000000Y-106600000D03*
X250000000Y-127749997D03*
X223000000Y-110600000D03*
X206000000Y-142000000D03*
X243300000Y-138400000D03*
X222600000Y-121800000D03*
X220500000Y-84750000D03*
X243300000Y-137200000D03*
X212000000Y-106800000D03*
X231000000Y-109400000D03*
X220500000Y-82000000D03*
X194000000Y-135600000D03*
X248100000Y-107400000D03*
X209300000Y-116400000D03*
X233300000Y-116500000D03*
X194000000Y-135000000D03*
X214750000Y-102800000D03*
X222600000Y-123800000D03*
X219000000Y-82000000D03*
X197300000Y-122900000D03*
X195500000Y-83150003D03*
X190200000Y-122800000D03*
X233200000Y-113700000D03*
X209300000Y-113500000D03*
X220500000Y-83500000D03*
X248000000Y-87000000D03*
X214800000Y-105900000D03*
X200400000Y-134100000D03*
X247349997Y-87000000D03*
X217500000Y-82000000D03*
X217500000Y-83500000D03*
X223000000Y-103000000D03*
X243300000Y-137800000D03*
X250000000Y-128400000D03*
X244900000Y-127900000D03*
X248650003Y-87000000D03*
X250000000Y-127099994D03*
X240000000Y-131100000D03*
X219000000Y-84750000D03*
X195500000Y-110700000D03*
X186200000Y-115000000D03*
X202200000Y-86100000D03*
X233400000Y-119400000D03*
X216850000Y-127550000D03*
X228800000Y-123900000D03*
X188300000Y-122900000D03*
X208600000Y-76400000D03*
X219000000Y-83500000D03*
X217500000Y-84750000D03*
X237500000Y-108000000D03*
X230400000Y-76380000D03*
X224200000Y-101600000D03*
X195500000Y-81849997D03*
X228700000Y-126300000D03*
X205800000Y-137600000D03*
X190200000Y-128000000D03*
X194000000Y-134400000D03*
X195500000Y-82500000D03*
X209200000Y-119300000D03*
X225850000Y-114550000D03*
X214600000Y-114550000D03*
X254000000Y-115000000D03*
X188200000Y-128100000D03*
%TO.N,+5V*%
X197300000Y-127500000D03*
X194500000Y-119800000D03*
X194200000Y-123000000D03*
X194200000Y-127700000D03*
%TO.N,+8V*%
X250000000Y-123600000D03*
X192750003Y-85500000D03*
X250000000Y-122100000D03*
X251500000Y-143050003D03*
X252750003Y-78500000D03*
X244500000Y-86000000D03*
X188500000Y-77500000D03*
X188100000Y-141000000D03*
X192000000Y-85500000D03*
X252000000Y-78500000D03*
X191249997Y-85500000D03*
X188500000Y-76749997D03*
X251249997Y-78500000D03*
X188500000Y-78250003D03*
X186700000Y-141000000D03*
X244900000Y-123100000D03*
X245250003Y-86000000D03*
X249800000Y-118700000D03*
X251500000Y-141549997D03*
X187400000Y-141000000D03*
X250000000Y-122900000D03*
X243749997Y-86000000D03*
X251500000Y-142300000D03*
%TO.N,EN*%
X212800000Y-78900000D03*
X204900000Y-78900000D03*
%TO.N,+3V3*%
X199500000Y-107500000D03*
X208500000Y-77900000D03*
X219770000Y-120550000D03*
X199200000Y-78200000D03*
X215500000Y-111000000D03*
X239500000Y-108000000D03*
X239500000Y-109000000D03*
X217350000Y-122550000D03*
X212100000Y-130600000D03*
X225750000Y-104400000D03*
X199500000Y-109000000D03*
X211200000Y-130600000D03*
%TO.N,GPIO03*%
X209000000Y-98000000D03*
%TO.N,GPIO08*%
X208000000Y-98000000D03*
%TO.N,GPIO14*%
X219000000Y-98000000D03*
%TO.N,GPIO10*%
X212000000Y-98000000D03*
%TO.N,GPIO11*%
X213000000Y-98000000D03*
%TO.N,GPIO12*%
X214000000Y-98000000D03*
X219500000Y-110400000D03*
%TO.N,GPIO13*%
X218100000Y-98000000D03*
%TO.N,GPIO09*%
X211000000Y-98000000D03*
%TO.N,GPIO35*%
X231000000Y-98000000D03*
%TO.N,GPIO38*%
X233800000Y-98000000D03*
%TO.N,GPIO36*%
X231900000Y-98000000D03*
%TO.N,GPIO37*%
X232900000Y-98000000D03*
%TO.N,GPIO46*%
X210000000Y-98000000D03*
%TO.N,GPIO47*%
X228000000Y-98000000D03*
%TO.N,GPIO45*%
X230000000Y-98000000D03*
%TO.N,GPIO00*%
X237400000Y-100000000D03*
X229900000Y-96100000D03*
%TO.N,D-*%
X213700000Y-91100000D03*
X195000000Y-124500000D03*
%TO.N,D+*%
X195000000Y-125300000D03*
X213700000Y-92100000D03*
%TO.N,GPIO48*%
X229000000Y-98000000D03*
%TD*%
D23*
%TO.N,+8V*%
X201063156Y-135701000D02*
X197601000Y-135701000D01*
X242000000Y-133500000D02*
X242000000Y-134500000D01*
X197601000Y-135701000D02*
X197000000Y-135100000D01*
X242000000Y-133500000D02*
X242000000Y-134000000D01*
X197000000Y-135700000D02*
X197000000Y-134500000D01*
X244500000Y-117200000D02*
X243000000Y-117200000D01*
X202764156Y-134000000D02*
X201063156Y-135701000D01*
X243800000Y-117200000D02*
X243800000Y-86700000D01*
X242000000Y-134000000D02*
X202764156Y-134000000D01*
X243749997Y-86000000D02*
X245250003Y-86000000D01*
X243800000Y-86700000D02*
X244500000Y-86000000D01*
%TD*%
%TA.AperFunction,Conductor*%
%TO.N,+3V3*%
G36*
X207780691Y-76019685D02*
G01*
X207826446Y-76072489D01*
X207836390Y-76141647D01*
X207831233Y-76160434D01*
X207832031Y-76160676D01*
X207830261Y-76166510D01*
X207799500Y-76321153D01*
X207799500Y-76478846D01*
X207830261Y-76633489D01*
X207830264Y-76633501D01*
X207890602Y-76779172D01*
X207890609Y-76779185D01*
X207978210Y-76910288D01*
X207978213Y-76910292D01*
X208089707Y-77021786D01*
X208089711Y-77021789D01*
X208220814Y-77109390D01*
X208220827Y-77109397D01*
X208366498Y-77169735D01*
X208366503Y-77169737D01*
X208521153Y-77200499D01*
X208521156Y-77200500D01*
X208521158Y-77200500D01*
X208678844Y-77200500D01*
X208678845Y-77200499D01*
X208833497Y-77169737D01*
X208979179Y-77109394D01*
X209110289Y-77021789D01*
X209221789Y-76910289D01*
X209309394Y-76779179D01*
X209369737Y-76633497D01*
X209400500Y-76478842D01*
X209400500Y-76321158D01*
X209400500Y-76321155D01*
X209400499Y-76321153D01*
X209369738Y-76166510D01*
X209369737Y-76166503D01*
X209369732Y-76166492D01*
X209367969Y-76160676D01*
X209370549Y-76159893D01*
X209364314Y-76102008D01*
X209395576Y-76039523D01*
X209455657Y-76003858D01*
X209486348Y-76000000D01*
X229508310Y-76000000D01*
X229575349Y-76019685D01*
X229621104Y-76072489D01*
X229631048Y-76141647D01*
X229629927Y-76148192D01*
X229599500Y-76301155D01*
X229599500Y-76458846D01*
X229630261Y-76613489D01*
X229630264Y-76613501D01*
X229690602Y-76759172D01*
X229690609Y-76759185D01*
X229778210Y-76890288D01*
X229778213Y-76890292D01*
X229889707Y-77001786D01*
X229889711Y-77001789D01*
X230020814Y-77089390D01*
X230020827Y-77089397D01*
X230166498Y-77149735D01*
X230166503Y-77149737D01*
X230321153Y-77180499D01*
X230321156Y-77180500D01*
X230321158Y-77180500D01*
X230478844Y-77180500D01*
X230478845Y-77180499D01*
X230633497Y-77149737D01*
X230779179Y-77089394D01*
X230910289Y-77001789D01*
X231021789Y-76890289D01*
X231109394Y-76759179D01*
X231169737Y-76613497D01*
X231200500Y-76458842D01*
X231200500Y-76301158D01*
X231200500Y-76301155D01*
X231170073Y-76148192D01*
X231176300Y-76078600D01*
X231219163Y-76023423D01*
X231285052Y-76000178D01*
X231291690Y-76000000D01*
X240376852Y-76000000D01*
X240443891Y-76019685D01*
X240489646Y-76072489D01*
X240500849Y-76123145D01*
X240518425Y-78671775D01*
X240499203Y-78738948D01*
X240446716Y-78785066D01*
X240377628Y-78795487D01*
X240356111Y-78790561D01*
X240339661Y-78785216D01*
X240339656Y-78785215D01*
X240114162Y-78749500D01*
X240114157Y-78749500D01*
X239885843Y-78749500D01*
X239885838Y-78749500D01*
X239660339Y-78785215D01*
X239443196Y-78855770D01*
X239239771Y-78959421D01*
X239055061Y-79093622D01*
X238893622Y-79255061D01*
X238759421Y-79439771D01*
X238655770Y-79643196D01*
X238585215Y-79860339D01*
X238549500Y-80085837D01*
X238549500Y-80314162D01*
X238585215Y-80539660D01*
X238655770Y-80756803D01*
X238759421Y-80960228D01*
X238893621Y-81144937D01*
X239055063Y-81306379D01*
X239239772Y-81440579D01*
X239335884Y-81489550D01*
X239443196Y-81544229D01*
X239443198Y-81544229D01*
X239443201Y-81544231D01*
X239528951Y-81572093D01*
X239660339Y-81614784D01*
X239885838Y-81650500D01*
X239885843Y-81650500D01*
X240114162Y-81650500D01*
X240239436Y-81630657D01*
X240339660Y-81614784D01*
X240377130Y-81602608D01*
X240446969Y-81600612D01*
X240506802Y-81636692D01*
X240537631Y-81699392D01*
X240539445Y-81719684D01*
X240749139Y-112125145D01*
X240729917Y-112192318D01*
X240677430Y-112238436D01*
X240625142Y-112250000D01*
X230000000Y-112250000D01*
X230000000Y-111450000D01*
X210200000Y-111650000D01*
X210200000Y-112250000D01*
X198373148Y-112250000D01*
X198306109Y-112230315D01*
X198260354Y-112177511D01*
X198249151Y-112126855D01*
X198236698Y-110321153D01*
X218699500Y-110321153D01*
X218699500Y-110478846D01*
X218730261Y-110633489D01*
X218730264Y-110633501D01*
X218790602Y-110779172D01*
X218790609Y-110779185D01*
X218878210Y-110910288D01*
X218878213Y-110910292D01*
X218989707Y-111021786D01*
X218989711Y-111021789D01*
X219120814Y-111109390D01*
X219120827Y-111109397D01*
X219266498Y-111169735D01*
X219266503Y-111169737D01*
X219421153Y-111200499D01*
X219421156Y-111200500D01*
X219421158Y-111200500D01*
X219578844Y-111200500D01*
X219578845Y-111200499D01*
X219733497Y-111169737D01*
X219879179Y-111109394D01*
X220010289Y-111021789D01*
X220121789Y-110910289D01*
X220209394Y-110779179D01*
X220269737Y-110633497D01*
X220292083Y-110521158D01*
X220292084Y-110521153D01*
X222199500Y-110521153D01*
X222199500Y-110678846D01*
X222230261Y-110833489D01*
X222230264Y-110833501D01*
X222290602Y-110979172D01*
X222290609Y-110979185D01*
X222378210Y-111110288D01*
X222378213Y-111110292D01*
X222489707Y-111221786D01*
X222489711Y-111221789D01*
X222620814Y-111309390D01*
X222620827Y-111309397D01*
X222766498Y-111369735D01*
X222766503Y-111369737D01*
X222921153Y-111400499D01*
X222921156Y-111400500D01*
X222921158Y-111400500D01*
X223078844Y-111400500D01*
X223078845Y-111400499D01*
X223233497Y-111369737D01*
X223379179Y-111309394D01*
X223510289Y-111221789D01*
X223621789Y-111110289D01*
X223709394Y-110979179D01*
X223769737Y-110833497D01*
X223800500Y-110678842D01*
X223800500Y-110521158D01*
X223800500Y-110521155D01*
X223800499Y-110521153D01*
X223794476Y-110490874D01*
X223769737Y-110366503D01*
X223750955Y-110321158D01*
X223709397Y-110220827D01*
X223709390Y-110220814D01*
X223621789Y-110089711D01*
X223621786Y-110089707D01*
X223510292Y-109978213D01*
X223510288Y-109978210D01*
X223379185Y-109890609D01*
X223379172Y-109890602D01*
X223233501Y-109830264D01*
X223233489Y-109830261D01*
X223078845Y-109799500D01*
X223078842Y-109799500D01*
X222921158Y-109799500D01*
X222921155Y-109799500D01*
X222766510Y-109830261D01*
X222766498Y-109830264D01*
X222620827Y-109890602D01*
X222620814Y-109890609D01*
X222489711Y-109978210D01*
X222489707Y-109978213D01*
X222378213Y-110089707D01*
X222378210Y-110089711D01*
X222290609Y-110220814D01*
X222290602Y-110220827D01*
X222230264Y-110366498D01*
X222230261Y-110366510D01*
X222199500Y-110521153D01*
X220292084Y-110521153D01*
X220298107Y-110490875D01*
X220298107Y-110490874D01*
X220300500Y-110478844D01*
X220300500Y-110321155D01*
X220300499Y-110321153D01*
X220280543Y-110220827D01*
X220269737Y-110166503D01*
X220237929Y-110089711D01*
X220209397Y-110020827D01*
X220209390Y-110020814D01*
X220121789Y-109889711D01*
X220121786Y-109889707D01*
X220010292Y-109778213D01*
X220010288Y-109778210D01*
X219879185Y-109690609D01*
X219879172Y-109690602D01*
X219733501Y-109630264D01*
X219733489Y-109630261D01*
X219578845Y-109599500D01*
X219578842Y-109599500D01*
X219421158Y-109599500D01*
X219421155Y-109599500D01*
X219266510Y-109630261D01*
X219266498Y-109630264D01*
X219120827Y-109690602D01*
X219120814Y-109690609D01*
X218989711Y-109778210D01*
X218989707Y-109778213D01*
X218878213Y-109889707D01*
X218878210Y-109889711D01*
X218790609Y-110020814D01*
X218790602Y-110020827D01*
X218730264Y-110166498D01*
X218730261Y-110166510D01*
X218699500Y-110321153D01*
X198236698Y-110321153D01*
X198236662Y-110315921D01*
X198229801Y-109321153D01*
X230199500Y-109321153D01*
X230199500Y-109478846D01*
X230230261Y-109633489D01*
X230230264Y-109633501D01*
X230290602Y-109779172D01*
X230290609Y-109779185D01*
X230378210Y-109910288D01*
X230378213Y-109910292D01*
X230489707Y-110021786D01*
X230489711Y-110021789D01*
X230620814Y-110109390D01*
X230620827Y-110109397D01*
X230758683Y-110166498D01*
X230766503Y-110169737D01*
X230921153Y-110200499D01*
X230921156Y-110200500D01*
X230921158Y-110200500D01*
X231078844Y-110200500D01*
X231078845Y-110200499D01*
X231233497Y-110169737D01*
X231379179Y-110109394D01*
X231510289Y-110021789D01*
X231621789Y-109910289D01*
X231709394Y-109779179D01*
X231769737Y-109633497D01*
X231800500Y-109478842D01*
X231800500Y-109321158D01*
X231800500Y-109321155D01*
X231800499Y-109321153D01*
X231769738Y-109166510D01*
X231769737Y-109166503D01*
X231769735Y-109166498D01*
X231709397Y-109020827D01*
X231709390Y-109020814D01*
X231621789Y-108889711D01*
X231621786Y-108889707D01*
X231510292Y-108778213D01*
X231510288Y-108778210D01*
X231379185Y-108690609D01*
X231379172Y-108690602D01*
X231233501Y-108630264D01*
X231233489Y-108630261D01*
X231078845Y-108599500D01*
X231078842Y-108599500D01*
X230921158Y-108599500D01*
X230921155Y-108599500D01*
X230766510Y-108630261D01*
X230766498Y-108630264D01*
X230620827Y-108690602D01*
X230620814Y-108690609D01*
X230489711Y-108778210D01*
X230489707Y-108778213D01*
X230378213Y-108889707D01*
X230378210Y-108889711D01*
X230290609Y-109020814D01*
X230290602Y-109020827D01*
X230230264Y-109166498D01*
X230230261Y-109166510D01*
X230199500Y-109321153D01*
X198229801Y-109321153D01*
X198229765Y-109315921D01*
X198220146Y-107921153D01*
X236699500Y-107921153D01*
X236699500Y-108078846D01*
X236730261Y-108233489D01*
X236730264Y-108233501D01*
X236790602Y-108379172D01*
X236790609Y-108379185D01*
X236878210Y-108510288D01*
X236878213Y-108510292D01*
X236989707Y-108621786D01*
X236989711Y-108621789D01*
X237120814Y-108709390D01*
X237120827Y-108709397D01*
X237266498Y-108769735D01*
X237266503Y-108769737D01*
X237421153Y-108800499D01*
X237421156Y-108800500D01*
X237421158Y-108800500D01*
X237578844Y-108800500D01*
X237578845Y-108800499D01*
X237733497Y-108769737D01*
X237879179Y-108709394D01*
X238010289Y-108621789D01*
X238121789Y-108510289D01*
X238209394Y-108379179D01*
X238269737Y-108233497D01*
X238300500Y-108078842D01*
X238300500Y-107921158D01*
X238300500Y-107921155D01*
X238300499Y-107921153D01*
X238269738Y-107766510D01*
X238269737Y-107766503D01*
X238269735Y-107766498D01*
X238209397Y-107620827D01*
X238209390Y-107620814D01*
X238121789Y-107489711D01*
X238121786Y-107489707D01*
X238010292Y-107378213D01*
X238010288Y-107378210D01*
X237879185Y-107290609D01*
X237879172Y-107290602D01*
X237733501Y-107230264D01*
X237733489Y-107230261D01*
X237578845Y-107199500D01*
X237578842Y-107199500D01*
X237421158Y-107199500D01*
X237421155Y-107199500D01*
X237266510Y-107230261D01*
X237266498Y-107230264D01*
X237120827Y-107290602D01*
X237120814Y-107290609D01*
X236989711Y-107378210D01*
X236989707Y-107378213D01*
X236878213Y-107489707D01*
X236878210Y-107489711D01*
X236790609Y-107620814D01*
X236790602Y-107620827D01*
X236730264Y-107766498D01*
X236730261Y-107766510D01*
X236699500Y-107921153D01*
X198220146Y-107921153D01*
X198220110Y-107915921D01*
X198211870Y-106721153D01*
X211199500Y-106721153D01*
X211199500Y-106878846D01*
X211230261Y-107033489D01*
X211230264Y-107033501D01*
X211290602Y-107179172D01*
X211290609Y-107179185D01*
X211378210Y-107310288D01*
X211378213Y-107310292D01*
X211489707Y-107421786D01*
X211489711Y-107421789D01*
X211620814Y-107509390D01*
X211620827Y-107509397D01*
X211766498Y-107569735D01*
X211766503Y-107569737D01*
X211921153Y-107600499D01*
X211921156Y-107600500D01*
X211921158Y-107600500D01*
X212078844Y-107600500D01*
X212078845Y-107600499D01*
X212233497Y-107569737D01*
X212379179Y-107509394D01*
X212510289Y-107421789D01*
X212621789Y-107310289D01*
X212709394Y-107179179D01*
X212769737Y-107033497D01*
X212800500Y-106878842D01*
X212800500Y-106721158D01*
X212800500Y-106721155D01*
X212800499Y-106721153D01*
X212796391Y-106700499D01*
X212769737Y-106566503D01*
X212750955Y-106521158D01*
X212709397Y-106420827D01*
X212709390Y-106420814D01*
X212621789Y-106289711D01*
X212621786Y-106289707D01*
X212510292Y-106178213D01*
X212510288Y-106178210D01*
X212379185Y-106090609D01*
X212379172Y-106090602D01*
X212233501Y-106030264D01*
X212233489Y-106030261D01*
X212078845Y-105999500D01*
X212078842Y-105999500D01*
X211921158Y-105999500D01*
X211921155Y-105999500D01*
X211766510Y-106030261D01*
X211766498Y-106030264D01*
X211620827Y-106090602D01*
X211620814Y-106090609D01*
X211489711Y-106178210D01*
X211489707Y-106178213D01*
X211378213Y-106289707D01*
X211378210Y-106289711D01*
X211290609Y-106420814D01*
X211290602Y-106420827D01*
X211230264Y-106566498D01*
X211230261Y-106566510D01*
X211199500Y-106721153D01*
X198211870Y-106721153D01*
X198205663Y-105821153D01*
X213999500Y-105821153D01*
X213999500Y-105978846D01*
X214030261Y-106133489D01*
X214030264Y-106133501D01*
X214090602Y-106279172D01*
X214090609Y-106279185D01*
X214178210Y-106410288D01*
X214178213Y-106410292D01*
X214289707Y-106521786D01*
X214289711Y-106521789D01*
X214420814Y-106609390D01*
X214420827Y-106609397D01*
X214566498Y-106669735D01*
X214566503Y-106669737D01*
X214721153Y-106700499D01*
X214721156Y-106700500D01*
X214721158Y-106700500D01*
X214878844Y-106700500D01*
X214878845Y-106700499D01*
X215033497Y-106669737D01*
X215179179Y-106609394D01*
X215310289Y-106521789D01*
X215310925Y-106521153D01*
X230199500Y-106521153D01*
X230199500Y-106678846D01*
X230230261Y-106833489D01*
X230230264Y-106833501D01*
X230290602Y-106979172D01*
X230290609Y-106979185D01*
X230378210Y-107110288D01*
X230378213Y-107110292D01*
X230489707Y-107221786D01*
X230489711Y-107221789D01*
X230620814Y-107309390D01*
X230620827Y-107309397D01*
X230766498Y-107369735D01*
X230766503Y-107369737D01*
X230921153Y-107400499D01*
X230921156Y-107400500D01*
X230921158Y-107400500D01*
X231078844Y-107400500D01*
X231078845Y-107400499D01*
X231233497Y-107369737D01*
X231379179Y-107309394D01*
X231510289Y-107221789D01*
X231621789Y-107110289D01*
X231709394Y-106979179D01*
X231769737Y-106833497D01*
X231800500Y-106678842D01*
X231800500Y-106521158D01*
X231800500Y-106521155D01*
X231800499Y-106521153D01*
X231780543Y-106420827D01*
X231769737Y-106366503D01*
X231737929Y-106289711D01*
X231709397Y-106220827D01*
X231709390Y-106220814D01*
X231621789Y-106089711D01*
X231621786Y-106089707D01*
X231510292Y-105978213D01*
X231510288Y-105978210D01*
X231379185Y-105890609D01*
X231379172Y-105890602D01*
X231233501Y-105830264D01*
X231233489Y-105830261D01*
X231078845Y-105799500D01*
X231078842Y-105799500D01*
X230921158Y-105799500D01*
X230921155Y-105799500D01*
X230766510Y-105830261D01*
X230766498Y-105830264D01*
X230620827Y-105890602D01*
X230620814Y-105890609D01*
X230489711Y-105978210D01*
X230489707Y-105978213D01*
X230378213Y-106089707D01*
X230378210Y-106089711D01*
X230290609Y-106220814D01*
X230290602Y-106220827D01*
X230230264Y-106366498D01*
X230230261Y-106366510D01*
X230199500Y-106521153D01*
X215310925Y-106521153D01*
X215404694Y-106427385D01*
X215421786Y-106410292D01*
X215421789Y-106410289D01*
X215509394Y-106279179D01*
X215569737Y-106133497D01*
X215600500Y-105978842D01*
X215600500Y-105821158D01*
X215600500Y-105821155D01*
X215600499Y-105821153D01*
X215569738Y-105666510D01*
X215569737Y-105666503D01*
X215569735Y-105666498D01*
X215509397Y-105520827D01*
X215509390Y-105520814D01*
X215421789Y-105389711D01*
X215421786Y-105389707D01*
X215310292Y-105278213D01*
X215310288Y-105278210D01*
X215179185Y-105190609D01*
X215179172Y-105190602D01*
X215033501Y-105130264D01*
X215033489Y-105130261D01*
X214878845Y-105099500D01*
X214878842Y-105099500D01*
X214721158Y-105099500D01*
X214721155Y-105099500D01*
X214566510Y-105130261D01*
X214566498Y-105130264D01*
X214420827Y-105190602D01*
X214420814Y-105190609D01*
X214289711Y-105278210D01*
X214289707Y-105278213D01*
X214178213Y-105389707D01*
X214178210Y-105389711D01*
X214090609Y-105520814D01*
X214090602Y-105520827D01*
X214030264Y-105666498D01*
X214030261Y-105666510D01*
X213999500Y-105821153D01*
X198205663Y-105821153D01*
X198205627Y-105815921D01*
X198184284Y-102721153D01*
X213949500Y-102721153D01*
X213949500Y-102878846D01*
X213980261Y-103033489D01*
X213980264Y-103033501D01*
X214040602Y-103179172D01*
X214040609Y-103179185D01*
X214128210Y-103310288D01*
X214128213Y-103310292D01*
X214239707Y-103421786D01*
X214239711Y-103421789D01*
X214370814Y-103509390D01*
X214370827Y-103509397D01*
X214516498Y-103569735D01*
X214516503Y-103569737D01*
X214671153Y-103600499D01*
X214671156Y-103600500D01*
X214671158Y-103600500D01*
X214828844Y-103600500D01*
X214828845Y-103600499D01*
X214983497Y-103569737D01*
X215129179Y-103509394D01*
X215260289Y-103421789D01*
X215371789Y-103310289D01*
X215459394Y-103179179D01*
X215519737Y-103033497D01*
X215542083Y-102921158D01*
X215542084Y-102921153D01*
X222199500Y-102921153D01*
X222199500Y-103078846D01*
X222230261Y-103233489D01*
X222230264Y-103233501D01*
X222290602Y-103379172D01*
X222290609Y-103379185D01*
X222378210Y-103510288D01*
X222378213Y-103510292D01*
X222489707Y-103621786D01*
X222489711Y-103621789D01*
X222620814Y-103709390D01*
X222620827Y-103709397D01*
X222766498Y-103769735D01*
X222766503Y-103769737D01*
X222921153Y-103800499D01*
X222921156Y-103800500D01*
X222921158Y-103800500D01*
X223078844Y-103800500D01*
X223078845Y-103800499D01*
X223233497Y-103769737D01*
X223379179Y-103709394D01*
X223510289Y-103621789D01*
X223621789Y-103510289D01*
X223709394Y-103379179D01*
X223769737Y-103233497D01*
X223800500Y-103078842D01*
X223800500Y-102921158D01*
X223800500Y-102921155D01*
X223800499Y-102921153D01*
X223794476Y-102890874D01*
X223769737Y-102766503D01*
X223750955Y-102721158D01*
X223709397Y-102620827D01*
X223709390Y-102620814D01*
X223621789Y-102489711D01*
X223621786Y-102489707D01*
X223570982Y-102438903D01*
X223570974Y-102438896D01*
X223510289Y-102378211D01*
X223469162Y-102350731D01*
X223469159Y-102350728D01*
X223379185Y-102290609D01*
X223379172Y-102290602D01*
X223233501Y-102230264D01*
X223233489Y-102230261D01*
X223078845Y-102199500D01*
X223078842Y-102199500D01*
X222921158Y-102199500D01*
X222921155Y-102199500D01*
X222766510Y-102230261D01*
X222766498Y-102230264D01*
X222620827Y-102290602D01*
X222620814Y-102290609D01*
X222489711Y-102378210D01*
X222489707Y-102378213D01*
X222378213Y-102489707D01*
X222378210Y-102489711D01*
X222290609Y-102620814D01*
X222290602Y-102620827D01*
X222230264Y-102766498D01*
X222230261Y-102766510D01*
X222199500Y-102921153D01*
X215542084Y-102921153D01*
X215548107Y-102890875D01*
X215548107Y-102890874D01*
X215550500Y-102878844D01*
X215550500Y-102721155D01*
X215550499Y-102721153D01*
X215530543Y-102620827D01*
X215519737Y-102566503D01*
X215487929Y-102489711D01*
X215459397Y-102420827D01*
X215459390Y-102420814D01*
X215371789Y-102289711D01*
X215371786Y-102289707D01*
X215260292Y-102178213D01*
X215260288Y-102178210D01*
X215129185Y-102090609D01*
X215129172Y-102090602D01*
X214983501Y-102030264D01*
X214983489Y-102030261D01*
X214828845Y-101999500D01*
X214828842Y-101999500D01*
X214671158Y-101999500D01*
X214671155Y-101999500D01*
X214516510Y-102030261D01*
X214516498Y-102030264D01*
X214370827Y-102090602D01*
X214370814Y-102090609D01*
X214239711Y-102178210D01*
X214239707Y-102178213D01*
X214128213Y-102289707D01*
X214128210Y-102289711D01*
X214040609Y-102420814D01*
X214040602Y-102420827D01*
X213980264Y-102566498D01*
X213980261Y-102566510D01*
X213949500Y-102721153D01*
X198184284Y-102721153D01*
X198184248Y-102715921D01*
X198176008Y-101521153D01*
X223399500Y-101521153D01*
X223399500Y-101678846D01*
X223430261Y-101833489D01*
X223430264Y-101833501D01*
X223490602Y-101979172D01*
X223490609Y-101979185D01*
X223578210Y-102110288D01*
X223578213Y-102110292D01*
X223629016Y-102161095D01*
X223629023Y-102161101D01*
X223689711Y-102221789D01*
X223730838Y-102249269D01*
X223730839Y-102249270D01*
X223820814Y-102309390D01*
X223820827Y-102309397D01*
X223966498Y-102369735D01*
X223966503Y-102369737D01*
X224121153Y-102400499D01*
X224121156Y-102400500D01*
X224121158Y-102400500D01*
X224278844Y-102400500D01*
X224278845Y-102400499D01*
X224433497Y-102369737D01*
X224579179Y-102309394D01*
X224710289Y-102221789D01*
X224821789Y-102110289D01*
X224909394Y-101979179D01*
X224969737Y-101833497D01*
X225000500Y-101678842D01*
X225000500Y-101521158D01*
X225000500Y-101521155D01*
X225000499Y-101521153D01*
X224969738Y-101366510D01*
X224969737Y-101366503D01*
X224969735Y-101366498D01*
X224909397Y-101220827D01*
X224909390Y-101220814D01*
X224821789Y-101089711D01*
X224821786Y-101089707D01*
X224710292Y-100978213D01*
X224710288Y-100978210D01*
X224579185Y-100890609D01*
X224579172Y-100890602D01*
X224433501Y-100830264D01*
X224433489Y-100830261D01*
X224278845Y-100799500D01*
X224278842Y-100799500D01*
X224121158Y-100799500D01*
X224121155Y-100799500D01*
X223966510Y-100830261D01*
X223966498Y-100830264D01*
X223820827Y-100890602D01*
X223820814Y-100890609D01*
X223689711Y-100978210D01*
X223689707Y-100978213D01*
X223578213Y-101089707D01*
X223578210Y-101089711D01*
X223490609Y-101220814D01*
X223490602Y-101220827D01*
X223430264Y-101366498D01*
X223430261Y-101366510D01*
X223399500Y-101521153D01*
X198176008Y-101521153D01*
X198173032Y-101089707D01*
X198164973Y-99921153D01*
X236599500Y-99921153D01*
X236599500Y-100078846D01*
X236630261Y-100233489D01*
X236630264Y-100233501D01*
X236690602Y-100379172D01*
X236690609Y-100379185D01*
X236778210Y-100510288D01*
X236778213Y-100510292D01*
X236889707Y-100621786D01*
X236889711Y-100621789D01*
X237020814Y-100709390D01*
X237020827Y-100709397D01*
X237166498Y-100769735D01*
X237166503Y-100769737D01*
X237316131Y-100799500D01*
X237321153Y-100800499D01*
X237321156Y-100800500D01*
X237321158Y-100800500D01*
X237478844Y-100800500D01*
X237478845Y-100800499D01*
X237633497Y-100769737D01*
X237779179Y-100709394D01*
X237910289Y-100621789D01*
X238021789Y-100510289D01*
X238109394Y-100379179D01*
X238169737Y-100233497D01*
X238200500Y-100078842D01*
X238200500Y-99921158D01*
X238200500Y-99921155D01*
X238200499Y-99921153D01*
X238169738Y-99766510D01*
X238169737Y-99766503D01*
X238169735Y-99766498D01*
X238109397Y-99620827D01*
X238109390Y-99620814D01*
X238021789Y-99489711D01*
X238021786Y-99489707D01*
X237910292Y-99378213D01*
X237910288Y-99378210D01*
X237779185Y-99290609D01*
X237779172Y-99290602D01*
X237633501Y-99230264D01*
X237633489Y-99230261D01*
X237478845Y-99199500D01*
X237478842Y-99199500D01*
X237321158Y-99199500D01*
X237321155Y-99199500D01*
X237166510Y-99230261D01*
X237166498Y-99230264D01*
X237020827Y-99290602D01*
X237020814Y-99290609D01*
X236889711Y-99378210D01*
X236889707Y-99378213D01*
X236778213Y-99489707D01*
X236778210Y-99489711D01*
X236690609Y-99620814D01*
X236690602Y-99620827D01*
X236630264Y-99766498D01*
X236630261Y-99766510D01*
X236599500Y-99921153D01*
X198164973Y-99921153D01*
X198151180Y-97921153D01*
X207199500Y-97921153D01*
X207199500Y-98078846D01*
X207230261Y-98233489D01*
X207230264Y-98233501D01*
X207290602Y-98379172D01*
X207290609Y-98379185D01*
X207378210Y-98510288D01*
X207378213Y-98510292D01*
X207489707Y-98621786D01*
X207489711Y-98621789D01*
X207620814Y-98709390D01*
X207620827Y-98709397D01*
X207766498Y-98769735D01*
X207766503Y-98769737D01*
X207921153Y-98800499D01*
X207921156Y-98800500D01*
X207921158Y-98800500D01*
X208078844Y-98800500D01*
X208078845Y-98800499D01*
X208233497Y-98769737D01*
X208379179Y-98709394D01*
X208431110Y-98674694D01*
X208497785Y-98653816D01*
X208565165Y-98672300D01*
X208568863Y-98674676D01*
X208620821Y-98709394D01*
X208620823Y-98709395D01*
X208620825Y-98709396D01*
X208766498Y-98769735D01*
X208766503Y-98769737D01*
X208921153Y-98800499D01*
X208921156Y-98800500D01*
X208921158Y-98800500D01*
X209078844Y-98800500D01*
X209078845Y-98800499D01*
X209233497Y-98769737D01*
X209379179Y-98709394D01*
X209431110Y-98674694D01*
X209497785Y-98653816D01*
X209565165Y-98672300D01*
X209568863Y-98674676D01*
X209620821Y-98709394D01*
X209620823Y-98709395D01*
X209620825Y-98709396D01*
X209766498Y-98769735D01*
X209766503Y-98769737D01*
X209921153Y-98800499D01*
X209921156Y-98800500D01*
X209921158Y-98800500D01*
X210078844Y-98800500D01*
X210078845Y-98800499D01*
X210233497Y-98769737D01*
X210379179Y-98709394D01*
X210431110Y-98674694D01*
X210497785Y-98653816D01*
X210565165Y-98672300D01*
X210568863Y-98674676D01*
X210620821Y-98709394D01*
X210620823Y-98709395D01*
X210620825Y-98709396D01*
X210766498Y-98769735D01*
X210766503Y-98769737D01*
X210921153Y-98800499D01*
X210921156Y-98800500D01*
X210921158Y-98800500D01*
X211078844Y-98800500D01*
X211078845Y-98800499D01*
X211233497Y-98769737D01*
X211379179Y-98709394D01*
X211431110Y-98674694D01*
X211497785Y-98653816D01*
X211565165Y-98672300D01*
X211568863Y-98674676D01*
X211620821Y-98709394D01*
X211620823Y-98709395D01*
X211620825Y-98709396D01*
X211766498Y-98769735D01*
X211766503Y-98769737D01*
X211921153Y-98800499D01*
X211921156Y-98800500D01*
X211921158Y-98800500D01*
X212078844Y-98800500D01*
X212078845Y-98800499D01*
X212233497Y-98769737D01*
X212379179Y-98709394D01*
X212431110Y-98674694D01*
X212497785Y-98653816D01*
X212565165Y-98672300D01*
X212568863Y-98674676D01*
X212620821Y-98709394D01*
X212620823Y-98709395D01*
X212620825Y-98709396D01*
X212766498Y-98769735D01*
X212766503Y-98769737D01*
X212921153Y-98800499D01*
X212921156Y-98800500D01*
X212921158Y-98800500D01*
X213078844Y-98800500D01*
X213078845Y-98800499D01*
X213233497Y-98769737D01*
X213379179Y-98709394D01*
X213431110Y-98674694D01*
X213497785Y-98653816D01*
X213565165Y-98672300D01*
X213568863Y-98674676D01*
X213620821Y-98709394D01*
X213620823Y-98709395D01*
X213620825Y-98709396D01*
X213766498Y-98769735D01*
X213766503Y-98769737D01*
X213921153Y-98800499D01*
X213921156Y-98800500D01*
X213921158Y-98800500D01*
X214078844Y-98800500D01*
X214078845Y-98800499D01*
X214233497Y-98769737D01*
X214379179Y-98709394D01*
X214510289Y-98621789D01*
X214621789Y-98510289D01*
X214709394Y-98379179D01*
X214769737Y-98233497D01*
X214800500Y-98078842D01*
X214800500Y-97921158D01*
X214800500Y-97921155D01*
X214800499Y-97921153D01*
X217299500Y-97921153D01*
X217299500Y-98078846D01*
X217330261Y-98233489D01*
X217330264Y-98233501D01*
X217390602Y-98379172D01*
X217390609Y-98379185D01*
X217478210Y-98510288D01*
X217478213Y-98510292D01*
X217589707Y-98621786D01*
X217589711Y-98621789D01*
X217720814Y-98709390D01*
X217720827Y-98709397D01*
X217866498Y-98769735D01*
X217866503Y-98769737D01*
X218021153Y-98800499D01*
X218021156Y-98800500D01*
X218021158Y-98800500D01*
X218178844Y-98800500D01*
X218178845Y-98800499D01*
X218333497Y-98769737D01*
X218479179Y-98709394D01*
X218481110Y-98708103D01*
X218482276Y-98707737D01*
X218484546Y-98706525D01*
X218484776Y-98706955D01*
X218547786Y-98687226D01*
X218615166Y-98705710D01*
X218618850Y-98708077D01*
X218620821Y-98709394D01*
X218620824Y-98709395D01*
X218620827Y-98709397D01*
X218766498Y-98769735D01*
X218766503Y-98769737D01*
X218921153Y-98800499D01*
X218921156Y-98800500D01*
X218921158Y-98800500D01*
X219078844Y-98800500D01*
X219078845Y-98800499D01*
X219233497Y-98769737D01*
X219379179Y-98709394D01*
X219510289Y-98621789D01*
X219621789Y-98510289D01*
X219709394Y-98379179D01*
X219769737Y-98233497D01*
X219800500Y-98078842D01*
X219800500Y-97921158D01*
X219800500Y-97921155D01*
X219800499Y-97921153D01*
X227199500Y-97921153D01*
X227199500Y-98078846D01*
X227230261Y-98233489D01*
X227230264Y-98233501D01*
X227290602Y-98379172D01*
X227290609Y-98379185D01*
X227378210Y-98510288D01*
X227378213Y-98510292D01*
X227489707Y-98621786D01*
X227489711Y-98621789D01*
X227620814Y-98709390D01*
X227620827Y-98709397D01*
X227766498Y-98769735D01*
X227766503Y-98769737D01*
X227921153Y-98800499D01*
X227921156Y-98800500D01*
X227921158Y-98800500D01*
X228078844Y-98800500D01*
X228078845Y-98800499D01*
X228233497Y-98769737D01*
X228379179Y-98709394D01*
X228431110Y-98674694D01*
X228497785Y-98653816D01*
X228565165Y-98672300D01*
X228568863Y-98674676D01*
X228620821Y-98709394D01*
X228620823Y-98709395D01*
X228620825Y-98709396D01*
X228766498Y-98769735D01*
X228766503Y-98769737D01*
X228921153Y-98800499D01*
X228921156Y-98800500D01*
X228921158Y-98800500D01*
X229078844Y-98800500D01*
X229078845Y-98800499D01*
X229233497Y-98769737D01*
X229379179Y-98709394D01*
X229431110Y-98674694D01*
X229497785Y-98653816D01*
X229565165Y-98672300D01*
X229568863Y-98674676D01*
X229620821Y-98709394D01*
X229620823Y-98709395D01*
X229620825Y-98709396D01*
X229766498Y-98769735D01*
X229766503Y-98769737D01*
X229921153Y-98800499D01*
X229921156Y-98800500D01*
X229921158Y-98800500D01*
X230078844Y-98800500D01*
X230078845Y-98800499D01*
X230233497Y-98769737D01*
X230379179Y-98709394D01*
X230431110Y-98674694D01*
X230497785Y-98653816D01*
X230565165Y-98672300D01*
X230568863Y-98674676D01*
X230620821Y-98709394D01*
X230620823Y-98709395D01*
X230620825Y-98709396D01*
X230766498Y-98769735D01*
X230766503Y-98769737D01*
X230921153Y-98800499D01*
X230921156Y-98800500D01*
X230921158Y-98800500D01*
X231078844Y-98800500D01*
X231078845Y-98800499D01*
X231233497Y-98769737D01*
X231379179Y-98709394D01*
X231381110Y-98708103D01*
X231382276Y-98707737D01*
X231384546Y-98706525D01*
X231384776Y-98706955D01*
X231447786Y-98687226D01*
X231515166Y-98705710D01*
X231518850Y-98708077D01*
X231520821Y-98709394D01*
X231520824Y-98709395D01*
X231520827Y-98709397D01*
X231666498Y-98769735D01*
X231666503Y-98769737D01*
X231821153Y-98800499D01*
X231821156Y-98800500D01*
X231821158Y-98800500D01*
X231978844Y-98800500D01*
X231978845Y-98800499D01*
X232133497Y-98769737D01*
X232279179Y-98709394D01*
X232331110Y-98674694D01*
X232397785Y-98653816D01*
X232465165Y-98672300D01*
X232468863Y-98674676D01*
X232520821Y-98709394D01*
X232520823Y-98709395D01*
X232520825Y-98709396D01*
X232666498Y-98769735D01*
X232666503Y-98769737D01*
X232821153Y-98800499D01*
X232821156Y-98800500D01*
X232821158Y-98800500D01*
X232978844Y-98800500D01*
X232978845Y-98800499D01*
X233133497Y-98769737D01*
X233279179Y-98709394D01*
X233281110Y-98708103D01*
X233282276Y-98707737D01*
X233284546Y-98706525D01*
X233284776Y-98706955D01*
X233347786Y-98687226D01*
X233415166Y-98705710D01*
X233418850Y-98708077D01*
X233420821Y-98709394D01*
X233420824Y-98709395D01*
X233420827Y-98709397D01*
X233566498Y-98769735D01*
X233566503Y-98769737D01*
X233721153Y-98800499D01*
X233721156Y-98800500D01*
X233721158Y-98800500D01*
X233878844Y-98800500D01*
X233878845Y-98800499D01*
X234033497Y-98769737D01*
X234179179Y-98709394D01*
X234310289Y-98621789D01*
X234421789Y-98510289D01*
X234509394Y-98379179D01*
X234569737Y-98233497D01*
X234600500Y-98078842D01*
X234600500Y-97921158D01*
X234600500Y-97921155D01*
X234600499Y-97921153D01*
X234569738Y-97766510D01*
X234569737Y-97766503D01*
X234569735Y-97766498D01*
X234509397Y-97620827D01*
X234509390Y-97620814D01*
X234421789Y-97489711D01*
X234421786Y-97489707D01*
X234310292Y-97378213D01*
X234310288Y-97378210D01*
X234179185Y-97290609D01*
X234179172Y-97290602D01*
X234033501Y-97230264D01*
X234033489Y-97230261D01*
X233878845Y-97199500D01*
X233878842Y-97199500D01*
X233721158Y-97199500D01*
X233721155Y-97199500D01*
X233566510Y-97230261D01*
X233566498Y-97230264D01*
X233420822Y-97290604D01*
X233420820Y-97290605D01*
X233418885Y-97291899D01*
X233417717Y-97292264D01*
X233415451Y-97293476D01*
X233415221Y-97293045D01*
X233352206Y-97312773D01*
X233284827Y-97294285D01*
X233281115Y-97291899D01*
X233279179Y-97290605D01*
X233279177Y-97290604D01*
X233133501Y-97230264D01*
X233133489Y-97230261D01*
X232978845Y-97199500D01*
X232978842Y-97199500D01*
X232821158Y-97199500D01*
X232821155Y-97199500D01*
X232666510Y-97230261D01*
X232666498Y-97230264D01*
X232520827Y-97290602D01*
X232520814Y-97290609D01*
X232468891Y-97325304D01*
X232402214Y-97346182D01*
X232334833Y-97327698D01*
X232331109Y-97325304D01*
X232279185Y-97290609D01*
X232279172Y-97290602D01*
X232133501Y-97230264D01*
X232133489Y-97230261D01*
X231978845Y-97199500D01*
X231978842Y-97199500D01*
X231821158Y-97199500D01*
X231821155Y-97199500D01*
X231666510Y-97230261D01*
X231666498Y-97230264D01*
X231520822Y-97290604D01*
X231520820Y-97290605D01*
X231518885Y-97291899D01*
X231517717Y-97292264D01*
X231515451Y-97293476D01*
X231515221Y-97293045D01*
X231452206Y-97312773D01*
X231384827Y-97294285D01*
X231381115Y-97291899D01*
X231379179Y-97290605D01*
X231379177Y-97290604D01*
X231233501Y-97230264D01*
X231233489Y-97230261D01*
X231078845Y-97199500D01*
X231078842Y-97199500D01*
X230921158Y-97199500D01*
X230921155Y-97199500D01*
X230766510Y-97230261D01*
X230766498Y-97230264D01*
X230620827Y-97290602D01*
X230620814Y-97290609D01*
X230568891Y-97325304D01*
X230502214Y-97346182D01*
X230434833Y-97327698D01*
X230431109Y-97325304D01*
X230379185Y-97290609D01*
X230379172Y-97290602D01*
X230233501Y-97230264D01*
X230233489Y-97230261D01*
X230078845Y-97199500D01*
X230078842Y-97199500D01*
X229921158Y-97199500D01*
X229921155Y-97199500D01*
X229766510Y-97230261D01*
X229766498Y-97230264D01*
X229620827Y-97290602D01*
X229620814Y-97290609D01*
X229568891Y-97325304D01*
X229502214Y-97346182D01*
X229434833Y-97327698D01*
X229431109Y-97325304D01*
X229379185Y-97290609D01*
X229379172Y-97290602D01*
X229233501Y-97230264D01*
X229233489Y-97230261D01*
X229078845Y-97199500D01*
X229078842Y-97199500D01*
X228921158Y-97199500D01*
X228921155Y-97199500D01*
X228766510Y-97230261D01*
X228766498Y-97230264D01*
X228620827Y-97290602D01*
X228620814Y-97290609D01*
X228568891Y-97325304D01*
X228502214Y-97346182D01*
X228434833Y-97327698D01*
X228431109Y-97325304D01*
X228379185Y-97290609D01*
X228379172Y-97290602D01*
X228233501Y-97230264D01*
X228233489Y-97230261D01*
X228078845Y-97199500D01*
X228078842Y-97199500D01*
X227921158Y-97199500D01*
X227921155Y-97199500D01*
X227766510Y-97230261D01*
X227766498Y-97230264D01*
X227620827Y-97290602D01*
X227620814Y-97290609D01*
X227489711Y-97378210D01*
X227489707Y-97378213D01*
X227378213Y-97489707D01*
X227378210Y-97489711D01*
X227290609Y-97620814D01*
X227290602Y-97620827D01*
X227230264Y-97766498D01*
X227230261Y-97766510D01*
X227199500Y-97921153D01*
X219800499Y-97921153D01*
X219769738Y-97766510D01*
X219769737Y-97766503D01*
X219769735Y-97766498D01*
X219709397Y-97620827D01*
X219709390Y-97620814D01*
X219621789Y-97489711D01*
X219621786Y-97489707D01*
X219510292Y-97378213D01*
X219510288Y-97378210D01*
X219379185Y-97290609D01*
X219379172Y-97290602D01*
X219233501Y-97230264D01*
X219233489Y-97230261D01*
X219078845Y-97199500D01*
X219078842Y-97199500D01*
X218921158Y-97199500D01*
X218921155Y-97199500D01*
X218766510Y-97230261D01*
X218766498Y-97230264D01*
X218620822Y-97290604D01*
X218620820Y-97290605D01*
X218618885Y-97291899D01*
X218617717Y-97292264D01*
X218615451Y-97293476D01*
X218615221Y-97293045D01*
X218552206Y-97312773D01*
X218484827Y-97294285D01*
X218481115Y-97291899D01*
X218479179Y-97290605D01*
X218479177Y-97290604D01*
X218333501Y-97230264D01*
X218333489Y-97230261D01*
X218178845Y-97199500D01*
X218178842Y-97199500D01*
X218021158Y-97199500D01*
X218021155Y-97199500D01*
X217866510Y-97230261D01*
X217866498Y-97230264D01*
X217720827Y-97290602D01*
X217720814Y-97290609D01*
X217589711Y-97378210D01*
X217589707Y-97378213D01*
X217478213Y-97489707D01*
X217478210Y-97489711D01*
X217390609Y-97620814D01*
X217390602Y-97620827D01*
X217330264Y-97766498D01*
X217330261Y-97766510D01*
X217299500Y-97921153D01*
X214800499Y-97921153D01*
X214769738Y-97766510D01*
X214769737Y-97766503D01*
X214769735Y-97766498D01*
X214709397Y-97620827D01*
X214709390Y-97620814D01*
X214621789Y-97489711D01*
X214621786Y-97489707D01*
X214510292Y-97378213D01*
X214510288Y-97378210D01*
X214379185Y-97290609D01*
X214379172Y-97290602D01*
X214233501Y-97230264D01*
X214233489Y-97230261D01*
X214078845Y-97199500D01*
X214078842Y-97199500D01*
X213921158Y-97199500D01*
X213921155Y-97199500D01*
X213766510Y-97230261D01*
X213766498Y-97230264D01*
X213620827Y-97290602D01*
X213620814Y-97290609D01*
X213568891Y-97325304D01*
X213502214Y-97346182D01*
X213434833Y-97327698D01*
X213431109Y-97325304D01*
X213379185Y-97290609D01*
X213379172Y-97290602D01*
X213233501Y-97230264D01*
X213233489Y-97230261D01*
X213078845Y-97199500D01*
X213078842Y-97199500D01*
X212921158Y-97199500D01*
X212921155Y-97199500D01*
X212766510Y-97230261D01*
X212766498Y-97230264D01*
X212620827Y-97290602D01*
X212620814Y-97290609D01*
X212568891Y-97325304D01*
X212502214Y-97346182D01*
X212434833Y-97327698D01*
X212431109Y-97325304D01*
X212379185Y-97290609D01*
X212379172Y-97290602D01*
X212233501Y-97230264D01*
X212233489Y-97230261D01*
X212078845Y-97199500D01*
X212078842Y-97199500D01*
X211921158Y-97199500D01*
X211921155Y-97199500D01*
X211766510Y-97230261D01*
X211766498Y-97230264D01*
X211620827Y-97290602D01*
X211620814Y-97290609D01*
X211568891Y-97325304D01*
X211502214Y-97346182D01*
X211434833Y-97327698D01*
X211431109Y-97325304D01*
X211379185Y-97290609D01*
X211379172Y-97290602D01*
X211233501Y-97230264D01*
X211233489Y-97230261D01*
X211078845Y-97199500D01*
X211078842Y-97199500D01*
X210921158Y-97199500D01*
X210921155Y-97199500D01*
X210766510Y-97230261D01*
X210766498Y-97230264D01*
X210620827Y-97290602D01*
X210620814Y-97290609D01*
X210568891Y-97325304D01*
X210502214Y-97346182D01*
X210434833Y-97327698D01*
X210431109Y-97325304D01*
X210379185Y-97290609D01*
X210379172Y-97290602D01*
X210233501Y-97230264D01*
X210233489Y-97230261D01*
X210078845Y-97199500D01*
X210078842Y-97199500D01*
X209921158Y-97199500D01*
X209921155Y-97199500D01*
X209766510Y-97230261D01*
X209766498Y-97230264D01*
X209620827Y-97290602D01*
X209620814Y-97290609D01*
X209568891Y-97325304D01*
X209502214Y-97346182D01*
X209434833Y-97327698D01*
X209431109Y-97325304D01*
X209379185Y-97290609D01*
X209379172Y-97290602D01*
X209233501Y-97230264D01*
X209233489Y-97230261D01*
X209078845Y-97199500D01*
X209078842Y-97199500D01*
X208921158Y-97199500D01*
X208921155Y-97199500D01*
X208766510Y-97230261D01*
X208766498Y-97230264D01*
X208620827Y-97290602D01*
X208620814Y-97290609D01*
X208568891Y-97325304D01*
X208502214Y-97346182D01*
X208434833Y-97327698D01*
X208431109Y-97325304D01*
X208379185Y-97290609D01*
X208379172Y-97290602D01*
X208233501Y-97230264D01*
X208233489Y-97230261D01*
X208078845Y-97199500D01*
X208078842Y-97199500D01*
X207921158Y-97199500D01*
X207921155Y-97199500D01*
X207766510Y-97230261D01*
X207766498Y-97230264D01*
X207620827Y-97290602D01*
X207620814Y-97290609D01*
X207489711Y-97378210D01*
X207489707Y-97378213D01*
X207378213Y-97489707D01*
X207378210Y-97489711D01*
X207290609Y-97620814D01*
X207290602Y-97620827D01*
X207230264Y-97766498D01*
X207230261Y-97766510D01*
X207199500Y-97921153D01*
X198151180Y-97921153D01*
X198140231Y-96333489D01*
X198138077Y-96021153D01*
X229099500Y-96021153D01*
X229099500Y-96178846D01*
X229130261Y-96333489D01*
X229130264Y-96333501D01*
X229190602Y-96479172D01*
X229190609Y-96479185D01*
X229278210Y-96610288D01*
X229278213Y-96610292D01*
X229389707Y-96721786D01*
X229389711Y-96721789D01*
X229520814Y-96809390D01*
X229520827Y-96809397D01*
X229666498Y-96869735D01*
X229666503Y-96869737D01*
X229821153Y-96900499D01*
X229821156Y-96900500D01*
X229821158Y-96900500D01*
X229978844Y-96900500D01*
X229978845Y-96900499D01*
X230133497Y-96869737D01*
X230279179Y-96809394D01*
X230410289Y-96721789D01*
X230521789Y-96610289D01*
X230609394Y-96479179D01*
X230669737Y-96333497D01*
X230700500Y-96178842D01*
X230700500Y-96021158D01*
X230700500Y-96021155D01*
X230700499Y-96021153D01*
X230669738Y-95866510D01*
X230669737Y-95866503D01*
X230669735Y-95866498D01*
X230609397Y-95720827D01*
X230609390Y-95720814D01*
X230521789Y-95589711D01*
X230521786Y-95589707D01*
X230410292Y-95478213D01*
X230410288Y-95478210D01*
X230279185Y-95390609D01*
X230279172Y-95390602D01*
X230133501Y-95330264D01*
X230133489Y-95330261D01*
X229978845Y-95299500D01*
X229978842Y-95299500D01*
X229821158Y-95299500D01*
X229821155Y-95299500D01*
X229666510Y-95330261D01*
X229666498Y-95330264D01*
X229520827Y-95390602D01*
X229520814Y-95390609D01*
X229389711Y-95478210D01*
X229389707Y-95478213D01*
X229278213Y-95589707D01*
X229278210Y-95589711D01*
X229190609Y-95720814D01*
X229190602Y-95720827D01*
X229130264Y-95866498D01*
X229130261Y-95866510D01*
X229099500Y-96021153D01*
X198138077Y-96021153D01*
X198138041Y-96015921D01*
X198103594Y-91021153D01*
X212899500Y-91021153D01*
X212899500Y-91178846D01*
X212930261Y-91333489D01*
X212930264Y-91333501D01*
X212990602Y-91479172D01*
X212990609Y-91479185D01*
X213025304Y-91531109D01*
X213046182Y-91597786D01*
X213027698Y-91665167D01*
X213025304Y-91668891D01*
X212990609Y-91720814D01*
X212990602Y-91720827D01*
X212930264Y-91866498D01*
X212930261Y-91866510D01*
X212899500Y-92021153D01*
X212899500Y-92178846D01*
X212930261Y-92333489D01*
X212930264Y-92333501D01*
X212990602Y-92479172D01*
X212990609Y-92479185D01*
X213078210Y-92610288D01*
X213078213Y-92610292D01*
X213189707Y-92721786D01*
X213189711Y-92721789D01*
X213320814Y-92809390D01*
X213320827Y-92809397D01*
X213466498Y-92869735D01*
X213466503Y-92869737D01*
X213621153Y-92900499D01*
X213621156Y-92900500D01*
X213621158Y-92900500D01*
X213778844Y-92900500D01*
X213778845Y-92900499D01*
X213933497Y-92869737D01*
X214079179Y-92809394D01*
X214210289Y-92721789D01*
X214321789Y-92610289D01*
X214409394Y-92479179D01*
X214469737Y-92333497D01*
X214500500Y-92178842D01*
X214500500Y-92021158D01*
X214500500Y-92021155D01*
X214500499Y-92021153D01*
X214469738Y-91866510D01*
X214469737Y-91866503D01*
X214469735Y-91866498D01*
X214409396Y-91720825D01*
X214409394Y-91720822D01*
X214409394Y-91720821D01*
X214374694Y-91668889D01*
X214353816Y-91602215D01*
X214372300Y-91534835D01*
X214374676Y-91531136D01*
X214409394Y-91479179D01*
X214469737Y-91333497D01*
X214500500Y-91178842D01*
X214500500Y-91021158D01*
X214500500Y-91021155D01*
X214500499Y-91021153D01*
X214469738Y-90866510D01*
X214469737Y-90866503D01*
X214469735Y-90866498D01*
X214409397Y-90720827D01*
X214409390Y-90720814D01*
X214321789Y-90589711D01*
X214321786Y-90589707D01*
X214210292Y-90478213D01*
X214210288Y-90478210D01*
X214079185Y-90390609D01*
X214079172Y-90390602D01*
X213933501Y-90330264D01*
X213933489Y-90330261D01*
X213778845Y-90299500D01*
X213778842Y-90299500D01*
X213621158Y-90299500D01*
X213621155Y-90299500D01*
X213466510Y-90330261D01*
X213466498Y-90330264D01*
X213320827Y-90390602D01*
X213320814Y-90390609D01*
X213189711Y-90478210D01*
X213189707Y-90478213D01*
X213078213Y-90589707D01*
X213078210Y-90589711D01*
X212990609Y-90720814D01*
X212990602Y-90720827D01*
X212930264Y-90866498D01*
X212930261Y-90866510D01*
X212899500Y-91021153D01*
X198103594Y-91021153D01*
X198102528Y-90866510D01*
X198069112Y-86021153D01*
X201399500Y-86021153D01*
X201399500Y-86178846D01*
X201430261Y-86333489D01*
X201430264Y-86333501D01*
X201490602Y-86479172D01*
X201490609Y-86479185D01*
X201578210Y-86610288D01*
X201578213Y-86610292D01*
X201689707Y-86721786D01*
X201689711Y-86721789D01*
X201820814Y-86809390D01*
X201820827Y-86809397D01*
X201966498Y-86869735D01*
X201966503Y-86869737D01*
X202121153Y-86900499D01*
X202121156Y-86900500D01*
X202121158Y-86900500D01*
X202278844Y-86900500D01*
X202278845Y-86900499D01*
X202433497Y-86869737D01*
X202579179Y-86809394D01*
X202710289Y-86721789D01*
X202821789Y-86610289D01*
X202909394Y-86479179D01*
X202969737Y-86333497D01*
X203000500Y-86178842D01*
X203000500Y-86021158D01*
X203000500Y-86021155D01*
X203000499Y-86021153D01*
X202969738Y-85866510D01*
X202969737Y-85866503D01*
X202969735Y-85866498D01*
X202909397Y-85720827D01*
X202909390Y-85720814D01*
X202821789Y-85589711D01*
X202821786Y-85589707D01*
X202710292Y-85478213D01*
X202710288Y-85478210D01*
X202579185Y-85390609D01*
X202579172Y-85390602D01*
X202433501Y-85330264D01*
X202433489Y-85330261D01*
X202278845Y-85299500D01*
X202278842Y-85299500D01*
X202121158Y-85299500D01*
X202121155Y-85299500D01*
X201966510Y-85330261D01*
X201966498Y-85330264D01*
X201820827Y-85390602D01*
X201820814Y-85390609D01*
X201689711Y-85478210D01*
X201689707Y-85478213D01*
X201578213Y-85589707D01*
X201578210Y-85589711D01*
X201490609Y-85720814D01*
X201490602Y-85720827D01*
X201430264Y-85866498D01*
X201430261Y-85866510D01*
X201399500Y-86021153D01*
X198069112Y-86021153D01*
X198040836Y-81921153D01*
X216699500Y-81921153D01*
X216699500Y-82078846D01*
X216730261Y-82233489D01*
X216730264Y-82233501D01*
X216790602Y-82379172D01*
X216790609Y-82379185D01*
X216878210Y-82510288D01*
X216878213Y-82510292D01*
X216989707Y-82621786D01*
X216989710Y-82621788D01*
X216989711Y-82621789D01*
X217015219Y-82638833D01*
X217027289Y-82646898D01*
X217072093Y-82700511D01*
X217080800Y-82769836D01*
X217050645Y-82832863D01*
X217027289Y-82853102D01*
X216989707Y-82878213D01*
X216878213Y-82989707D01*
X216878210Y-82989711D01*
X216790609Y-83120814D01*
X216790602Y-83120827D01*
X216730264Y-83266498D01*
X216730261Y-83266510D01*
X216699500Y-83421153D01*
X216699500Y-83578846D01*
X216730261Y-83733489D01*
X216730264Y-83733501D01*
X216790602Y-83879172D01*
X216790609Y-83879185D01*
X216878210Y-84010288D01*
X216878213Y-84010292D01*
X216905240Y-84037319D01*
X216938725Y-84098642D01*
X216933741Y-84168334D01*
X216905240Y-84212681D01*
X216878213Y-84239707D01*
X216878210Y-84239711D01*
X216790609Y-84370814D01*
X216790602Y-84370827D01*
X216730264Y-84516498D01*
X216730261Y-84516510D01*
X216699500Y-84671153D01*
X216699500Y-84828846D01*
X216730261Y-84983489D01*
X216730264Y-84983501D01*
X216790602Y-85129172D01*
X216790609Y-85129185D01*
X216878210Y-85260288D01*
X216878213Y-85260292D01*
X216989707Y-85371786D01*
X216989711Y-85371789D01*
X217120814Y-85459390D01*
X217120827Y-85459397D01*
X217166254Y-85478213D01*
X217266503Y-85519737D01*
X217421153Y-85550499D01*
X217421156Y-85550500D01*
X217421158Y-85550500D01*
X217578844Y-85550500D01*
X217578845Y-85550499D01*
X217733497Y-85519737D01*
X217879179Y-85459394D01*
X218010289Y-85371789D01*
X218121789Y-85260289D01*
X218129145Y-85249279D01*
X218146898Y-85222712D01*
X218200510Y-85177906D01*
X218269835Y-85169199D01*
X218332862Y-85199353D01*
X218353102Y-85222712D01*
X218378207Y-85260284D01*
X218378213Y-85260292D01*
X218489707Y-85371786D01*
X218489711Y-85371789D01*
X218620814Y-85459390D01*
X218620827Y-85459397D01*
X218666254Y-85478213D01*
X218766503Y-85519737D01*
X218921153Y-85550499D01*
X218921156Y-85550500D01*
X218921158Y-85550500D01*
X219078844Y-85550500D01*
X219078845Y-85550499D01*
X219233497Y-85519737D01*
X219379179Y-85459394D01*
X219510289Y-85371789D01*
X219621789Y-85260289D01*
X219629145Y-85249279D01*
X219646898Y-85222712D01*
X219700510Y-85177906D01*
X219769835Y-85169199D01*
X219832862Y-85199353D01*
X219853102Y-85222712D01*
X219878207Y-85260284D01*
X219878213Y-85260292D01*
X219989707Y-85371786D01*
X219989711Y-85371789D01*
X220120814Y-85459390D01*
X220120827Y-85459397D01*
X220166254Y-85478213D01*
X220266503Y-85519737D01*
X220421153Y-85550499D01*
X220421156Y-85550500D01*
X220421158Y-85550500D01*
X220578844Y-85550500D01*
X220578845Y-85550499D01*
X220733497Y-85519737D01*
X220879179Y-85459394D01*
X221010289Y-85371789D01*
X221121789Y-85260289D01*
X221209394Y-85129179D01*
X221269737Y-84983497D01*
X221300500Y-84828842D01*
X221300500Y-84671158D01*
X221300500Y-84671155D01*
X221300499Y-84671153D01*
X221269738Y-84516510D01*
X221269737Y-84516503D01*
X221250000Y-84468853D01*
X221209397Y-84370827D01*
X221209390Y-84370814D01*
X221121789Y-84239711D01*
X221121786Y-84239707D01*
X221094760Y-84212681D01*
X221061275Y-84151358D01*
X221066259Y-84081666D01*
X221094760Y-84037319D01*
X221121786Y-84010292D01*
X221121789Y-84010289D01*
X221209394Y-83879179D01*
X221269737Y-83733497D01*
X221300500Y-83578842D01*
X221300500Y-83421158D01*
X221300500Y-83421155D01*
X221300499Y-83421153D01*
X221269738Y-83266510D01*
X221269737Y-83266503D01*
X221250000Y-83218853D01*
X221209397Y-83120827D01*
X221209390Y-83120814D01*
X221121789Y-82989711D01*
X221121786Y-82989707D01*
X221010292Y-82878213D01*
X221010284Y-82878207D01*
X220972712Y-82853102D01*
X220927906Y-82799490D01*
X220919199Y-82730165D01*
X220949353Y-82667138D01*
X220972712Y-82646898D01*
X220999279Y-82629145D01*
X221010289Y-82621789D01*
X221121789Y-82510289D01*
X221209394Y-82379179D01*
X221269737Y-82233497D01*
X221300500Y-82078842D01*
X221300500Y-81921158D01*
X221300500Y-81921155D01*
X221300499Y-81921153D01*
X221269738Y-81766510D01*
X221269737Y-81766503D01*
X221241939Y-81699392D01*
X221209397Y-81620827D01*
X221209390Y-81620814D01*
X221121789Y-81489711D01*
X221121786Y-81489707D01*
X221010292Y-81378213D01*
X221010288Y-81378210D01*
X220879185Y-81290609D01*
X220879172Y-81290602D01*
X220733501Y-81230264D01*
X220733489Y-81230261D01*
X220578845Y-81199500D01*
X220578842Y-81199500D01*
X220421158Y-81199500D01*
X220421155Y-81199500D01*
X220266510Y-81230261D01*
X220266498Y-81230264D01*
X220120827Y-81290602D01*
X220120814Y-81290609D01*
X219989711Y-81378210D01*
X219989707Y-81378213D01*
X219878213Y-81489707D01*
X219853102Y-81527289D01*
X219799489Y-81572093D01*
X219730164Y-81580800D01*
X219667137Y-81550645D01*
X219646898Y-81527289D01*
X219621786Y-81489707D01*
X219510292Y-81378213D01*
X219510288Y-81378210D01*
X219379185Y-81290609D01*
X219379172Y-81290602D01*
X219233501Y-81230264D01*
X219233489Y-81230261D01*
X219078845Y-81199500D01*
X219078842Y-81199500D01*
X218921158Y-81199500D01*
X218921155Y-81199500D01*
X218766510Y-81230261D01*
X218766498Y-81230264D01*
X218620827Y-81290602D01*
X218620814Y-81290609D01*
X218489711Y-81378210D01*
X218489707Y-81378213D01*
X218378213Y-81489707D01*
X218353102Y-81527289D01*
X218299489Y-81572093D01*
X218230164Y-81580800D01*
X218167137Y-81550645D01*
X218146898Y-81527289D01*
X218121786Y-81489707D01*
X218010292Y-81378213D01*
X218010288Y-81378210D01*
X217879185Y-81290609D01*
X217879172Y-81290602D01*
X217733501Y-81230264D01*
X217733489Y-81230261D01*
X217578845Y-81199500D01*
X217578842Y-81199500D01*
X217421158Y-81199500D01*
X217421155Y-81199500D01*
X217266510Y-81230261D01*
X217266498Y-81230264D01*
X217120827Y-81290602D01*
X217120814Y-81290609D01*
X216989711Y-81378210D01*
X216989707Y-81378213D01*
X216878213Y-81489707D01*
X216878210Y-81489711D01*
X216790609Y-81620814D01*
X216790602Y-81620827D01*
X216730264Y-81766498D01*
X216730261Y-81766510D01*
X216699500Y-81921153D01*
X198040836Y-81921153D01*
X198019456Y-78821153D01*
X204099500Y-78821153D01*
X204099500Y-78978846D01*
X204130261Y-79133489D01*
X204130264Y-79133501D01*
X204190602Y-79279172D01*
X204190609Y-79279185D01*
X204278210Y-79410288D01*
X204278213Y-79410292D01*
X204389707Y-79521786D01*
X204389711Y-79521789D01*
X204520814Y-79609390D01*
X204520827Y-79609397D01*
X204666498Y-79669735D01*
X204666503Y-79669737D01*
X204821153Y-79700499D01*
X204821156Y-79700500D01*
X204821158Y-79700500D01*
X204978844Y-79700500D01*
X204978845Y-79700499D01*
X205133497Y-79669737D01*
X205279179Y-79609394D01*
X205410289Y-79521789D01*
X205521789Y-79410289D01*
X205609394Y-79279179D01*
X205669737Y-79133497D01*
X205700500Y-78978842D01*
X205700500Y-78821158D01*
X205700500Y-78821155D01*
X205700499Y-78821153D01*
X211999500Y-78821153D01*
X211999500Y-78978846D01*
X212030261Y-79133489D01*
X212030264Y-79133501D01*
X212090602Y-79279172D01*
X212090609Y-79279185D01*
X212178210Y-79410288D01*
X212178213Y-79410292D01*
X212289707Y-79521786D01*
X212289711Y-79521789D01*
X212420814Y-79609390D01*
X212420827Y-79609397D01*
X212566498Y-79669735D01*
X212566503Y-79669737D01*
X212721153Y-79700499D01*
X212721156Y-79700500D01*
X212721158Y-79700500D01*
X212878844Y-79700500D01*
X212878845Y-79700499D01*
X213033497Y-79669737D01*
X213179179Y-79609394D01*
X213310289Y-79521789D01*
X213421789Y-79410289D01*
X213509394Y-79279179D01*
X213569737Y-79133497D01*
X213600500Y-78978842D01*
X213600500Y-78821158D01*
X213600500Y-78821155D01*
X213600499Y-78821153D01*
X213584147Y-78738948D01*
X213569737Y-78666503D01*
X213569735Y-78666498D01*
X213509397Y-78520827D01*
X213509390Y-78520814D01*
X213421789Y-78389711D01*
X213421786Y-78389707D01*
X213310292Y-78278213D01*
X213310288Y-78278210D01*
X213179185Y-78190609D01*
X213179172Y-78190602D01*
X213033501Y-78130264D01*
X213033489Y-78130261D01*
X212878845Y-78099500D01*
X212878842Y-78099500D01*
X212721158Y-78099500D01*
X212721155Y-78099500D01*
X212566510Y-78130261D01*
X212566498Y-78130264D01*
X212420827Y-78190602D01*
X212420814Y-78190609D01*
X212289711Y-78278210D01*
X212289707Y-78278213D01*
X212178213Y-78389707D01*
X212178210Y-78389711D01*
X212090609Y-78520814D01*
X212090602Y-78520827D01*
X212030264Y-78666498D01*
X212030261Y-78666510D01*
X211999500Y-78821153D01*
X205700499Y-78821153D01*
X205684147Y-78738948D01*
X205669737Y-78666503D01*
X205669735Y-78666498D01*
X205609397Y-78520827D01*
X205609390Y-78520814D01*
X205521789Y-78389711D01*
X205521786Y-78389707D01*
X205410292Y-78278213D01*
X205410288Y-78278210D01*
X205279185Y-78190609D01*
X205279172Y-78190602D01*
X205133501Y-78130264D01*
X205133489Y-78130261D01*
X204978845Y-78099500D01*
X204978842Y-78099500D01*
X204821158Y-78099500D01*
X204821155Y-78099500D01*
X204666510Y-78130261D01*
X204666498Y-78130264D01*
X204520827Y-78190602D01*
X204520814Y-78190609D01*
X204389711Y-78278210D01*
X204389707Y-78278213D01*
X204278213Y-78389707D01*
X204278210Y-78389711D01*
X204190609Y-78520814D01*
X204190602Y-78520827D01*
X204130264Y-78666498D01*
X204130261Y-78666510D01*
X204099500Y-78821153D01*
X198019456Y-78821153D01*
X198000861Y-76124854D01*
X198020083Y-76057682D01*
X198072570Y-76011564D01*
X198124858Y-76000000D01*
X207713652Y-76000000D01*
X207780691Y-76019685D01*
G37*
%TD.AperFunction*%
%TD*%
%TA.AperFunction,Conductor*%
%TO.N,+5V*%
G36*
X201756746Y-119219685D02*
G01*
X201802501Y-119272489D01*
X201813702Y-119325023D01*
X201780848Y-123300497D01*
X201715752Y-131177025D01*
X201695514Y-131243899D01*
X201642334Y-131289216D01*
X201591756Y-131300000D01*
X185539765Y-131300000D01*
X185472726Y-131280315D01*
X185426971Y-131227511D01*
X185415769Y-131174975D01*
X185428363Y-129651153D01*
X186729500Y-129651153D01*
X186729500Y-129808846D01*
X186760261Y-129963489D01*
X186760264Y-129963501D01*
X186820602Y-130109172D01*
X186820609Y-130109185D01*
X186908210Y-130240288D01*
X186908213Y-130240292D01*
X187019707Y-130351786D01*
X187019711Y-130351789D01*
X187150814Y-130439390D01*
X187150827Y-130439397D01*
X187296498Y-130499735D01*
X187296503Y-130499737D01*
X187451153Y-130530499D01*
X187451156Y-130530500D01*
X187451158Y-130530500D01*
X188208844Y-130530500D01*
X188208845Y-130530499D01*
X188363497Y-130499737D01*
X188509179Y-130439394D01*
X188640289Y-130351789D01*
X188751789Y-130240289D01*
X188839394Y-130109179D01*
X188899737Y-129963497D01*
X188930500Y-129808842D01*
X188930500Y-129651158D01*
X188930500Y-129651155D01*
X188930499Y-129651153D01*
X190809500Y-129651153D01*
X190809500Y-129808846D01*
X190840261Y-129963489D01*
X190840264Y-129963501D01*
X190900602Y-130109172D01*
X190900609Y-130109185D01*
X190988210Y-130240288D01*
X190988213Y-130240292D01*
X191099707Y-130351786D01*
X191099711Y-130351789D01*
X191230814Y-130439390D01*
X191230827Y-130439397D01*
X191376498Y-130499735D01*
X191376503Y-130499737D01*
X191531153Y-130530499D01*
X191531156Y-130530500D01*
X191531158Y-130530500D01*
X192488844Y-130530500D01*
X192488845Y-130530499D01*
X192643497Y-130499737D01*
X192789179Y-130439394D01*
X192920289Y-130351789D01*
X193031789Y-130240289D01*
X193119394Y-130109179D01*
X193179737Y-129963497D01*
X193210500Y-129808842D01*
X193210500Y-129651158D01*
X193210500Y-129651155D01*
X193210499Y-129651153D01*
X193179738Y-129496510D01*
X193179737Y-129496503D01*
X193179735Y-129496498D01*
X193119397Y-129350827D01*
X193119390Y-129350814D01*
X193031789Y-129219711D01*
X193031786Y-129219707D01*
X192920292Y-129108213D01*
X192920288Y-129108210D01*
X192789185Y-129020609D01*
X192789172Y-129020602D01*
X192643501Y-128960264D01*
X192643489Y-128960261D01*
X192488845Y-128929500D01*
X192488842Y-128929500D01*
X191993742Y-128929500D01*
X191926703Y-128909815D01*
X191880948Y-128857011D01*
X191871004Y-128787853D01*
X191900029Y-128724297D01*
X191906061Y-128717819D01*
X191970515Y-128653365D01*
X192046281Y-128522135D01*
X192085500Y-128375766D01*
X192085500Y-128224234D01*
X192046281Y-128077865D01*
X191970515Y-127946635D01*
X191863365Y-127839485D01*
X191782302Y-127792683D01*
X191732136Y-127763719D01*
X191658950Y-127744109D01*
X191585766Y-127724500D01*
X191434234Y-127724500D01*
X191287863Y-127763719D01*
X191156635Y-127839485D01*
X191156632Y-127839487D01*
X191049487Y-127946632D01*
X191049485Y-127946635D01*
X190973719Y-128077863D01*
X190942819Y-128193186D01*
X190934500Y-128224234D01*
X190934500Y-128375766D01*
X190942953Y-128407313D01*
X190973719Y-128522136D01*
X190999270Y-128566391D01*
X191049485Y-128653365D01*
X191156635Y-128760515D01*
X191203986Y-128787853D01*
X191232987Y-128804597D01*
X191281203Y-128855164D01*
X191294425Y-128923771D01*
X191268457Y-128988636D01*
X191235339Y-129016403D01*
X191235886Y-129017221D01*
X191099711Y-129108210D01*
X191099707Y-129108213D01*
X190988213Y-129219707D01*
X190988210Y-129219711D01*
X190900609Y-129350814D01*
X190900602Y-129350827D01*
X190840264Y-129496498D01*
X190840261Y-129496510D01*
X190809500Y-129651153D01*
X188930499Y-129651153D01*
X188899738Y-129496510D01*
X188899737Y-129496503D01*
X188899735Y-129496498D01*
X188839397Y-129350827D01*
X188839390Y-129350814D01*
X188751789Y-129219711D01*
X188751786Y-129219707D01*
X188640292Y-129108213D01*
X188640288Y-129108210D01*
X188509185Y-129020609D01*
X188509172Y-129020602D01*
X188363501Y-128960264D01*
X188363489Y-128960261D01*
X188208845Y-128929500D01*
X188208842Y-128929500D01*
X187451158Y-128929500D01*
X187451155Y-128929500D01*
X187296510Y-128960261D01*
X187296498Y-128960264D01*
X187150827Y-129020602D01*
X187150814Y-129020609D01*
X187019711Y-129108210D01*
X187019707Y-129108213D01*
X186908213Y-129219707D01*
X186908210Y-129219711D01*
X186820609Y-129350814D01*
X186820602Y-129350827D01*
X186760264Y-129496498D01*
X186760261Y-129496510D01*
X186729500Y-129651153D01*
X185428363Y-129651153D01*
X185441727Y-128034108D01*
X187699500Y-128034108D01*
X187699500Y-128165891D01*
X187733608Y-128293187D01*
X187741766Y-128307316D01*
X187799500Y-128407314D01*
X187892686Y-128500500D01*
X188006814Y-128566392D01*
X188134108Y-128600500D01*
X188134110Y-128600500D01*
X188265890Y-128600500D01*
X188265892Y-128600500D01*
X188393186Y-128566392D01*
X188507314Y-128500500D01*
X188600500Y-128407314D01*
X188666392Y-128293186D01*
X188700500Y-128165892D01*
X188700500Y-128034108D01*
X188673705Y-127934108D01*
X189699500Y-127934108D01*
X189699500Y-128065891D01*
X189733608Y-128193187D01*
X189751535Y-128224236D01*
X189799500Y-128307314D01*
X189892686Y-128400500D01*
X190006814Y-128466392D01*
X190134108Y-128500500D01*
X190134110Y-128500500D01*
X190265890Y-128500500D01*
X190265892Y-128500500D01*
X190393186Y-128466392D01*
X190507314Y-128400500D01*
X190600500Y-128307314D01*
X190666392Y-128193186D01*
X190700500Y-128065892D01*
X190700500Y-127934108D01*
X190666392Y-127806814D01*
X190600500Y-127692686D01*
X190507314Y-127599500D01*
X190450250Y-127566554D01*
X190393187Y-127533608D01*
X190329539Y-127516554D01*
X190265892Y-127499500D01*
X190134108Y-127499500D01*
X190006812Y-127533608D01*
X189892686Y-127599500D01*
X189892683Y-127599502D01*
X189799502Y-127692683D01*
X189799500Y-127692686D01*
X189733608Y-127806812D01*
X189699500Y-127934108D01*
X188673705Y-127934108D01*
X188666392Y-127906814D01*
X188600500Y-127792686D01*
X188507314Y-127699500D01*
X188450250Y-127666554D01*
X188393187Y-127633608D01*
X188329539Y-127616554D01*
X188265892Y-127599500D01*
X188134108Y-127599500D01*
X188006812Y-127633608D01*
X187892686Y-127699500D01*
X187892683Y-127699502D01*
X187799502Y-127792683D01*
X187799500Y-127792686D01*
X187733608Y-127906812D01*
X187699500Y-128034108D01*
X185441727Y-128034108D01*
X185457073Y-126177168D01*
X185471479Y-124434108D01*
X194499500Y-124434108D01*
X194499500Y-124565891D01*
X194533608Y-124693187D01*
X194566554Y-124750250D01*
X194599500Y-124807314D01*
X194599502Y-124807316D01*
X194604505Y-124812319D01*
X194637990Y-124873642D01*
X194633006Y-124943334D01*
X194604505Y-124987681D01*
X194599502Y-124992683D01*
X194599500Y-124992686D01*
X194533608Y-125106812D01*
X194499500Y-125234108D01*
X194499500Y-125365891D01*
X194533608Y-125493187D01*
X194566554Y-125550250D01*
X194599500Y-125607314D01*
X194692686Y-125700500D01*
X194806814Y-125766392D01*
X194934108Y-125800500D01*
X194934110Y-125800500D01*
X195065890Y-125800500D01*
X195065892Y-125800500D01*
X195193186Y-125766392D01*
X195307314Y-125700500D01*
X195400500Y-125607314D01*
X195466392Y-125493186D01*
X195500500Y-125365892D01*
X195500500Y-125234108D01*
X195466392Y-125106814D01*
X195400500Y-124992686D01*
X195395495Y-124987681D01*
X195362010Y-124926358D01*
X195366994Y-124856666D01*
X195395495Y-124812319D01*
X195400500Y-124807314D01*
X195466392Y-124693186D01*
X195500500Y-124565892D01*
X195500500Y-124434108D01*
X195466392Y-124306814D01*
X195400500Y-124192686D01*
X195307314Y-124099500D01*
X195250250Y-124066554D01*
X195193187Y-124033608D01*
X195129539Y-124016554D01*
X195065892Y-123999500D01*
X194934108Y-123999500D01*
X194806812Y-124033608D01*
X194692686Y-124099500D01*
X194692683Y-124099502D01*
X194599502Y-124192683D01*
X194599500Y-124192686D01*
X194533608Y-124306812D01*
X194499500Y-124434108D01*
X185471479Y-124434108D01*
X185471555Y-124424956D01*
X185484702Y-122834108D01*
X187799500Y-122834108D01*
X187799500Y-122965891D01*
X187833608Y-123093187D01*
X187841766Y-123107316D01*
X187899500Y-123207314D01*
X187992686Y-123300500D01*
X188106814Y-123366392D01*
X188234108Y-123400500D01*
X188234110Y-123400500D01*
X188365890Y-123400500D01*
X188365892Y-123400500D01*
X188493186Y-123366392D01*
X188607314Y-123300500D01*
X188700500Y-123207314D01*
X188766392Y-123093186D01*
X188800500Y-122965892D01*
X188800500Y-122834108D01*
X188773705Y-122734108D01*
X189699500Y-122734108D01*
X189699500Y-122865891D01*
X189733608Y-122993187D01*
X189758488Y-123036280D01*
X189799500Y-123107314D01*
X189892686Y-123200500D01*
X190006814Y-123266392D01*
X190134108Y-123300500D01*
X190134110Y-123300500D01*
X190265890Y-123300500D01*
X190265892Y-123300500D01*
X190393186Y-123266392D01*
X190507314Y-123200500D01*
X190600500Y-123107314D01*
X190666392Y-122993186D01*
X190700500Y-122865892D01*
X190700500Y-122734108D01*
X190666392Y-122606814D01*
X190600500Y-122492686D01*
X190507314Y-122399500D01*
X190450250Y-122366554D01*
X190393187Y-122333608D01*
X190329539Y-122316554D01*
X190265892Y-122299500D01*
X190134108Y-122299500D01*
X190006812Y-122333608D01*
X189892686Y-122399500D01*
X189892683Y-122399502D01*
X189799502Y-122492683D01*
X189799500Y-122492686D01*
X189733608Y-122606812D01*
X189699500Y-122734108D01*
X188773705Y-122734108D01*
X188766392Y-122706814D01*
X188700500Y-122592686D01*
X188607314Y-122499500D01*
X188550250Y-122466554D01*
X188493187Y-122433608D01*
X188429539Y-122416554D01*
X188365892Y-122399500D01*
X188234108Y-122399500D01*
X188106812Y-122433608D01*
X187992686Y-122499500D01*
X187992683Y-122499502D01*
X187899502Y-122592683D01*
X187899500Y-122592686D01*
X187833608Y-122706812D01*
X187799500Y-122834108D01*
X185484702Y-122834108D01*
X185484778Y-122824956D01*
X185499933Y-120991153D01*
X186729500Y-120991153D01*
X186729500Y-121148846D01*
X186760261Y-121303489D01*
X186760264Y-121303501D01*
X186820602Y-121449172D01*
X186820609Y-121449185D01*
X186908210Y-121580288D01*
X186908213Y-121580292D01*
X187019707Y-121691786D01*
X187019711Y-121691789D01*
X187150814Y-121779390D01*
X187150827Y-121779397D01*
X187267259Y-121827624D01*
X187296503Y-121839737D01*
X187451153Y-121870499D01*
X187451156Y-121870500D01*
X187451158Y-121870500D01*
X188208844Y-121870500D01*
X188208845Y-121870499D01*
X188363497Y-121839737D01*
X188509179Y-121779394D01*
X188640289Y-121691789D01*
X188751789Y-121580289D01*
X188839394Y-121449179D01*
X188899737Y-121303497D01*
X188930500Y-121148842D01*
X188930500Y-120991158D01*
X188930500Y-120991155D01*
X188930499Y-120991153D01*
X190809500Y-120991153D01*
X190809500Y-121148846D01*
X190840261Y-121303489D01*
X190840264Y-121303501D01*
X190900602Y-121449172D01*
X190900609Y-121449185D01*
X190988210Y-121580288D01*
X190988213Y-121580292D01*
X191099707Y-121691786D01*
X191099711Y-121691789D01*
X191235886Y-121782779D01*
X191234995Y-121784111D01*
X191279287Y-121827624D01*
X191294745Y-121895762D01*
X191270910Y-121961441D01*
X191232988Y-121995401D01*
X191156641Y-122039481D01*
X191156632Y-122039487D01*
X191049487Y-122146632D01*
X191049485Y-122146635D01*
X190973719Y-122277863D01*
X190934500Y-122424234D01*
X190934500Y-122575765D01*
X190973719Y-122722136D01*
X190994468Y-122758074D01*
X191049485Y-122853365D01*
X191156635Y-122960515D01*
X191287865Y-123036281D01*
X191434234Y-123075500D01*
X191434236Y-123075500D01*
X191585764Y-123075500D01*
X191585766Y-123075500D01*
X191732135Y-123036281D01*
X191863365Y-122960515D01*
X191970515Y-122853365D01*
X191981633Y-122834108D01*
X196799500Y-122834108D01*
X196799500Y-122965891D01*
X196833608Y-123093187D01*
X196841766Y-123107316D01*
X196899500Y-123207314D01*
X196992686Y-123300500D01*
X197106814Y-123366392D01*
X197234108Y-123400500D01*
X197234110Y-123400500D01*
X197365890Y-123400500D01*
X197365892Y-123400500D01*
X197493186Y-123366392D01*
X197607314Y-123300500D01*
X197700500Y-123207314D01*
X197766392Y-123093186D01*
X197800500Y-122965892D01*
X197800500Y-122834108D01*
X197766392Y-122706814D01*
X197700500Y-122592686D01*
X197607314Y-122499500D01*
X197550250Y-122466554D01*
X197493187Y-122433608D01*
X197429539Y-122416554D01*
X197365892Y-122399500D01*
X197234108Y-122399500D01*
X197106812Y-122433608D01*
X196992686Y-122499500D01*
X196992683Y-122499502D01*
X196899502Y-122592683D01*
X196899500Y-122592686D01*
X196833608Y-122706812D01*
X196799500Y-122834108D01*
X191981633Y-122834108D01*
X192046281Y-122722135D01*
X192085500Y-122575766D01*
X192085500Y-122424234D01*
X192046281Y-122277865D01*
X191970515Y-122146635D01*
X191906061Y-122082181D01*
X191872576Y-122020858D01*
X191877560Y-121951166D01*
X191919432Y-121895233D01*
X191984896Y-121870816D01*
X191993742Y-121870500D01*
X192488844Y-121870500D01*
X192488845Y-121870499D01*
X192643497Y-121839737D01*
X192789179Y-121779394D01*
X192920289Y-121691789D01*
X193031789Y-121580289D01*
X193119394Y-121449179D01*
X193179737Y-121303497D01*
X193210500Y-121148842D01*
X193210500Y-120991158D01*
X193210500Y-120991155D01*
X193210499Y-120991153D01*
X193179738Y-120836510D01*
X193179737Y-120836503D01*
X193179735Y-120836498D01*
X193119397Y-120690827D01*
X193119390Y-120690814D01*
X193031789Y-120559711D01*
X193031786Y-120559707D01*
X192920292Y-120448213D01*
X192920288Y-120448210D01*
X192789185Y-120360609D01*
X192789172Y-120360602D01*
X192643501Y-120300264D01*
X192643489Y-120300261D01*
X192488845Y-120269500D01*
X192488842Y-120269500D01*
X191531158Y-120269500D01*
X191531155Y-120269500D01*
X191376510Y-120300261D01*
X191376498Y-120300264D01*
X191230827Y-120360602D01*
X191230814Y-120360609D01*
X191099711Y-120448210D01*
X191099707Y-120448213D01*
X190988213Y-120559707D01*
X190988210Y-120559711D01*
X190900609Y-120690814D01*
X190900602Y-120690827D01*
X190840264Y-120836498D01*
X190840261Y-120836510D01*
X190809500Y-120991153D01*
X188930499Y-120991153D01*
X188899738Y-120836510D01*
X188899737Y-120836503D01*
X188899735Y-120836498D01*
X188839397Y-120690827D01*
X188839390Y-120690814D01*
X188751789Y-120559711D01*
X188751786Y-120559707D01*
X188640292Y-120448213D01*
X188640288Y-120448210D01*
X188509185Y-120360609D01*
X188509172Y-120360602D01*
X188363501Y-120300264D01*
X188363489Y-120300261D01*
X188208845Y-120269500D01*
X188208842Y-120269500D01*
X187451158Y-120269500D01*
X187451155Y-120269500D01*
X187296510Y-120300261D01*
X187296498Y-120300264D01*
X187150827Y-120360602D01*
X187150814Y-120360609D01*
X187019711Y-120448210D01*
X187019707Y-120448213D01*
X186908213Y-120559707D01*
X186908210Y-120559711D01*
X186820609Y-120690814D01*
X186820602Y-120690827D01*
X186760264Y-120836498D01*
X186760261Y-120836510D01*
X186729500Y-120991153D01*
X185499933Y-120991153D01*
X185499992Y-120984041D01*
X185513720Y-119322975D01*
X185533958Y-119256101D01*
X185587138Y-119210784D01*
X185637716Y-119200000D01*
X201689707Y-119200000D01*
X201756746Y-119219685D01*
G37*
%TD.AperFunction*%
%TD*%
%TA.AperFunction,Conductor*%
%TO.N,+8V*%
G36*
X198457775Y-133519685D02*
G01*
X198503530Y-133572489D01*
X198514736Y-133624000D01*
X198514736Y-143976000D01*
X198495051Y-144043039D01*
X198442247Y-144088794D01*
X198390736Y-144100000D01*
X185822835Y-144100000D01*
X185755796Y-144080315D01*
X185710041Y-144027511D01*
X185698841Y-143977170D01*
X185673667Y-141308647D01*
X192985551Y-141308647D01*
X192985551Y-141483454D01*
X193012894Y-141656094D01*
X193066911Y-141822339D01*
X193146266Y-141978080D01*
X193249009Y-142119493D01*
X193372609Y-142243093D01*
X193514022Y-142345836D01*
X193587604Y-142383328D01*
X193669762Y-142425190D01*
X193669764Y-142425190D01*
X193669767Y-142425192D01*
X193758876Y-142454145D01*
X193836007Y-142479207D01*
X194008648Y-142506551D01*
X194008653Y-142506551D01*
X194183454Y-142506551D01*
X194356094Y-142479207D01*
X194522335Y-142425192D01*
X194678080Y-142345836D01*
X194819493Y-142243093D01*
X194943093Y-142119493D01*
X195045836Y-141978080D01*
X195125192Y-141822335D01*
X195179207Y-141656094D01*
X195206551Y-141483454D01*
X195206551Y-141308647D01*
X195179207Y-141136007D01*
X195125190Y-140969762D01*
X195045835Y-140814021D01*
X194943093Y-140672609D01*
X194819493Y-140549009D01*
X194678080Y-140446266D01*
X194522339Y-140366911D01*
X194356094Y-140312894D01*
X194183454Y-140285551D01*
X194183449Y-140285551D01*
X194008653Y-140285551D01*
X194008648Y-140285551D01*
X193836007Y-140312894D01*
X193669762Y-140366911D01*
X193514021Y-140446266D01*
X193433339Y-140504885D01*
X193372609Y-140549009D01*
X193372607Y-140549011D01*
X193372606Y-140549011D01*
X193249011Y-140672606D01*
X193249011Y-140672607D01*
X193249009Y-140672609D01*
X193204885Y-140733339D01*
X193146266Y-140814021D01*
X193066911Y-140969762D01*
X193012894Y-141136007D01*
X192985551Y-141308647D01*
X185673667Y-141308647D01*
X185673632Y-141304951D01*
X185656723Y-139512596D01*
X191189500Y-139512596D01*
X191189500Y-139687403D01*
X191216843Y-139860043D01*
X191270860Y-140026288D01*
X191350215Y-140182029D01*
X191452958Y-140323442D01*
X191576558Y-140447042D01*
X191717971Y-140549785D01*
X191791553Y-140587277D01*
X191873711Y-140629139D01*
X191873713Y-140629139D01*
X191873716Y-140629141D01*
X191962825Y-140658094D01*
X192039956Y-140683156D01*
X192212597Y-140710500D01*
X192212602Y-140710500D01*
X192387403Y-140710500D01*
X192560043Y-140683156D01*
X192592509Y-140672607D01*
X192726284Y-140629141D01*
X192882029Y-140549785D01*
X193023442Y-140447042D01*
X193147042Y-140323442D01*
X193249785Y-140182029D01*
X193329141Y-140026284D01*
X193383156Y-139860043D01*
X193410500Y-139687403D01*
X193410500Y-139512596D01*
X193383156Y-139339956D01*
X193329139Y-139173711D01*
X193249784Y-139017970D01*
X193147042Y-138876558D01*
X193023442Y-138752958D01*
X192882029Y-138650215D01*
X192726288Y-138570860D01*
X192560043Y-138516843D01*
X192387403Y-138489500D01*
X192387398Y-138489500D01*
X192212602Y-138489500D01*
X192212597Y-138489500D01*
X192039956Y-138516843D01*
X191873711Y-138570860D01*
X191717970Y-138650215D01*
X191637288Y-138708834D01*
X191576558Y-138752958D01*
X191576556Y-138752960D01*
X191576555Y-138752960D01*
X191452960Y-138876555D01*
X191452960Y-138876556D01*
X191452958Y-138876558D01*
X191445296Y-138887104D01*
X191350215Y-139017970D01*
X191270860Y-139173711D01*
X191216843Y-139339956D01*
X191189500Y-139512596D01*
X185656723Y-139512596D01*
X185656688Y-139508900D01*
X185633593Y-137060790D01*
X185623660Y-136007897D01*
X187057242Y-136007897D01*
X187077702Y-136150210D01*
X187077703Y-136150215D01*
X187137429Y-136280994D01*
X187175009Y-136327629D01*
X187604810Y-136757430D01*
X188216763Y-136145476D01*
X188232646Y-136204752D01*
X188299790Y-136321049D01*
X188394745Y-136416004D01*
X188511042Y-136483148D01*
X188570316Y-136499030D01*
X187958363Y-137110982D01*
X187958363Y-137110983D01*
X188388164Y-137540784D01*
X188434799Y-137578364D01*
X188565578Y-137638090D01*
X188565583Y-137638091D01*
X188707897Y-137658551D01*
X188850210Y-137638091D01*
X188850215Y-137638090D01*
X188980994Y-137578364D01*
X189027629Y-137540784D01*
X189246306Y-137322107D01*
X189307629Y-137288622D01*
X189377320Y-137293606D01*
X189433254Y-137335477D01*
X189457671Y-137400942D01*
X189451918Y-137448106D01*
X189420792Y-137543900D01*
X189420792Y-137543903D01*
X189393448Y-137716544D01*
X189393448Y-137891351D01*
X189420791Y-138063991D01*
X189474808Y-138230236D01*
X189554163Y-138385977D01*
X189656906Y-138527390D01*
X189780506Y-138650990D01*
X189921919Y-138753733D01*
X189995501Y-138791225D01*
X190077659Y-138833087D01*
X190077661Y-138833087D01*
X190077664Y-138833089D01*
X190166773Y-138862042D01*
X190243904Y-138887104D01*
X190416545Y-138914448D01*
X190416550Y-138914448D01*
X190591351Y-138914448D01*
X190763991Y-138887104D01*
X190796457Y-138876555D01*
X190930232Y-138833089D01*
X191085977Y-138753733D01*
X191227390Y-138650990D01*
X191350990Y-138527390D01*
X191453733Y-138385977D01*
X191533089Y-138230232D01*
X191587104Y-138063991D01*
X191614448Y-137891351D01*
X191614448Y-137716544D01*
X191587104Y-137543904D01*
X191533087Y-137377659D01*
X191453732Y-137221918D01*
X191350990Y-137080506D01*
X191227390Y-136956906D01*
X191085977Y-136854163D01*
X190930236Y-136774808D01*
X190763991Y-136720791D01*
X190591351Y-136693448D01*
X190591346Y-136693448D01*
X190416550Y-136693448D01*
X190416545Y-136693448D01*
X190243903Y-136720792D01*
X190243900Y-136720792D01*
X190148106Y-136751918D01*
X190078265Y-136753913D01*
X190018432Y-136717832D01*
X189987604Y-136655131D01*
X189995569Y-136585717D01*
X190022107Y-136546306D01*
X190240784Y-136327629D01*
X190278364Y-136280994D01*
X190338090Y-136150215D01*
X190338091Y-136150210D01*
X190358551Y-136007897D01*
X190338091Y-135865583D01*
X190338090Y-135865578D01*
X190278364Y-135734799D01*
X190240784Y-135688164D01*
X189810983Y-135258363D01*
X189810982Y-135258363D01*
X189199030Y-135870316D01*
X189183148Y-135811042D01*
X189116004Y-135694745D01*
X189021049Y-135599790D01*
X188904752Y-135532646D01*
X188845476Y-135516763D01*
X189457430Y-134904810D01*
X189027629Y-134475009D01*
X188980994Y-134437429D01*
X188955114Y-134425610D01*
X188850215Y-134377703D01*
X188850210Y-134377702D01*
X188707897Y-134357242D01*
X188565583Y-134377702D01*
X188565578Y-134377703D01*
X188434799Y-134437429D01*
X188388159Y-134475013D01*
X187958363Y-134904809D01*
X187958363Y-134904810D01*
X188570316Y-135516763D01*
X188511042Y-135532646D01*
X188394745Y-135599790D01*
X188299790Y-135694745D01*
X188232646Y-135811042D01*
X188216763Y-135870316D01*
X187604811Y-135258363D01*
X187604809Y-135258363D01*
X187175013Y-135688159D01*
X187137429Y-135734799D01*
X187077703Y-135865578D01*
X187077702Y-135865583D01*
X187057242Y-136007897D01*
X185623660Y-136007897D01*
X185623587Y-136000199D01*
X185612780Y-134854617D01*
X185607745Y-134320943D01*
X193399500Y-134320943D01*
X193399500Y-134479056D01*
X193440423Y-134631783D01*
X193440425Y-134631788D01*
X193444014Y-134638005D01*
X193460483Y-134705906D01*
X193444014Y-134761995D01*
X193440425Y-134768211D01*
X193440423Y-134768216D01*
X193399500Y-134920943D01*
X193399500Y-135079056D01*
X193440423Y-135231783D01*
X193440425Y-135231788D01*
X193444014Y-135238005D01*
X193460483Y-135305906D01*
X193444014Y-135361995D01*
X193440425Y-135368211D01*
X193440423Y-135368216D01*
X193399500Y-135520943D01*
X193399500Y-135679056D01*
X193440423Y-135831783D01*
X193440426Y-135831790D01*
X193519475Y-135968709D01*
X193519479Y-135968714D01*
X193519480Y-135968716D01*
X193631284Y-136080520D01*
X193631286Y-136080521D01*
X193631290Y-136080524D01*
X193751992Y-136150210D01*
X193768216Y-136159577D01*
X193920943Y-136200500D01*
X193920945Y-136200500D01*
X194079055Y-136200500D01*
X194079057Y-136200500D01*
X194231784Y-136159577D01*
X194368716Y-136080520D01*
X194480520Y-135968716D01*
X194559577Y-135831784D01*
X194600500Y-135679057D01*
X194600500Y-135520943D01*
X194559577Y-135368216D01*
X194559576Y-135368215D01*
X194559576Y-135368213D01*
X194555991Y-135362005D01*
X194539515Y-135294105D01*
X194555991Y-135237995D01*
X194559576Y-135231786D01*
X194559577Y-135231783D01*
X194600500Y-135079057D01*
X194600500Y-134920943D01*
X194559577Y-134768216D01*
X194559576Y-134768215D01*
X194559576Y-134768213D01*
X194555991Y-134762005D01*
X194539515Y-134694105D01*
X194555991Y-134637995D01*
X194559576Y-134631786D01*
X194559577Y-134631783D01*
X194600500Y-134479057D01*
X194600500Y-134320943D01*
X194559577Y-134168216D01*
X194559573Y-134168209D01*
X194480524Y-134031290D01*
X194480518Y-134031282D01*
X194368717Y-133919481D01*
X194368709Y-133919475D01*
X194231790Y-133840426D01*
X194231786Y-133840424D01*
X194231784Y-133840423D01*
X194079057Y-133799500D01*
X193920943Y-133799500D01*
X193768216Y-133840423D01*
X193768209Y-133840426D01*
X193631290Y-133919475D01*
X193631282Y-133919481D01*
X193519481Y-134031282D01*
X193519475Y-134031290D01*
X193440426Y-134168209D01*
X193440423Y-134168216D01*
X193399500Y-134320943D01*
X185607745Y-134320943D01*
X185601181Y-133625170D01*
X185620232Y-133557948D01*
X185672602Y-133511697D01*
X185725175Y-133500000D01*
X198390736Y-133500000D01*
X198457775Y-133519685D01*
G37*
%TD.AperFunction*%
%TD*%
%TA.AperFunction,Conductor*%
%TO.N,+3V3*%
G36*
X230000000Y-112250000D02*
G01*
X230000000Y-131377245D01*
X229980315Y-131444284D01*
X229927511Y-131490039D01*
X229877252Y-131501239D01*
X210325252Y-131698734D01*
X210258018Y-131679727D01*
X210211732Y-131627388D01*
X210200000Y-131574740D01*
X210200000Y-127484108D01*
X216349500Y-127484108D01*
X216349500Y-127615891D01*
X216383608Y-127743187D01*
X216416554Y-127800250D01*
X216449500Y-127857314D01*
X216542686Y-127950500D01*
X216656814Y-128016392D01*
X216784108Y-128050500D01*
X216784110Y-128050500D01*
X216915890Y-128050500D01*
X216915892Y-128050500D01*
X217043186Y-128016392D01*
X217157314Y-127950500D01*
X217250500Y-127857314D01*
X217316392Y-127743186D01*
X217350500Y-127615892D01*
X217350500Y-127484108D01*
X217316392Y-127356814D01*
X217250500Y-127242686D01*
X217157314Y-127149500D01*
X217100250Y-127116554D01*
X217043187Y-127083608D01*
X216979539Y-127066554D01*
X216915892Y-127049500D01*
X216784108Y-127049500D01*
X216656812Y-127083608D01*
X216542686Y-127149500D01*
X216542683Y-127149502D01*
X216449502Y-127242683D01*
X216449500Y-127242686D01*
X216383608Y-127356812D01*
X216349500Y-127484108D01*
X210200000Y-127484108D01*
X210200000Y-126234108D01*
X228199500Y-126234108D01*
X228199500Y-126365891D01*
X228233608Y-126493187D01*
X228266554Y-126550250D01*
X228299500Y-126607314D01*
X228392686Y-126700500D01*
X228506814Y-126766392D01*
X228634108Y-126800500D01*
X228634110Y-126800500D01*
X228765890Y-126800500D01*
X228765892Y-126800500D01*
X228893186Y-126766392D01*
X229007314Y-126700500D01*
X229100500Y-126607314D01*
X229166392Y-126493186D01*
X229200500Y-126365892D01*
X229200500Y-126234108D01*
X229166392Y-126106814D01*
X229100500Y-125992686D01*
X229007314Y-125899500D01*
X228950250Y-125866554D01*
X228893187Y-125833608D01*
X228829539Y-125816554D01*
X228765892Y-125799500D01*
X228634108Y-125799500D01*
X228506812Y-125833608D01*
X228392686Y-125899500D01*
X228392683Y-125899502D01*
X228299502Y-125992683D01*
X228299500Y-125992686D01*
X228233608Y-126106812D01*
X228199500Y-126234108D01*
X210200000Y-126234108D01*
X210200000Y-123734108D01*
X222099500Y-123734108D01*
X222099500Y-123865891D01*
X222133608Y-123993187D01*
X222166554Y-124050250D01*
X222199500Y-124107314D01*
X222292686Y-124200500D01*
X222406814Y-124266392D01*
X222534108Y-124300500D01*
X222534110Y-124300500D01*
X222665890Y-124300500D01*
X222665892Y-124300500D01*
X222793186Y-124266392D01*
X222907314Y-124200500D01*
X223000500Y-124107314D01*
X223066392Y-123993186D01*
X223100500Y-123865892D01*
X223100500Y-123834108D01*
X228299500Y-123834108D01*
X228299500Y-123965891D01*
X228333608Y-124093187D01*
X228341766Y-124107316D01*
X228399500Y-124207314D01*
X228492686Y-124300500D01*
X228606814Y-124366392D01*
X228734108Y-124400500D01*
X228734110Y-124400500D01*
X228865890Y-124400500D01*
X228865892Y-124400500D01*
X228993186Y-124366392D01*
X229107314Y-124300500D01*
X229200500Y-124207314D01*
X229266392Y-124093186D01*
X229300500Y-123965892D01*
X229300500Y-123834108D01*
X229266392Y-123706814D01*
X229200500Y-123592686D01*
X229107314Y-123499500D01*
X229050250Y-123466554D01*
X228993187Y-123433608D01*
X228929539Y-123416554D01*
X228865892Y-123399500D01*
X228734108Y-123399500D01*
X228606812Y-123433608D01*
X228492686Y-123499500D01*
X228492683Y-123499502D01*
X228399502Y-123592683D01*
X228399500Y-123592686D01*
X228333608Y-123706812D01*
X228299500Y-123834108D01*
X223100500Y-123834108D01*
X223100500Y-123734108D01*
X223066392Y-123606814D01*
X223000500Y-123492686D01*
X222907314Y-123399500D01*
X222850250Y-123366554D01*
X222793187Y-123333608D01*
X222729539Y-123316554D01*
X222665892Y-123299500D01*
X222534108Y-123299500D01*
X222406812Y-123333608D01*
X222292686Y-123399500D01*
X222292683Y-123399502D01*
X222199502Y-123492683D01*
X222199500Y-123492686D01*
X222133608Y-123606812D01*
X222099500Y-123734108D01*
X210200000Y-123734108D01*
X210200000Y-121734108D01*
X222099500Y-121734108D01*
X222099500Y-121865891D01*
X222133608Y-121993187D01*
X222166554Y-122050250D01*
X222199500Y-122107314D01*
X222292686Y-122200500D01*
X222406814Y-122266392D01*
X222534108Y-122300500D01*
X222534110Y-122300500D01*
X222665890Y-122300500D01*
X222665892Y-122300500D01*
X222793186Y-122266392D01*
X222907314Y-122200500D01*
X223000500Y-122107314D01*
X223066392Y-121993186D01*
X223100500Y-121865892D01*
X223100500Y-121734108D01*
X223066392Y-121606814D01*
X223000500Y-121492686D01*
X222907314Y-121399500D01*
X222850250Y-121366554D01*
X222793187Y-121333608D01*
X222729539Y-121316554D01*
X222665892Y-121299500D01*
X222534108Y-121299500D01*
X222406812Y-121333608D01*
X222292686Y-121399500D01*
X222292683Y-121399502D01*
X222199502Y-121492683D01*
X222199500Y-121492686D01*
X222133608Y-121606812D01*
X222099500Y-121734108D01*
X210200000Y-121734108D01*
X210200000Y-114484108D01*
X214099500Y-114484108D01*
X214099500Y-114615891D01*
X214133608Y-114743187D01*
X214166554Y-114800250D01*
X214199500Y-114857314D01*
X214292686Y-114950500D01*
X214406814Y-115016392D01*
X214534108Y-115050500D01*
X214534110Y-115050500D01*
X214665890Y-115050500D01*
X214665892Y-115050500D01*
X214793186Y-115016392D01*
X214907314Y-114950500D01*
X215000500Y-114857314D01*
X215066392Y-114743186D01*
X215100500Y-114615892D01*
X215100500Y-114484108D01*
X225349500Y-114484108D01*
X225349500Y-114615891D01*
X225383608Y-114743187D01*
X225416554Y-114800250D01*
X225449500Y-114857314D01*
X225542686Y-114950500D01*
X225656814Y-115016392D01*
X225784108Y-115050500D01*
X225784110Y-115050500D01*
X225915890Y-115050500D01*
X225915892Y-115050500D01*
X226043186Y-115016392D01*
X226157314Y-114950500D01*
X226250500Y-114857314D01*
X226316392Y-114743186D01*
X226350500Y-114615892D01*
X226350500Y-114484108D01*
X226316392Y-114356814D01*
X226250500Y-114242686D01*
X226157314Y-114149500D01*
X226100250Y-114116554D01*
X226043187Y-114083608D01*
X225979539Y-114066554D01*
X225915892Y-114049500D01*
X225784108Y-114049500D01*
X225656812Y-114083608D01*
X225542686Y-114149500D01*
X225542683Y-114149502D01*
X225449502Y-114242683D01*
X225449500Y-114242686D01*
X225383608Y-114356812D01*
X225349500Y-114484108D01*
X215100500Y-114484108D01*
X215066392Y-114356814D01*
X215000500Y-114242686D01*
X214907314Y-114149500D01*
X214850250Y-114116554D01*
X214793187Y-114083608D01*
X214729539Y-114066554D01*
X214665892Y-114049500D01*
X214534108Y-114049500D01*
X214406812Y-114083608D01*
X214292686Y-114149500D01*
X214292683Y-114149502D01*
X214199502Y-114242683D01*
X214199500Y-114242686D01*
X214133608Y-114356812D01*
X214099500Y-114484108D01*
X210200000Y-114484108D01*
X210200000Y-112250000D01*
X210200000Y-111650000D01*
X230000000Y-111450000D01*
X230000000Y-112250000D01*
G37*
%TD.AperFunction*%
%TD*%
%TA.AperFunction,Conductor*%
%TO.N,+8V*%
G36*
X254741170Y-116332847D02*
G01*
X254787611Y-116385049D01*
X254799500Y-116438030D01*
X254799500Y-143491788D01*
X254779815Y-143558827D01*
X254727011Y-143604582D01*
X254677100Y-143615778D01*
X240525600Y-143798379D01*
X240458312Y-143779561D01*
X240411880Y-143727351D01*
X240400000Y-143674389D01*
X240400000Y-141485269D01*
X240419685Y-141418230D01*
X240472489Y-141372475D01*
X240485683Y-141367338D01*
X240556794Y-141344233D01*
X240556796Y-141344231D01*
X240556799Y-141344231D01*
X240655232Y-141294077D01*
X244355268Y-141294077D01*
X244375728Y-141436390D01*
X244375729Y-141436395D01*
X244435455Y-141567174D01*
X244473035Y-141613809D01*
X244902836Y-142043610D01*
X245514789Y-141431656D01*
X245530672Y-141490932D01*
X245597816Y-141607229D01*
X245692771Y-141702184D01*
X245809068Y-141769328D01*
X245868342Y-141785210D01*
X245256389Y-142397162D01*
X245256389Y-142397163D01*
X245686190Y-142826964D01*
X245732825Y-142864544D01*
X245863604Y-142924270D01*
X245863609Y-142924271D01*
X246005923Y-142944731D01*
X246148236Y-142924271D01*
X246148241Y-142924270D01*
X246279020Y-142864544D01*
X246325655Y-142826964D01*
X246755456Y-142397163D01*
X246755456Y-142397162D01*
X246143503Y-141785210D01*
X246202778Y-141769328D01*
X246319075Y-141702184D01*
X246414030Y-141607229D01*
X246481174Y-141490932D01*
X246497056Y-141431657D01*
X247109008Y-142043610D01*
X247109009Y-142043610D01*
X247538810Y-141613809D01*
X247576390Y-141567174D01*
X247636116Y-141436395D01*
X247636117Y-141436390D01*
X247656577Y-141294077D01*
X247636117Y-141151763D01*
X247636116Y-141151758D01*
X247576390Y-141020979D01*
X247538810Y-140974344D01*
X247320133Y-140755667D01*
X247286648Y-140694344D01*
X247291632Y-140624652D01*
X247333504Y-140568719D01*
X247398968Y-140544302D01*
X247446131Y-140550054D01*
X247494305Y-140565707D01*
X247541930Y-140581182D01*
X247714571Y-140608526D01*
X247714576Y-140608526D01*
X247889377Y-140608526D01*
X248062017Y-140581182D01*
X248100374Y-140568719D01*
X248228258Y-140527167D01*
X248384003Y-140447811D01*
X248525416Y-140345068D01*
X248649016Y-140221468D01*
X248751759Y-140080055D01*
X248831115Y-139924310D01*
X248885130Y-139758069D01*
X248890588Y-139723609D01*
X248912474Y-139585429D01*
X248912474Y-139410622D01*
X248885130Y-139237982D01*
X248831113Y-139071737D01*
X248773964Y-138959577D01*
X248751759Y-138915997D01*
X248649016Y-138774584D01*
X248525416Y-138650984D01*
X248384003Y-138548241D01*
X248345972Y-138528863D01*
X248228262Y-138468886D01*
X248062017Y-138414869D01*
X247889377Y-138387526D01*
X247889372Y-138387526D01*
X247714576Y-138387526D01*
X247714571Y-138387526D01*
X247541930Y-138414869D01*
X247375685Y-138468886D01*
X247219944Y-138548241D01*
X247169053Y-138585216D01*
X247078532Y-138650984D01*
X247078530Y-138650986D01*
X247078529Y-138650986D01*
X246954934Y-138774581D01*
X246954934Y-138774582D01*
X246954932Y-138774584D01*
X246947270Y-138785130D01*
X246852189Y-138915996D01*
X246772834Y-139071737D01*
X246718817Y-139237982D01*
X246691474Y-139410622D01*
X246691474Y-139585429D01*
X246718818Y-139758070D01*
X246718818Y-139758073D01*
X246749944Y-139853867D01*
X246751939Y-139923708D01*
X246715859Y-139983541D01*
X246653158Y-140014369D01*
X246583743Y-140006404D01*
X246544332Y-139979866D01*
X246325655Y-139761189D01*
X246279020Y-139723609D01*
X246148241Y-139663883D01*
X246148236Y-139663882D01*
X246005923Y-139643422D01*
X245863609Y-139663882D01*
X245863604Y-139663883D01*
X245732825Y-139723609D01*
X245686185Y-139761193D01*
X245256389Y-140190989D01*
X245256389Y-140190990D01*
X245868342Y-140802943D01*
X245809068Y-140818826D01*
X245692771Y-140885970D01*
X245597816Y-140980925D01*
X245530672Y-141097222D01*
X245514789Y-141156496D01*
X244902837Y-140544543D01*
X244902835Y-140544543D01*
X244473039Y-140974339D01*
X244435455Y-141020979D01*
X244375729Y-141151758D01*
X244375728Y-141151763D01*
X244355268Y-141294077D01*
X240655232Y-141294077D01*
X240760228Y-141240579D01*
X240944937Y-141106379D01*
X241106379Y-140944937D01*
X241240579Y-140760228D01*
X241344231Y-140556799D01*
X241414784Y-140339660D01*
X241449539Y-140120229D01*
X241449539Y-140120228D01*
X241450500Y-140114160D01*
X241450500Y-139885837D01*
X241414784Y-139660339D01*
X241344229Y-139443196D01*
X241240578Y-139239771D01*
X241118493Y-139071737D01*
X241106379Y-139055063D01*
X240944937Y-138893621D01*
X240760228Y-138759421D01*
X240556804Y-138655771D01*
X240556801Y-138655770D01*
X240556799Y-138655769D01*
X240485679Y-138632660D01*
X240428005Y-138593222D01*
X240400808Y-138528863D01*
X240400000Y-138514730D01*
X240400000Y-137120943D01*
X242699500Y-137120943D01*
X242699500Y-137279056D01*
X242740423Y-137431783D01*
X242740425Y-137431788D01*
X242744014Y-137438005D01*
X242760483Y-137505906D01*
X242744014Y-137561995D01*
X242740425Y-137568211D01*
X242740423Y-137568216D01*
X242699500Y-137720943D01*
X242699500Y-137879056D01*
X242740423Y-138031783D01*
X242740425Y-138031788D01*
X242744014Y-138038005D01*
X242760483Y-138105906D01*
X242744014Y-138161995D01*
X242740425Y-138168211D01*
X242740423Y-138168216D01*
X242699500Y-138320943D01*
X242699500Y-138479057D01*
X242730091Y-138593222D01*
X242740423Y-138631783D01*
X242740426Y-138631790D01*
X242819475Y-138768709D01*
X242819479Y-138768714D01*
X242819480Y-138768716D01*
X242931284Y-138880520D01*
X242931286Y-138880521D01*
X242931290Y-138880524D01*
X243068209Y-138959573D01*
X243068216Y-138959577D01*
X243220943Y-139000500D01*
X243220945Y-139000500D01*
X243379055Y-139000500D01*
X243379057Y-139000500D01*
X243531784Y-138959577D01*
X243668716Y-138880520D01*
X243780520Y-138768716D01*
X243859577Y-138631784D01*
X243900500Y-138479057D01*
X243900500Y-138320943D01*
X243859577Y-138168216D01*
X243859576Y-138168215D01*
X243859576Y-138168213D01*
X243855991Y-138162005D01*
X243839515Y-138094105D01*
X243855991Y-138037995D01*
X243859576Y-138031786D01*
X243859577Y-138031783D01*
X243900500Y-137879057D01*
X243900500Y-137720943D01*
X243871997Y-137614570D01*
X248487526Y-137614570D01*
X248487526Y-137789377D01*
X248514869Y-137962017D01*
X248568886Y-138128262D01*
X248648241Y-138284003D01*
X248750984Y-138425416D01*
X248874584Y-138549016D01*
X249015997Y-138651759D01*
X249089579Y-138689251D01*
X249171737Y-138731113D01*
X249171739Y-138731113D01*
X249171742Y-138731115D01*
X249258859Y-138759421D01*
X249337982Y-138785130D01*
X249510623Y-138812474D01*
X249510628Y-138812474D01*
X249685429Y-138812474D01*
X249858069Y-138785130D01*
X249890535Y-138774581D01*
X250024310Y-138731115D01*
X250180055Y-138651759D01*
X250321468Y-138549016D01*
X250445068Y-138425416D01*
X250547811Y-138284003D01*
X250627167Y-138128258D01*
X250681182Y-137962017D01*
X250708526Y-137789377D01*
X250708526Y-137614570D01*
X250681182Y-137441930D01*
X250628261Y-137279057D01*
X250627167Y-137275690D01*
X250627165Y-137275687D01*
X250627165Y-137275685D01*
X250585303Y-137193527D01*
X250547811Y-137119945D01*
X250445068Y-136978532D01*
X250321468Y-136854932D01*
X250180055Y-136752189D01*
X250024314Y-136672834D01*
X249858069Y-136618817D01*
X249685429Y-136591474D01*
X249685424Y-136591474D01*
X249510628Y-136591474D01*
X249510623Y-136591474D01*
X249337982Y-136618817D01*
X249171737Y-136672834D01*
X249015996Y-136752189D01*
X248935314Y-136810808D01*
X248874584Y-136854932D01*
X248874582Y-136854934D01*
X248874581Y-136854934D01*
X248750986Y-136978529D01*
X248750986Y-136978530D01*
X248750984Y-136978532D01*
X248706860Y-137039262D01*
X248648241Y-137119944D01*
X248568886Y-137275685D01*
X248514869Y-137441930D01*
X248487526Y-137614570D01*
X243871997Y-137614570D01*
X243859577Y-137568216D01*
X243849482Y-137550732D01*
X243845459Y-137538365D01*
X243844808Y-137515922D01*
X243839515Y-137494105D01*
X243843758Y-137479653D01*
X243843436Y-137468524D01*
X243850440Y-137456898D01*
X243855991Y-137437995D01*
X243859576Y-137431786D01*
X243859577Y-137431783D01*
X243900500Y-137279057D01*
X243900500Y-137120943D01*
X243859577Y-136968216D01*
X243840436Y-136935062D01*
X243780524Y-136831290D01*
X243780518Y-136831282D01*
X243668717Y-136719481D01*
X243668709Y-136719475D01*
X243531790Y-136640426D01*
X243531786Y-136640424D01*
X243531784Y-136640423D01*
X243379057Y-136599500D01*
X243220943Y-136599500D01*
X243068216Y-136640423D01*
X243068209Y-136640426D01*
X242931290Y-136719475D01*
X242931282Y-136719481D01*
X242819481Y-136831282D01*
X242819475Y-136831290D01*
X242740426Y-136968209D01*
X242740423Y-136968216D01*
X242699500Y-137120943D01*
X240400000Y-137120943D01*
X240400000Y-135818519D01*
X250283577Y-135818519D01*
X250283577Y-135993326D01*
X250310920Y-136165966D01*
X250364937Y-136332211D01*
X250444292Y-136487952D01*
X250547035Y-136629365D01*
X250670635Y-136752965D01*
X250812048Y-136855708D01*
X250885630Y-136893200D01*
X250967788Y-136935062D01*
X250967790Y-136935062D01*
X250967793Y-136935064D01*
X251056902Y-136964017D01*
X251134033Y-136989079D01*
X251306674Y-137016423D01*
X251306679Y-137016423D01*
X251481480Y-137016423D01*
X251654120Y-136989079D01*
X251686586Y-136978530D01*
X251820361Y-136935064D01*
X251976106Y-136855708D01*
X252117519Y-136752965D01*
X252241119Y-136629365D01*
X252343862Y-136487952D01*
X252423218Y-136332207D01*
X252477233Y-136165966D01*
X252504577Y-135993326D01*
X252504577Y-135818519D01*
X252477233Y-135645879D01*
X252423216Y-135479634D01*
X252343861Y-135323893D01*
X252241119Y-135182481D01*
X252117519Y-135058881D01*
X251976106Y-134956138D01*
X251820365Y-134876783D01*
X251654120Y-134822766D01*
X251481480Y-134795423D01*
X251481475Y-134795423D01*
X251306679Y-134795423D01*
X251306674Y-134795423D01*
X251134033Y-134822766D01*
X250967788Y-134876783D01*
X250812047Y-134956138D01*
X250731365Y-135014757D01*
X250670635Y-135058881D01*
X250670633Y-135058883D01*
X250670632Y-135058883D01*
X250547037Y-135182478D01*
X250547037Y-135182479D01*
X250547035Y-135182481D01*
X250502911Y-135243211D01*
X250444292Y-135323893D01*
X250364937Y-135479634D01*
X250310920Y-135645879D01*
X250283577Y-135818519D01*
X240400000Y-135818519D01*
X240400000Y-131600598D01*
X240419685Y-131533559D01*
X240436319Y-131512917D01*
X240480520Y-131468716D01*
X240559577Y-131331784D01*
X240600500Y-131179057D01*
X240600500Y-131020943D01*
X240559577Y-130868216D01*
X240559573Y-130868209D01*
X240480524Y-130731290D01*
X240480518Y-130731282D01*
X240436319Y-130687083D01*
X240402834Y-130625760D01*
X240400000Y-130599402D01*
X240400000Y-127820943D01*
X244299500Y-127820943D01*
X244299500Y-127979057D01*
X244325208Y-128074998D01*
X244340423Y-128131783D01*
X244340426Y-128131790D01*
X244419475Y-128268709D01*
X244419479Y-128268714D01*
X244419480Y-128268716D01*
X244531284Y-128380520D01*
X244531286Y-128380521D01*
X244531290Y-128380524D01*
X244668209Y-128459573D01*
X244668216Y-128459577D01*
X244820943Y-128500500D01*
X244820945Y-128500500D01*
X244979055Y-128500500D01*
X244979057Y-128500500D01*
X245131784Y-128459577D01*
X245268716Y-128380520D01*
X245380520Y-128268716D01*
X245459577Y-128131784D01*
X245500500Y-127979057D01*
X245500500Y-127820943D01*
X245459577Y-127668216D01*
X245404837Y-127573402D01*
X245380524Y-127531290D01*
X245380518Y-127531282D01*
X245268717Y-127419481D01*
X245268709Y-127419475D01*
X245131790Y-127340426D01*
X245131786Y-127340424D01*
X245131784Y-127340423D01*
X244979057Y-127299500D01*
X244820943Y-127299500D01*
X244668216Y-127340423D01*
X244668209Y-127340426D01*
X244531290Y-127419475D01*
X244531282Y-127419481D01*
X244419481Y-127531282D01*
X244419475Y-127531290D01*
X244340426Y-127668209D01*
X244340423Y-127668216D01*
X244299500Y-127820943D01*
X240400000Y-127820943D01*
X240400000Y-127020937D01*
X249399500Y-127020937D01*
X249399500Y-127179051D01*
X249440423Y-127331778D01*
X249445416Y-127340426D01*
X249458447Y-127362997D01*
X249474917Y-127430898D01*
X249458448Y-127486990D01*
X249440425Y-127518209D01*
X249440422Y-127518216D01*
X249436919Y-127531290D01*
X249399500Y-127670940D01*
X249399500Y-127829054D01*
X249440423Y-127981781D01*
X249440425Y-127981784D01*
X249458447Y-128013000D01*
X249474917Y-128080901D01*
X249458448Y-128136993D01*
X249440425Y-128168212D01*
X249440423Y-128168216D01*
X249399500Y-128320943D01*
X249399500Y-128479057D01*
X249405246Y-128500499D01*
X249440423Y-128631783D01*
X249440426Y-128631790D01*
X249519475Y-128768709D01*
X249519479Y-128768714D01*
X249519480Y-128768716D01*
X249631284Y-128880520D01*
X249631286Y-128880521D01*
X249631290Y-128880524D01*
X249768209Y-128959573D01*
X249768216Y-128959577D01*
X249920943Y-129000500D01*
X249920945Y-129000500D01*
X250079055Y-129000500D01*
X250079057Y-129000500D01*
X250231784Y-128959577D01*
X250368716Y-128880520D01*
X250480520Y-128768716D01*
X250559577Y-128631784D01*
X250600500Y-128479057D01*
X250600500Y-128320943D01*
X250559577Y-128168216D01*
X250541552Y-128136996D01*
X250525080Y-128069099D01*
X250541554Y-128012996D01*
X250559577Y-127981781D01*
X250600500Y-127829054D01*
X250600500Y-127670940D01*
X250559577Y-127518213D01*
X250541552Y-127486993D01*
X250525080Y-127419096D01*
X250541554Y-127362993D01*
X250559577Y-127331778D01*
X250600500Y-127179051D01*
X250600500Y-127020937D01*
X250559577Y-126868210D01*
X250559573Y-126868203D01*
X250480524Y-126731284D01*
X250480518Y-126731276D01*
X250368717Y-126619475D01*
X250368709Y-126619469D01*
X250231790Y-126540420D01*
X250231786Y-126540418D01*
X250231784Y-126540417D01*
X250079057Y-126499494D01*
X249920943Y-126499494D01*
X249768216Y-126540417D01*
X249768209Y-126540420D01*
X249631290Y-126619469D01*
X249631282Y-126619475D01*
X249519481Y-126731276D01*
X249519475Y-126731284D01*
X249440426Y-126868203D01*
X249440423Y-126868210D01*
X249399500Y-127020937D01*
X240400000Y-127020937D01*
X240400000Y-124397682D01*
X251850000Y-124397682D01*
X251850000Y-124602317D01*
X251882009Y-124804417D01*
X251945244Y-124999031D01*
X252038141Y-125181350D01*
X252038147Y-125181359D01*
X252070523Y-125225921D01*
X252070524Y-125225922D01*
X252707852Y-124588594D01*
X252730656Y-124673698D01*
X252789901Y-124776314D01*
X252873686Y-124860099D01*
X252976302Y-124919344D01*
X253061405Y-124942147D01*
X252424076Y-125579474D01*
X252426166Y-125606018D01*
X252411802Y-125674395D01*
X252390230Y-125703428D01*
X252310585Y-125783073D01*
X252208768Y-125923211D01*
X252130128Y-126077552D01*
X252076597Y-126242302D01*
X252049500Y-126413389D01*
X252049500Y-126586610D01*
X252072412Y-126731276D01*
X252076598Y-126757701D01*
X252130127Y-126922445D01*
X252208768Y-127076788D01*
X252310586Y-127216928D01*
X252433072Y-127339414D01*
X252573212Y-127441232D01*
X252727555Y-127519873D01*
X252892299Y-127573402D01*
X253063389Y-127600500D01*
X253063390Y-127600500D01*
X253236610Y-127600500D01*
X253236611Y-127600500D01*
X253407701Y-127573402D01*
X253572445Y-127519873D01*
X253726788Y-127441232D01*
X253866928Y-127339414D01*
X253989414Y-127216928D01*
X254091232Y-127076788D01*
X254169873Y-126922445D01*
X254223402Y-126757701D01*
X254250500Y-126586611D01*
X254250500Y-126413389D01*
X254223402Y-126242299D01*
X254169873Y-126077555D01*
X254091232Y-125923212D01*
X253989414Y-125783072D01*
X253909769Y-125703427D01*
X253876284Y-125642104D01*
X253873832Y-125606016D01*
X253875921Y-125579473D01*
X253238594Y-124942147D01*
X253323698Y-124919344D01*
X253426314Y-124860099D01*
X253510099Y-124776314D01*
X253569344Y-124673698D01*
X253592147Y-124588594D01*
X254229474Y-125225921D01*
X254261859Y-125181349D01*
X254354755Y-124999031D01*
X254417990Y-124804417D01*
X254450000Y-124602317D01*
X254450000Y-124397682D01*
X254417990Y-124195582D01*
X254354755Y-124000968D01*
X254261859Y-123818650D01*
X254229474Y-123774077D01*
X254229474Y-123774076D01*
X253592147Y-124411404D01*
X253569344Y-124326302D01*
X253510099Y-124223686D01*
X253426314Y-124139901D01*
X253323698Y-124080656D01*
X253238593Y-124057852D01*
X253875922Y-123420524D01*
X253875921Y-123420523D01*
X253831359Y-123388147D01*
X253831350Y-123388141D01*
X253649031Y-123295244D01*
X253454417Y-123232009D01*
X253252317Y-123200000D01*
X253047683Y-123200000D01*
X252845582Y-123232009D01*
X252650968Y-123295244D01*
X252468644Y-123388143D01*
X252424077Y-123420523D01*
X252424077Y-123420524D01*
X253061406Y-124057852D01*
X252976302Y-124080656D01*
X252873686Y-124139901D01*
X252789901Y-124223686D01*
X252730656Y-124326302D01*
X252707852Y-124411405D01*
X252070524Y-123774077D01*
X252070523Y-123774077D01*
X252038143Y-123818644D01*
X251945244Y-124000968D01*
X251882009Y-124195582D01*
X251850000Y-124397682D01*
X240400000Y-124397682D01*
X240400000Y-116623018D01*
X240419685Y-116555979D01*
X240472489Y-116510224D01*
X240522377Y-116499029D01*
X254673882Y-116314041D01*
X254741170Y-116332847D01*
G37*
%TD.AperFunction*%
%TD*%
%TA.AperFunction,Conductor*%
%TO.N,+8V*%
G36*
X253943039Y-76019685D02*
G01*
X253988794Y-76072489D01*
X254000000Y-76124000D01*
X254000000Y-87376000D01*
X253980315Y-87443039D01*
X253927511Y-87488794D01*
X253876000Y-87500000D01*
X249494930Y-87500000D01*
X249427891Y-87480315D01*
X249382136Y-87427511D01*
X249372192Y-87358353D01*
X249380369Y-87328547D01*
X249419740Y-87233497D01*
X249450503Y-87078842D01*
X249450503Y-86921158D01*
X249450503Y-86921155D01*
X249450502Y-86921153D01*
X249419741Y-86766510D01*
X249419740Y-86766503D01*
X249419738Y-86766498D01*
X249359400Y-86620827D01*
X249359393Y-86620814D01*
X249271792Y-86489711D01*
X249271789Y-86489707D01*
X249160295Y-86378213D01*
X249160291Y-86378210D01*
X249029188Y-86290609D01*
X249029175Y-86290602D01*
X248883504Y-86230264D01*
X248883492Y-86230261D01*
X248728848Y-86199500D01*
X248728845Y-86199500D01*
X248571161Y-86199500D01*
X248571158Y-86199500D01*
X248416514Y-86230260D01*
X248416504Y-86230263D01*
X248372451Y-86248510D01*
X248302981Y-86255977D01*
X248277550Y-86248510D01*
X248260770Y-86241559D01*
X248233497Y-86230263D01*
X248233493Y-86230262D01*
X248233489Y-86230261D01*
X248078845Y-86199500D01*
X248078842Y-86199500D01*
X247921158Y-86199500D01*
X247921155Y-86199500D01*
X247766511Y-86230260D01*
X247766501Y-86230263D01*
X247722448Y-86248510D01*
X247652978Y-86255977D01*
X247627547Y-86248510D01*
X247610767Y-86241559D01*
X247583494Y-86230263D01*
X247583490Y-86230262D01*
X247583486Y-86230261D01*
X247428842Y-86199500D01*
X247428839Y-86199500D01*
X247271155Y-86199500D01*
X247271152Y-86199500D01*
X247116507Y-86230261D01*
X247116495Y-86230264D01*
X246970824Y-86290602D01*
X246970811Y-86290609D01*
X246839708Y-86378210D01*
X246839704Y-86378213D01*
X246728210Y-86489707D01*
X246728207Y-86489711D01*
X246640606Y-86620814D01*
X246640599Y-86620827D01*
X246580261Y-86766498D01*
X246580258Y-86766510D01*
X246549497Y-86921153D01*
X246549497Y-87078846D01*
X246580258Y-87233489D01*
X246580260Y-87233497D01*
X246619631Y-87328547D01*
X246627100Y-87398017D01*
X246595825Y-87460496D01*
X246535736Y-87496148D01*
X246505070Y-87500000D01*
X242624000Y-87500000D01*
X242556961Y-87480315D01*
X242511206Y-87427511D01*
X242500000Y-87376000D01*
X242500000Y-78804758D01*
X244597397Y-78804758D01*
X244597397Y-79011035D01*
X244629666Y-79214774D01*
X244629666Y-79214777D01*
X244693407Y-79410951D01*
X244774963Y-79571014D01*
X244787057Y-79594749D01*
X244908304Y-79761630D01*
X245054164Y-79907490D01*
X245221045Y-80028737D01*
X245404840Y-80122385D01*
X245404842Y-80122386D01*
X245601017Y-80186127D01*
X245601018Y-80186127D01*
X245601021Y-80186128D01*
X245804758Y-80218397D01*
X245804759Y-80218397D01*
X246011035Y-80218397D01*
X246011036Y-80218397D01*
X246214773Y-80186128D01*
X246295793Y-80159802D01*
X246365632Y-80157807D01*
X246425465Y-80193887D01*
X246456294Y-80256588D01*
X246452041Y-80316052D01*
X246425717Y-80397067D01*
X246425717Y-80397070D01*
X246393448Y-80600809D01*
X246393448Y-80807086D01*
X246425717Y-81010825D01*
X246425717Y-81010828D01*
X246489458Y-81207002D01*
X246529460Y-81285510D01*
X246583108Y-81390800D01*
X246704355Y-81557681D01*
X246850215Y-81703541D01*
X247017096Y-81824788D01*
X247200891Y-81918436D01*
X247200893Y-81918437D01*
X247397068Y-81982178D01*
X247397069Y-81982178D01*
X247397072Y-81982179D01*
X247600809Y-82014448D01*
X247600810Y-82014448D01*
X247807086Y-82014448D01*
X247807087Y-82014448D01*
X248010824Y-81982179D01*
X248091844Y-81955853D01*
X248161684Y-81953859D01*
X248221517Y-81989939D01*
X248252346Y-82052639D01*
X248248093Y-82112102D01*
X248221770Y-82193115D01*
X248221769Y-82193122D01*
X248221769Y-82193124D01*
X248189500Y-82396861D01*
X248189500Y-82603139D01*
X248199434Y-82665857D01*
X248221769Y-82806877D01*
X248221769Y-82806880D01*
X248285510Y-83003054D01*
X248285512Y-83003057D01*
X248379160Y-83186852D01*
X248500407Y-83353733D01*
X248646267Y-83499593D01*
X248813148Y-83620840D01*
X248996943Y-83714488D01*
X248996945Y-83714489D01*
X249193120Y-83778230D01*
X249193121Y-83778230D01*
X249193124Y-83778231D01*
X249396861Y-83810500D01*
X249396862Y-83810500D01*
X249603134Y-83810500D01*
X249603139Y-83810500D01*
X249621830Y-83807539D01*
X249691120Y-83816492D01*
X249744573Y-83861487D01*
X249765214Y-83928238D01*
X249746491Y-83995552D01*
X249737781Y-84007815D01*
X249725585Y-84022950D01*
X249725584Y-84022951D01*
X249665857Y-84153732D01*
X249665856Y-84153737D01*
X249645396Y-84296051D01*
X249665856Y-84438364D01*
X249665857Y-84438369D01*
X249725583Y-84569148D01*
X249763163Y-84615783D01*
X250192964Y-85045584D01*
X250804917Y-84433630D01*
X250820800Y-84492906D01*
X250887944Y-84609203D01*
X250982899Y-84704158D01*
X251099196Y-84771302D01*
X251158470Y-84787184D01*
X250546517Y-85399137D01*
X250976318Y-85828938D01*
X251022953Y-85866518D01*
X251153732Y-85926244D01*
X251153737Y-85926245D01*
X251296051Y-85946705D01*
X251438364Y-85926245D01*
X251438369Y-85926244D01*
X251569148Y-85866518D01*
X251615783Y-85828938D01*
X252045584Y-85399137D01*
X252045584Y-85399136D01*
X251433631Y-84787184D01*
X251492906Y-84771302D01*
X251609203Y-84704158D01*
X251704158Y-84609203D01*
X251771302Y-84492906D01*
X251787184Y-84433631D01*
X252399136Y-85045584D01*
X252399137Y-85045584D01*
X252828938Y-84615783D01*
X252866518Y-84569148D01*
X252926244Y-84438369D01*
X252926245Y-84438364D01*
X252946705Y-84296051D01*
X252926245Y-84153737D01*
X252926244Y-84153732D01*
X252866518Y-84022953D01*
X252828938Y-83976318D01*
X252399137Y-83546517D01*
X252399136Y-83546517D01*
X251787184Y-84158469D01*
X251771302Y-84099196D01*
X251704158Y-83982899D01*
X251609203Y-83887944D01*
X251492906Y-83820800D01*
X251433630Y-83804917D01*
X252045584Y-83192964D01*
X251615783Y-82763163D01*
X251569148Y-82725583D01*
X251438369Y-82665857D01*
X251438364Y-82665856D01*
X251296051Y-82645396D01*
X251153737Y-82665856D01*
X251153732Y-82665857D01*
X251022951Y-82725584D01*
X251022950Y-82725585D01*
X251007815Y-82737781D01*
X250943262Y-82764517D01*
X250874503Y-82752109D01*
X250823368Y-82704497D01*
X250806091Y-82636797D01*
X250807537Y-82621846D01*
X250810500Y-82603139D01*
X250810500Y-82396861D01*
X250778231Y-82193124D01*
X250778230Y-82193120D01*
X250778230Y-82193119D01*
X250714489Y-81996945D01*
X250632932Y-81836880D01*
X250620840Y-81813148D01*
X250499593Y-81646267D01*
X250353733Y-81500407D01*
X250186852Y-81379160D01*
X250163118Y-81367067D01*
X250003054Y-81285510D01*
X249806879Y-81221769D01*
X249654073Y-81197567D01*
X249603139Y-81189500D01*
X249396861Y-81189500D01*
X249328948Y-81200256D01*
X249193122Y-81221769D01*
X249193115Y-81221770D01*
X249112102Y-81248093D01*
X249042261Y-81250088D01*
X248982429Y-81214007D01*
X248951601Y-81151306D01*
X248955854Y-81091843D01*
X248982179Y-81010824D01*
X249014448Y-80807086D01*
X249014448Y-80600809D01*
X248982179Y-80397072D01*
X248982178Y-80397068D01*
X248982178Y-80397067D01*
X248918437Y-80200893D01*
X248830719Y-80028737D01*
X248824788Y-80017096D01*
X248703541Y-79850215D01*
X248557681Y-79704355D01*
X248390800Y-79583108D01*
X248367064Y-79571014D01*
X248207002Y-79489458D01*
X248010827Y-79425717D01*
X247858021Y-79401515D01*
X247807087Y-79393448D01*
X247600809Y-79393448D01*
X247532896Y-79404204D01*
X247397070Y-79425717D01*
X247397067Y-79425717D01*
X247316052Y-79452041D01*
X247246210Y-79454036D01*
X247186378Y-79417955D01*
X247155550Y-79355254D01*
X247159802Y-79295793D01*
X247186128Y-79214773D01*
X247218397Y-79011036D01*
X247218397Y-78804758D01*
X247186128Y-78601021D01*
X247186127Y-78601017D01*
X247186127Y-78601016D01*
X247122386Y-78404842D01*
X247028736Y-78221044D01*
X246907490Y-78054164D01*
X246761630Y-77908304D01*
X246594749Y-77787057D01*
X246410951Y-77693407D01*
X246214776Y-77629666D01*
X246061970Y-77605464D01*
X246011036Y-77597397D01*
X245804758Y-77597397D01*
X245736845Y-77608153D01*
X245601019Y-77629666D01*
X245601016Y-77629666D01*
X245404842Y-77693407D01*
X245221044Y-77787057D01*
X245054162Y-77908305D01*
X244908305Y-78054162D01*
X244787057Y-78221044D01*
X244693407Y-78404842D01*
X244629666Y-78601016D01*
X244629666Y-78601019D01*
X244597397Y-78804758D01*
X242500000Y-78804758D01*
X242500000Y-76124000D01*
X242519685Y-76056961D01*
X242572489Y-76011206D01*
X242624000Y-76000000D01*
X253876000Y-76000000D01*
X253943039Y-76019685D01*
G37*
%TD.AperFunction*%
%TD*%
%TA.AperFunction,Conductor*%
%TO.N,+8V*%
G36*
X196443039Y-76019685D02*
G01*
X196488794Y-76072489D01*
X196500000Y-76124000D01*
X196500000Y-81549013D01*
X196480315Y-81616052D01*
X196427511Y-81661807D01*
X196358353Y-81671751D01*
X196294797Y-81642726D01*
X196261439Y-81596466D01*
X196209395Y-81470820D01*
X196209390Y-81470811D01*
X196121789Y-81339708D01*
X196121786Y-81339704D01*
X196010292Y-81228210D01*
X196010288Y-81228207D01*
X195879185Y-81140606D01*
X195879172Y-81140599D01*
X195733501Y-81080261D01*
X195733489Y-81080258D01*
X195578845Y-81049497D01*
X195578842Y-81049497D01*
X195421158Y-81049497D01*
X195421155Y-81049497D01*
X195266510Y-81080258D01*
X195266498Y-81080261D01*
X195120827Y-81140599D01*
X195120814Y-81140606D01*
X194989711Y-81228207D01*
X194989707Y-81228210D01*
X194878213Y-81339704D01*
X194878210Y-81339708D01*
X194790609Y-81470811D01*
X194790602Y-81470824D01*
X194730264Y-81616495D01*
X194730261Y-81616507D01*
X194699500Y-81771150D01*
X194699500Y-81928843D01*
X194730261Y-82083486D01*
X194730263Y-82083494D01*
X194741559Y-82110767D01*
X194748510Y-82127547D01*
X194755978Y-82197016D01*
X194748510Y-82222448D01*
X194730263Y-82266501D01*
X194730260Y-82266511D01*
X194699500Y-82421153D01*
X194699500Y-82578846D01*
X194727880Y-82721518D01*
X194730263Y-82733497D01*
X194738070Y-82752345D01*
X194748510Y-82777550D01*
X194755978Y-82847019D01*
X194748510Y-82872451D01*
X194730263Y-82916504D01*
X194730260Y-82916514D01*
X194699500Y-83071156D01*
X194699500Y-83228849D01*
X194730261Y-83383492D01*
X194730264Y-83383504D01*
X194790602Y-83529175D01*
X194790609Y-83529188D01*
X194878210Y-83660291D01*
X194878213Y-83660295D01*
X194989707Y-83771789D01*
X194989711Y-83771792D01*
X195120814Y-83859393D01*
X195120827Y-83859400D01*
X195266498Y-83919738D01*
X195266503Y-83919740D01*
X195421153Y-83950502D01*
X195421156Y-83950503D01*
X195421158Y-83950503D01*
X195578844Y-83950503D01*
X195578845Y-83950502D01*
X195733497Y-83919740D01*
X195879179Y-83859397D01*
X196010289Y-83771792D01*
X196121789Y-83660292D01*
X196209394Y-83529182D01*
X196228863Y-83482179D01*
X196261439Y-83403534D01*
X196305280Y-83349130D01*
X196371574Y-83327065D01*
X196439273Y-83344344D01*
X196486884Y-83395481D01*
X196500000Y-83450986D01*
X196500000Y-86876000D01*
X196480315Y-86943039D01*
X196427511Y-86988794D01*
X196376000Y-87000000D01*
X186124000Y-87000000D01*
X186056961Y-86980315D01*
X186011206Y-86927511D01*
X186000000Y-86876000D01*
X186000000Y-83896861D01*
X187393449Y-83896861D01*
X187393449Y-84103138D01*
X187425718Y-84306877D01*
X187425718Y-84306880D01*
X187489459Y-84503054D01*
X187489461Y-84503057D01*
X187583109Y-84686852D01*
X187704356Y-84853733D01*
X187850216Y-84999593D01*
X188017097Y-85120840D01*
X188200892Y-85214488D01*
X188200894Y-85214489D01*
X188397069Y-85278230D01*
X188397070Y-85278230D01*
X188397073Y-85278231D01*
X188600810Y-85310500D01*
X188600811Y-85310500D01*
X188807087Y-85310500D01*
X188807088Y-85310500D01*
X189010825Y-85278231D01*
X189010828Y-85278230D01*
X189010829Y-85278230D01*
X189207003Y-85214489D01*
X189207003Y-85214488D01*
X189207006Y-85214488D01*
X189390801Y-85120840D01*
X189557682Y-84999593D01*
X189703542Y-84853733D01*
X189824789Y-84686852D01*
X189918437Y-84503057D01*
X189982180Y-84306876D01*
X190014449Y-84103139D01*
X190014449Y-83896861D01*
X189982180Y-83693124D01*
X189982179Y-83693120D01*
X189982179Y-83693119D01*
X189955856Y-83612105D01*
X189953861Y-83542264D01*
X189989941Y-83482431D01*
X190052642Y-83451603D01*
X190112105Y-83455856D01*
X190193120Y-83482179D01*
X190193121Y-83482179D01*
X190193124Y-83482180D01*
X190396861Y-83514449D01*
X190396862Y-83514449D01*
X190603138Y-83514449D01*
X190603139Y-83514449D01*
X190806876Y-83482180D01*
X190806879Y-83482179D01*
X190806880Y-83482179D01*
X191003054Y-83418438D01*
X191003054Y-83418437D01*
X191003057Y-83418437D01*
X191186852Y-83324789D01*
X191353733Y-83203542D01*
X191499593Y-83057682D01*
X191620840Y-82890801D01*
X191714488Y-82707006D01*
X191729214Y-82661685D01*
X191778230Y-82510829D01*
X191778230Y-82510828D01*
X191778231Y-82510825D01*
X191810500Y-82307088D01*
X191810500Y-82100810D01*
X191778231Y-81897073D01*
X191751905Y-81816052D01*
X191749911Y-81746211D01*
X191785991Y-81686378D01*
X191848692Y-81655550D01*
X191908155Y-81659802D01*
X191989176Y-81686128D01*
X192192913Y-81718397D01*
X192192914Y-81718397D01*
X192399190Y-81718397D01*
X192399191Y-81718397D01*
X192602928Y-81686128D01*
X192602931Y-81686127D01*
X192602932Y-81686127D01*
X192799106Y-81622386D01*
X192799106Y-81622385D01*
X192799109Y-81622385D01*
X192982904Y-81528737D01*
X193149785Y-81407490D01*
X193295645Y-81261630D01*
X193416892Y-81094749D01*
X193510540Y-80910954D01*
X193574283Y-80714773D01*
X193606552Y-80511036D01*
X193606552Y-80304758D01*
X193603591Y-80286065D01*
X193612545Y-80216776D01*
X193657540Y-80163323D01*
X193724291Y-80142682D01*
X193791605Y-80161406D01*
X193803869Y-80170117D01*
X193819001Y-80182311D01*
X193819003Y-80182312D01*
X193949784Y-80242039D01*
X193949789Y-80242040D01*
X194092103Y-80262500D01*
X194234416Y-80242040D01*
X194234421Y-80242039D01*
X194365200Y-80182313D01*
X194411835Y-80144733D01*
X194841636Y-79714932D01*
X194841636Y-79714931D01*
X194229683Y-79102979D01*
X194288958Y-79087097D01*
X194405255Y-79019953D01*
X194500210Y-78924998D01*
X194567354Y-78808701D01*
X194583236Y-78749426D01*
X195195188Y-79361379D01*
X195195189Y-79361379D01*
X195624990Y-78931578D01*
X195662570Y-78884943D01*
X195722296Y-78754164D01*
X195722297Y-78754159D01*
X195742757Y-78611846D01*
X195722297Y-78469532D01*
X195722296Y-78469527D01*
X195662570Y-78338748D01*
X195624990Y-78292113D01*
X195195189Y-77862312D01*
X195195188Y-77862312D01*
X194583236Y-78474264D01*
X194567354Y-78414991D01*
X194500210Y-78298694D01*
X194405255Y-78203739D01*
X194288958Y-78136595D01*
X194229682Y-78120712D01*
X194841636Y-77508759D01*
X194411835Y-77078958D01*
X194365200Y-77041378D01*
X194234421Y-76981652D01*
X194234416Y-76981651D01*
X194092103Y-76961191D01*
X193949789Y-76981651D01*
X193949784Y-76981652D01*
X193819005Y-77041378D01*
X193772365Y-77078962D01*
X193342569Y-77508758D01*
X193342569Y-77508759D01*
X193954522Y-78120712D01*
X193895248Y-78136595D01*
X193778951Y-78203739D01*
X193683996Y-78298694D01*
X193616852Y-78414991D01*
X193600969Y-78474265D01*
X192989017Y-77862312D01*
X192989015Y-77862312D01*
X192559219Y-78292108D01*
X192521635Y-78338748D01*
X192461909Y-78469527D01*
X192461908Y-78469532D01*
X192441448Y-78611846D01*
X192461908Y-78754159D01*
X192461909Y-78754164D01*
X192521635Y-78884943D01*
X192533832Y-78900079D01*
X192560569Y-78964631D01*
X192548162Y-79033390D01*
X192500551Y-79084527D01*
X192432851Y-79101805D01*
X192417890Y-79100358D01*
X192399191Y-79097397D01*
X192192913Y-79097397D01*
X192125000Y-79108153D01*
X191989174Y-79129666D01*
X191989171Y-79129666D01*
X191792997Y-79193407D01*
X191609199Y-79287057D01*
X191442317Y-79408305D01*
X191296460Y-79554162D01*
X191175212Y-79721044D01*
X191081562Y-79904842D01*
X191017821Y-80101016D01*
X191017821Y-80101019D01*
X190985552Y-80304758D01*
X190985552Y-80511035D01*
X191017821Y-80714774D01*
X191017821Y-80714777D01*
X191044145Y-80795793D01*
X191046140Y-80865635D01*
X191010059Y-80925467D01*
X190947358Y-80956295D01*
X190887896Y-80952042D01*
X190806879Y-80925718D01*
X190654073Y-80901516D01*
X190603139Y-80893449D01*
X190396861Y-80893449D01*
X190328948Y-80904205D01*
X190193122Y-80925718D01*
X190193119Y-80925718D01*
X189996945Y-80989459D01*
X189813147Y-81083109D01*
X189646265Y-81204357D01*
X189500408Y-81350214D01*
X189379160Y-81517096D01*
X189285510Y-81700894D01*
X189221769Y-81897068D01*
X189221769Y-81897071D01*
X189189500Y-82100810D01*
X189189500Y-82307087D01*
X189221769Y-82510826D01*
X189221770Y-82510833D01*
X189248092Y-82591844D01*
X189250087Y-82661685D01*
X189214006Y-82721518D01*
X189151305Y-82752345D01*
X189091844Y-82748092D01*
X189010833Y-82721770D01*
X189010826Y-82721769D01*
X188908956Y-82705634D01*
X188807088Y-82689500D01*
X188600810Y-82689500D01*
X188532897Y-82700256D01*
X188397071Y-82721769D01*
X188397068Y-82721769D01*
X188200894Y-82785510D01*
X188017096Y-82879160D01*
X187850214Y-83000408D01*
X187704357Y-83146265D01*
X187583109Y-83313147D01*
X187489459Y-83496945D01*
X187425718Y-83693119D01*
X187425718Y-83693122D01*
X187393449Y-83896861D01*
X186000000Y-83896861D01*
X186000000Y-76124000D01*
X186019685Y-76056961D01*
X186072489Y-76011206D01*
X186124000Y-76000000D01*
X196376000Y-76000000D01*
X196443039Y-76019685D01*
G37*
%TD.AperFunction*%
%TD*%
M02*
