M48
; DRILL file {KiCad 9.0.7} date 2026-02-28T17:01:56+0100
; FORMAT={-:-/ absolute / metric / decimal}
; #@! TF.CreationDate,2026-02-28T17:01:56+01:00
; #@! TF.GenerationSoftware,Kicad,Pcbnew,9.0.7
; #@! TF.FileFunction,Plated,1,4,PTH
FMAT,2
METRIC
; #@! TA.AperFunction,Plated,PTH,ViaDrill
T1C0.300
; #@! TA.AperFunction,Plated,PTH,ComponentDrill
T2C0.750
; #@! TA.AperFunction,Plated,PTH,ComponentDrill
T3C0.800
; #@! TA.AperFunction,Plated,PTH,ComponentDrill
T4C0.900
; #@! TA.AperFunction,Plated,PTH,ComponentDrill
T5C1.020
; #@! TA.AperFunction,Plated,PTH,ComponentDrill
T6C1.100
%
G90
G05
T1
X186.2Y-115.0
X186.7Y-141.0
X187.4Y-141.0
X188.1Y-141.0
X188.2Y-128.1
X188.3Y-122.9
X188.5Y-76.75
X188.5Y-77.5
X188.5Y-78.25
X190.2Y-122.8
X190.2Y-128.0
X191.25Y-85.5
X192.0Y-85.5
X192.75Y-85.5
X194.0Y-134.4
X194.0Y-135.0
X194.0Y-135.6
X194.2Y-123.0
X194.2Y-127.7
X194.5Y-119.8
X195.0Y-124.5
X195.0Y-125.3
X195.5Y-81.85
X195.5Y-82.5
X195.5Y-83.15
X195.5Y-110.7
X197.3Y-122.9
X197.3Y-127.5
X199.2Y-78.2
X199.5Y-107.5
X199.5Y-109.0
X200.4Y-134.1
X202.2Y-86.1
X204.9Y-78.9
X205.8Y-137.6
X206.0Y-142.0
X208.0Y-98.0
X208.5Y-77.9
X208.6Y-76.4
X209.0Y-98.0
X209.2Y-119.3
X209.3Y-113.5
X209.3Y-116.4
X210.0Y-98.0
X211.0Y-98.0
X211.2Y-130.6
X212.0Y-98.0
X212.0Y-106.8
X212.1Y-130.6
X212.8Y-78.9
X213.0Y-98.0
X213.7Y-91.1
X213.7Y-92.1
X214.0Y-98.0
X214.6Y-114.55
X214.75Y-102.8
X214.8Y-105.9
X215.5Y-111.0
X216.85Y-127.55
X217.35Y-122.55
X217.5Y-82.0
X217.5Y-83.5
X217.5Y-84.75
X218.1Y-98.0
X219.0Y-82.0
X219.0Y-83.5
X219.0Y-84.75
X219.0Y-98.0
X219.5Y-110.4
X219.77Y-120.55
X220.5Y-82.0
X220.5Y-83.5
X220.5Y-84.75
X222.6Y-121.8
X222.6Y-123.8
X223.0Y-103.0
X223.0Y-110.6
X224.2Y-101.6
X225.75Y-104.4
X225.85Y-114.55
X228.0Y-98.0
X228.7Y-126.3
X228.8Y-123.9
X229.0Y-98.0
X229.9Y-96.1
X230.0Y-98.0
X230.4Y-76.38
X231.0Y-98.0
X231.0Y-106.6
X231.0Y-109.4
X231.9Y-98.0
X232.9Y-98.0
X233.2Y-113.7
X233.3Y-116.5
X233.4Y-119.4
X233.8Y-98.0
X237.4Y-100.0
X237.5Y-108.0
X239.5Y-108.0
X239.5Y-109.0
X240.0Y-131.1
X243.3Y-137.2
X243.3Y-137.8
X243.3Y-138.4
X243.75Y-86.0
X244.5Y-86.0
X244.9Y-123.1
X244.9Y-127.9
X245.25Y-86.0
X247.35Y-87.0
X248.0Y-87.0
X248.1Y-107.4
X248.65Y-87.0
X249.8Y-118.7
X250.0Y-122.1
X250.0Y-122.9
X250.0Y-123.6
X250.0Y-127.1
X250.0Y-127.75
X250.0Y-128.4
X251.25Y-78.5
X251.5Y-141.55
X251.5Y-142.3
X251.5Y-143.05
X252.0Y-78.5
X252.75Y-78.5
X254.0Y-115.0
T2
X191.51Y-122.5
X191.51Y-128.3
T4
X253.15Y-124.5
X253.15Y-126.5
T5
X188.704Y-84.0
X188.708Y-136.008
X190.5Y-82.204
X190.504Y-137.804
X192.296Y-80.408
X192.3Y-139.6
X194.092Y-78.612
X194.096Y-141.396
X245.908Y-78.908
X246.006Y-141.294
X247.704Y-80.704
X247.802Y-139.498
X249.5Y-82.5
X249.598Y-137.702
X251.296Y-84.296
X251.394Y-135.906
T6
X188.6Y-91.76
X188.6Y-94.3
X188.6Y-96.84
X188.6Y-99.38
X188.6Y-101.92
X188.6Y-104.46
X188.6Y-107.0
X188.6Y-109.54
X188.6Y-112.08
X188.6Y-114.62
X208.64Y-141.5
X208.74Y-137.0
X211.18Y-141.5
X211.28Y-137.0
X213.72Y-141.5
X213.82Y-137.0
X216.26Y-141.5
X216.36Y-137.0
X218.8Y-141.5
X218.9Y-137.0
X221.34Y-141.5
X221.44Y-137.0
X223.88Y-141.5
X223.98Y-137.0
X226.42Y-141.5
X226.52Y-137.0
X228.96Y-141.5
X229.06Y-137.0
X231.5Y-141.5
X231.6Y-137.0
X251.5Y-91.72
X251.5Y-94.26
X251.5Y-96.8
X251.5Y-99.34
X251.5Y-101.88
X251.5Y-104.42
X251.5Y-106.96
X251.5Y-109.5
X251.5Y-112.04
X251.5Y-114.58
T3
G00X188.13Y-121.07
M15
G01X187.53Y-121.07
M16
G05
G00X188.13Y-129.73
M15
G01X187.53Y-129.73
M16
G05
G00X192.41Y-121.07
M15
G01X191.61Y-121.07
M16
G05
G00X192.41Y-129.73
M15
G01X191.61Y-129.73
M16
G05
M30
