%TF.GenerationSoftware,KiCad,Pcbnew,9.0.7*%
%TF.CreationDate,2026-02-28T17:01:53+01:00*%
%TF.ProjectId,esp32-drone-controller,65737033-322d-4647-926f-6e652d636f6e,rev?*%
%TF.SameCoordinates,Original*%
%TF.FileFunction,Copper,L3,Inr*%
%TF.FilePolarity,Positive*%
%FSLAX46Y46*%
G04 Gerber Fmt 4.6, Leading zero omitted, Abs format (unit mm)*
G04 Created by KiCad (PCBNEW 9.0.7) date 2026-02-28 17:01:53*
%MOMM*%
%LPD*%
G01*
G04 APERTURE LIST*
G04 Aperture macros list*
%AMRotRect*
0 Rectangle, with rotation*
0 The origin of the aperture is its center*
0 $1 length*
0 $2 width*
0 $3 Rotation angle, in degrees counterclockwise*
0 Add horizontal line*
21,1,$1,$2,0,0,$3*%
G04 Aperture macros list end*
%TA.AperFunction,ComponentPad*%
%ADD10R,1.570000X1.700000*%
%TD*%
%TA.AperFunction,ComponentPad*%
%ADD11C,1.700000*%
%TD*%
%TA.AperFunction,ComponentPad*%
%ADD12R,1.700000X1.570000*%
%TD*%
%TA.AperFunction,ComponentPad*%
%ADD13RotRect,1.620000X1.620000X315.000000*%
%TD*%
%TA.AperFunction,ComponentPad*%
%ADD14C,1.620000*%
%TD*%
%TA.AperFunction,ComponentPad*%
%ADD15C,0.750000*%
%TD*%
%TA.AperFunction,ComponentPad*%
%ADD16O,2.000000X1.200000*%
%TD*%
%TA.AperFunction,ComponentPad*%
%ADD17O,1.800000X1.200000*%
%TD*%
%TA.AperFunction,ComponentPad*%
%ADD18C,1.600000*%
%TD*%
%TA.AperFunction,ComponentPad*%
%ADD19RotRect,1.620000X1.620000X225.000000*%
%TD*%
%TA.AperFunction,ComponentPad*%
%ADD20RotRect,1.620000X1.620000X135.000000*%
%TD*%
%TA.AperFunction,ComponentPad*%
%ADD21RotRect,1.620000X1.620000X45.000000*%
%TD*%
%TA.AperFunction,ViaPad*%
%ADD22C,0.600000*%
%TD*%
G04 APERTURE END LIST*
D10*
%TO.N,GND*%
%TO.C,H4*%
X208640000Y-141500000D03*
D11*
%TO.N,+3V3*%
X211180000Y-141500000D03*
%TO.N,GPIO08*%
X213720000Y-141500000D03*
%TO.N,GPIO46*%
X216260000Y-141500000D03*
%TO.N,GPIO10*%
X218800000Y-141500000D03*
%TO.N,GPIO12*%
X221340000Y-141500000D03*
%TO.N,GPIO14*%
X223880000Y-141500000D03*
%TO.N,GPIO48*%
X226420000Y-141500000D03*
%TO.N,GPIO35*%
X228960000Y-141500000D03*
%TO.N,GPIO37*%
X231500000Y-141500000D03*
%TD*%
D12*
%TO.N,GND*%
%TO.C,H2*%
X251500000Y-114580000D03*
D11*
%TO.N,+3V3*%
X251500000Y-112040000D03*
%TO.N,GPIO39*%
X251500000Y-109500000D03*
%TO.N,GPIO40*%
X251500000Y-106960000D03*
%TO.N,GPIO41*%
X251500000Y-104420000D03*
%TO.N,GPIO42*%
X251500000Y-101880000D03*
%TO.N,GPIO44*%
X251500000Y-99340000D03*
%TO.N,GPIO43*%
X251500000Y-96800000D03*
%TO.N,GPIO02*%
X251500000Y-94260000D03*
%TO.N,GPIO01*%
X251500000Y-91720000D03*
%TD*%
D12*
%TO.N,GND*%
%TO.C,H3*%
X188600000Y-114620000D03*
D11*
%TO.N,+3V3*%
X188600000Y-112080000D03*
%TO.N,GPIO18*%
X188600000Y-109540000D03*
%TO.N,GPIO17*%
X188600000Y-107000000D03*
%TO.N,GPIO16*%
X188600000Y-104460000D03*
%TO.N,GPIO15*%
X188600000Y-101920000D03*
%TO.N,GPIO07*%
X188600000Y-99380000D03*
%TO.N,GPIO06*%
X188600000Y-96840000D03*
%TO.N,GPIO05*%
X188600000Y-94300000D03*
%TO.N,GPIO04*%
X188600000Y-91760000D03*
%TD*%
D13*
%TO.N,+8V*%
%TO.C,H8*%
X188707897Y-136007897D03*
D14*
%TO.N,GND*%
X190503948Y-137803948D03*
%TO.N,unconnected-(H8-Pad3)*%
X192300000Y-139600000D03*
%TO.N,GPIO03*%
X194096051Y-141396051D03*
%TD*%
D15*
%TO.N,*%
%TO.C,USBC1*%
X191510000Y-122500000D03*
X191510000Y-128300000D03*
D16*
%TO.N,GND*%
X192010000Y-129730000D03*
D17*
X187830000Y-129730000D03*
X187830000Y-121070000D03*
D16*
X192010000Y-121070000D03*
%TD*%
D18*
%TO.N,+8V*%
%TO.C,CN1*%
X253150000Y-124500000D03*
%TO.N,GND*%
X253150000Y-126500000D03*
%TD*%
D19*
%TO.N,+8V*%
%TO.C,H6*%
X194092103Y-78611846D03*
D14*
%TO.N,GND*%
X192296052Y-80407897D03*
%TO.N,unconnected-(H6-Pad3)*%
X190500000Y-82203949D03*
%TO.N,GPIO04*%
X188703949Y-84000000D03*
%TD*%
D10*
%TO.N,GND*%
%TO.C,H1*%
X208740000Y-137000000D03*
D11*
%TO.N,+3V3*%
X211280000Y-137000000D03*
%TO.N,GPIO03*%
X213820000Y-137000000D03*
%TO.N,GPIO09*%
X216360000Y-137000000D03*
%TO.N,GPIO11*%
X218900000Y-137000000D03*
%TO.N,GPIO13*%
X221440000Y-137000000D03*
%TO.N,GPIO47*%
X223980000Y-137000000D03*
%TO.N,GPIO45*%
X226520000Y-137000000D03*
%TO.N,GPIO36*%
X229060000Y-137000000D03*
%TO.N,GPIO38*%
X231600000Y-137000000D03*
%TD*%
D20*
%TO.N,+8V*%
%TO.C,H5*%
X251296051Y-84296051D03*
D14*
%TO.N,GND*%
X249500000Y-82500000D03*
%TO.N,unconnected-(H5-Pad3)*%
X247703948Y-80703948D03*
%TO.N,GPIO01*%
X245907897Y-78907897D03*
%TD*%
D21*
%TO.N,+8V*%
%TO.C,H7*%
X246005923Y-141294077D03*
D14*
%TO.N,GND*%
X247801974Y-139498026D03*
%TO.N,unconnected-(H7-Pad3)*%
X249598026Y-137701974D03*
%TO.N,GPIO38*%
X251394077Y-135905923D03*
%TD*%
D22*
%TO.N,GND*%
X231000000Y-106600000D03*
X250000000Y-127749997D03*
X223000000Y-110600000D03*
X206000000Y-142000000D03*
X243300000Y-138400000D03*
X222600000Y-121800000D03*
X220500000Y-84750000D03*
X243300000Y-137200000D03*
X212000000Y-106800000D03*
X231000000Y-109400000D03*
X220500000Y-82000000D03*
X194000000Y-135600000D03*
X248100000Y-107400000D03*
X209300000Y-116400000D03*
X233300000Y-116500000D03*
X194000000Y-135000000D03*
X214750000Y-102800000D03*
X222600000Y-123800000D03*
X219000000Y-82000000D03*
X197300000Y-122900000D03*
X195500000Y-83150003D03*
X190200000Y-122800000D03*
X233200000Y-113700000D03*
X209300000Y-113500000D03*
X220500000Y-83500000D03*
X248000000Y-87000000D03*
X214800000Y-105900000D03*
X200400000Y-134100000D03*
X247349997Y-87000000D03*
X217500000Y-82000000D03*
X217500000Y-83500000D03*
X223000000Y-103000000D03*
X243300000Y-137800000D03*
X250000000Y-128400000D03*
X244900000Y-127900000D03*
X248650003Y-87000000D03*
X250000000Y-127099994D03*
X240000000Y-131100000D03*
X219000000Y-84750000D03*
X195500000Y-110700000D03*
X186200000Y-115000000D03*
X202200000Y-86100000D03*
X233400000Y-119400000D03*
X216850000Y-127550000D03*
X228800000Y-123900000D03*
X188300000Y-122900000D03*
X208600000Y-76400000D03*
X219000000Y-83500000D03*
X217500000Y-84750000D03*
X237500000Y-108000000D03*
X230400000Y-76380000D03*
X224200000Y-101600000D03*
X195500000Y-81849997D03*
X228700000Y-126300000D03*
X205800000Y-137600000D03*
X190200000Y-128000000D03*
X194000000Y-134400000D03*
X195500000Y-82500000D03*
X209200000Y-119300000D03*
X225850000Y-114550000D03*
X214600000Y-114550000D03*
X254000000Y-115000000D03*
X188200000Y-128100000D03*
%TO.N,+5V*%
X197300000Y-127500000D03*
X194500000Y-119800000D03*
X194200000Y-123000000D03*
X194200000Y-127700000D03*
%TO.N,+8V*%
X250000000Y-123600000D03*
X192750003Y-85500000D03*
X250000000Y-122100000D03*
X251500000Y-143050003D03*
X252750003Y-78500000D03*
X244500000Y-86000000D03*
X188500000Y-77500000D03*
X188100000Y-141000000D03*
X192000000Y-85500000D03*
X252000000Y-78500000D03*
X191249997Y-85500000D03*
X188500000Y-76749997D03*
X251249997Y-78500000D03*
X188500000Y-78250003D03*
X186700000Y-141000000D03*
X244900000Y-123100000D03*
X245250003Y-86000000D03*
X249800000Y-118700000D03*
X251500000Y-141549997D03*
X187400000Y-141000000D03*
X250000000Y-122900000D03*
X243749997Y-86000000D03*
X251500000Y-142300000D03*
%TO.N,EN*%
X212800000Y-78900000D03*
X204900000Y-78900000D03*
%TO.N,+3V3*%
X199500000Y-107500000D03*
X208500000Y-77900000D03*
X219770000Y-120550000D03*
X199200000Y-78200000D03*
X215500000Y-111000000D03*
X239500000Y-108000000D03*
X239500000Y-109000000D03*
X217350000Y-122550000D03*
X212100000Y-130600000D03*
X225750000Y-104400000D03*
X199500000Y-109000000D03*
X211200000Y-130600000D03*
%TO.N,GPIO03*%
X209000000Y-98000000D03*
%TO.N,GPIO08*%
X208000000Y-98000000D03*
%TO.N,GPIO14*%
X219000000Y-98000000D03*
%TO.N,GPIO10*%
X212000000Y-98000000D03*
%TO.N,GPIO11*%
X213000000Y-98000000D03*
%TO.N,GPIO12*%
X214000000Y-98000000D03*
X219500000Y-110400000D03*
%TO.N,GPIO13*%
X218100000Y-98000000D03*
%TO.N,GPIO09*%
X211000000Y-98000000D03*
%TO.N,GPIO35*%
X231000000Y-98000000D03*
%TO.N,GPIO38*%
X233800000Y-98000000D03*
%TO.N,GPIO36*%
X231900000Y-98000000D03*
%TO.N,GPIO37*%
X232900000Y-98000000D03*
%TO.N,GPIO46*%
X210000000Y-98000000D03*
%TO.N,GPIO47*%
X228000000Y-98000000D03*
%TO.N,GPIO45*%
X230000000Y-98000000D03*
%TO.N,GPIO00*%
X237400000Y-100000000D03*
X229900000Y-96100000D03*
%TO.N,D-*%
X213700000Y-91100000D03*
X195000000Y-124500000D03*
%TO.N,D+*%
X195000000Y-125300000D03*
X213700000Y-92100000D03*
%TO.N,GPIO48*%
X229000000Y-98000000D03*
%TD*%
%TA.AperFunction,Conductor*%
%TO.N,GND*%
G36*
X254006061Y-75201097D02*
G01*
X254016051Y-75202080D01*
X254143824Y-75214665D01*
X254167652Y-75219404D01*
X254294277Y-75257815D01*
X254316725Y-75267114D01*
X254433406Y-75329482D01*
X254453616Y-75342986D01*
X254555891Y-75426920D01*
X254573079Y-75444108D01*
X254657012Y-75546381D01*
X254670517Y-75566593D01*
X254732883Y-75683271D01*
X254742186Y-75705728D01*
X254780593Y-75832338D01*
X254785335Y-75856180D01*
X254798903Y-75993938D01*
X254799500Y-76006092D01*
X254799500Y-143993907D01*
X254798903Y-144006060D01*
X254798903Y-144006061D01*
X254785335Y-144143819D01*
X254780593Y-144167661D01*
X254742186Y-144294271D01*
X254732883Y-144316728D01*
X254670517Y-144433406D01*
X254657012Y-144453618D01*
X254573079Y-144555891D01*
X254555891Y-144573079D01*
X254453618Y-144657012D01*
X254433406Y-144670517D01*
X254316728Y-144732883D01*
X254294271Y-144742186D01*
X254167661Y-144780593D01*
X254143819Y-144785335D01*
X254006062Y-144798903D01*
X253993908Y-144799500D01*
X186006092Y-144799500D01*
X185993938Y-144798903D01*
X185856180Y-144785335D01*
X185832340Y-144780593D01*
X185705728Y-144742186D01*
X185683271Y-144732883D01*
X185566593Y-144670517D01*
X185546381Y-144657012D01*
X185444108Y-144573079D01*
X185426920Y-144555891D01*
X185342986Y-144453616D01*
X185329482Y-144433406D01*
X185267116Y-144316728D01*
X185257815Y-144294277D01*
X185219404Y-144167652D01*
X185214665Y-144143824D01*
X185201097Y-144006060D01*
X185200500Y-143993907D01*
X185200500Y-140921153D01*
X185899500Y-140921153D01*
X185899500Y-141078846D01*
X185930261Y-141233489D01*
X185930264Y-141233501D01*
X185990602Y-141379172D01*
X185990609Y-141379185D01*
X186078210Y-141510288D01*
X186078213Y-141510292D01*
X186189707Y-141621786D01*
X186189711Y-141621789D01*
X186320814Y-141709390D01*
X186320827Y-141709397D01*
X186418853Y-141750000D01*
X186466503Y-141769737D01*
X186621153Y-141800499D01*
X186621156Y-141800500D01*
X186621158Y-141800500D01*
X186778844Y-141800500D01*
X186778845Y-141800499D01*
X186933497Y-141769737D01*
X187002549Y-141741134D01*
X187072016Y-141733666D01*
X187097447Y-141741133D01*
X187166503Y-141769737D01*
X187321153Y-141800499D01*
X187321156Y-141800500D01*
X187321158Y-141800500D01*
X187478844Y-141800500D01*
X187478845Y-141800499D01*
X187633497Y-141769737D01*
X187702549Y-141741134D01*
X187772016Y-141733666D01*
X187797447Y-141741133D01*
X187866503Y-141769737D01*
X188021153Y-141800499D01*
X188021156Y-141800500D01*
X188021158Y-141800500D01*
X188178844Y-141800500D01*
X188178845Y-141800499D01*
X188333497Y-141769737D01*
X188450001Y-141721480D01*
X188479172Y-141709397D01*
X188479172Y-141709396D01*
X188479179Y-141709394D01*
X188610289Y-141621789D01*
X188721789Y-141510289D01*
X188809394Y-141379179D01*
X188869737Y-141233497D01*
X188900500Y-141078842D01*
X188900500Y-140921158D01*
X188900500Y-140921155D01*
X188900499Y-140921153D01*
X188886328Y-140849910D01*
X188869737Y-140766503D01*
X188850823Y-140720840D01*
X188809397Y-140620827D01*
X188809390Y-140620814D01*
X188721789Y-140489711D01*
X188721786Y-140489707D01*
X188610292Y-140378213D01*
X188610288Y-140378210D01*
X188479185Y-140290609D01*
X188479172Y-140290602D01*
X188333501Y-140230264D01*
X188333489Y-140230261D01*
X188178845Y-140199500D01*
X188178842Y-140199500D01*
X188021158Y-140199500D01*
X188021155Y-140199500D01*
X187866511Y-140230260D01*
X187866506Y-140230262D01*
X187866504Y-140230262D01*
X187866503Y-140230263D01*
X187797449Y-140258865D01*
X187727982Y-140266333D01*
X187702552Y-140258865D01*
X187633497Y-140230263D01*
X187633493Y-140230262D01*
X187633488Y-140230260D01*
X187478845Y-140199500D01*
X187478842Y-140199500D01*
X187321158Y-140199500D01*
X187321155Y-140199500D01*
X187166511Y-140230260D01*
X187166506Y-140230262D01*
X187166504Y-140230262D01*
X187166503Y-140230263D01*
X187097449Y-140258865D01*
X187027982Y-140266333D01*
X187002552Y-140258865D01*
X186933497Y-140230263D01*
X186933493Y-140230262D01*
X186933488Y-140230260D01*
X186778845Y-140199500D01*
X186778842Y-140199500D01*
X186621158Y-140199500D01*
X186621155Y-140199500D01*
X186466510Y-140230261D01*
X186466498Y-140230264D01*
X186320827Y-140290602D01*
X186320814Y-140290609D01*
X186189711Y-140378210D01*
X186189707Y-140378213D01*
X186078213Y-140489707D01*
X186078210Y-140489711D01*
X185990609Y-140620814D01*
X185990602Y-140620827D01*
X185930264Y-140766498D01*
X185930261Y-140766510D01*
X185899500Y-140921153D01*
X185200500Y-140921153D01*
X185200500Y-136007897D01*
X187056738Y-136007897D01*
X187077218Y-136150352D01*
X187077219Y-136150356D01*
X187137005Y-136281267D01*
X187137006Y-136281268D01*
X187137007Y-136281270D01*
X187174626Y-136327953D01*
X187174629Y-136327956D01*
X187174634Y-136327962D01*
X188090912Y-137244238D01*
X188387841Y-137541167D01*
X188434524Y-137578787D01*
X188434525Y-137578787D01*
X188434527Y-137578789D01*
X188565437Y-137638574D01*
X188565438Y-137638574D01*
X188565440Y-137638575D01*
X188707897Y-137659056D01*
X188850354Y-137638575D01*
X188981270Y-137578787D01*
X189027953Y-137541168D01*
X189029279Y-137539842D01*
X189029665Y-137539630D01*
X189030436Y-137538939D01*
X189030599Y-137539120D01*
X189090597Y-137506348D01*
X189160290Y-137511323D01*
X189211263Y-137546980D01*
X189217214Y-137553948D01*
X190059380Y-137553948D01*
X190028697Y-137607093D01*
X189993941Y-137736804D01*
X189993941Y-137871092D01*
X190028697Y-138000803D01*
X190059380Y-138053948D01*
X189217214Y-138053948D01*
X189226203Y-138110703D01*
X189226203Y-138110704D01*
X189289924Y-138306816D01*
X189383535Y-138490538D01*
X189504738Y-138657357D01*
X189504738Y-138657358D01*
X189650537Y-138803157D01*
X189817357Y-138924360D01*
X190001079Y-139017971D01*
X190197182Y-139081690D01*
X190253948Y-139090680D01*
X190253948Y-138248515D01*
X190307093Y-138279199D01*
X190436804Y-138313955D01*
X190571092Y-138313955D01*
X190700803Y-138279199D01*
X190753948Y-138248515D01*
X190753948Y-139090679D01*
X190810709Y-139081690D01*
X190892033Y-139055266D01*
X190961874Y-139053270D01*
X191021708Y-139089350D01*
X191052537Y-139152051D01*
X191048284Y-139211514D01*
X191021770Y-139293115D01*
X191021769Y-139293122D01*
X191021769Y-139293124D01*
X190989500Y-139496861D01*
X190989500Y-139703139D01*
X190997713Y-139754995D01*
X191021769Y-139906877D01*
X191021769Y-139906880D01*
X191085510Y-140103054D01*
X191150327Y-140230264D01*
X191179160Y-140286852D01*
X191300407Y-140453733D01*
X191446267Y-140599593D01*
X191613148Y-140720840D01*
X191750274Y-140790709D01*
X191796945Y-140814489D01*
X191993120Y-140878230D01*
X191993121Y-140878230D01*
X191993124Y-140878231D01*
X192196861Y-140910500D01*
X192196862Y-140910500D01*
X192403138Y-140910500D01*
X192403139Y-140910500D01*
X192606876Y-140878231D01*
X192687896Y-140851905D01*
X192757735Y-140849910D01*
X192817568Y-140885990D01*
X192848397Y-140948691D01*
X192844144Y-141008155D01*
X192817820Y-141089170D01*
X192817820Y-141089173D01*
X192802839Y-141183760D01*
X192785551Y-141292912D01*
X192785551Y-141499190D01*
X192796362Y-141567446D01*
X192817820Y-141702928D01*
X192817820Y-141702931D01*
X192881561Y-141899105D01*
X192918933Y-141972451D01*
X192975211Y-142082903D01*
X193096458Y-142249784D01*
X193242318Y-142395644D01*
X193409199Y-142516891D01*
X193556778Y-142592086D01*
X193592996Y-142610540D01*
X193789171Y-142674281D01*
X193789172Y-142674281D01*
X193789175Y-142674282D01*
X193992912Y-142706551D01*
X193992913Y-142706551D01*
X194199189Y-142706551D01*
X194199190Y-142706551D01*
X194402927Y-142674282D01*
X194402930Y-142674281D01*
X194402931Y-142674281D01*
X194599105Y-142610540D01*
X194599105Y-142610539D01*
X194599108Y-142610539D01*
X194782903Y-142516891D01*
X194949784Y-142395644D01*
X195095644Y-142249784D01*
X195216891Y-142082903D01*
X195310539Y-141899108D01*
X195330487Y-141837715D01*
X195374281Y-141702931D01*
X195374281Y-141702930D01*
X195374280Y-141702930D01*
X195374282Y-141702927D01*
X195406551Y-141499190D01*
X195406551Y-141292912D01*
X195374282Y-141089175D01*
X195374281Y-141089171D01*
X195374281Y-141089170D01*
X195310540Y-140892996D01*
X195283846Y-140840606D01*
X195216891Y-140709199D01*
X195095644Y-140542318D01*
X194949784Y-140396458D01*
X194782903Y-140275211D01*
X194730368Y-140248443D01*
X194599105Y-140181561D01*
X194402930Y-140117820D01*
X194250124Y-140093618D01*
X194199190Y-140085551D01*
X193992912Y-140085551D01*
X193925090Y-140096293D01*
X193789173Y-140117820D01*
X193789170Y-140117820D01*
X193708155Y-140144144D01*
X193699159Y-140144400D01*
X193691088Y-140148378D01*
X193664782Y-140145382D01*
X193638313Y-140146139D01*
X193630606Y-140141491D01*
X193621667Y-140140474D01*
X193601155Y-140123731D01*
X193578481Y-140110058D01*
X193574510Y-140101982D01*
X193567540Y-140096293D01*
X193559336Y-140071119D01*
X193547653Y-140047357D01*
X193548106Y-140036661D01*
X193545891Y-140029862D01*
X193549448Y-140005042D01*
X193549883Y-139994795D01*
X193550791Y-139991325D01*
X193578231Y-139906876D01*
X193581563Y-139885837D01*
X198549500Y-139885837D01*
X198549500Y-140114162D01*
X198585215Y-140339660D01*
X198655770Y-140556803D01*
X198753953Y-140749497D01*
X198759421Y-140760228D01*
X198893621Y-140944937D01*
X199055063Y-141106379D01*
X199239772Y-141240579D01*
X199332258Y-141287703D01*
X199443196Y-141344229D01*
X199443198Y-141344229D01*
X199443201Y-141344231D01*
X199550778Y-141379185D01*
X199660339Y-141414784D01*
X199885838Y-141450500D01*
X199885843Y-141450500D01*
X200114162Y-141450500D01*
X200339660Y-141414784D01*
X200556799Y-141344231D01*
X200760228Y-141240579D01*
X200944937Y-141106379D01*
X201106379Y-140944937D01*
X201240579Y-140760228D01*
X201321121Y-140602155D01*
X207355000Y-140602155D01*
X207355000Y-141250000D01*
X208149238Y-141250000D01*
X208127470Y-141287703D01*
X208089988Y-141427590D01*
X208089988Y-141572410D01*
X208127470Y-141712297D01*
X208149238Y-141750000D01*
X207355000Y-141750000D01*
X207355000Y-142397844D01*
X207361401Y-142457372D01*
X207361403Y-142457379D01*
X207411645Y-142592086D01*
X207411649Y-142592093D01*
X207497809Y-142707187D01*
X207497812Y-142707190D01*
X207612906Y-142793350D01*
X207612913Y-142793354D01*
X207747620Y-142843596D01*
X207747627Y-142843598D01*
X207807155Y-142849999D01*
X207807172Y-142850000D01*
X208390000Y-142850000D01*
X208390000Y-141990761D01*
X208427703Y-142012530D01*
X208567590Y-142050012D01*
X208712410Y-142050012D01*
X208852297Y-142012530D01*
X208890000Y-141990761D01*
X208890000Y-142850000D01*
X209472828Y-142850000D01*
X209472844Y-142849999D01*
X209532372Y-142843598D01*
X209532379Y-142843596D01*
X209667086Y-142793354D01*
X209667093Y-142793350D01*
X209782187Y-142707190D01*
X209782190Y-142707187D01*
X209868350Y-142592093D01*
X209868354Y-142592086D01*
X209918596Y-142457379D01*
X209918598Y-142457373D01*
X209921271Y-142432515D01*
X209948009Y-142367964D01*
X210005401Y-142328116D01*
X210075227Y-142325623D01*
X210135315Y-142361276D01*
X210144880Y-142372889D01*
X210149890Y-142379785D01*
X210149894Y-142379790D01*
X210300213Y-142530109D01*
X210472179Y-142655048D01*
X210472181Y-142655049D01*
X210472184Y-142655051D01*
X210661588Y-142751557D01*
X210863757Y-142817246D01*
X211073713Y-142850500D01*
X211073714Y-142850500D01*
X211286286Y-142850500D01*
X211286287Y-142850500D01*
X211496243Y-142817246D01*
X211698412Y-142751557D01*
X211887816Y-142655051D01*
X211974471Y-142592093D01*
X212059786Y-142530109D01*
X212059788Y-142530106D01*
X212059792Y-142530104D01*
X212210104Y-142379792D01*
X212210106Y-142379788D01*
X212210109Y-142379786D01*
X212335048Y-142207820D01*
X212335047Y-142207820D01*
X212335051Y-142207816D01*
X212339514Y-142199054D01*
X212387488Y-142148259D01*
X212455308Y-142131463D01*
X212521444Y-142153999D01*
X212560486Y-142199056D01*
X212564951Y-142207820D01*
X212689890Y-142379786D01*
X212840213Y-142530109D01*
X213012179Y-142655048D01*
X213012181Y-142655049D01*
X213012184Y-142655051D01*
X213201588Y-142751557D01*
X213403757Y-142817246D01*
X213613713Y-142850500D01*
X213613714Y-142850500D01*
X213826286Y-142850500D01*
X213826287Y-142850500D01*
X214036243Y-142817246D01*
X214238412Y-142751557D01*
X214427816Y-142655051D01*
X214514471Y-142592093D01*
X214599786Y-142530109D01*
X214599788Y-142530106D01*
X214599792Y-142530104D01*
X214750104Y-142379792D01*
X214750106Y-142379788D01*
X214750109Y-142379786D01*
X214875048Y-142207820D01*
X214875047Y-142207820D01*
X214875051Y-142207816D01*
X214879514Y-142199054D01*
X214927488Y-142148259D01*
X214995308Y-142131463D01*
X215061444Y-142153999D01*
X215100486Y-142199056D01*
X215104951Y-142207820D01*
X215229890Y-142379786D01*
X215380213Y-142530109D01*
X215552179Y-142655048D01*
X215552181Y-142655049D01*
X215552184Y-142655051D01*
X215741588Y-142751557D01*
X215943757Y-142817246D01*
X216153713Y-142850500D01*
X216153714Y-142850500D01*
X216366286Y-142850500D01*
X216366287Y-142850500D01*
X216576243Y-142817246D01*
X216778412Y-142751557D01*
X216967816Y-142655051D01*
X217054471Y-142592093D01*
X217139786Y-142530109D01*
X217139788Y-142530106D01*
X217139792Y-142530104D01*
X217290104Y-142379792D01*
X217290106Y-142379788D01*
X217290109Y-142379786D01*
X217415048Y-142207820D01*
X217415047Y-142207820D01*
X217415051Y-142207816D01*
X217419514Y-142199054D01*
X217467488Y-142148259D01*
X217535308Y-142131463D01*
X217601444Y-142153999D01*
X217640486Y-142199056D01*
X217644951Y-142207820D01*
X217769890Y-142379786D01*
X217920213Y-142530109D01*
X218092179Y-142655048D01*
X218092181Y-142655049D01*
X218092184Y-142655051D01*
X218281588Y-142751557D01*
X218483757Y-142817246D01*
X218693713Y-142850500D01*
X218693714Y-142850500D01*
X218906286Y-142850500D01*
X218906287Y-142850500D01*
X219116243Y-142817246D01*
X219318412Y-142751557D01*
X219507816Y-142655051D01*
X219594471Y-142592093D01*
X219679786Y-142530109D01*
X219679788Y-142530106D01*
X219679792Y-142530104D01*
X219830104Y-142379792D01*
X219830106Y-142379788D01*
X219830109Y-142379786D01*
X219955048Y-142207820D01*
X219955047Y-142207820D01*
X219955051Y-142207816D01*
X219959514Y-142199054D01*
X220007488Y-142148259D01*
X220075308Y-142131463D01*
X220141444Y-142153999D01*
X220180486Y-142199056D01*
X220184951Y-142207820D01*
X220309890Y-142379786D01*
X220460213Y-142530109D01*
X220632179Y-142655048D01*
X220632181Y-142655049D01*
X220632184Y-142655051D01*
X220821588Y-142751557D01*
X221023757Y-142817246D01*
X221233713Y-142850500D01*
X221233714Y-142850500D01*
X221446286Y-142850500D01*
X221446287Y-142850500D01*
X221656243Y-142817246D01*
X221858412Y-142751557D01*
X222047816Y-142655051D01*
X222134471Y-142592093D01*
X222219786Y-142530109D01*
X222219788Y-142530106D01*
X222219792Y-142530104D01*
X222370104Y-142379792D01*
X222370106Y-142379788D01*
X222370109Y-142379786D01*
X222495048Y-142207820D01*
X222495047Y-142207820D01*
X222495051Y-142207816D01*
X222499514Y-142199054D01*
X222547488Y-142148259D01*
X222615308Y-142131463D01*
X222681444Y-142153999D01*
X222720486Y-142199056D01*
X222724951Y-142207820D01*
X222849890Y-142379786D01*
X223000213Y-142530109D01*
X223172179Y-142655048D01*
X223172181Y-142655049D01*
X223172184Y-142655051D01*
X223361588Y-142751557D01*
X223563757Y-142817246D01*
X223773713Y-142850500D01*
X223773714Y-142850500D01*
X223986286Y-142850500D01*
X223986287Y-142850500D01*
X224196243Y-142817246D01*
X224398412Y-142751557D01*
X224587816Y-142655051D01*
X224674471Y-142592093D01*
X224759786Y-142530109D01*
X224759788Y-142530106D01*
X224759792Y-142530104D01*
X224910104Y-142379792D01*
X224910106Y-142379788D01*
X224910109Y-142379786D01*
X225035048Y-142207820D01*
X225035047Y-142207820D01*
X225035051Y-142207816D01*
X225039514Y-142199054D01*
X225087488Y-142148259D01*
X225155308Y-142131463D01*
X225221444Y-142153999D01*
X225260486Y-142199056D01*
X225264951Y-142207820D01*
X225389890Y-142379786D01*
X225540213Y-142530109D01*
X225712179Y-142655048D01*
X225712181Y-142655049D01*
X225712184Y-142655051D01*
X225901588Y-142751557D01*
X226103757Y-142817246D01*
X226313713Y-142850500D01*
X226313714Y-142850500D01*
X226526286Y-142850500D01*
X226526287Y-142850500D01*
X226736243Y-142817246D01*
X226938412Y-142751557D01*
X227127816Y-142655051D01*
X227214471Y-142592093D01*
X227299786Y-142530109D01*
X227299788Y-142530106D01*
X227299792Y-142530104D01*
X227450104Y-142379792D01*
X227450106Y-142379788D01*
X227450109Y-142379786D01*
X227575048Y-142207820D01*
X227575047Y-142207820D01*
X227575051Y-142207816D01*
X227579514Y-142199054D01*
X227627488Y-142148259D01*
X227695308Y-142131463D01*
X227761444Y-142153999D01*
X227800486Y-142199056D01*
X227804951Y-142207820D01*
X227929890Y-142379786D01*
X228080213Y-142530109D01*
X228252179Y-142655048D01*
X228252181Y-142655049D01*
X228252184Y-142655051D01*
X228441588Y-142751557D01*
X228643757Y-142817246D01*
X228853713Y-142850500D01*
X228853714Y-142850500D01*
X229066286Y-142850500D01*
X229066287Y-142850500D01*
X229276243Y-142817246D01*
X229478412Y-142751557D01*
X229667816Y-142655051D01*
X229754471Y-142592093D01*
X229839786Y-142530109D01*
X229839788Y-142530106D01*
X229839792Y-142530104D01*
X229990104Y-142379792D01*
X229990106Y-142379788D01*
X229990109Y-142379786D01*
X230115048Y-142207820D01*
X230115047Y-142207820D01*
X230115051Y-142207816D01*
X230119514Y-142199054D01*
X230167488Y-142148259D01*
X230235308Y-142131463D01*
X230301444Y-142153999D01*
X230340486Y-142199056D01*
X230344951Y-142207820D01*
X230469890Y-142379786D01*
X230620213Y-142530109D01*
X230792179Y-142655048D01*
X230792181Y-142655049D01*
X230792184Y-142655051D01*
X230981588Y-142751557D01*
X231183757Y-142817246D01*
X231393713Y-142850500D01*
X231393714Y-142850500D01*
X231606286Y-142850500D01*
X231606287Y-142850500D01*
X231816243Y-142817246D01*
X232018412Y-142751557D01*
X232207816Y-142655051D01*
X232294471Y-142592093D01*
X232379786Y-142530109D01*
X232379788Y-142530106D01*
X232379792Y-142530104D01*
X232530104Y-142379792D01*
X232530106Y-142379788D01*
X232530109Y-142379786D01*
X232655048Y-142207820D01*
X232655047Y-142207820D01*
X232655051Y-142207816D01*
X232751557Y-142018412D01*
X232817246Y-141816243D01*
X232850500Y-141606287D01*
X232850500Y-141393713D01*
X232817246Y-141183757D01*
X232751557Y-140981588D01*
X232655051Y-140792184D01*
X232655049Y-140792181D01*
X232655048Y-140792179D01*
X232530109Y-140620213D01*
X232379786Y-140469890D01*
X232207820Y-140344951D01*
X232018414Y-140248444D01*
X232018413Y-140248443D01*
X232018412Y-140248443D01*
X231816243Y-140182754D01*
X231816241Y-140182753D01*
X231816240Y-140182753D01*
X231654957Y-140157208D01*
X231606287Y-140149500D01*
X231393713Y-140149500D01*
X231345042Y-140157208D01*
X231183760Y-140182753D01*
X230981585Y-140248444D01*
X230792179Y-140344951D01*
X230620213Y-140469890D01*
X230469890Y-140620213D01*
X230344949Y-140792182D01*
X230340484Y-140800946D01*
X230292509Y-140851742D01*
X230224688Y-140868536D01*
X230158553Y-140845998D01*
X230119516Y-140800946D01*
X230115050Y-140792182D01*
X229990109Y-140620213D01*
X229839786Y-140469890D01*
X229667820Y-140344951D01*
X229478414Y-140248444D01*
X229478413Y-140248443D01*
X229478412Y-140248443D01*
X229276243Y-140182754D01*
X229276241Y-140182753D01*
X229276240Y-140182753D01*
X229114957Y-140157208D01*
X229066287Y-140149500D01*
X228853713Y-140149500D01*
X228805042Y-140157208D01*
X228643760Y-140182753D01*
X228441585Y-140248444D01*
X228252179Y-140344951D01*
X228080213Y-140469890D01*
X227929890Y-140620213D01*
X227804949Y-140792182D01*
X227800484Y-140800946D01*
X227752509Y-140851742D01*
X227684688Y-140868536D01*
X227618553Y-140845998D01*
X227579516Y-140800946D01*
X227575050Y-140792182D01*
X227450109Y-140620213D01*
X227299786Y-140469890D01*
X227127820Y-140344951D01*
X226938414Y-140248444D01*
X226938413Y-140248443D01*
X226938412Y-140248443D01*
X226736243Y-140182754D01*
X226736241Y-140182753D01*
X226736240Y-140182753D01*
X226574957Y-140157208D01*
X226526287Y-140149500D01*
X226313713Y-140149500D01*
X226265042Y-140157208D01*
X226103760Y-140182753D01*
X225901585Y-140248444D01*
X225712179Y-140344951D01*
X225540213Y-140469890D01*
X225389890Y-140620213D01*
X225264949Y-140792182D01*
X225260484Y-140800946D01*
X225212509Y-140851742D01*
X225144688Y-140868536D01*
X225078553Y-140845998D01*
X225039516Y-140800946D01*
X225035050Y-140792182D01*
X224910109Y-140620213D01*
X224759786Y-140469890D01*
X224587820Y-140344951D01*
X224398414Y-140248444D01*
X224398413Y-140248443D01*
X224398412Y-140248443D01*
X224196243Y-140182754D01*
X224196241Y-140182753D01*
X224196240Y-140182753D01*
X224034957Y-140157208D01*
X223986287Y-140149500D01*
X223773713Y-140149500D01*
X223725042Y-140157208D01*
X223563760Y-140182753D01*
X223361585Y-140248444D01*
X223172179Y-140344951D01*
X223000213Y-140469890D01*
X222849890Y-140620213D01*
X222724949Y-140792182D01*
X222720484Y-140800946D01*
X222672509Y-140851742D01*
X222604688Y-140868536D01*
X222538553Y-140845998D01*
X222499516Y-140800946D01*
X222495050Y-140792182D01*
X222370109Y-140620213D01*
X222219786Y-140469890D01*
X222047820Y-140344951D01*
X221858414Y-140248444D01*
X221858413Y-140248443D01*
X221858412Y-140248443D01*
X221656243Y-140182754D01*
X221656241Y-140182753D01*
X221656240Y-140182753D01*
X221494957Y-140157208D01*
X221446287Y-140149500D01*
X221233713Y-140149500D01*
X221185042Y-140157208D01*
X221023760Y-140182753D01*
X220821585Y-140248444D01*
X220632179Y-140344951D01*
X220460213Y-140469890D01*
X220309890Y-140620213D01*
X220184949Y-140792182D01*
X220180484Y-140800946D01*
X220132509Y-140851742D01*
X220064688Y-140868536D01*
X219998553Y-140845998D01*
X219959516Y-140800946D01*
X219955050Y-140792182D01*
X219830109Y-140620213D01*
X219679786Y-140469890D01*
X219507820Y-140344951D01*
X219318414Y-140248444D01*
X219318413Y-140248443D01*
X219318412Y-140248443D01*
X219116243Y-140182754D01*
X219116241Y-140182753D01*
X219116240Y-140182753D01*
X218954957Y-140157208D01*
X218906287Y-140149500D01*
X218693713Y-140149500D01*
X218645042Y-140157208D01*
X218483760Y-140182753D01*
X218281585Y-140248444D01*
X218092179Y-140344951D01*
X217920213Y-140469890D01*
X217769890Y-140620213D01*
X217644949Y-140792182D01*
X217640484Y-140800946D01*
X217592509Y-140851742D01*
X217524688Y-140868536D01*
X217458553Y-140845998D01*
X217419516Y-140800946D01*
X217415050Y-140792182D01*
X217290109Y-140620213D01*
X217139786Y-140469890D01*
X216967820Y-140344951D01*
X216778414Y-140248444D01*
X216778413Y-140248443D01*
X216778412Y-140248443D01*
X216576243Y-140182754D01*
X216576241Y-140182753D01*
X216576240Y-140182753D01*
X216414957Y-140157208D01*
X216366287Y-140149500D01*
X216153713Y-140149500D01*
X216105042Y-140157208D01*
X215943760Y-140182753D01*
X215741585Y-140248444D01*
X215552179Y-140344951D01*
X215380213Y-140469890D01*
X215229890Y-140620213D01*
X215104949Y-140792182D01*
X215100484Y-140800946D01*
X215052509Y-140851742D01*
X214984688Y-140868536D01*
X214918553Y-140845998D01*
X214879516Y-140800946D01*
X214875050Y-140792182D01*
X214750109Y-140620213D01*
X214599786Y-140469890D01*
X214427820Y-140344951D01*
X214238414Y-140248444D01*
X214238413Y-140248443D01*
X214238412Y-140248443D01*
X214036243Y-140182754D01*
X214036241Y-140182753D01*
X214036240Y-140182753D01*
X213874957Y-140157208D01*
X213826287Y-140149500D01*
X213613713Y-140149500D01*
X213565042Y-140157208D01*
X213403760Y-140182753D01*
X213201585Y-140248444D01*
X213012179Y-140344951D01*
X212840213Y-140469890D01*
X212689890Y-140620213D01*
X212564949Y-140792182D01*
X212560484Y-140800946D01*
X212512509Y-140851742D01*
X212444688Y-140868536D01*
X212378553Y-140845998D01*
X212339516Y-140800946D01*
X212335050Y-140792182D01*
X212210109Y-140620213D01*
X212059786Y-140469890D01*
X211887820Y-140344951D01*
X211698414Y-140248444D01*
X211698413Y-140248443D01*
X211698412Y-140248443D01*
X211496243Y-140182754D01*
X211496241Y-140182753D01*
X211496240Y-140182753D01*
X211334957Y-140157208D01*
X211286287Y-140149500D01*
X211073713Y-140149500D01*
X211025042Y-140157208D01*
X210863760Y-140182753D01*
X210661585Y-140248444D01*
X210472179Y-140344951D01*
X210300213Y-140469890D01*
X210149894Y-140620209D01*
X210149893Y-140620211D01*
X210144877Y-140627115D01*
X210089547Y-140669780D01*
X210019933Y-140675758D01*
X209958139Y-140643151D01*
X209923782Y-140582312D01*
X209921271Y-140567484D01*
X209918598Y-140542627D01*
X209918596Y-140542620D01*
X209868354Y-140407913D01*
X209868350Y-140407906D01*
X209782190Y-140292812D01*
X209782187Y-140292809D01*
X209667093Y-140206649D01*
X209667086Y-140206645D01*
X209532379Y-140156403D01*
X209532372Y-140156401D01*
X209472844Y-140150000D01*
X208890000Y-140150000D01*
X208890000Y-141009238D01*
X208852297Y-140987470D01*
X208712410Y-140949988D01*
X208567590Y-140949988D01*
X208427703Y-140987470D01*
X208390000Y-141009238D01*
X208390000Y-140150000D01*
X207807155Y-140150000D01*
X207747627Y-140156401D01*
X207747620Y-140156403D01*
X207612913Y-140206645D01*
X207612906Y-140206649D01*
X207497812Y-140292809D01*
X207497809Y-140292812D01*
X207411649Y-140407906D01*
X207411645Y-140407913D01*
X207361403Y-140542620D01*
X207361401Y-140542627D01*
X207355000Y-140602155D01*
X201321121Y-140602155D01*
X201344231Y-140556799D01*
X201414784Y-140339660D01*
X201422204Y-140292812D01*
X201450500Y-140114162D01*
X201450500Y-139885837D01*
X238549500Y-139885837D01*
X238549500Y-140114162D01*
X238585215Y-140339660D01*
X238655770Y-140556803D01*
X238753953Y-140749497D01*
X238759421Y-140760228D01*
X238893621Y-140944937D01*
X239055063Y-141106379D01*
X239239772Y-141240579D01*
X239332258Y-141287703D01*
X239443196Y-141344229D01*
X239443198Y-141344229D01*
X239443201Y-141344231D01*
X239550778Y-141379185D01*
X239660339Y-141414784D01*
X239885838Y-141450500D01*
X239885843Y-141450500D01*
X240114162Y-141450500D01*
X240339660Y-141414784D01*
X240556799Y-141344231D01*
X240655232Y-141294077D01*
X244354764Y-141294077D01*
X244375244Y-141436532D01*
X244375245Y-141436536D01*
X244435031Y-141567447D01*
X244435032Y-141567448D01*
X244435033Y-141567450D01*
X244472652Y-141614133D01*
X244472655Y-141614136D01*
X244472660Y-141614142D01*
X245388624Y-142530104D01*
X245685867Y-142827347D01*
X245732550Y-142864967D01*
X245732551Y-142864967D01*
X245732553Y-142864969D01*
X245863463Y-142924754D01*
X245863464Y-142924754D01*
X245863466Y-142924755D01*
X246005923Y-142945236D01*
X246148380Y-142924755D01*
X246279296Y-142864967D01*
X246325979Y-142827348D01*
X247539193Y-141614133D01*
X247576813Y-141567450D01*
X247602917Y-141510292D01*
X247620792Y-141471150D01*
X250699500Y-141471150D01*
X250699500Y-141628843D01*
X250730260Y-141783485D01*
X250730263Y-141783495D01*
X250769220Y-141877546D01*
X250776689Y-141947015D01*
X250769223Y-141972443D01*
X250730263Y-142066503D01*
X250730262Y-142066507D01*
X250730261Y-142066510D01*
X250730260Y-142066511D01*
X250699500Y-142221153D01*
X250699500Y-142378846D01*
X250730260Y-142533488D01*
X250730263Y-142533498D01*
X250769220Y-142627549D01*
X250776689Y-142697018D01*
X250769223Y-142722446D01*
X250730263Y-142816506D01*
X250730262Y-142816510D01*
X250730261Y-142816513D01*
X250730260Y-142816514D01*
X250699500Y-142971156D01*
X250699500Y-143128849D01*
X250730261Y-143283492D01*
X250730264Y-143283504D01*
X250790602Y-143429175D01*
X250790609Y-143429188D01*
X250878210Y-143560291D01*
X250878213Y-143560295D01*
X250989707Y-143671789D01*
X250989711Y-143671792D01*
X251120814Y-143759393D01*
X251120827Y-143759400D01*
X251266498Y-143819738D01*
X251266503Y-143819740D01*
X251421153Y-143850502D01*
X251421156Y-143850503D01*
X251421158Y-143850503D01*
X251578844Y-143850503D01*
X251578845Y-143850502D01*
X251733497Y-143819740D01*
X251879179Y-143759397D01*
X252010289Y-143671792D01*
X252121789Y-143560292D01*
X252209394Y-143429182D01*
X252269737Y-143283500D01*
X252300500Y-143128845D01*
X252300500Y-142971161D01*
X252300500Y-142971158D01*
X252300499Y-142971156D01*
X252279377Y-142864969D01*
X252269737Y-142816506D01*
X252230778Y-142722452D01*
X252223310Y-142652985D01*
X252230779Y-142627549D01*
X252269737Y-142533497D01*
X252300500Y-142378842D01*
X252300500Y-142221158D01*
X252300500Y-142221155D01*
X252300499Y-142221153D01*
X252272999Y-142082903D01*
X252269737Y-142066503D01*
X252230778Y-141972449D01*
X252223310Y-141902982D01*
X252230779Y-141877546D01*
X252269737Y-141783494D01*
X252300500Y-141628839D01*
X252300500Y-141471155D01*
X252300500Y-141471152D01*
X252300499Y-141471150D01*
X252282206Y-141379185D01*
X252269737Y-141316500D01*
X252238290Y-141240579D01*
X252209397Y-141170824D01*
X252209390Y-141170811D01*
X252121789Y-141039708D01*
X252121786Y-141039704D01*
X252010292Y-140928210D01*
X252010288Y-140928207D01*
X251879185Y-140840606D01*
X251879172Y-140840599D01*
X251733501Y-140780261D01*
X251733489Y-140780258D01*
X251578845Y-140749497D01*
X251578842Y-140749497D01*
X251421158Y-140749497D01*
X251421155Y-140749497D01*
X251266510Y-140780258D01*
X251266498Y-140780261D01*
X251120827Y-140840599D01*
X251120814Y-140840606D01*
X250989711Y-140928207D01*
X250989707Y-140928210D01*
X250878213Y-141039704D01*
X250878210Y-141039708D01*
X250790609Y-141170811D01*
X250790602Y-141170824D01*
X250730264Y-141316495D01*
X250730261Y-141316507D01*
X250699500Y-141471150D01*
X247620792Y-141471150D01*
X247636600Y-141436536D01*
X247636601Y-141436533D01*
X247644846Y-141379185D01*
X247657082Y-141294077D01*
X247636601Y-141151620D01*
X247576813Y-141020704D01*
X247539194Y-140974021D01*
X247539189Y-140974016D01*
X247539185Y-140974011D01*
X247537855Y-140972681D01*
X247537643Y-140972293D01*
X247536965Y-140971538D01*
X247537143Y-140971377D01*
X247504370Y-140911358D01*
X247509354Y-140841666D01*
X247545006Y-140790709D01*
X247551974Y-140784757D01*
X247551974Y-139942593D01*
X247605119Y-139973277D01*
X247734830Y-140008033D01*
X247869118Y-140008033D01*
X247998829Y-139973277D01*
X248051974Y-139942593D01*
X248051974Y-140784757D01*
X248108739Y-140775768D01*
X248304842Y-140712049D01*
X248488564Y-140618438D01*
X248655383Y-140497235D01*
X248655384Y-140497235D01*
X248801183Y-140351436D01*
X248801183Y-140351435D01*
X248922386Y-140184616D01*
X249015997Y-140000894D01*
X249079718Y-139804782D01*
X249079718Y-139804781D01*
X249088708Y-139748026D01*
X248246542Y-139748026D01*
X248277225Y-139694881D01*
X248311981Y-139565170D01*
X248311981Y-139430882D01*
X248277225Y-139301171D01*
X248246542Y-139248026D01*
X249088708Y-139248026D01*
X249079718Y-139191270D01*
X249079718Y-139191269D01*
X249053292Y-139109937D01*
X249051297Y-139040096D01*
X249087377Y-138980263D01*
X249150078Y-138949435D01*
X249209541Y-138953688D01*
X249237232Y-138962686D01*
X249291142Y-138980203D01*
X249291145Y-138980203D01*
X249291150Y-138980205D01*
X249494887Y-139012474D01*
X249494888Y-139012474D01*
X249701164Y-139012474D01*
X249701165Y-139012474D01*
X249904902Y-138980205D01*
X249904905Y-138980204D01*
X249904906Y-138980204D01*
X250101080Y-138916463D01*
X250101080Y-138916462D01*
X250101083Y-138916462D01*
X250284878Y-138822814D01*
X250451759Y-138701567D01*
X250597619Y-138555707D01*
X250718866Y-138388826D01*
X250812514Y-138205031D01*
X250827048Y-138160300D01*
X250876256Y-138008854D01*
X250876256Y-138008853D01*
X250876257Y-138008850D01*
X250908526Y-137805113D01*
X250908526Y-137598835D01*
X250876257Y-137395098D01*
X250876256Y-137395094D01*
X250876256Y-137395093D01*
X250849933Y-137314079D01*
X250847938Y-137244238D01*
X250884018Y-137184405D01*
X250946719Y-137153577D01*
X251006182Y-137157830D01*
X251087197Y-137184153D01*
X251087198Y-137184153D01*
X251087201Y-137184154D01*
X251290938Y-137216423D01*
X251290939Y-137216423D01*
X251497215Y-137216423D01*
X251497216Y-137216423D01*
X251700953Y-137184154D01*
X251700956Y-137184153D01*
X251700957Y-137184153D01*
X251897131Y-137120412D01*
X251897131Y-137120411D01*
X251897134Y-137120411D01*
X252080929Y-137026763D01*
X252247810Y-136905516D01*
X252393670Y-136759656D01*
X252514917Y-136592775D01*
X252608565Y-136408980D01*
X252634892Y-136327953D01*
X252672307Y-136212803D01*
X252672307Y-136212802D01*
X252672308Y-136212799D01*
X252704577Y-136009062D01*
X252704577Y-135802784D01*
X252672308Y-135599047D01*
X252672307Y-135599043D01*
X252672307Y-135599042D01*
X252608566Y-135402868D01*
X252514916Y-135219070D01*
X252393670Y-135052190D01*
X252247810Y-134906330D01*
X252080929Y-134785083D01*
X251897131Y-134691433D01*
X251700956Y-134627692D01*
X251548150Y-134603490D01*
X251497216Y-134595423D01*
X251290938Y-134595423D01*
X251223025Y-134606179D01*
X251087199Y-134627692D01*
X251087196Y-134627692D01*
X250891022Y-134691433D01*
X250707224Y-134785083D01*
X250540342Y-134906331D01*
X250394485Y-135052188D01*
X250273237Y-135219070D01*
X250179587Y-135402868D01*
X250115846Y-135599042D01*
X250115846Y-135599045D01*
X250083577Y-135802784D01*
X250083577Y-136009061D01*
X250115846Y-136212800D01*
X250115847Y-136212807D01*
X250142169Y-136293818D01*
X250144164Y-136363659D01*
X250108083Y-136423492D01*
X250045382Y-136454319D01*
X249985921Y-136450066D01*
X249904910Y-136423744D01*
X249904903Y-136423743D01*
X249803033Y-136407608D01*
X249701165Y-136391474D01*
X249494887Y-136391474D01*
X249426974Y-136402230D01*
X249291148Y-136423743D01*
X249291145Y-136423743D01*
X249094971Y-136487484D01*
X248911173Y-136581134D01*
X248744291Y-136702382D01*
X248598434Y-136848239D01*
X248477186Y-137015121D01*
X248383536Y-137198919D01*
X248319795Y-137395093D01*
X248319795Y-137395096D01*
X248296660Y-137541165D01*
X248287526Y-137598835D01*
X248287526Y-137805113D01*
X248291169Y-137828116D01*
X248319795Y-138008851D01*
X248319795Y-138008854D01*
X248346310Y-138090458D01*
X248348305Y-138160300D01*
X248312224Y-138220132D01*
X248249523Y-138250960D01*
X248190061Y-138246707D01*
X248108730Y-138220281D01*
X248051974Y-138211291D01*
X248051974Y-139053458D01*
X247998829Y-139022775D01*
X247869118Y-138988019D01*
X247734830Y-138988019D01*
X247605119Y-139022775D01*
X247551974Y-139053458D01*
X247551974Y-138211291D01*
X247495218Y-138220281D01*
X247495217Y-138220281D01*
X247299105Y-138284002D01*
X247115383Y-138377613D01*
X246948564Y-138498816D01*
X246948563Y-138498816D01*
X246802764Y-138644615D01*
X246802764Y-138644616D01*
X246681561Y-138811435D01*
X246587950Y-138995157D01*
X246524229Y-139191269D01*
X246524229Y-139191270D01*
X246515240Y-139248026D01*
X247357406Y-139248026D01*
X247326723Y-139301171D01*
X247291967Y-139430882D01*
X247291967Y-139565170D01*
X247326723Y-139694881D01*
X247357406Y-139748026D01*
X246515239Y-139748026D01*
X246509287Y-139754995D01*
X246450779Y-139793188D01*
X246380912Y-139793686D01*
X246328579Y-139762887D01*
X246328452Y-139763029D01*
X246327753Y-139762401D01*
X246327316Y-139762144D01*
X246325986Y-139760814D01*
X246325979Y-139760807D01*
X246279296Y-139723187D01*
X246279294Y-139723186D01*
X246279292Y-139723184D01*
X246148382Y-139663399D01*
X246148378Y-139663398D01*
X246005923Y-139642918D01*
X245863467Y-139663398D01*
X245863463Y-139663399D01*
X245732552Y-139723185D01*
X245685857Y-139760814D01*
X244472660Y-140974013D01*
X244472654Y-140974019D01*
X244472653Y-140974021D01*
X244466555Y-140981588D01*
X244435032Y-141020705D01*
X244435030Y-141020707D01*
X244375245Y-141151617D01*
X244375244Y-141151621D01*
X244354764Y-141294077D01*
X240655232Y-141294077D01*
X240760228Y-141240579D01*
X240944937Y-141106379D01*
X241106379Y-140944937D01*
X241240579Y-140760228D01*
X241344231Y-140556799D01*
X241414784Y-140339660D01*
X241422204Y-140292812D01*
X241450500Y-140114162D01*
X241450500Y-139885837D01*
X241414784Y-139660339D01*
X241344229Y-139443196D01*
X241292353Y-139341384D01*
X241267762Y-139293122D01*
X241240579Y-139239772D01*
X241106379Y-139055063D01*
X240944937Y-138893621D01*
X240760228Y-138759421D01*
X240734408Y-138746265D01*
X240556803Y-138655770D01*
X240339660Y-138585215D01*
X240114162Y-138549500D01*
X240114157Y-138549500D01*
X239885843Y-138549500D01*
X239885838Y-138549500D01*
X239660339Y-138585215D01*
X239443196Y-138655770D01*
X239239771Y-138759421D01*
X239055061Y-138893622D01*
X238893622Y-139055061D01*
X238759421Y-139239771D01*
X238655770Y-139443196D01*
X238585215Y-139660339D01*
X238549500Y-139885837D01*
X201450500Y-139885837D01*
X201414784Y-139660339D01*
X201344229Y-139443196D01*
X201267762Y-139293122D01*
X201240579Y-139239772D01*
X201106379Y-139055063D01*
X200944937Y-138893621D01*
X200760228Y-138759421D01*
X200734408Y-138746265D01*
X200556803Y-138655770D01*
X200339660Y-138585215D01*
X200114162Y-138549500D01*
X200114157Y-138549500D01*
X199885843Y-138549500D01*
X199885838Y-138549500D01*
X199660339Y-138585215D01*
X199443196Y-138655770D01*
X199239771Y-138759421D01*
X199055061Y-138893622D01*
X198893622Y-139055061D01*
X198759421Y-139239771D01*
X198655770Y-139443196D01*
X198585215Y-139660339D01*
X198549500Y-139885837D01*
X193581563Y-139885837D01*
X193610500Y-139703139D01*
X193610500Y-139496861D01*
X193578231Y-139293124D01*
X193578230Y-139293120D01*
X193578230Y-139293119D01*
X193514489Y-139096945D01*
X193506716Y-139081690D01*
X193420840Y-138913148D01*
X193299593Y-138746267D01*
X193153733Y-138600407D01*
X192986852Y-138479160D01*
X192803054Y-138385510D01*
X192606879Y-138321769D01*
X192427472Y-138293354D01*
X192403139Y-138289500D01*
X192196861Y-138289500D01*
X192128948Y-138300256D01*
X191993122Y-138321769D01*
X191993115Y-138321770D01*
X191911514Y-138348284D01*
X191841673Y-138350279D01*
X191781840Y-138314198D01*
X191751013Y-138251497D01*
X191755266Y-138192034D01*
X191781693Y-138110701D01*
X191790682Y-138053948D01*
X190948516Y-138053948D01*
X190979199Y-138000803D01*
X191013955Y-137871092D01*
X191013955Y-137736804D01*
X190979199Y-137607093D01*
X190948516Y-137553948D01*
X191790682Y-137553948D01*
X191781692Y-137497192D01*
X191781692Y-137497191D01*
X191717971Y-137301079D01*
X191694459Y-137254933D01*
X191624360Y-137117357D01*
X191503157Y-136950538D01*
X191503157Y-136950537D01*
X191357358Y-136804738D01*
X191190538Y-136683535D01*
X191006816Y-136589924D01*
X190810703Y-136526203D01*
X190753948Y-136517213D01*
X190753948Y-137359380D01*
X190700803Y-137328697D01*
X190571092Y-137293941D01*
X190436804Y-137293941D01*
X190307093Y-137328697D01*
X190253948Y-137359380D01*
X190253948Y-136517213D01*
X190246979Y-136511261D01*
X190208785Y-136452755D01*
X190208286Y-136382887D01*
X190239089Y-136330555D01*
X190238945Y-136330426D01*
X190239584Y-136329714D01*
X190239839Y-136329280D01*
X190241167Y-136327953D01*
X190278787Y-136281270D01*
X190338575Y-136150354D01*
X190345505Y-136102155D01*
X207455000Y-136102155D01*
X207455000Y-136750000D01*
X208249238Y-136750000D01*
X208227470Y-136787703D01*
X208189988Y-136927590D01*
X208189988Y-137072410D01*
X208227470Y-137212297D01*
X208249238Y-137250000D01*
X207455000Y-137250000D01*
X207455000Y-137897844D01*
X207461401Y-137957372D01*
X207461403Y-137957379D01*
X207511645Y-138092086D01*
X207511649Y-138092093D01*
X207597809Y-138207187D01*
X207597812Y-138207190D01*
X207712906Y-138293350D01*
X207712913Y-138293354D01*
X207847620Y-138343596D01*
X207847627Y-138343598D01*
X207907155Y-138349999D01*
X207907172Y-138350000D01*
X208490000Y-138350000D01*
X208490000Y-137490761D01*
X208527703Y-137512530D01*
X208667590Y-137550012D01*
X208812410Y-137550012D01*
X208952297Y-137512530D01*
X208990000Y-137490761D01*
X208990000Y-138350000D01*
X209572828Y-138350000D01*
X209572844Y-138349999D01*
X209632372Y-138343598D01*
X209632379Y-138343596D01*
X209767086Y-138293354D01*
X209767093Y-138293350D01*
X209882187Y-138207190D01*
X209882190Y-138207187D01*
X209968350Y-138092093D01*
X209968354Y-138092086D01*
X210018596Y-137957379D01*
X210018598Y-137957373D01*
X210021271Y-137932515D01*
X210048009Y-137867964D01*
X210105401Y-137828116D01*
X210175227Y-137825623D01*
X210235315Y-137861276D01*
X210244880Y-137872889D01*
X210249890Y-137879785D01*
X210249894Y-137879790D01*
X210400213Y-138030109D01*
X210572179Y-138155048D01*
X210572181Y-138155049D01*
X210572184Y-138155051D01*
X210761588Y-138251557D01*
X210963757Y-138317246D01*
X211173713Y-138350500D01*
X211173714Y-138350500D01*
X211386286Y-138350500D01*
X211386287Y-138350500D01*
X211596243Y-138317246D01*
X211798412Y-138251557D01*
X211987816Y-138155051D01*
X212009789Y-138139086D01*
X212159786Y-138030109D01*
X212159788Y-138030106D01*
X212159792Y-138030104D01*
X212310104Y-137879792D01*
X212310106Y-137879788D01*
X212310109Y-137879786D01*
X212435048Y-137707820D01*
X212435047Y-137707820D01*
X212435051Y-137707816D01*
X212439514Y-137699054D01*
X212487488Y-137648259D01*
X212555308Y-137631463D01*
X212621444Y-137653999D01*
X212660486Y-137699056D01*
X212664951Y-137707820D01*
X212789890Y-137879786D01*
X212940213Y-138030109D01*
X213112179Y-138155048D01*
X213112181Y-138155049D01*
X213112184Y-138155051D01*
X213301588Y-138251557D01*
X213503757Y-138317246D01*
X213713713Y-138350500D01*
X213713714Y-138350500D01*
X213926286Y-138350500D01*
X213926287Y-138350500D01*
X214136243Y-138317246D01*
X214338412Y-138251557D01*
X214527816Y-138155051D01*
X214549789Y-138139086D01*
X214699786Y-138030109D01*
X214699788Y-138030106D01*
X214699792Y-138030104D01*
X214850104Y-137879792D01*
X214850106Y-137879788D01*
X214850109Y-137879786D01*
X214975048Y-137707820D01*
X214975047Y-137707820D01*
X214975051Y-137707816D01*
X214979514Y-137699054D01*
X215027488Y-137648259D01*
X215095308Y-137631463D01*
X215161444Y-137653999D01*
X215200486Y-137699056D01*
X215204951Y-137707820D01*
X215329890Y-137879786D01*
X215480213Y-138030109D01*
X215652179Y-138155048D01*
X215652181Y-138155049D01*
X215652184Y-138155051D01*
X215841588Y-138251557D01*
X216043757Y-138317246D01*
X216253713Y-138350500D01*
X216253714Y-138350500D01*
X216466286Y-138350500D01*
X216466287Y-138350500D01*
X216676243Y-138317246D01*
X216878412Y-138251557D01*
X217067816Y-138155051D01*
X217089789Y-138139086D01*
X217239786Y-138030109D01*
X217239788Y-138030106D01*
X217239792Y-138030104D01*
X217390104Y-137879792D01*
X217390106Y-137879788D01*
X217390109Y-137879786D01*
X217515048Y-137707820D01*
X217515047Y-137707820D01*
X217515051Y-137707816D01*
X217519514Y-137699054D01*
X217567488Y-137648259D01*
X217635308Y-137631463D01*
X217701444Y-137653999D01*
X217740486Y-137699056D01*
X217744951Y-137707820D01*
X217869890Y-137879786D01*
X218020213Y-138030109D01*
X218192179Y-138155048D01*
X218192181Y-138155049D01*
X218192184Y-138155051D01*
X218381588Y-138251557D01*
X218583757Y-138317246D01*
X218793713Y-138350500D01*
X218793714Y-138350500D01*
X219006286Y-138350500D01*
X219006287Y-138350500D01*
X219216243Y-138317246D01*
X219418412Y-138251557D01*
X219607816Y-138155051D01*
X219629789Y-138139086D01*
X219779786Y-138030109D01*
X219779788Y-138030106D01*
X219779792Y-138030104D01*
X219930104Y-137879792D01*
X219930106Y-137879788D01*
X219930109Y-137879786D01*
X220055048Y-137707820D01*
X220055047Y-137707820D01*
X220055051Y-137707816D01*
X220059514Y-137699054D01*
X220107488Y-137648259D01*
X220175308Y-137631463D01*
X220241444Y-137653999D01*
X220280486Y-137699056D01*
X220284951Y-137707820D01*
X220409890Y-137879786D01*
X220560213Y-138030109D01*
X220732179Y-138155048D01*
X220732181Y-138155049D01*
X220732184Y-138155051D01*
X220921588Y-138251557D01*
X221123757Y-138317246D01*
X221333713Y-138350500D01*
X221333714Y-138350500D01*
X221546286Y-138350500D01*
X221546287Y-138350500D01*
X221756243Y-138317246D01*
X221958412Y-138251557D01*
X222147816Y-138155051D01*
X222169789Y-138139086D01*
X222319786Y-138030109D01*
X222319788Y-138030106D01*
X222319792Y-138030104D01*
X222470104Y-137879792D01*
X222470106Y-137879788D01*
X222470109Y-137879786D01*
X222595048Y-137707820D01*
X222595047Y-137707820D01*
X222595051Y-137707816D01*
X222599514Y-137699054D01*
X222647488Y-137648259D01*
X222715308Y-137631463D01*
X222781444Y-137653999D01*
X222820486Y-137699056D01*
X222824951Y-137707820D01*
X222949890Y-137879786D01*
X223100213Y-138030109D01*
X223272179Y-138155048D01*
X223272181Y-138155049D01*
X223272184Y-138155051D01*
X223461588Y-138251557D01*
X223663757Y-138317246D01*
X223873713Y-138350500D01*
X223873714Y-138350500D01*
X224086286Y-138350500D01*
X224086287Y-138350500D01*
X224296243Y-138317246D01*
X224498412Y-138251557D01*
X224687816Y-138155051D01*
X224709789Y-138139086D01*
X224859786Y-138030109D01*
X224859788Y-138030106D01*
X224859792Y-138030104D01*
X225010104Y-137879792D01*
X225010106Y-137879788D01*
X225010109Y-137879786D01*
X225135048Y-137707820D01*
X225135047Y-137707820D01*
X225135051Y-137707816D01*
X225139514Y-137699054D01*
X225187488Y-137648259D01*
X225255308Y-137631463D01*
X225321444Y-137653999D01*
X225360486Y-137699056D01*
X225364951Y-137707820D01*
X225489890Y-137879786D01*
X225640213Y-138030109D01*
X225812179Y-138155048D01*
X225812181Y-138155049D01*
X225812184Y-138155051D01*
X226001588Y-138251557D01*
X226203757Y-138317246D01*
X226413713Y-138350500D01*
X226413714Y-138350500D01*
X226626286Y-138350500D01*
X226626287Y-138350500D01*
X226836243Y-138317246D01*
X227038412Y-138251557D01*
X227227816Y-138155051D01*
X227249789Y-138139086D01*
X227399786Y-138030109D01*
X227399788Y-138030106D01*
X227399792Y-138030104D01*
X227550104Y-137879792D01*
X227550106Y-137879788D01*
X227550109Y-137879786D01*
X227675048Y-137707820D01*
X227675047Y-137707820D01*
X227675051Y-137707816D01*
X227679514Y-137699054D01*
X227727488Y-137648259D01*
X227795308Y-137631463D01*
X227861444Y-137653999D01*
X227900486Y-137699056D01*
X227904951Y-137707820D01*
X228029890Y-137879786D01*
X228180213Y-138030109D01*
X228352179Y-138155048D01*
X228352181Y-138155049D01*
X228352184Y-138155051D01*
X228541588Y-138251557D01*
X228743757Y-138317246D01*
X228953713Y-138350500D01*
X228953714Y-138350500D01*
X229166286Y-138350500D01*
X229166287Y-138350500D01*
X229376243Y-138317246D01*
X229578412Y-138251557D01*
X229767816Y-138155051D01*
X229789789Y-138139086D01*
X229939786Y-138030109D01*
X229939788Y-138030106D01*
X229939792Y-138030104D01*
X230090104Y-137879792D01*
X230090106Y-137879788D01*
X230090109Y-137879786D01*
X230215048Y-137707820D01*
X230215047Y-137707820D01*
X230215051Y-137707816D01*
X230219514Y-137699054D01*
X230267488Y-137648259D01*
X230335308Y-137631463D01*
X230401444Y-137653999D01*
X230440486Y-137699056D01*
X230444951Y-137707820D01*
X230569890Y-137879786D01*
X230720213Y-138030109D01*
X230892179Y-138155048D01*
X230892181Y-138155049D01*
X230892184Y-138155051D01*
X231081588Y-138251557D01*
X231283757Y-138317246D01*
X231493713Y-138350500D01*
X231493714Y-138350500D01*
X231706286Y-138350500D01*
X231706287Y-138350500D01*
X231916243Y-138317246D01*
X232118412Y-138251557D01*
X232307816Y-138155051D01*
X232329789Y-138139086D01*
X232479786Y-138030109D01*
X232479788Y-138030106D01*
X232479792Y-138030104D01*
X232630104Y-137879792D01*
X232630106Y-137879788D01*
X232630109Y-137879786D01*
X232755048Y-137707820D01*
X232755047Y-137707820D01*
X232755051Y-137707816D01*
X232851557Y-137518412D01*
X232917246Y-137316243D01*
X232950500Y-137106287D01*
X232950500Y-136893713D01*
X232917246Y-136683757D01*
X232851557Y-136481588D01*
X232755051Y-136292184D01*
X232755049Y-136292181D01*
X232755048Y-136292179D01*
X232630109Y-136120213D01*
X232479786Y-135969890D01*
X232307820Y-135844951D01*
X232118414Y-135748444D01*
X232118413Y-135748443D01*
X232118412Y-135748443D01*
X231916243Y-135682754D01*
X231916241Y-135682753D01*
X231916240Y-135682753D01*
X231754957Y-135657208D01*
X231706287Y-135649500D01*
X231493713Y-135649500D01*
X231445042Y-135657208D01*
X231283760Y-135682753D01*
X231081585Y-135748444D01*
X230892179Y-135844951D01*
X230720213Y-135969890D01*
X230569890Y-136120213D01*
X230444949Y-136292182D01*
X230440484Y-136300946D01*
X230392509Y-136351742D01*
X230324688Y-136368536D01*
X230258553Y-136345998D01*
X230219516Y-136300946D01*
X230215050Y-136292182D01*
X230090109Y-136120213D01*
X229939786Y-135969890D01*
X229767820Y-135844951D01*
X229578414Y-135748444D01*
X229578413Y-135748443D01*
X229578412Y-135748443D01*
X229376243Y-135682754D01*
X229376241Y-135682753D01*
X229376240Y-135682753D01*
X229214957Y-135657208D01*
X229166287Y-135649500D01*
X228953713Y-135649500D01*
X228905042Y-135657208D01*
X228743760Y-135682753D01*
X228541585Y-135748444D01*
X228352179Y-135844951D01*
X228180213Y-135969890D01*
X228029890Y-136120213D01*
X227904949Y-136292182D01*
X227900484Y-136300946D01*
X227852509Y-136351742D01*
X227784688Y-136368536D01*
X227718553Y-136345998D01*
X227679516Y-136300946D01*
X227675050Y-136292182D01*
X227550109Y-136120213D01*
X227399786Y-135969890D01*
X227227820Y-135844951D01*
X227038414Y-135748444D01*
X227038413Y-135748443D01*
X227038412Y-135748443D01*
X226836243Y-135682754D01*
X226836241Y-135682753D01*
X226836240Y-135682753D01*
X226674957Y-135657208D01*
X226626287Y-135649500D01*
X226413713Y-135649500D01*
X226365042Y-135657208D01*
X226203760Y-135682753D01*
X226001585Y-135748444D01*
X225812179Y-135844951D01*
X225640213Y-135969890D01*
X225489890Y-136120213D01*
X225364949Y-136292182D01*
X225360484Y-136300946D01*
X225312509Y-136351742D01*
X225244688Y-136368536D01*
X225178553Y-136345998D01*
X225139516Y-136300946D01*
X225135050Y-136292182D01*
X225010109Y-136120213D01*
X224859786Y-135969890D01*
X224687820Y-135844951D01*
X224498414Y-135748444D01*
X224498413Y-135748443D01*
X224498412Y-135748443D01*
X224296243Y-135682754D01*
X224296241Y-135682753D01*
X224296240Y-135682753D01*
X224134957Y-135657208D01*
X224086287Y-135649500D01*
X223873713Y-135649500D01*
X223825042Y-135657208D01*
X223663760Y-135682753D01*
X223461585Y-135748444D01*
X223272179Y-135844951D01*
X223100213Y-135969890D01*
X222949890Y-136120213D01*
X222824949Y-136292182D01*
X222820484Y-136300946D01*
X222772509Y-136351742D01*
X222704688Y-136368536D01*
X222638553Y-136345998D01*
X222599516Y-136300946D01*
X222595050Y-136292182D01*
X222470109Y-136120213D01*
X222319786Y-135969890D01*
X222147820Y-135844951D01*
X221958414Y-135748444D01*
X221958413Y-135748443D01*
X221958412Y-135748443D01*
X221756243Y-135682754D01*
X221756241Y-135682753D01*
X221756240Y-135682753D01*
X221594957Y-135657208D01*
X221546287Y-135649500D01*
X221333713Y-135649500D01*
X221285042Y-135657208D01*
X221123760Y-135682753D01*
X220921585Y-135748444D01*
X220732179Y-135844951D01*
X220560213Y-135969890D01*
X220409890Y-136120213D01*
X220284949Y-136292182D01*
X220280484Y-136300946D01*
X220232509Y-136351742D01*
X220164688Y-136368536D01*
X220098553Y-136345998D01*
X220059516Y-136300946D01*
X220055050Y-136292182D01*
X219930109Y-136120213D01*
X219779786Y-135969890D01*
X219607820Y-135844951D01*
X219418414Y-135748444D01*
X219418413Y-135748443D01*
X219418412Y-135748443D01*
X219216243Y-135682754D01*
X219216241Y-135682753D01*
X219216240Y-135682753D01*
X219054957Y-135657208D01*
X219006287Y-135649500D01*
X218793713Y-135649500D01*
X218745042Y-135657208D01*
X218583760Y-135682753D01*
X218381585Y-135748444D01*
X218192179Y-135844951D01*
X218020213Y-135969890D01*
X217869890Y-136120213D01*
X217744949Y-136292182D01*
X217740484Y-136300946D01*
X217692509Y-136351742D01*
X217624688Y-136368536D01*
X217558553Y-136345998D01*
X217519516Y-136300946D01*
X217515050Y-136292182D01*
X217390109Y-136120213D01*
X217239786Y-135969890D01*
X217067820Y-135844951D01*
X216878414Y-135748444D01*
X216878413Y-135748443D01*
X216878412Y-135748443D01*
X216676243Y-135682754D01*
X216676241Y-135682753D01*
X216676240Y-135682753D01*
X216514957Y-135657208D01*
X216466287Y-135649500D01*
X216253713Y-135649500D01*
X216205042Y-135657208D01*
X216043760Y-135682753D01*
X215841585Y-135748444D01*
X215652179Y-135844951D01*
X215480213Y-135969890D01*
X215329890Y-136120213D01*
X215204949Y-136292182D01*
X215200484Y-136300946D01*
X215152509Y-136351742D01*
X215084688Y-136368536D01*
X215018553Y-136345998D01*
X214979516Y-136300946D01*
X214975050Y-136292182D01*
X214850109Y-136120213D01*
X214699786Y-135969890D01*
X214527820Y-135844951D01*
X214338414Y-135748444D01*
X214338413Y-135748443D01*
X214338412Y-135748443D01*
X214136243Y-135682754D01*
X214136241Y-135682753D01*
X214136240Y-135682753D01*
X213974957Y-135657208D01*
X213926287Y-135649500D01*
X213713713Y-135649500D01*
X213665042Y-135657208D01*
X213503760Y-135682753D01*
X213301585Y-135748444D01*
X213112179Y-135844951D01*
X212940213Y-135969890D01*
X212789890Y-136120213D01*
X212664949Y-136292182D01*
X212660484Y-136300946D01*
X212612509Y-136351742D01*
X212544688Y-136368536D01*
X212478553Y-136345998D01*
X212439516Y-136300946D01*
X212435050Y-136292182D01*
X212310109Y-136120213D01*
X212159786Y-135969890D01*
X211987820Y-135844951D01*
X211798414Y-135748444D01*
X211798413Y-135748443D01*
X211798412Y-135748443D01*
X211596243Y-135682754D01*
X211596241Y-135682753D01*
X211596240Y-135682753D01*
X211434957Y-135657208D01*
X211386287Y-135649500D01*
X211173713Y-135649500D01*
X211125042Y-135657208D01*
X210963760Y-135682753D01*
X210761585Y-135748444D01*
X210572179Y-135844951D01*
X210400213Y-135969890D01*
X210249894Y-136120209D01*
X210249893Y-136120211D01*
X210244877Y-136127115D01*
X210189547Y-136169780D01*
X210119933Y-136175758D01*
X210058139Y-136143151D01*
X210023782Y-136082312D01*
X210021271Y-136067484D01*
X210018598Y-136042627D01*
X210018596Y-136042620D01*
X209968354Y-135907913D01*
X209968350Y-135907906D01*
X209882190Y-135792812D01*
X209882187Y-135792809D01*
X209767093Y-135706649D01*
X209767086Y-135706645D01*
X209632379Y-135656403D01*
X209632372Y-135656401D01*
X209572844Y-135650000D01*
X208990000Y-135650000D01*
X208990000Y-136509238D01*
X208952297Y-136487470D01*
X208812410Y-136449988D01*
X208667590Y-136449988D01*
X208527703Y-136487470D01*
X208490000Y-136509238D01*
X208490000Y-135650000D01*
X207907155Y-135650000D01*
X207847627Y-135656401D01*
X207847620Y-135656403D01*
X207712913Y-135706645D01*
X207712906Y-135706649D01*
X207597812Y-135792809D01*
X207597809Y-135792812D01*
X207511649Y-135907906D01*
X207511645Y-135907913D01*
X207461403Y-136042620D01*
X207461401Y-136042627D01*
X207455000Y-136102155D01*
X190345505Y-136102155D01*
X190348517Y-136081205D01*
X190348517Y-136081204D01*
X190359056Y-136007898D01*
X190359056Y-136007897D01*
X190338575Y-135865441D01*
X190338574Y-135865437D01*
X190278788Y-135734526D01*
X190278787Y-135734525D01*
X190278787Y-135734524D01*
X190241168Y-135687841D01*
X190241163Y-135687836D01*
X190241159Y-135687831D01*
X189027960Y-134474634D01*
X189027953Y-134474627D01*
X188981270Y-134437007D01*
X188981268Y-134437006D01*
X188981266Y-134437004D01*
X188850356Y-134377219D01*
X188850352Y-134377218D01*
X188707897Y-134356738D01*
X188565441Y-134377218D01*
X188565437Y-134377219D01*
X188434526Y-134437005D01*
X188387831Y-134474634D01*
X187174634Y-135687833D01*
X187174628Y-135687840D01*
X187137006Y-135734525D01*
X187137004Y-135734527D01*
X187077219Y-135865437D01*
X187077218Y-135865441D01*
X187056738Y-136007897D01*
X185200500Y-136007897D01*
X185200500Y-129479999D01*
X186455884Y-129479999D01*
X186455885Y-129480000D01*
X187214316Y-129480000D01*
X187209921Y-129484395D01*
X187157260Y-129575606D01*
X187130001Y-129677339D01*
X187130001Y-129782661D01*
X187157260Y-129884394D01*
X187209921Y-129975605D01*
X187214316Y-129980000D01*
X186455885Y-129980000D01*
X186457085Y-129987584D01*
X186510591Y-130152255D01*
X186589195Y-130306524D01*
X186690967Y-130446602D01*
X186813397Y-130569032D01*
X186953475Y-130670804D01*
X187107742Y-130749408D01*
X187272415Y-130802914D01*
X187443429Y-130830000D01*
X187580000Y-130830000D01*
X187580000Y-130129999D01*
X188080000Y-130129999D01*
X188080000Y-130830000D01*
X188216571Y-130830000D01*
X188387584Y-130802914D01*
X188552257Y-130749408D01*
X188706524Y-130670804D01*
X188846602Y-130569032D01*
X188969032Y-130446602D01*
X189070804Y-130306524D01*
X189149408Y-130152255D01*
X189202914Y-129987584D01*
X189204115Y-129980000D01*
X188445684Y-129980000D01*
X188450079Y-129975605D01*
X188502740Y-129884394D01*
X188529999Y-129782661D01*
X188529999Y-129677339D01*
X188502740Y-129575606D01*
X188450079Y-129484395D01*
X188445684Y-129480000D01*
X189204115Y-129480000D01*
X189204115Y-129479999D01*
X190535884Y-129479999D01*
X190535885Y-129480000D01*
X191294329Y-129480000D01*
X191289934Y-129484395D01*
X191237273Y-129575606D01*
X191210014Y-129677339D01*
X191210014Y-129782661D01*
X191237273Y-129884394D01*
X191289934Y-129975605D01*
X191294329Y-129980000D01*
X190535885Y-129980000D01*
X190537085Y-129987584D01*
X190590591Y-130152255D01*
X190669195Y-130306524D01*
X190770967Y-130446602D01*
X190893397Y-130569032D01*
X191033475Y-130670804D01*
X191187742Y-130749408D01*
X191352415Y-130802914D01*
X191523429Y-130830000D01*
X191760000Y-130830000D01*
X191760000Y-130129999D01*
X192260000Y-130129999D01*
X192260000Y-130830000D01*
X192496571Y-130830000D01*
X192667584Y-130802914D01*
X192832257Y-130749408D01*
X192986524Y-130670804D01*
X193126602Y-130569032D01*
X193174481Y-130521153D01*
X210399500Y-130521153D01*
X210399500Y-130678846D01*
X210430261Y-130833489D01*
X210430264Y-130833501D01*
X210490602Y-130979172D01*
X210490609Y-130979185D01*
X210578210Y-131110288D01*
X210578213Y-131110292D01*
X210689707Y-131221786D01*
X210689711Y-131221789D01*
X210820814Y-131309390D01*
X210820827Y-131309397D01*
X210966498Y-131369735D01*
X210966503Y-131369737D01*
X211121153Y-131400499D01*
X211121156Y-131400500D01*
X211121158Y-131400500D01*
X211278844Y-131400500D01*
X211278845Y-131400499D01*
X211433497Y-131369737D01*
X211579179Y-131309394D01*
X211581110Y-131308103D01*
X211582276Y-131307737D01*
X211584546Y-131306525D01*
X211584776Y-131306955D01*
X211647786Y-131287226D01*
X211715166Y-131305710D01*
X211718850Y-131308077D01*
X211720821Y-131309394D01*
X211720824Y-131309395D01*
X211720827Y-131309397D01*
X211866498Y-131369735D01*
X211866503Y-131369737D01*
X212021153Y-131400499D01*
X212021156Y-131400500D01*
X212021158Y-131400500D01*
X212178844Y-131400500D01*
X212178845Y-131400499D01*
X212333497Y-131369737D01*
X212479179Y-131309394D01*
X212610289Y-131221789D01*
X212721789Y-131110289D01*
X212809394Y-130979179D01*
X212869737Y-130833497D01*
X212900500Y-130678842D01*
X212900500Y-130521158D01*
X212900500Y-130521155D01*
X212900499Y-130521153D01*
X212869738Y-130366510D01*
X212869737Y-130366503D01*
X212844893Y-130306524D01*
X212809397Y-130220827D01*
X212809390Y-130220814D01*
X212721789Y-130089711D01*
X212721786Y-130089707D01*
X212610292Y-129978213D01*
X212610288Y-129978210D01*
X212479185Y-129890609D01*
X212479172Y-129890602D01*
X212333501Y-129830264D01*
X212333489Y-129830261D01*
X212178845Y-129799500D01*
X212178842Y-129799500D01*
X212021158Y-129799500D01*
X212021155Y-129799500D01*
X211866510Y-129830261D01*
X211866498Y-129830264D01*
X211720822Y-129890604D01*
X211720820Y-129890605D01*
X211718885Y-129891899D01*
X211717717Y-129892264D01*
X211715451Y-129893476D01*
X211715221Y-129893045D01*
X211652206Y-129912773D01*
X211584827Y-129894285D01*
X211581115Y-129891899D01*
X211579179Y-129890605D01*
X211579177Y-129890604D01*
X211433501Y-129830264D01*
X211433489Y-129830261D01*
X211278845Y-129799500D01*
X211278842Y-129799500D01*
X211121158Y-129799500D01*
X211121155Y-129799500D01*
X210966510Y-129830261D01*
X210966498Y-129830264D01*
X210820827Y-129890602D01*
X210820814Y-129890609D01*
X210689711Y-129978210D01*
X210689707Y-129978213D01*
X210578213Y-130089707D01*
X210578210Y-130089711D01*
X210490609Y-130220814D01*
X210490602Y-130220827D01*
X210430264Y-130366498D01*
X210430261Y-130366510D01*
X210399500Y-130521153D01*
X193174481Y-130521153D01*
X193249032Y-130446602D01*
X193252245Y-130442181D01*
X193350804Y-130306524D01*
X193429408Y-130152255D01*
X193482914Y-129987584D01*
X193484115Y-129980000D01*
X192725671Y-129980000D01*
X192730066Y-129975605D01*
X192782727Y-129884394D01*
X192809986Y-129782661D01*
X192809986Y-129677339D01*
X192782727Y-129575606D01*
X192730066Y-129484395D01*
X192725671Y-129480000D01*
X193484115Y-129480000D01*
X193484115Y-129479999D01*
X193482914Y-129472415D01*
X193429408Y-129307744D01*
X193350804Y-129153475D01*
X193249032Y-129013397D01*
X193126602Y-128890967D01*
X192986524Y-128789195D01*
X192832257Y-128710591D01*
X192667584Y-128657085D01*
X192496571Y-128630000D01*
X192488106Y-128630000D01*
X192421067Y-128610315D01*
X192375312Y-128557511D01*
X192365368Y-128488353D01*
X192366489Y-128481809D01*
X192385499Y-128386233D01*
X192385500Y-128386231D01*
X192385500Y-128213768D01*
X192385499Y-128213766D01*
X192384629Y-128209390D01*
X192351855Y-128044626D01*
X192351853Y-128044621D01*
X192285861Y-127885301D01*
X192285854Y-127885288D01*
X192190045Y-127741901D01*
X192190042Y-127741897D01*
X192069298Y-127621153D01*
X193399500Y-127621153D01*
X193399500Y-127778846D01*
X193430261Y-127933489D01*
X193430264Y-127933501D01*
X193490602Y-128079172D01*
X193490609Y-128079185D01*
X193578210Y-128210288D01*
X193578213Y-128210292D01*
X193689707Y-128321786D01*
X193689711Y-128321789D01*
X193820814Y-128409390D01*
X193820827Y-128409397D01*
X193966498Y-128469735D01*
X193966503Y-128469737D01*
X194121153Y-128500499D01*
X194121156Y-128500500D01*
X194121158Y-128500500D01*
X194278844Y-128500500D01*
X194278845Y-128500499D01*
X194433497Y-128469737D01*
X194579179Y-128409394D01*
X194710289Y-128321789D01*
X194821789Y-128210289D01*
X194909394Y-128079179D01*
X194969737Y-127933497D01*
X195000500Y-127778842D01*
X195000500Y-127621158D01*
X195000500Y-127621155D01*
X195000499Y-127621153D01*
X195000261Y-127619955D01*
X194969737Y-127466503D01*
X194968084Y-127462512D01*
X194950953Y-127421153D01*
X196499500Y-127421153D01*
X196499500Y-127578846D01*
X196530261Y-127733489D01*
X196530264Y-127733501D01*
X196590602Y-127879172D01*
X196590609Y-127879185D01*
X196678210Y-128010288D01*
X196678213Y-128010292D01*
X196789707Y-128121786D01*
X196789711Y-128121789D01*
X196920814Y-128209390D01*
X196920827Y-128209397D01*
X197066498Y-128269735D01*
X197066503Y-128269737D01*
X197221153Y-128300499D01*
X197221156Y-128300500D01*
X197221158Y-128300500D01*
X197378844Y-128300500D01*
X197378845Y-128300499D01*
X197533497Y-128269737D01*
X197679179Y-128209394D01*
X197810289Y-128121789D01*
X197921789Y-128010289D01*
X198009394Y-127879179D01*
X198069737Y-127733497D01*
X198100500Y-127578842D01*
X198100500Y-127421158D01*
X198100500Y-127421155D01*
X198100499Y-127421153D01*
X198080543Y-127320827D01*
X198069737Y-127266503D01*
X198037929Y-127189711D01*
X198009397Y-127120827D01*
X198009390Y-127120814D01*
X197921789Y-126989711D01*
X197921786Y-126989707D01*
X197810292Y-126878213D01*
X197810288Y-126878210D01*
X197679185Y-126790609D01*
X197679172Y-126790602D01*
X197533501Y-126730264D01*
X197533489Y-126730261D01*
X197378845Y-126699500D01*
X197378842Y-126699500D01*
X197221158Y-126699500D01*
X197221155Y-126699500D01*
X197066510Y-126730261D01*
X197066498Y-126730264D01*
X196920827Y-126790602D01*
X196920814Y-126790609D01*
X196789711Y-126878210D01*
X196789707Y-126878213D01*
X196678213Y-126989707D01*
X196678210Y-126989711D01*
X196590609Y-127120814D01*
X196590602Y-127120827D01*
X196530264Y-127266498D01*
X196530261Y-127266510D01*
X196499500Y-127421153D01*
X194950953Y-127421153D01*
X194909397Y-127320827D01*
X194909390Y-127320814D01*
X194821789Y-127189711D01*
X194821786Y-127189707D01*
X194710292Y-127078213D01*
X194710288Y-127078210D01*
X194579185Y-126990609D01*
X194579172Y-126990602D01*
X194433501Y-126930264D01*
X194433489Y-126930261D01*
X194278845Y-126899500D01*
X194278842Y-126899500D01*
X194121158Y-126899500D01*
X194121155Y-126899500D01*
X193966510Y-126930261D01*
X193966498Y-126930264D01*
X193820827Y-126990602D01*
X193820814Y-126990609D01*
X193689711Y-127078210D01*
X193689707Y-127078213D01*
X193578213Y-127189707D01*
X193578210Y-127189711D01*
X193490609Y-127320814D01*
X193490602Y-127320827D01*
X193430264Y-127466498D01*
X193430261Y-127466510D01*
X193399500Y-127621153D01*
X192069298Y-127621153D01*
X192068102Y-127619957D01*
X192068098Y-127619954D01*
X191924711Y-127524145D01*
X191924698Y-127524138D01*
X191765378Y-127458146D01*
X191765366Y-127458143D01*
X191596232Y-127424500D01*
X191596229Y-127424500D01*
X191423771Y-127424500D01*
X191423768Y-127424500D01*
X191254633Y-127458143D01*
X191254621Y-127458146D01*
X191095301Y-127524138D01*
X191095288Y-127524145D01*
X190951901Y-127619954D01*
X190951897Y-127619957D01*
X190829957Y-127741897D01*
X190829954Y-127741901D01*
X190734145Y-127885288D01*
X190734138Y-127885301D01*
X190668146Y-128044621D01*
X190668143Y-128044633D01*
X190634500Y-128213766D01*
X190634500Y-128386233D01*
X190668143Y-128555366D01*
X190668146Y-128555378D01*
X190734138Y-128714698D01*
X190734145Y-128714711D01*
X190811993Y-128831218D01*
X190832871Y-128897896D01*
X190814386Y-128965276D01*
X190796575Y-128987787D01*
X190770972Y-129013391D01*
X190770966Y-129013398D01*
X190669198Y-129153471D01*
X190590591Y-129307744D01*
X190537085Y-129472415D01*
X190535884Y-129479999D01*
X189204115Y-129479999D01*
X189202914Y-129472415D01*
X189149408Y-129307744D01*
X189070804Y-129153475D01*
X188969032Y-129013397D01*
X188846602Y-128890967D01*
X188706524Y-128789195D01*
X188552257Y-128710591D01*
X188387584Y-128657085D01*
X188216571Y-128630000D01*
X188080000Y-128630000D01*
X188080000Y-129330001D01*
X187580000Y-129330001D01*
X187580000Y-128630000D01*
X187443429Y-128630000D01*
X187272415Y-128657085D01*
X187107742Y-128710591D01*
X186953475Y-128789195D01*
X186813397Y-128890967D01*
X186690967Y-129013397D01*
X186589195Y-129153475D01*
X186510591Y-129307744D01*
X186457085Y-129472415D01*
X186455884Y-129479999D01*
X185200500Y-129479999D01*
X185200500Y-120819999D01*
X186455884Y-120819999D01*
X186455885Y-120820000D01*
X187214316Y-120820000D01*
X187209921Y-120824395D01*
X187157260Y-120915606D01*
X187130001Y-121017339D01*
X187130001Y-121122661D01*
X187157260Y-121224394D01*
X187209921Y-121315605D01*
X187214316Y-121320000D01*
X186455885Y-121320000D01*
X186457085Y-121327584D01*
X186510591Y-121492255D01*
X186589195Y-121646524D01*
X186690967Y-121786602D01*
X186813397Y-121909032D01*
X186953475Y-122010804D01*
X187107742Y-122089408D01*
X187272415Y-122142914D01*
X187443429Y-122170000D01*
X187580000Y-122170000D01*
X187580000Y-121469999D01*
X188080000Y-121469999D01*
X188080000Y-122170000D01*
X188216571Y-122170000D01*
X188387584Y-122142914D01*
X188552257Y-122089408D01*
X188706524Y-122010804D01*
X188846602Y-121909032D01*
X188969032Y-121786602D01*
X189070804Y-121646524D01*
X189149408Y-121492255D01*
X189202914Y-121327584D01*
X189204115Y-121320000D01*
X188445684Y-121320000D01*
X188450079Y-121315605D01*
X188502740Y-121224394D01*
X188529999Y-121122661D01*
X188529999Y-121017339D01*
X188502740Y-120915606D01*
X188450079Y-120824395D01*
X188445684Y-120820000D01*
X189204115Y-120820000D01*
X189204115Y-120819999D01*
X190535884Y-120819999D01*
X190535885Y-120820000D01*
X191294304Y-120820000D01*
X191289909Y-120824395D01*
X191237248Y-120915606D01*
X191209989Y-121017339D01*
X191209989Y-121122661D01*
X191237248Y-121224394D01*
X191289909Y-121315605D01*
X191294304Y-121320000D01*
X190535885Y-121320000D01*
X190537085Y-121327584D01*
X190590591Y-121492255D01*
X190669195Y-121646524D01*
X190770967Y-121786602D01*
X190796573Y-121812208D01*
X190830058Y-121873531D01*
X190825074Y-121943223D01*
X190811994Y-121968780D01*
X190734145Y-122085288D01*
X190734138Y-122085301D01*
X190668146Y-122244621D01*
X190668143Y-122244633D01*
X190634500Y-122413766D01*
X190634500Y-122586233D01*
X190668143Y-122755366D01*
X190668146Y-122755378D01*
X190734138Y-122914698D01*
X190734145Y-122914711D01*
X190829954Y-123058098D01*
X190829957Y-123058102D01*
X190951897Y-123180042D01*
X190951901Y-123180045D01*
X191095288Y-123275854D01*
X191095301Y-123275861D01*
X191254621Y-123341853D01*
X191254626Y-123341855D01*
X191423766Y-123375499D01*
X191423769Y-123375500D01*
X191423771Y-123375500D01*
X191596231Y-123375500D01*
X191596232Y-123375499D01*
X191765374Y-123341855D01*
X191924705Y-123275858D01*
X192068099Y-123180045D01*
X192190045Y-123058099D01*
X192281550Y-122921153D01*
X193399500Y-122921153D01*
X193399500Y-123078846D01*
X193430261Y-123233489D01*
X193430264Y-123233501D01*
X193490602Y-123379172D01*
X193490609Y-123379185D01*
X193578210Y-123510288D01*
X193578213Y-123510292D01*
X193689707Y-123621786D01*
X193689711Y-123621789D01*
X193820814Y-123709390D01*
X193820827Y-123709397D01*
X193966498Y-123769735D01*
X193966503Y-123769737D01*
X194121153Y-123800499D01*
X194121156Y-123800500D01*
X194272650Y-123800500D01*
X194339689Y-123820185D01*
X194385444Y-123872989D01*
X194395388Y-123942147D01*
X194375752Y-123993391D01*
X194290609Y-124120814D01*
X194290602Y-124120827D01*
X194230264Y-124266498D01*
X194230261Y-124266510D01*
X194199500Y-124421153D01*
X194199500Y-124578846D01*
X194230261Y-124733489D01*
X194230264Y-124733501D01*
X194279574Y-124852548D01*
X194287043Y-124922018D01*
X194279574Y-124947452D01*
X194230264Y-125066498D01*
X194230261Y-125066510D01*
X194199500Y-125221153D01*
X194199500Y-125378846D01*
X194230261Y-125533489D01*
X194230264Y-125533501D01*
X194290602Y-125679172D01*
X194290609Y-125679185D01*
X194378210Y-125810288D01*
X194378213Y-125810292D01*
X194489707Y-125921786D01*
X194489711Y-125921789D01*
X194620814Y-126009390D01*
X194620827Y-126009397D01*
X194718824Y-126049988D01*
X194766503Y-126069737D01*
X194921153Y-126100499D01*
X194921156Y-126100500D01*
X194921158Y-126100500D01*
X195078844Y-126100500D01*
X195078845Y-126100499D01*
X195233497Y-126069737D01*
X195379179Y-126009394D01*
X195510289Y-125921789D01*
X195621789Y-125810289D01*
X195709394Y-125679179D01*
X195769737Y-125533497D01*
X195800500Y-125378842D01*
X195800500Y-125221158D01*
X195800500Y-125221155D01*
X195800499Y-125221153D01*
X195769738Y-125066510D01*
X195769737Y-125066503D01*
X195720425Y-124947452D01*
X195712956Y-124877983D01*
X195720425Y-124852548D01*
X195769735Y-124733501D01*
X195769737Y-124733497D01*
X195800500Y-124578842D01*
X195800500Y-124421158D01*
X195800500Y-124421155D01*
X195800499Y-124421153D01*
X195796391Y-124400499D01*
X195769737Y-124266503D01*
X195740313Y-124195466D01*
X195709397Y-124120827D01*
X195709390Y-124120814D01*
X195621789Y-123989711D01*
X195621786Y-123989707D01*
X195510292Y-123878213D01*
X195510288Y-123878210D01*
X195379185Y-123790609D01*
X195379172Y-123790602D01*
X195233501Y-123730264D01*
X195233489Y-123730261D01*
X195078845Y-123699500D01*
X195078842Y-123699500D01*
X194927350Y-123699500D01*
X194860311Y-123679815D01*
X194814556Y-123627011D01*
X194804612Y-123557853D01*
X194824248Y-123506609D01*
X194909390Y-123379185D01*
X194909390Y-123379184D01*
X194909394Y-123379179D01*
X194969737Y-123233497D01*
X195000500Y-123078842D01*
X195000500Y-122921158D01*
X195000500Y-122921155D01*
X195000499Y-122921153D01*
X194989627Y-122866498D01*
X194969737Y-122766503D01*
X194928314Y-122666498D01*
X194909397Y-122620827D01*
X194909390Y-122620814D01*
X194851354Y-122533957D01*
X194821789Y-122489711D01*
X194821786Y-122489707D01*
X194803232Y-122471153D01*
X216549500Y-122471153D01*
X216549500Y-122628846D01*
X216580261Y-122783489D01*
X216580264Y-122783501D01*
X216640602Y-122929172D01*
X216640609Y-122929185D01*
X216728210Y-123060288D01*
X216728213Y-123060292D01*
X216839707Y-123171786D01*
X216839711Y-123171789D01*
X216970814Y-123259390D01*
X216970827Y-123259397D01*
X217056253Y-123294781D01*
X217116503Y-123319737D01*
X217271153Y-123350499D01*
X217271156Y-123350500D01*
X217271158Y-123350500D01*
X217428844Y-123350500D01*
X217428845Y-123350499D01*
X217583497Y-123319737D01*
X217729179Y-123259394D01*
X217860289Y-123171789D01*
X217971789Y-123060289D01*
X217997939Y-123021153D01*
X244099500Y-123021153D01*
X244099500Y-123178846D01*
X244130261Y-123333489D01*
X244130264Y-123333501D01*
X244190602Y-123479172D01*
X244190609Y-123479185D01*
X244278210Y-123610288D01*
X244278213Y-123610292D01*
X244389707Y-123721786D01*
X244389711Y-123721789D01*
X244520814Y-123809390D01*
X244520827Y-123809397D01*
X244666498Y-123869735D01*
X244666503Y-123869737D01*
X244821153Y-123900499D01*
X244821156Y-123900500D01*
X244821158Y-123900500D01*
X244978844Y-123900500D01*
X244978845Y-123900499D01*
X245133497Y-123869737D01*
X245279179Y-123809394D01*
X245410289Y-123721789D01*
X245521789Y-123610289D01*
X245609394Y-123479179D01*
X245669737Y-123333497D01*
X245700500Y-123178842D01*
X245700500Y-123021158D01*
X245700500Y-123021155D01*
X245700499Y-123021153D01*
X245669737Y-122866503D01*
X245650955Y-122821158D01*
X245609397Y-122720827D01*
X245609390Y-122720814D01*
X245521789Y-122589711D01*
X245521786Y-122589707D01*
X245410292Y-122478213D01*
X245410288Y-122478210D01*
X245279185Y-122390609D01*
X245279172Y-122390602D01*
X245133501Y-122330264D01*
X245133489Y-122330261D01*
X244978845Y-122299500D01*
X244978842Y-122299500D01*
X244821158Y-122299500D01*
X244821155Y-122299500D01*
X244666510Y-122330261D01*
X244666498Y-122330264D01*
X244520827Y-122390602D01*
X244520814Y-122390609D01*
X244389711Y-122478210D01*
X244389707Y-122478213D01*
X244278213Y-122589707D01*
X244278210Y-122589711D01*
X244190609Y-122720814D01*
X244190602Y-122720827D01*
X244130264Y-122866498D01*
X244130261Y-122866510D01*
X244099500Y-123021153D01*
X217997939Y-123021153D01*
X218059394Y-122929179D01*
X218062719Y-122921153D01*
X218104137Y-122821158D01*
X218119737Y-122783497D01*
X218150500Y-122628842D01*
X218150500Y-122471158D01*
X218150500Y-122471155D01*
X218150499Y-122471153D01*
X218139084Y-122413766D01*
X218119737Y-122316503D01*
X218112694Y-122299500D01*
X218059397Y-122170827D01*
X218059390Y-122170814D01*
X218001354Y-122083957D01*
X217971789Y-122039711D01*
X217971786Y-122039707D01*
X217953232Y-122021153D01*
X249199500Y-122021153D01*
X249199500Y-122178846D01*
X249230261Y-122333489D01*
X249230264Y-122333501D01*
X249279574Y-122452548D01*
X249287043Y-122522018D01*
X249279574Y-122547452D01*
X249230264Y-122666498D01*
X249230261Y-122666510D01*
X249199500Y-122821153D01*
X249199500Y-122978846D01*
X249230260Y-123133488D01*
X249230262Y-123133493D01*
X249230263Y-123133497D01*
X249257602Y-123199500D01*
X249258865Y-123202549D01*
X249266333Y-123272018D01*
X249258865Y-123297447D01*
X249230263Y-123366503D01*
X249230262Y-123366506D01*
X249230260Y-123366511D01*
X249199500Y-123521153D01*
X249199500Y-123678846D01*
X249230261Y-123833489D01*
X249230264Y-123833501D01*
X249290602Y-123979172D01*
X249290609Y-123979185D01*
X249378210Y-124110288D01*
X249378213Y-124110292D01*
X249489707Y-124221786D01*
X249489711Y-124221789D01*
X249620814Y-124309390D01*
X249620827Y-124309397D01*
X249766498Y-124369735D01*
X249766503Y-124369737D01*
X249906820Y-124397648D01*
X249921153Y-124400499D01*
X249921156Y-124400500D01*
X249921158Y-124400500D01*
X250078844Y-124400500D01*
X250078845Y-124400499D01*
X250093178Y-124397648D01*
X251849500Y-124397648D01*
X251849500Y-124602351D01*
X251881522Y-124804534D01*
X251944781Y-124999223D01*
X252037715Y-125181613D01*
X252158028Y-125347213D01*
X252302786Y-125491971D01*
X252457749Y-125604556D01*
X252468390Y-125612287D01*
X252650781Y-125705220D01*
X252708373Y-125723932D01*
X252757735Y-125754182D01*
X253061405Y-126057852D01*
X252976302Y-126080656D01*
X252873686Y-126139901D01*
X252789901Y-126223686D01*
X252730656Y-126326302D01*
X252707852Y-126411405D01*
X252070524Y-125774077D01*
X252070523Y-125774077D01*
X252038143Y-125818644D01*
X251945244Y-126000968D01*
X251882009Y-126195582D01*
X251850000Y-126397682D01*
X251850000Y-126602317D01*
X251882009Y-126804417D01*
X251945244Y-126999031D01*
X252038141Y-127181350D01*
X252038147Y-127181359D01*
X252070523Y-127225921D01*
X252070524Y-127225922D01*
X252707852Y-126588594D01*
X252730656Y-126673698D01*
X252789901Y-126776314D01*
X252873686Y-126860099D01*
X252976302Y-126919344D01*
X253061405Y-126942147D01*
X252424076Y-127579474D01*
X252468650Y-127611859D01*
X252650968Y-127704755D01*
X252845582Y-127767990D01*
X253047683Y-127800000D01*
X253252317Y-127800000D01*
X253454417Y-127767990D01*
X253649031Y-127704755D01*
X253831349Y-127611859D01*
X253875921Y-127579474D01*
X253238594Y-126942147D01*
X253323698Y-126919344D01*
X253426314Y-126860099D01*
X253510099Y-126776314D01*
X253569344Y-126673698D01*
X253592147Y-126588594D01*
X254229474Y-127225921D01*
X254261859Y-127181349D01*
X254354755Y-126999031D01*
X254417990Y-126804417D01*
X254450000Y-126602317D01*
X254450000Y-126397682D01*
X254417990Y-126195582D01*
X254354755Y-126000968D01*
X254261859Y-125818650D01*
X254229474Y-125774077D01*
X254229474Y-125774076D01*
X253592147Y-126411404D01*
X253569344Y-126326302D01*
X253510099Y-126223686D01*
X253426314Y-126139901D01*
X253323698Y-126080656D01*
X253238594Y-126057852D01*
X253542262Y-125754183D01*
X253591626Y-125723933D01*
X253649213Y-125705222D01*
X253649219Y-125705220D01*
X253700315Y-125679185D01*
X253831610Y-125612287D01*
X253940067Y-125533489D01*
X253997213Y-125491971D01*
X253997215Y-125491968D01*
X253997219Y-125491966D01*
X254141966Y-125347219D01*
X254141968Y-125347215D01*
X254141971Y-125347213D01*
X254194732Y-125274590D01*
X254262287Y-125181610D01*
X254355220Y-124999219D01*
X254418477Y-124804534D01*
X254450500Y-124602352D01*
X254450500Y-124397648D01*
X254433398Y-124289674D01*
X254418477Y-124195465D01*
X254355218Y-124000776D01*
X254304124Y-123900500D01*
X254262287Y-123818390D01*
X254226939Y-123769737D01*
X254141971Y-123652786D01*
X253997213Y-123508028D01*
X253831613Y-123387715D01*
X253831612Y-123387714D01*
X253831610Y-123387713D01*
X253774653Y-123358691D01*
X253649223Y-123294781D01*
X253454534Y-123231522D01*
X253271602Y-123202549D01*
X253252352Y-123199500D01*
X253047648Y-123199500D01*
X253028398Y-123202549D01*
X252845465Y-123231522D01*
X252650776Y-123294781D01*
X252468386Y-123387715D01*
X252302786Y-123508028D01*
X252158028Y-123652786D01*
X252037715Y-123818386D01*
X251944781Y-124000776D01*
X251881522Y-124195465D01*
X251849500Y-124397648D01*
X250093178Y-124397648D01*
X250233497Y-124369737D01*
X250379179Y-124309394D01*
X250379185Y-124309390D01*
X250408693Y-124289674D01*
X250458655Y-124256289D01*
X250510289Y-124221789D01*
X250621789Y-124110289D01*
X250709394Y-123979179D01*
X250769737Y-123833497D01*
X250800500Y-123678842D01*
X250800500Y-123521158D01*
X250800500Y-123521155D01*
X250800499Y-123521153D01*
X250773956Y-123387713D01*
X250769737Y-123366503D01*
X250741134Y-123297450D01*
X250733666Y-123227984D01*
X250741133Y-123202552D01*
X250769737Y-123133497D01*
X250800500Y-122978842D01*
X250800500Y-122821158D01*
X250800500Y-122821155D01*
X250800499Y-122821153D01*
X250769737Y-122666503D01*
X250754138Y-122628844D01*
X250720425Y-122547452D01*
X250712956Y-122477983D01*
X250720425Y-122452548D01*
X250746082Y-122390606D01*
X250769737Y-122333497D01*
X250800500Y-122178842D01*
X250800500Y-122021158D01*
X250800500Y-122021155D01*
X250800499Y-122021153D01*
X250790081Y-121968780D01*
X250769737Y-121866503D01*
X250769735Y-121866498D01*
X250709397Y-121720827D01*
X250709390Y-121720814D01*
X250621789Y-121589711D01*
X250621786Y-121589707D01*
X250510292Y-121478213D01*
X250510288Y-121478210D01*
X250379185Y-121390609D01*
X250379172Y-121390602D01*
X250233501Y-121330264D01*
X250233489Y-121330261D01*
X250078845Y-121299500D01*
X250078842Y-121299500D01*
X249921158Y-121299500D01*
X249921155Y-121299500D01*
X249766510Y-121330261D01*
X249766498Y-121330264D01*
X249620827Y-121390602D01*
X249620814Y-121390609D01*
X249489711Y-121478210D01*
X249489707Y-121478213D01*
X249378213Y-121589707D01*
X249378210Y-121589711D01*
X249290609Y-121720814D01*
X249290602Y-121720827D01*
X249230264Y-121866498D01*
X249230261Y-121866510D01*
X249199500Y-122021153D01*
X217953232Y-122021153D01*
X217860292Y-121928213D01*
X217860288Y-121928210D01*
X217729185Y-121840609D01*
X217729172Y-121840602D01*
X217583501Y-121780264D01*
X217583489Y-121780261D01*
X217428845Y-121749500D01*
X217428842Y-121749500D01*
X217271158Y-121749500D01*
X217271155Y-121749500D01*
X217116510Y-121780261D01*
X217116498Y-121780264D01*
X216970827Y-121840602D01*
X216970814Y-121840609D01*
X216839711Y-121928210D01*
X216839707Y-121928213D01*
X216728213Y-122039707D01*
X216728210Y-122039711D01*
X216640609Y-122170814D01*
X216640602Y-122170827D01*
X216580264Y-122316498D01*
X216580261Y-122316510D01*
X216549500Y-122471153D01*
X194803232Y-122471153D01*
X194710292Y-122378213D01*
X194710288Y-122378210D01*
X194579185Y-122290609D01*
X194579172Y-122290602D01*
X194433501Y-122230264D01*
X194433489Y-122230261D01*
X194278845Y-122199500D01*
X194278842Y-122199500D01*
X194121158Y-122199500D01*
X194121155Y-122199500D01*
X193966510Y-122230261D01*
X193966498Y-122230264D01*
X193820827Y-122290602D01*
X193820814Y-122290609D01*
X193689711Y-122378210D01*
X193689707Y-122378213D01*
X193578213Y-122489707D01*
X193578210Y-122489711D01*
X193490609Y-122620814D01*
X193490602Y-122620827D01*
X193430264Y-122766498D01*
X193430261Y-122766510D01*
X193399500Y-122921153D01*
X192281550Y-122921153D01*
X192285858Y-122914705D01*
X192351855Y-122755374D01*
X192385500Y-122586229D01*
X192385500Y-122413771D01*
X192385500Y-122413768D01*
X192385499Y-122413766D01*
X192366489Y-122318191D01*
X192372716Y-122248599D01*
X192415580Y-122193422D01*
X192481469Y-122170178D01*
X192488106Y-122170000D01*
X192496571Y-122170000D01*
X192667584Y-122142914D01*
X192832257Y-122089408D01*
X192986524Y-122010804D01*
X193126602Y-121909032D01*
X193249032Y-121786602D01*
X193350804Y-121646524D01*
X193429408Y-121492255D01*
X193482914Y-121327584D01*
X193484115Y-121320000D01*
X192725696Y-121320000D01*
X192730091Y-121315605D01*
X192782752Y-121224394D01*
X192810011Y-121122661D01*
X192810011Y-121017339D01*
X192782752Y-120915606D01*
X192730091Y-120824395D01*
X192725696Y-120820000D01*
X193484115Y-120820000D01*
X193484115Y-120819999D01*
X193482914Y-120812415D01*
X193429408Y-120647744D01*
X193350804Y-120493475D01*
X193249032Y-120353397D01*
X193126602Y-120230967D01*
X192986524Y-120129195D01*
X192832257Y-120050591D01*
X192667584Y-119997085D01*
X192496571Y-119970000D01*
X192260000Y-119970000D01*
X192260000Y-120670001D01*
X191760000Y-120670001D01*
X191760000Y-119970000D01*
X191523429Y-119970000D01*
X191352415Y-119997085D01*
X191187742Y-120050591D01*
X191033475Y-120129195D01*
X190893397Y-120230967D01*
X190770967Y-120353397D01*
X190669195Y-120493475D01*
X190590591Y-120647744D01*
X190537085Y-120812415D01*
X190535884Y-120819999D01*
X189204115Y-120819999D01*
X189202914Y-120812415D01*
X189149408Y-120647744D01*
X189070804Y-120493475D01*
X188969032Y-120353397D01*
X188846602Y-120230967D01*
X188706524Y-120129195D01*
X188552257Y-120050591D01*
X188387584Y-119997085D01*
X188216571Y-119970000D01*
X188080000Y-119970000D01*
X188080000Y-120670001D01*
X187580000Y-120670001D01*
X187580000Y-119970000D01*
X187443429Y-119970000D01*
X187272415Y-119997085D01*
X187107742Y-120050591D01*
X186953475Y-120129195D01*
X186813397Y-120230967D01*
X186690967Y-120353397D01*
X186589195Y-120493475D01*
X186510591Y-120647744D01*
X186457085Y-120812415D01*
X186455884Y-120819999D01*
X185200500Y-120819999D01*
X185200500Y-119721153D01*
X193699500Y-119721153D01*
X193699500Y-119878846D01*
X193730261Y-120033489D01*
X193730264Y-120033501D01*
X193790602Y-120179172D01*
X193790609Y-120179185D01*
X193878210Y-120310288D01*
X193878213Y-120310292D01*
X193989707Y-120421786D01*
X193989711Y-120421789D01*
X194120814Y-120509390D01*
X194120827Y-120509397D01*
X194266498Y-120569735D01*
X194266503Y-120569737D01*
X194421153Y-120600499D01*
X194421156Y-120600500D01*
X194421158Y-120600500D01*
X194578844Y-120600500D01*
X194578845Y-120600499D01*
X194733497Y-120569737D01*
X194879179Y-120509394D01*
X194936411Y-120471153D01*
X218969500Y-120471153D01*
X218969500Y-120628846D01*
X219000261Y-120783489D01*
X219000264Y-120783501D01*
X219060602Y-120929172D01*
X219060609Y-120929185D01*
X219148210Y-121060288D01*
X219148213Y-121060292D01*
X219259707Y-121171786D01*
X219259711Y-121171789D01*
X219390814Y-121259390D01*
X219390827Y-121259397D01*
X219487646Y-121299500D01*
X219536503Y-121319737D01*
X219691153Y-121350499D01*
X219691156Y-121350500D01*
X219691158Y-121350500D01*
X219848844Y-121350500D01*
X219848845Y-121350499D01*
X220003497Y-121319737D01*
X220149179Y-121259394D01*
X220280289Y-121171789D01*
X220391789Y-121060289D01*
X220479394Y-120929179D01*
X220539737Y-120783497D01*
X220570500Y-120628842D01*
X220570500Y-120471158D01*
X220570500Y-120471155D01*
X220570499Y-120471153D01*
X220551847Y-120377385D01*
X220539737Y-120316503D01*
X220504307Y-120230967D01*
X220479397Y-120170827D01*
X220479390Y-120170814D01*
X220391789Y-120039711D01*
X220391786Y-120039707D01*
X220280292Y-119928213D01*
X220280288Y-119928210D01*
X220149185Y-119840609D01*
X220149172Y-119840602D01*
X220003501Y-119780264D01*
X220003489Y-119780261D01*
X219848845Y-119749500D01*
X219848842Y-119749500D01*
X219691158Y-119749500D01*
X219691155Y-119749500D01*
X219536510Y-119780261D01*
X219536498Y-119780264D01*
X219390827Y-119840602D01*
X219390814Y-119840609D01*
X219259711Y-119928210D01*
X219259707Y-119928213D01*
X219148213Y-120039707D01*
X219148210Y-120039711D01*
X219060609Y-120170814D01*
X219060602Y-120170827D01*
X219000264Y-120316498D01*
X219000261Y-120316510D01*
X218969500Y-120471153D01*
X194936411Y-120471153D01*
X195010289Y-120421789D01*
X195010292Y-120421786D01*
X195054694Y-120377385D01*
X195121786Y-120310292D01*
X195121789Y-120310289D01*
X195209394Y-120179179D01*
X195212854Y-120170827D01*
X195267163Y-120039711D01*
X195269737Y-120033497D01*
X195300500Y-119878842D01*
X195300500Y-119721158D01*
X195300500Y-119721155D01*
X195300499Y-119721153D01*
X195269738Y-119566510D01*
X195269737Y-119566503D01*
X195242398Y-119500500D01*
X195209397Y-119420827D01*
X195209390Y-119420814D01*
X195121789Y-119289711D01*
X195121786Y-119289707D01*
X195010292Y-119178213D01*
X195010288Y-119178210D01*
X194879185Y-119090609D01*
X194879172Y-119090602D01*
X194733501Y-119030264D01*
X194733489Y-119030261D01*
X194578845Y-118999500D01*
X194578842Y-118999500D01*
X194421158Y-118999500D01*
X194421155Y-118999500D01*
X194266510Y-119030261D01*
X194266498Y-119030264D01*
X194120827Y-119090602D01*
X194120814Y-119090609D01*
X193989711Y-119178210D01*
X193989707Y-119178213D01*
X193878213Y-119289707D01*
X193878210Y-119289711D01*
X193790609Y-119420814D01*
X193790602Y-119420827D01*
X193730264Y-119566498D01*
X193730261Y-119566510D01*
X193699500Y-119721153D01*
X185200500Y-119721153D01*
X185200500Y-118621153D01*
X248999500Y-118621153D01*
X248999500Y-118778846D01*
X249030261Y-118933489D01*
X249030264Y-118933501D01*
X249090602Y-119079172D01*
X249090609Y-119079185D01*
X249178210Y-119210288D01*
X249178213Y-119210292D01*
X249289707Y-119321786D01*
X249289711Y-119321789D01*
X249420814Y-119409390D01*
X249420827Y-119409397D01*
X249566498Y-119469735D01*
X249566503Y-119469737D01*
X249721153Y-119500499D01*
X249721156Y-119500500D01*
X249721158Y-119500500D01*
X249878844Y-119500500D01*
X249878845Y-119500499D01*
X250033497Y-119469737D01*
X250151592Y-119420821D01*
X250179172Y-119409397D01*
X250179172Y-119409396D01*
X250179179Y-119409394D01*
X250310289Y-119321789D01*
X250421789Y-119210289D01*
X250509394Y-119079179D01*
X250569737Y-118933497D01*
X250600500Y-118778842D01*
X250600500Y-118621158D01*
X250600500Y-118621155D01*
X250600499Y-118621153D01*
X250569738Y-118466510D01*
X250569737Y-118466503D01*
X250569735Y-118466498D01*
X250509397Y-118320827D01*
X250509390Y-118320814D01*
X250421789Y-118189711D01*
X250421786Y-118189707D01*
X250310292Y-118078213D01*
X250310288Y-118078210D01*
X250179185Y-117990609D01*
X250179172Y-117990602D01*
X250033501Y-117930264D01*
X250033489Y-117930261D01*
X249878845Y-117899500D01*
X249878842Y-117899500D01*
X249721158Y-117899500D01*
X249721155Y-117899500D01*
X249566510Y-117930261D01*
X249566498Y-117930264D01*
X249420827Y-117990602D01*
X249420814Y-117990609D01*
X249289711Y-118078210D01*
X249289707Y-118078213D01*
X249178213Y-118189707D01*
X249178210Y-118189711D01*
X249090609Y-118320814D01*
X249090602Y-118320827D01*
X249030264Y-118466498D01*
X249030261Y-118466510D01*
X248999500Y-118621153D01*
X185200500Y-118621153D01*
X185200500Y-91653713D01*
X187249500Y-91653713D01*
X187249500Y-91866287D01*
X187249534Y-91866503D01*
X187276418Y-92036243D01*
X187282754Y-92076243D01*
X187316091Y-92178844D01*
X187348444Y-92278414D01*
X187444951Y-92467820D01*
X187569890Y-92639786D01*
X187720213Y-92790109D01*
X187892182Y-92915050D01*
X187900946Y-92919516D01*
X187951742Y-92967491D01*
X187968536Y-93035312D01*
X187945998Y-93101447D01*
X187900946Y-93140484D01*
X187892182Y-93144949D01*
X187720213Y-93269890D01*
X187569890Y-93420213D01*
X187444951Y-93592179D01*
X187348444Y-93781585D01*
X187282753Y-93983760D01*
X187249500Y-94193713D01*
X187249500Y-94406286D01*
X187282753Y-94616239D01*
X187348444Y-94818414D01*
X187444951Y-95007820D01*
X187569890Y-95179786D01*
X187720213Y-95330109D01*
X187892182Y-95455050D01*
X187900946Y-95459516D01*
X187951742Y-95507491D01*
X187968536Y-95575312D01*
X187945998Y-95641447D01*
X187900946Y-95680484D01*
X187892182Y-95684949D01*
X187720213Y-95809890D01*
X187569890Y-95960213D01*
X187444951Y-96132179D01*
X187348444Y-96321585D01*
X187282753Y-96523760D01*
X187249500Y-96733713D01*
X187249500Y-96946286D01*
X187276418Y-97116243D01*
X187282754Y-97156243D01*
X187344469Y-97346182D01*
X187348444Y-97358414D01*
X187444951Y-97547820D01*
X187569890Y-97719786D01*
X187720213Y-97870109D01*
X187892182Y-97995050D01*
X187900946Y-97999516D01*
X187951742Y-98047491D01*
X187968536Y-98115312D01*
X187945998Y-98181447D01*
X187900946Y-98220484D01*
X187892182Y-98224949D01*
X187720213Y-98349890D01*
X187569890Y-98500213D01*
X187444951Y-98672179D01*
X187348444Y-98861585D01*
X187282753Y-99063760D01*
X187249500Y-99273713D01*
X187249500Y-99486286D01*
X187282753Y-99696239D01*
X187282753Y-99696241D01*
X187282754Y-99696243D01*
X187341403Y-99876746D01*
X187348444Y-99898414D01*
X187444951Y-100087820D01*
X187569890Y-100259786D01*
X187720213Y-100410109D01*
X187892182Y-100535050D01*
X187900946Y-100539516D01*
X187951742Y-100587491D01*
X187968536Y-100655312D01*
X187945998Y-100721447D01*
X187900946Y-100760484D01*
X187892182Y-100764949D01*
X187720213Y-100889890D01*
X187569890Y-101040213D01*
X187444951Y-101212179D01*
X187348444Y-101401585D01*
X187282753Y-101603760D01*
X187249500Y-101813713D01*
X187249500Y-102026286D01*
X187282753Y-102236239D01*
X187348444Y-102438414D01*
X187444951Y-102627820D01*
X187569890Y-102799786D01*
X187720213Y-102950109D01*
X187892182Y-103075050D01*
X187900946Y-103079516D01*
X187951742Y-103127491D01*
X187968536Y-103195312D01*
X187945998Y-103261447D01*
X187900946Y-103300484D01*
X187892182Y-103304949D01*
X187720213Y-103429890D01*
X187569890Y-103580213D01*
X187444951Y-103752179D01*
X187348444Y-103941585D01*
X187282753Y-104143760D01*
X187249500Y-104353713D01*
X187249500Y-104566286D01*
X187276418Y-104736243D01*
X187282754Y-104776243D01*
X187326309Y-104910292D01*
X187348444Y-104978414D01*
X187444951Y-105167820D01*
X187569890Y-105339786D01*
X187720213Y-105490109D01*
X187892182Y-105615050D01*
X187900946Y-105619516D01*
X187951742Y-105667491D01*
X187968536Y-105735312D01*
X187945998Y-105801447D01*
X187900946Y-105840484D01*
X187892182Y-105844949D01*
X187720213Y-105969890D01*
X187569890Y-106120213D01*
X187444951Y-106292179D01*
X187348444Y-106481585D01*
X187282753Y-106683760D01*
X187249500Y-106893713D01*
X187249500Y-107106286D01*
X187276418Y-107276243D01*
X187282754Y-107316243D01*
X187339117Y-107489711D01*
X187348444Y-107518414D01*
X187444951Y-107707820D01*
X187569890Y-107879786D01*
X187720213Y-108030109D01*
X187892182Y-108155050D01*
X187900946Y-108159516D01*
X187951742Y-108207491D01*
X187968536Y-108275312D01*
X187945998Y-108341447D01*
X187900946Y-108380484D01*
X187892182Y-108384949D01*
X187720213Y-108509890D01*
X187569890Y-108660213D01*
X187444951Y-108832179D01*
X187348444Y-109021585D01*
X187282753Y-109223760D01*
X187258137Y-109379179D01*
X187249500Y-109433713D01*
X187249500Y-109646287D01*
X187256520Y-109690609D01*
X187276418Y-109816243D01*
X187282754Y-109856243D01*
X187293628Y-109889711D01*
X187348444Y-110058414D01*
X187444951Y-110247820D01*
X187569890Y-110419786D01*
X187720213Y-110570109D01*
X187892182Y-110695050D01*
X187900946Y-110699516D01*
X187951742Y-110747491D01*
X187968536Y-110815312D01*
X187945998Y-110881447D01*
X187900946Y-110920484D01*
X187892182Y-110924949D01*
X187720213Y-111049890D01*
X187569890Y-111200213D01*
X187444951Y-111372179D01*
X187348444Y-111561585D01*
X187282753Y-111763760D01*
X187249500Y-111973713D01*
X187249500Y-112186286D01*
X187282753Y-112396239D01*
X187348444Y-112598414D01*
X187444951Y-112787820D01*
X187569890Y-112959786D01*
X187720209Y-113110105D01*
X187727108Y-113115117D01*
X187769777Y-113170445D01*
X187775759Y-113240058D01*
X187743157Y-113301855D01*
X187682319Y-113336215D01*
X187667488Y-113338728D01*
X187642625Y-113341401D01*
X187642620Y-113341403D01*
X187507913Y-113391645D01*
X187507906Y-113391649D01*
X187392812Y-113477809D01*
X187392809Y-113477812D01*
X187306649Y-113592906D01*
X187306645Y-113592913D01*
X187256403Y-113727620D01*
X187256401Y-113727627D01*
X187250000Y-113787155D01*
X187250000Y-114370000D01*
X188109238Y-114370000D01*
X188087470Y-114407703D01*
X188049988Y-114547590D01*
X188049988Y-114692410D01*
X188087470Y-114832297D01*
X188109238Y-114870000D01*
X187250000Y-114870000D01*
X187250000Y-115452844D01*
X187256401Y-115512372D01*
X187256403Y-115512379D01*
X187306645Y-115647086D01*
X187306649Y-115647093D01*
X187392809Y-115762187D01*
X187392812Y-115762190D01*
X187507906Y-115848350D01*
X187507913Y-115848354D01*
X187642620Y-115898596D01*
X187642627Y-115898598D01*
X187702155Y-115904999D01*
X187702172Y-115905000D01*
X188350000Y-115905000D01*
X188350000Y-115110761D01*
X188387703Y-115132530D01*
X188527590Y-115170012D01*
X188672410Y-115170012D01*
X188812297Y-115132530D01*
X188850000Y-115110761D01*
X188850000Y-115905000D01*
X189497828Y-115905000D01*
X189497844Y-115904999D01*
X189557372Y-115898598D01*
X189557379Y-115898596D01*
X189692086Y-115848354D01*
X189692093Y-115848350D01*
X189807187Y-115762190D01*
X189807190Y-115762187D01*
X189893350Y-115647093D01*
X189893354Y-115647086D01*
X189943596Y-115512379D01*
X189943598Y-115512372D01*
X189949999Y-115452844D01*
X189950000Y-115452827D01*
X189950000Y-114870000D01*
X189090762Y-114870000D01*
X189112530Y-114832297D01*
X189150012Y-114692410D01*
X189150012Y-114547590D01*
X189112530Y-114407703D01*
X189090762Y-114370000D01*
X189950000Y-114370000D01*
X189950000Y-113787172D01*
X189949999Y-113787155D01*
X189943598Y-113727627D01*
X189943596Y-113727620D01*
X189893354Y-113592913D01*
X189893350Y-113592906D01*
X189807190Y-113477812D01*
X189807187Y-113477809D01*
X189692093Y-113391649D01*
X189692086Y-113391645D01*
X189557379Y-113341403D01*
X189557373Y-113341401D01*
X189532512Y-113338728D01*
X189467961Y-113311988D01*
X189428115Y-113254594D01*
X189425624Y-113184769D01*
X189461278Y-113124681D01*
X189472885Y-113115121D01*
X189479792Y-113110104D01*
X189630104Y-112959792D01*
X189630106Y-112959788D01*
X189630109Y-112959786D01*
X189755048Y-112787820D01*
X189755047Y-112787820D01*
X189755051Y-112787816D01*
X189851557Y-112598412D01*
X189917246Y-112396243D01*
X189950500Y-112186287D01*
X189950500Y-111973713D01*
X189917246Y-111763757D01*
X189851557Y-111561588D01*
X189755051Y-111372184D01*
X189755049Y-111372181D01*
X189755048Y-111372179D01*
X189630109Y-111200213D01*
X189479792Y-111049896D01*
X189479784Y-111049890D01*
X189307816Y-110924949D01*
X189300366Y-110921153D01*
X214699500Y-110921153D01*
X214699500Y-111078846D01*
X214730261Y-111233489D01*
X214730264Y-111233501D01*
X214790602Y-111379172D01*
X214790609Y-111379185D01*
X214878210Y-111510288D01*
X214878213Y-111510292D01*
X214989707Y-111621786D01*
X214989711Y-111621789D01*
X215120814Y-111709390D01*
X215120827Y-111709397D01*
X215252066Y-111763757D01*
X215266503Y-111769737D01*
X215421153Y-111800499D01*
X215421156Y-111800500D01*
X215421158Y-111800500D01*
X215578844Y-111800500D01*
X215578845Y-111800499D01*
X215733497Y-111769737D01*
X215879179Y-111709394D01*
X216010289Y-111621789D01*
X216121789Y-111510289D01*
X216209394Y-111379179D01*
X216212294Y-111372179D01*
X216269735Y-111233501D01*
X216269737Y-111233497D01*
X216300500Y-111078842D01*
X216300500Y-110921158D01*
X216300500Y-110921155D01*
X216300499Y-110921153D01*
X216293298Y-110884951D01*
X216269737Y-110766503D01*
X216268987Y-110764692D01*
X216209397Y-110620827D01*
X216209390Y-110620814D01*
X216121789Y-110489711D01*
X216121786Y-110489707D01*
X216010292Y-110378213D01*
X216010288Y-110378210D01*
X215924897Y-110321153D01*
X218699500Y-110321153D01*
X218699500Y-110478846D01*
X218730261Y-110633489D01*
X218730264Y-110633501D01*
X218790602Y-110779172D01*
X218790609Y-110779185D01*
X218878210Y-110910288D01*
X218878213Y-110910292D01*
X218989707Y-111021786D01*
X218989711Y-111021789D01*
X219120814Y-111109390D01*
X219120827Y-111109397D01*
X219243510Y-111160213D01*
X219266503Y-111169737D01*
X219419690Y-111200208D01*
X219421153Y-111200499D01*
X219421156Y-111200500D01*
X219421158Y-111200500D01*
X219578844Y-111200500D01*
X219578845Y-111200499D01*
X219733497Y-111169737D01*
X219879179Y-111109394D01*
X220010289Y-111021789D01*
X220121789Y-110910289D01*
X220209394Y-110779179D01*
X220222520Y-110747491D01*
X220228885Y-110732122D01*
X220269737Y-110633497D01*
X220300500Y-110478842D01*
X220300500Y-110321158D01*
X220300500Y-110321155D01*
X220300499Y-110321153D01*
X220282419Y-110230261D01*
X220269737Y-110166503D01*
X220269735Y-110166498D01*
X220209397Y-110020827D01*
X220209390Y-110020814D01*
X220121789Y-109889711D01*
X220121786Y-109889707D01*
X220010292Y-109778213D01*
X220010288Y-109778210D01*
X219879185Y-109690609D01*
X219879172Y-109690602D01*
X219733501Y-109630264D01*
X219733489Y-109630261D01*
X219578845Y-109599500D01*
X219578842Y-109599500D01*
X219421158Y-109599500D01*
X219421155Y-109599500D01*
X219266510Y-109630261D01*
X219266498Y-109630264D01*
X219120827Y-109690602D01*
X219120814Y-109690609D01*
X218989711Y-109778210D01*
X218989707Y-109778213D01*
X218878213Y-109889707D01*
X218878210Y-109889711D01*
X218790609Y-110020814D01*
X218790602Y-110020827D01*
X218730264Y-110166498D01*
X218730261Y-110166510D01*
X218699500Y-110321153D01*
X215924897Y-110321153D01*
X215879185Y-110290609D01*
X215879172Y-110290602D01*
X215733501Y-110230264D01*
X215733489Y-110230261D01*
X215578845Y-110199500D01*
X215578842Y-110199500D01*
X215421158Y-110199500D01*
X215421155Y-110199500D01*
X215266510Y-110230261D01*
X215266498Y-110230264D01*
X215120827Y-110290602D01*
X215120814Y-110290609D01*
X214989711Y-110378210D01*
X214989707Y-110378213D01*
X214878213Y-110489707D01*
X214878210Y-110489711D01*
X214790609Y-110620814D01*
X214790602Y-110620827D01*
X214730264Y-110766498D01*
X214730261Y-110766510D01*
X214699500Y-110921153D01*
X189300366Y-110921153D01*
X189291290Y-110916529D01*
X189284155Y-110911525D01*
X189267579Y-110890758D01*
X189248259Y-110872512D01*
X189246119Y-110863873D01*
X189240568Y-110856918D01*
X189237850Y-110830484D01*
X189231463Y-110804692D01*
X189234333Y-110796268D01*
X189233423Y-110787414D01*
X189245428Y-110763706D01*
X189253999Y-110738556D01*
X189261423Y-110732122D01*
X189264989Y-110725082D01*
X189279127Y-110716782D01*
X189299054Y-110699515D01*
X189307816Y-110695051D01*
X189392533Y-110633501D01*
X189479786Y-110570109D01*
X189479788Y-110570106D01*
X189479792Y-110570104D01*
X189630104Y-110419792D01*
X189630106Y-110419788D01*
X189630109Y-110419786D01*
X189755048Y-110247820D01*
X189755047Y-110247820D01*
X189755051Y-110247816D01*
X189851557Y-110058412D01*
X189917246Y-109856243D01*
X189950500Y-109646287D01*
X189950500Y-109433713D01*
X189917246Y-109223757D01*
X189851557Y-109021588D01*
X189755051Y-108832184D01*
X189755049Y-108832181D01*
X189755048Y-108832179D01*
X189630109Y-108660213D01*
X189479786Y-108509890D01*
X189307820Y-108384951D01*
X189307115Y-108384591D01*
X189299054Y-108380485D01*
X189248259Y-108332512D01*
X189231463Y-108264692D01*
X189253999Y-108198556D01*
X189299054Y-108159515D01*
X189307816Y-108155051D01*
X189329789Y-108139086D01*
X189479786Y-108030109D01*
X189479788Y-108030106D01*
X189479792Y-108030104D01*
X189630104Y-107879792D01*
X189630106Y-107879788D01*
X189630109Y-107879786D01*
X189755048Y-107707820D01*
X189755047Y-107707820D01*
X189755051Y-107707816D01*
X189851557Y-107518412D01*
X189883159Y-107421153D01*
X198699500Y-107421153D01*
X198699500Y-107578846D01*
X198730261Y-107733489D01*
X198730264Y-107733501D01*
X198790602Y-107879172D01*
X198790609Y-107879185D01*
X198878210Y-108010288D01*
X198878213Y-108010292D01*
X198989707Y-108121786D01*
X198989710Y-108121788D01*
X198989711Y-108121789D01*
X199015219Y-108138833D01*
X199027289Y-108146898D01*
X199072093Y-108200511D01*
X199080800Y-108269836D01*
X199050645Y-108332863D01*
X199027289Y-108353102D01*
X198989707Y-108378213D01*
X198878213Y-108489707D01*
X198878210Y-108489711D01*
X198790609Y-108620814D01*
X198790602Y-108620827D01*
X198730264Y-108766498D01*
X198730261Y-108766510D01*
X198699500Y-108921153D01*
X198699500Y-109078846D01*
X198730261Y-109233489D01*
X198730264Y-109233501D01*
X198790602Y-109379172D01*
X198790609Y-109379185D01*
X198878210Y-109510288D01*
X198878213Y-109510292D01*
X198989707Y-109621786D01*
X198989711Y-109621789D01*
X199120814Y-109709390D01*
X199120827Y-109709397D01*
X199266498Y-109769735D01*
X199266503Y-109769737D01*
X199421153Y-109800499D01*
X199421156Y-109800500D01*
X199421158Y-109800500D01*
X199578844Y-109800500D01*
X199578845Y-109800499D01*
X199733497Y-109769737D01*
X199879179Y-109709394D01*
X200010289Y-109621789D01*
X200121789Y-109510289D01*
X200209394Y-109379179D01*
X200269737Y-109233497D01*
X200300500Y-109078842D01*
X200300500Y-108921158D01*
X200300500Y-108921155D01*
X200300499Y-108921153D01*
X200269738Y-108766510D01*
X200269737Y-108766503D01*
X200225709Y-108660208D01*
X200209397Y-108620827D01*
X200209390Y-108620814D01*
X200121789Y-108489711D01*
X200121786Y-108489707D01*
X200010292Y-108378213D01*
X200010284Y-108378207D01*
X199972712Y-108353102D01*
X199927906Y-108299490D01*
X199919199Y-108230165D01*
X199949353Y-108167138D01*
X199972712Y-108146898D01*
X199999279Y-108129145D01*
X200010289Y-108121789D01*
X200121789Y-108010289D01*
X200181348Y-107921153D01*
X238699500Y-107921153D01*
X238699500Y-108078846D01*
X238730261Y-108233489D01*
X238730264Y-108233501D01*
X238790602Y-108379172D01*
X238790609Y-108379185D01*
X238825304Y-108431109D01*
X238846182Y-108497786D01*
X238827698Y-108565167D01*
X238825304Y-108568891D01*
X238790609Y-108620814D01*
X238790602Y-108620827D01*
X238730264Y-108766498D01*
X238730261Y-108766510D01*
X238699500Y-108921153D01*
X238699500Y-109078846D01*
X238730261Y-109233489D01*
X238730264Y-109233501D01*
X238790602Y-109379172D01*
X238790609Y-109379185D01*
X238878210Y-109510288D01*
X238878213Y-109510292D01*
X238989707Y-109621786D01*
X238989711Y-109621789D01*
X239120814Y-109709390D01*
X239120827Y-109709397D01*
X239266498Y-109769735D01*
X239266503Y-109769737D01*
X239421153Y-109800499D01*
X239421156Y-109800500D01*
X239421158Y-109800500D01*
X239578844Y-109800500D01*
X239578845Y-109800499D01*
X239733497Y-109769737D01*
X239879179Y-109709394D01*
X240010289Y-109621789D01*
X240121789Y-109510289D01*
X240209394Y-109379179D01*
X240269737Y-109233497D01*
X240300500Y-109078842D01*
X240300500Y-108921158D01*
X240300500Y-108921155D01*
X240300499Y-108921153D01*
X240269738Y-108766510D01*
X240269737Y-108766503D01*
X240225709Y-108660208D01*
X240209396Y-108620825D01*
X240209394Y-108620822D01*
X240209394Y-108620821D01*
X240174694Y-108568889D01*
X240153816Y-108502215D01*
X240172300Y-108434835D01*
X240174676Y-108431136D01*
X240209394Y-108379179D01*
X240269737Y-108233497D01*
X240300500Y-108078842D01*
X240300500Y-107921158D01*
X240300500Y-107921155D01*
X240300499Y-107921153D01*
X240292272Y-107879792D01*
X240269737Y-107766503D01*
X240245428Y-107707816D01*
X240209397Y-107620827D01*
X240209390Y-107620814D01*
X240121789Y-107489711D01*
X240121786Y-107489707D01*
X240010292Y-107378213D01*
X240010288Y-107378210D01*
X239879185Y-107290609D01*
X239879172Y-107290602D01*
X239733501Y-107230264D01*
X239733489Y-107230261D01*
X239578845Y-107199500D01*
X239578842Y-107199500D01*
X239421158Y-107199500D01*
X239421155Y-107199500D01*
X239266510Y-107230261D01*
X239266498Y-107230264D01*
X239120827Y-107290602D01*
X239120814Y-107290609D01*
X238989711Y-107378210D01*
X238989707Y-107378213D01*
X238878213Y-107489707D01*
X238878210Y-107489711D01*
X238790609Y-107620814D01*
X238790602Y-107620827D01*
X238730264Y-107766498D01*
X238730261Y-107766510D01*
X238699500Y-107921153D01*
X200181348Y-107921153D01*
X200209394Y-107879179D01*
X200269737Y-107733497D01*
X200300500Y-107578842D01*
X200300500Y-107421158D01*
X200300500Y-107421155D01*
X200300499Y-107421153D01*
X200274531Y-107290606D01*
X200269737Y-107266503D01*
X200269735Y-107266498D01*
X200209397Y-107120827D01*
X200209390Y-107120814D01*
X200121789Y-106989711D01*
X200121786Y-106989707D01*
X200010292Y-106878213D01*
X200010288Y-106878210D01*
X199879185Y-106790609D01*
X199879172Y-106790602D01*
X199733501Y-106730264D01*
X199733489Y-106730261D01*
X199578845Y-106699500D01*
X199578842Y-106699500D01*
X199421158Y-106699500D01*
X199421155Y-106699500D01*
X199266510Y-106730261D01*
X199266498Y-106730264D01*
X199120827Y-106790602D01*
X199120814Y-106790609D01*
X198989711Y-106878210D01*
X198989707Y-106878213D01*
X198878213Y-106989707D01*
X198878210Y-106989711D01*
X198790609Y-107120814D01*
X198790602Y-107120827D01*
X198730264Y-107266498D01*
X198730261Y-107266510D01*
X198699500Y-107421153D01*
X189883159Y-107421153D01*
X189917246Y-107316243D01*
X189950500Y-107106287D01*
X189950500Y-106893713D01*
X189917246Y-106683757D01*
X189851557Y-106481588D01*
X189755051Y-106292184D01*
X189755049Y-106292181D01*
X189755048Y-106292179D01*
X189630109Y-106120213D01*
X189479786Y-105969890D01*
X189307820Y-105844951D01*
X189307115Y-105844591D01*
X189299054Y-105840485D01*
X189248259Y-105792512D01*
X189231463Y-105724692D01*
X189253999Y-105658556D01*
X189299054Y-105619515D01*
X189307816Y-105615051D01*
X189362876Y-105575048D01*
X189479786Y-105490109D01*
X189479788Y-105490106D01*
X189479792Y-105490104D01*
X189630104Y-105339792D01*
X189630106Y-105339788D01*
X189630109Y-105339786D01*
X189755048Y-105167820D01*
X189755047Y-105167820D01*
X189755051Y-105167816D01*
X189851557Y-104978412D01*
X189917246Y-104776243D01*
X189950500Y-104566287D01*
X189950500Y-104353713D01*
X189945343Y-104321153D01*
X224949500Y-104321153D01*
X224949500Y-104478846D01*
X224980261Y-104633489D01*
X224980264Y-104633501D01*
X225040602Y-104779172D01*
X225040609Y-104779185D01*
X225128210Y-104910288D01*
X225128213Y-104910292D01*
X225239707Y-105021786D01*
X225239711Y-105021789D01*
X225370814Y-105109390D01*
X225370827Y-105109397D01*
X225511865Y-105167816D01*
X225516503Y-105169737D01*
X225671153Y-105200499D01*
X225671156Y-105200500D01*
X225671158Y-105200500D01*
X225828844Y-105200500D01*
X225828845Y-105200499D01*
X225983497Y-105169737D01*
X226129179Y-105109394D01*
X226260289Y-105021789D01*
X226371789Y-104910289D01*
X226459394Y-104779179D01*
X226519737Y-104633497D01*
X226550500Y-104478842D01*
X226550500Y-104321158D01*
X226550500Y-104321155D01*
X226550499Y-104321153D01*
X226519738Y-104166510D01*
X226519737Y-104166503D01*
X226510317Y-104143760D01*
X226459397Y-104020827D01*
X226459390Y-104020814D01*
X226371789Y-103889711D01*
X226371786Y-103889707D01*
X226260292Y-103778213D01*
X226260288Y-103778210D01*
X226129185Y-103690609D01*
X226129172Y-103690602D01*
X225983501Y-103630264D01*
X225983489Y-103630261D01*
X225828845Y-103599500D01*
X225828842Y-103599500D01*
X225671158Y-103599500D01*
X225671155Y-103599500D01*
X225516510Y-103630261D01*
X225516498Y-103630264D01*
X225370827Y-103690602D01*
X225370814Y-103690609D01*
X225239711Y-103778210D01*
X225239707Y-103778213D01*
X225128213Y-103889707D01*
X225128210Y-103889711D01*
X225040609Y-104020814D01*
X225040602Y-104020827D01*
X224980264Y-104166498D01*
X224980261Y-104166510D01*
X224949500Y-104321153D01*
X189945343Y-104321153D01*
X189917246Y-104143757D01*
X189851557Y-103941588D01*
X189755051Y-103752184D01*
X189755049Y-103752181D01*
X189755048Y-103752179D01*
X189630109Y-103580213D01*
X189479786Y-103429890D01*
X189307820Y-103304951D01*
X189307115Y-103304591D01*
X189299054Y-103300485D01*
X189248259Y-103252512D01*
X189231463Y-103184692D01*
X189253999Y-103118556D01*
X189299054Y-103079515D01*
X189307816Y-103075051D01*
X189362876Y-103035048D01*
X189479786Y-102950109D01*
X189479788Y-102950106D01*
X189479792Y-102950104D01*
X189630104Y-102799792D01*
X189630106Y-102799788D01*
X189630109Y-102799786D01*
X189755048Y-102627820D01*
X189755047Y-102627820D01*
X189755051Y-102627816D01*
X189851557Y-102438412D01*
X189917246Y-102236243D01*
X189950500Y-102026287D01*
X189950500Y-101813713D01*
X189917246Y-101603757D01*
X189851557Y-101401588D01*
X189755051Y-101212184D01*
X189755049Y-101212181D01*
X189755048Y-101212179D01*
X189630109Y-101040213D01*
X189479786Y-100889890D01*
X189307820Y-100764951D01*
X189307115Y-100764591D01*
X189299054Y-100760485D01*
X189248259Y-100712512D01*
X189231463Y-100644692D01*
X189253999Y-100578556D01*
X189299054Y-100539515D01*
X189307816Y-100535051D01*
X189362876Y-100495048D01*
X189479786Y-100410109D01*
X189479788Y-100410106D01*
X189479792Y-100410104D01*
X189630104Y-100259792D01*
X189630106Y-100259788D01*
X189630109Y-100259786D01*
X189755048Y-100087820D01*
X189755047Y-100087820D01*
X189755051Y-100087816D01*
X189839970Y-99921153D01*
X236599500Y-99921153D01*
X236599500Y-100078846D01*
X236630261Y-100233489D01*
X236630264Y-100233501D01*
X236690602Y-100379172D01*
X236690609Y-100379185D01*
X236778210Y-100510288D01*
X236778213Y-100510292D01*
X236889707Y-100621786D01*
X236889711Y-100621789D01*
X237020814Y-100709390D01*
X237020827Y-100709397D01*
X237154948Y-100764951D01*
X237166503Y-100769737D01*
X237321153Y-100800499D01*
X237321156Y-100800500D01*
X237321158Y-100800500D01*
X237478844Y-100800500D01*
X237478845Y-100800499D01*
X237633497Y-100769737D01*
X237752405Y-100720484D01*
X237779172Y-100709397D01*
X237779172Y-100709396D01*
X237779179Y-100709394D01*
X237910289Y-100621789D01*
X238021789Y-100510289D01*
X238109394Y-100379179D01*
X238169737Y-100233497D01*
X238200500Y-100078842D01*
X238200500Y-99921158D01*
X238200500Y-99921155D01*
X238200499Y-99921153D01*
X238195976Y-99898414D01*
X238169737Y-99766503D01*
X238140635Y-99696243D01*
X238109397Y-99620827D01*
X238109390Y-99620814D01*
X238021789Y-99489711D01*
X238021786Y-99489707D01*
X237910292Y-99378213D01*
X237910288Y-99378210D01*
X237779185Y-99290609D01*
X237779172Y-99290602D01*
X237633501Y-99230264D01*
X237633489Y-99230261D01*
X237478845Y-99199500D01*
X237478842Y-99199500D01*
X237321158Y-99199500D01*
X237321155Y-99199500D01*
X237166510Y-99230261D01*
X237166498Y-99230264D01*
X237020827Y-99290602D01*
X237020814Y-99290609D01*
X236889711Y-99378210D01*
X236889707Y-99378213D01*
X236778213Y-99489707D01*
X236778210Y-99489711D01*
X236690609Y-99620814D01*
X236690602Y-99620827D01*
X236630264Y-99766498D01*
X236630261Y-99766510D01*
X236599500Y-99921153D01*
X189839970Y-99921153D01*
X189851557Y-99898412D01*
X189917246Y-99696243D01*
X189950500Y-99486287D01*
X189950500Y-99273713D01*
X189917246Y-99063757D01*
X189851557Y-98861588D01*
X189755051Y-98672184D01*
X189755049Y-98672181D01*
X189755048Y-98672179D01*
X189630109Y-98500213D01*
X189479786Y-98349890D01*
X189307820Y-98224951D01*
X189307115Y-98224591D01*
X189299054Y-98220485D01*
X189248259Y-98172512D01*
X189231463Y-98104692D01*
X189253999Y-98038556D01*
X189299054Y-97999515D01*
X189307816Y-97995051D01*
X189409529Y-97921153D01*
X207199500Y-97921153D01*
X207199500Y-98078846D01*
X207230261Y-98233489D01*
X207230264Y-98233501D01*
X207290602Y-98379172D01*
X207290609Y-98379185D01*
X207378210Y-98510288D01*
X207378213Y-98510292D01*
X207489707Y-98621786D01*
X207489711Y-98621789D01*
X207620814Y-98709390D01*
X207620827Y-98709397D01*
X207766498Y-98769735D01*
X207766503Y-98769737D01*
X207921153Y-98800499D01*
X207921156Y-98800500D01*
X207921158Y-98800500D01*
X208078844Y-98800500D01*
X208078845Y-98800499D01*
X208233497Y-98769737D01*
X208379179Y-98709394D01*
X208431110Y-98674694D01*
X208497785Y-98653816D01*
X208565165Y-98672300D01*
X208568863Y-98674676D01*
X208620821Y-98709394D01*
X208620823Y-98709395D01*
X208620825Y-98709396D01*
X208766498Y-98769735D01*
X208766503Y-98769737D01*
X208921153Y-98800499D01*
X208921156Y-98800500D01*
X208921158Y-98800500D01*
X209078844Y-98800500D01*
X209078845Y-98800499D01*
X209233497Y-98769737D01*
X209379179Y-98709394D01*
X209431110Y-98674694D01*
X209497785Y-98653816D01*
X209565165Y-98672300D01*
X209568863Y-98674676D01*
X209620821Y-98709394D01*
X209620823Y-98709395D01*
X209620825Y-98709396D01*
X209766498Y-98769735D01*
X209766503Y-98769737D01*
X209921153Y-98800499D01*
X209921156Y-98800500D01*
X209921158Y-98800500D01*
X210078844Y-98800500D01*
X210078845Y-98800499D01*
X210233497Y-98769737D01*
X210379179Y-98709394D01*
X210431110Y-98674694D01*
X210497785Y-98653816D01*
X210565165Y-98672300D01*
X210568863Y-98674676D01*
X210620821Y-98709394D01*
X210620823Y-98709395D01*
X210620825Y-98709396D01*
X210766498Y-98769735D01*
X210766503Y-98769737D01*
X210921153Y-98800499D01*
X210921156Y-98800500D01*
X210921158Y-98800500D01*
X211078844Y-98800500D01*
X211078845Y-98800499D01*
X211233497Y-98769737D01*
X211379179Y-98709394D01*
X211431110Y-98674694D01*
X211497785Y-98653816D01*
X211565165Y-98672300D01*
X211568863Y-98674676D01*
X211620821Y-98709394D01*
X211620823Y-98709395D01*
X211620825Y-98709396D01*
X211766498Y-98769735D01*
X211766503Y-98769737D01*
X211921153Y-98800499D01*
X211921156Y-98800500D01*
X211921158Y-98800500D01*
X212078844Y-98800500D01*
X212078845Y-98800499D01*
X212233497Y-98769737D01*
X212379179Y-98709394D01*
X212431110Y-98674694D01*
X212497785Y-98653816D01*
X212565165Y-98672300D01*
X212568863Y-98674676D01*
X212620821Y-98709394D01*
X212620823Y-98709395D01*
X212620825Y-98709396D01*
X212766498Y-98769735D01*
X212766503Y-98769737D01*
X212921153Y-98800499D01*
X212921156Y-98800500D01*
X212921158Y-98800500D01*
X213078844Y-98800500D01*
X213078845Y-98800499D01*
X213233497Y-98769737D01*
X213379179Y-98709394D01*
X213431110Y-98674694D01*
X213497785Y-98653816D01*
X213565165Y-98672300D01*
X213568863Y-98674676D01*
X213620821Y-98709394D01*
X213620823Y-98709395D01*
X213620825Y-98709396D01*
X213766498Y-98769735D01*
X213766503Y-98769737D01*
X213921153Y-98800499D01*
X213921156Y-98800500D01*
X213921158Y-98800500D01*
X214078844Y-98800500D01*
X214078845Y-98800499D01*
X214233497Y-98769737D01*
X214379179Y-98709394D01*
X214510289Y-98621789D01*
X214621789Y-98510289D01*
X214709394Y-98379179D01*
X214769737Y-98233497D01*
X214800500Y-98078842D01*
X214800500Y-97921158D01*
X214800500Y-97921155D01*
X214800499Y-97921153D01*
X217299500Y-97921153D01*
X217299500Y-98078846D01*
X217330261Y-98233489D01*
X217330264Y-98233501D01*
X217390602Y-98379172D01*
X217390609Y-98379185D01*
X217478210Y-98510288D01*
X217478213Y-98510292D01*
X217589707Y-98621786D01*
X217589711Y-98621789D01*
X217720814Y-98709390D01*
X217720827Y-98709397D01*
X217866498Y-98769735D01*
X217866503Y-98769737D01*
X218021153Y-98800499D01*
X218021156Y-98800500D01*
X218021158Y-98800500D01*
X218178844Y-98800500D01*
X218178845Y-98800499D01*
X218333497Y-98769737D01*
X218479179Y-98709394D01*
X218481110Y-98708103D01*
X218482276Y-98707737D01*
X218484546Y-98706525D01*
X218484776Y-98706955D01*
X218547786Y-98687226D01*
X218615166Y-98705710D01*
X218618850Y-98708077D01*
X218620821Y-98709394D01*
X218620824Y-98709395D01*
X218620827Y-98709397D01*
X218766498Y-98769735D01*
X218766503Y-98769737D01*
X218921153Y-98800499D01*
X218921156Y-98800500D01*
X218921158Y-98800500D01*
X219078844Y-98800500D01*
X219078845Y-98800499D01*
X219233497Y-98769737D01*
X219379179Y-98709394D01*
X219510289Y-98621789D01*
X219621789Y-98510289D01*
X219709394Y-98379179D01*
X219769737Y-98233497D01*
X219800500Y-98078842D01*
X219800500Y-97921158D01*
X219800500Y-97921155D01*
X219800499Y-97921153D01*
X227199500Y-97921153D01*
X227199500Y-98078846D01*
X227230261Y-98233489D01*
X227230264Y-98233501D01*
X227290602Y-98379172D01*
X227290609Y-98379185D01*
X227378210Y-98510288D01*
X227378213Y-98510292D01*
X227489707Y-98621786D01*
X227489711Y-98621789D01*
X227620814Y-98709390D01*
X227620827Y-98709397D01*
X227766498Y-98769735D01*
X227766503Y-98769737D01*
X227921153Y-98800499D01*
X227921156Y-98800500D01*
X227921158Y-98800500D01*
X228078844Y-98800500D01*
X228078845Y-98800499D01*
X228233497Y-98769737D01*
X228379179Y-98709394D01*
X228431110Y-98674694D01*
X228497785Y-98653816D01*
X228565165Y-98672300D01*
X228568863Y-98674676D01*
X228620821Y-98709394D01*
X228620823Y-98709395D01*
X228620825Y-98709396D01*
X228766498Y-98769735D01*
X228766503Y-98769737D01*
X228921153Y-98800499D01*
X228921156Y-98800500D01*
X228921158Y-98800500D01*
X229078844Y-98800500D01*
X229078845Y-98800499D01*
X229233497Y-98769737D01*
X229379179Y-98709394D01*
X229431110Y-98674694D01*
X229497785Y-98653816D01*
X229565165Y-98672300D01*
X229568863Y-98674676D01*
X229620821Y-98709394D01*
X229620823Y-98709395D01*
X229620825Y-98709396D01*
X229766498Y-98769735D01*
X229766503Y-98769737D01*
X229921153Y-98800499D01*
X229921156Y-98800500D01*
X229921158Y-98800500D01*
X230078844Y-98800500D01*
X230078845Y-98800499D01*
X230233497Y-98769737D01*
X230379179Y-98709394D01*
X230431110Y-98674694D01*
X230497785Y-98653816D01*
X230565165Y-98672300D01*
X230568863Y-98674676D01*
X230620821Y-98709394D01*
X230620823Y-98709395D01*
X230620825Y-98709396D01*
X230766498Y-98769735D01*
X230766503Y-98769737D01*
X230921153Y-98800499D01*
X230921156Y-98800500D01*
X230921158Y-98800500D01*
X231078844Y-98800500D01*
X231078845Y-98800499D01*
X231233497Y-98769737D01*
X231379179Y-98709394D01*
X231381110Y-98708103D01*
X231382276Y-98707737D01*
X231384546Y-98706525D01*
X231384776Y-98706955D01*
X231447786Y-98687226D01*
X231515166Y-98705710D01*
X231518850Y-98708077D01*
X231520821Y-98709394D01*
X231520824Y-98709395D01*
X231520827Y-98709397D01*
X231666498Y-98769735D01*
X231666503Y-98769737D01*
X231821153Y-98800499D01*
X231821156Y-98800500D01*
X231821158Y-98800500D01*
X231978844Y-98800500D01*
X231978845Y-98800499D01*
X232133497Y-98769737D01*
X232279179Y-98709394D01*
X232331110Y-98674694D01*
X232397785Y-98653816D01*
X232465165Y-98672300D01*
X232468863Y-98674676D01*
X232520821Y-98709394D01*
X232520823Y-98709395D01*
X232520825Y-98709396D01*
X232666498Y-98769735D01*
X232666503Y-98769737D01*
X232821153Y-98800499D01*
X232821156Y-98800500D01*
X232821158Y-98800500D01*
X232978844Y-98800500D01*
X232978845Y-98800499D01*
X233133497Y-98769737D01*
X233279179Y-98709394D01*
X233281110Y-98708103D01*
X233282276Y-98707737D01*
X233284546Y-98706525D01*
X233284776Y-98706955D01*
X233347786Y-98687226D01*
X233415166Y-98705710D01*
X233418850Y-98708077D01*
X233420821Y-98709394D01*
X233420824Y-98709395D01*
X233420827Y-98709397D01*
X233566498Y-98769735D01*
X233566503Y-98769737D01*
X233721153Y-98800499D01*
X233721156Y-98800500D01*
X233721158Y-98800500D01*
X233878844Y-98800500D01*
X233878845Y-98800499D01*
X234033497Y-98769737D01*
X234179179Y-98709394D01*
X234310289Y-98621789D01*
X234421789Y-98510289D01*
X234509394Y-98379179D01*
X234569737Y-98233497D01*
X234600500Y-98078842D01*
X234600500Y-97921158D01*
X234600500Y-97921155D01*
X234600499Y-97921153D01*
X234569738Y-97766510D01*
X234569737Y-97766503D01*
X234550388Y-97719790D01*
X234509397Y-97620827D01*
X234509390Y-97620814D01*
X234421789Y-97489711D01*
X234421786Y-97489707D01*
X234310292Y-97378213D01*
X234310288Y-97378210D01*
X234179185Y-97290609D01*
X234179172Y-97290602D01*
X234033501Y-97230264D01*
X234033489Y-97230261D01*
X233878845Y-97199500D01*
X233878842Y-97199500D01*
X233721158Y-97199500D01*
X233721155Y-97199500D01*
X233566510Y-97230261D01*
X233566498Y-97230264D01*
X233420822Y-97290604D01*
X233420820Y-97290605D01*
X233418885Y-97291899D01*
X233417717Y-97292264D01*
X233415451Y-97293476D01*
X233415221Y-97293045D01*
X233352206Y-97312773D01*
X233284827Y-97294285D01*
X233281115Y-97291899D01*
X233279179Y-97290605D01*
X233279177Y-97290604D01*
X233133501Y-97230264D01*
X233133489Y-97230261D01*
X232978845Y-97199500D01*
X232978842Y-97199500D01*
X232821158Y-97199500D01*
X232821155Y-97199500D01*
X232666510Y-97230261D01*
X232666498Y-97230264D01*
X232520827Y-97290602D01*
X232520814Y-97290609D01*
X232468891Y-97325304D01*
X232402214Y-97346182D01*
X232334833Y-97327698D01*
X232331109Y-97325304D01*
X232279185Y-97290609D01*
X232279172Y-97290602D01*
X232133501Y-97230264D01*
X232133489Y-97230261D01*
X231978845Y-97199500D01*
X231978842Y-97199500D01*
X231821158Y-97199500D01*
X231821155Y-97199500D01*
X231666510Y-97230261D01*
X231666498Y-97230264D01*
X231520822Y-97290604D01*
X231520820Y-97290605D01*
X231518885Y-97291899D01*
X231517717Y-97292264D01*
X231515451Y-97293476D01*
X231515221Y-97293045D01*
X231452206Y-97312773D01*
X231384827Y-97294285D01*
X231381115Y-97291899D01*
X231379179Y-97290605D01*
X231379177Y-97290604D01*
X231233501Y-97230264D01*
X231233489Y-97230261D01*
X231078845Y-97199500D01*
X231078842Y-97199500D01*
X230921158Y-97199500D01*
X230921155Y-97199500D01*
X230766510Y-97230261D01*
X230766498Y-97230264D01*
X230620827Y-97290602D01*
X230620814Y-97290609D01*
X230568891Y-97325304D01*
X230502214Y-97346182D01*
X230434833Y-97327698D01*
X230431109Y-97325304D01*
X230379185Y-97290609D01*
X230379172Y-97290602D01*
X230233501Y-97230264D01*
X230233489Y-97230261D01*
X230078845Y-97199500D01*
X230078842Y-97199500D01*
X229921158Y-97199500D01*
X229921155Y-97199500D01*
X229766510Y-97230261D01*
X229766498Y-97230264D01*
X229620827Y-97290602D01*
X229620814Y-97290609D01*
X229568891Y-97325304D01*
X229502214Y-97346182D01*
X229434833Y-97327698D01*
X229431109Y-97325304D01*
X229379185Y-97290609D01*
X229379172Y-97290602D01*
X229233501Y-97230264D01*
X229233489Y-97230261D01*
X229078845Y-97199500D01*
X229078842Y-97199500D01*
X228921158Y-97199500D01*
X228921155Y-97199500D01*
X228766510Y-97230261D01*
X228766498Y-97230264D01*
X228620827Y-97290602D01*
X228620814Y-97290609D01*
X228568891Y-97325304D01*
X228502214Y-97346182D01*
X228434833Y-97327698D01*
X228431109Y-97325304D01*
X228379185Y-97290609D01*
X228379172Y-97290602D01*
X228233501Y-97230264D01*
X228233489Y-97230261D01*
X228078845Y-97199500D01*
X228078842Y-97199500D01*
X227921158Y-97199500D01*
X227921155Y-97199500D01*
X227766510Y-97230261D01*
X227766498Y-97230264D01*
X227620827Y-97290602D01*
X227620814Y-97290609D01*
X227489711Y-97378210D01*
X227489707Y-97378213D01*
X227378213Y-97489707D01*
X227378210Y-97489711D01*
X227290609Y-97620814D01*
X227290602Y-97620827D01*
X227230264Y-97766498D01*
X227230261Y-97766510D01*
X227199500Y-97921153D01*
X219800499Y-97921153D01*
X219769738Y-97766510D01*
X219769737Y-97766503D01*
X219750388Y-97719790D01*
X219709397Y-97620827D01*
X219709390Y-97620814D01*
X219621789Y-97489711D01*
X219621786Y-97489707D01*
X219510292Y-97378213D01*
X219510288Y-97378210D01*
X219379185Y-97290609D01*
X219379172Y-97290602D01*
X219233501Y-97230264D01*
X219233489Y-97230261D01*
X219078845Y-97199500D01*
X219078842Y-97199500D01*
X218921158Y-97199500D01*
X218921155Y-97199500D01*
X218766510Y-97230261D01*
X218766498Y-97230264D01*
X218620822Y-97290604D01*
X218620820Y-97290605D01*
X218618885Y-97291899D01*
X218617717Y-97292264D01*
X218615451Y-97293476D01*
X218615221Y-97293045D01*
X218552206Y-97312773D01*
X218484827Y-97294285D01*
X218481115Y-97291899D01*
X218479179Y-97290605D01*
X218479177Y-97290604D01*
X218333501Y-97230264D01*
X218333489Y-97230261D01*
X218178845Y-97199500D01*
X218178842Y-97199500D01*
X218021158Y-97199500D01*
X218021155Y-97199500D01*
X217866510Y-97230261D01*
X217866498Y-97230264D01*
X217720827Y-97290602D01*
X217720814Y-97290609D01*
X217589711Y-97378210D01*
X217589707Y-97378213D01*
X217478213Y-97489707D01*
X217478210Y-97489711D01*
X217390609Y-97620814D01*
X217390602Y-97620827D01*
X217330264Y-97766498D01*
X217330261Y-97766510D01*
X217299500Y-97921153D01*
X214800499Y-97921153D01*
X214769738Y-97766510D01*
X214769737Y-97766503D01*
X214750388Y-97719790D01*
X214709397Y-97620827D01*
X214709390Y-97620814D01*
X214621789Y-97489711D01*
X214621786Y-97489707D01*
X214510292Y-97378213D01*
X214510288Y-97378210D01*
X214379185Y-97290609D01*
X214379172Y-97290602D01*
X214233501Y-97230264D01*
X214233489Y-97230261D01*
X214078845Y-97199500D01*
X214078842Y-97199500D01*
X213921158Y-97199500D01*
X213921155Y-97199500D01*
X213766510Y-97230261D01*
X213766498Y-97230264D01*
X213620827Y-97290602D01*
X213620814Y-97290609D01*
X213568891Y-97325304D01*
X213502214Y-97346182D01*
X213434833Y-97327698D01*
X213431109Y-97325304D01*
X213379185Y-97290609D01*
X213379172Y-97290602D01*
X213233501Y-97230264D01*
X213233489Y-97230261D01*
X213078845Y-97199500D01*
X213078842Y-97199500D01*
X212921158Y-97199500D01*
X212921155Y-97199500D01*
X212766510Y-97230261D01*
X212766498Y-97230264D01*
X212620827Y-97290602D01*
X212620814Y-97290609D01*
X212568891Y-97325304D01*
X212502214Y-97346182D01*
X212434833Y-97327698D01*
X212431109Y-97325304D01*
X212379185Y-97290609D01*
X212379172Y-97290602D01*
X212233501Y-97230264D01*
X212233489Y-97230261D01*
X212078845Y-97199500D01*
X212078842Y-97199500D01*
X211921158Y-97199500D01*
X211921155Y-97199500D01*
X211766510Y-97230261D01*
X211766498Y-97230264D01*
X211620827Y-97290602D01*
X211620814Y-97290609D01*
X211568891Y-97325304D01*
X211502214Y-97346182D01*
X211434833Y-97327698D01*
X211431109Y-97325304D01*
X211379185Y-97290609D01*
X211379172Y-97290602D01*
X211233501Y-97230264D01*
X211233489Y-97230261D01*
X211078845Y-97199500D01*
X211078842Y-97199500D01*
X210921158Y-97199500D01*
X210921155Y-97199500D01*
X210766510Y-97230261D01*
X210766498Y-97230264D01*
X210620827Y-97290602D01*
X210620814Y-97290609D01*
X210568891Y-97325304D01*
X210502214Y-97346182D01*
X210434833Y-97327698D01*
X210431109Y-97325304D01*
X210379185Y-97290609D01*
X210379172Y-97290602D01*
X210233501Y-97230264D01*
X210233489Y-97230261D01*
X210078845Y-97199500D01*
X210078842Y-97199500D01*
X209921158Y-97199500D01*
X209921155Y-97199500D01*
X209766510Y-97230261D01*
X209766498Y-97230264D01*
X209620827Y-97290602D01*
X209620814Y-97290609D01*
X209568891Y-97325304D01*
X209502214Y-97346182D01*
X209434833Y-97327698D01*
X209431109Y-97325304D01*
X209379185Y-97290609D01*
X209379172Y-97290602D01*
X209233501Y-97230264D01*
X209233489Y-97230261D01*
X209078845Y-97199500D01*
X209078842Y-97199500D01*
X208921158Y-97199500D01*
X208921155Y-97199500D01*
X208766510Y-97230261D01*
X208766498Y-97230264D01*
X208620827Y-97290602D01*
X208620814Y-97290609D01*
X208568891Y-97325304D01*
X208502214Y-97346182D01*
X208434833Y-97327698D01*
X208431109Y-97325304D01*
X208379185Y-97290609D01*
X208379172Y-97290602D01*
X208233501Y-97230264D01*
X208233489Y-97230261D01*
X208078845Y-97199500D01*
X208078842Y-97199500D01*
X207921158Y-97199500D01*
X207921155Y-97199500D01*
X207766510Y-97230261D01*
X207766498Y-97230264D01*
X207620827Y-97290602D01*
X207620814Y-97290609D01*
X207489711Y-97378210D01*
X207489707Y-97378213D01*
X207378213Y-97489707D01*
X207378210Y-97489711D01*
X207290609Y-97620814D01*
X207290602Y-97620827D01*
X207230264Y-97766498D01*
X207230261Y-97766510D01*
X207199500Y-97921153D01*
X189409529Y-97921153D01*
X189479786Y-97870109D01*
X189479788Y-97870106D01*
X189479792Y-97870104D01*
X189630104Y-97719792D01*
X189630106Y-97719788D01*
X189630109Y-97719786D01*
X189755048Y-97547820D01*
X189755047Y-97547820D01*
X189755051Y-97547816D01*
X189851557Y-97358412D01*
X189917246Y-97156243D01*
X189950500Y-96946287D01*
X189950500Y-96733713D01*
X189917246Y-96523757D01*
X189851557Y-96321588D01*
X189755051Y-96132184D01*
X189722913Y-96087950D01*
X189722913Y-96087948D01*
X189674384Y-96021153D01*
X229099500Y-96021153D01*
X229099500Y-96178846D01*
X229130261Y-96333489D01*
X229130264Y-96333501D01*
X229190602Y-96479172D01*
X229190609Y-96479185D01*
X229278210Y-96610288D01*
X229278213Y-96610292D01*
X229389707Y-96721786D01*
X229389711Y-96721789D01*
X229520814Y-96809390D01*
X229520827Y-96809397D01*
X229666498Y-96869735D01*
X229666503Y-96869737D01*
X229821153Y-96900499D01*
X229821156Y-96900500D01*
X229821158Y-96900500D01*
X229978844Y-96900500D01*
X229978845Y-96900499D01*
X230133497Y-96869737D01*
X230279179Y-96809394D01*
X230410289Y-96721789D01*
X230521789Y-96610289D01*
X230609394Y-96479179D01*
X230669737Y-96333497D01*
X230700500Y-96178842D01*
X230700500Y-96021158D01*
X230700500Y-96021155D01*
X230700499Y-96021153D01*
X230688376Y-95960208D01*
X230669737Y-95866503D01*
X230646290Y-95809896D01*
X230609397Y-95720827D01*
X230609390Y-95720814D01*
X230521789Y-95589711D01*
X230521786Y-95589707D01*
X230410292Y-95478213D01*
X230410288Y-95478210D01*
X230279185Y-95390609D01*
X230279172Y-95390602D01*
X230133501Y-95330264D01*
X230133489Y-95330261D01*
X229978845Y-95299500D01*
X229978842Y-95299500D01*
X229821158Y-95299500D01*
X229821155Y-95299500D01*
X229666510Y-95330261D01*
X229666498Y-95330264D01*
X229520827Y-95390602D01*
X229520814Y-95390609D01*
X229389711Y-95478210D01*
X229389707Y-95478213D01*
X229278213Y-95589707D01*
X229278210Y-95589711D01*
X229190609Y-95720814D01*
X229190602Y-95720827D01*
X229130264Y-95866498D01*
X229130261Y-95866510D01*
X229099500Y-96021153D01*
X189674384Y-96021153D01*
X189630109Y-95960214D01*
X189630105Y-95960209D01*
X189479786Y-95809890D01*
X189307820Y-95684951D01*
X189307115Y-95684591D01*
X189299054Y-95680485D01*
X189248259Y-95632512D01*
X189231463Y-95564692D01*
X189253999Y-95498556D01*
X189299054Y-95459515D01*
X189307816Y-95455051D01*
X189362876Y-95415048D01*
X189479786Y-95330109D01*
X189479788Y-95330106D01*
X189479792Y-95330104D01*
X189630104Y-95179792D01*
X189630106Y-95179788D01*
X189630109Y-95179786D01*
X189755048Y-95007820D01*
X189755047Y-95007820D01*
X189755051Y-95007816D01*
X189851557Y-94818412D01*
X189917246Y-94616243D01*
X189950500Y-94406287D01*
X189950500Y-94193713D01*
X189917246Y-93983757D01*
X189851557Y-93781588D01*
X189755051Y-93592184D01*
X189755049Y-93592181D01*
X189755048Y-93592179D01*
X189630109Y-93420213D01*
X189479786Y-93269890D01*
X189307820Y-93144951D01*
X189307115Y-93144591D01*
X189299054Y-93140485D01*
X189248259Y-93092512D01*
X189231463Y-93024692D01*
X189253999Y-92958556D01*
X189299054Y-92919515D01*
X189307816Y-92915051D01*
X189362876Y-92875048D01*
X189479786Y-92790109D01*
X189479788Y-92790106D01*
X189479792Y-92790104D01*
X189630104Y-92639792D01*
X189630106Y-92639788D01*
X189630109Y-92639786D01*
X189755048Y-92467820D01*
X189755047Y-92467820D01*
X189755051Y-92467816D01*
X189851557Y-92278412D01*
X189917246Y-92076243D01*
X189950500Y-91866287D01*
X189950500Y-91653713D01*
X189917246Y-91443757D01*
X189851557Y-91241588D01*
X189755051Y-91052184D01*
X189755049Y-91052181D01*
X189755048Y-91052179D01*
X189732507Y-91021153D01*
X212899500Y-91021153D01*
X212899500Y-91178846D01*
X212930261Y-91333489D01*
X212930264Y-91333501D01*
X212990602Y-91479172D01*
X212990609Y-91479185D01*
X213025304Y-91531109D01*
X213046182Y-91597786D01*
X213027698Y-91665167D01*
X213025304Y-91668891D01*
X212990609Y-91720814D01*
X212990602Y-91720827D01*
X212930264Y-91866498D01*
X212930261Y-91866510D01*
X212899500Y-92021153D01*
X212899500Y-92178846D01*
X212930261Y-92333489D01*
X212930264Y-92333501D01*
X212990602Y-92479172D01*
X212990609Y-92479185D01*
X213078210Y-92610288D01*
X213078213Y-92610292D01*
X213189707Y-92721786D01*
X213189711Y-92721789D01*
X213320814Y-92809390D01*
X213320827Y-92809397D01*
X213466498Y-92869735D01*
X213466503Y-92869737D01*
X213621153Y-92900499D01*
X213621156Y-92900500D01*
X213621158Y-92900500D01*
X213778844Y-92900500D01*
X213778845Y-92900499D01*
X213933497Y-92869737D01*
X214079179Y-92809394D01*
X214210289Y-92721789D01*
X214321789Y-92610289D01*
X214409394Y-92479179D01*
X214469737Y-92333497D01*
X214500500Y-92178842D01*
X214500500Y-92021158D01*
X214500500Y-92021155D01*
X214500499Y-92021153D01*
X214469738Y-91866510D01*
X214469737Y-91866503D01*
X214453079Y-91826286D01*
X214409396Y-91720825D01*
X214409395Y-91720824D01*
X214409394Y-91720821D01*
X214374695Y-91668891D01*
X214357415Y-91613713D01*
X250149500Y-91613713D01*
X250149500Y-91826286D01*
X250180364Y-92021158D01*
X250182754Y-92036243D01*
X250229087Y-92178842D01*
X250248444Y-92238414D01*
X250344951Y-92427820D01*
X250469890Y-92599786D01*
X250620213Y-92750109D01*
X250792182Y-92875050D01*
X250800946Y-92879516D01*
X250851742Y-92927491D01*
X250868536Y-92995312D01*
X250845998Y-93061447D01*
X250800946Y-93100484D01*
X250792182Y-93104949D01*
X250620213Y-93229890D01*
X250469890Y-93380213D01*
X250344951Y-93552179D01*
X250248444Y-93741585D01*
X250182753Y-93943760D01*
X250149500Y-94153713D01*
X250149500Y-94366286D01*
X250182753Y-94576239D01*
X250248444Y-94778414D01*
X250344951Y-94967820D01*
X250469890Y-95139786D01*
X250620213Y-95290109D01*
X250792182Y-95415050D01*
X250800946Y-95419516D01*
X250851742Y-95467491D01*
X250868536Y-95535312D01*
X250845998Y-95601447D01*
X250800946Y-95640484D01*
X250792182Y-95644949D01*
X250620213Y-95769890D01*
X250469890Y-95920213D01*
X250344951Y-96092179D01*
X250248444Y-96281585D01*
X250182753Y-96483760D01*
X250149500Y-96693713D01*
X250149500Y-96906287D01*
X250182754Y-97116243D01*
X250239828Y-97291899D01*
X250248444Y-97318414D01*
X250344951Y-97507820D01*
X250469890Y-97679786D01*
X250620213Y-97830109D01*
X250792182Y-97955050D01*
X250800946Y-97959516D01*
X250851742Y-98007491D01*
X250868536Y-98075312D01*
X250845998Y-98141447D01*
X250800946Y-98180484D01*
X250792182Y-98184949D01*
X250620213Y-98309890D01*
X250469890Y-98460213D01*
X250344951Y-98632179D01*
X250248444Y-98821585D01*
X250182753Y-99023760D01*
X250149500Y-99233713D01*
X250149500Y-99446286D01*
X250177144Y-99620827D01*
X250182754Y-99656243D01*
X250218578Y-99766498D01*
X250248444Y-99858414D01*
X250344951Y-100047820D01*
X250469890Y-100219786D01*
X250620213Y-100370109D01*
X250792182Y-100495050D01*
X250800946Y-100499516D01*
X250851742Y-100547491D01*
X250868536Y-100615312D01*
X250845998Y-100681447D01*
X250800946Y-100720484D01*
X250792182Y-100724949D01*
X250620213Y-100849890D01*
X250469890Y-101000213D01*
X250344951Y-101172179D01*
X250248444Y-101361585D01*
X250182753Y-101563760D01*
X250149500Y-101773713D01*
X250149500Y-101986286D01*
X250182753Y-102196239D01*
X250248444Y-102398414D01*
X250344951Y-102587820D01*
X250469890Y-102759786D01*
X250620213Y-102910109D01*
X250792182Y-103035050D01*
X250800946Y-103039516D01*
X250851742Y-103087491D01*
X250868536Y-103155312D01*
X250845998Y-103221447D01*
X250800946Y-103260484D01*
X250792182Y-103264949D01*
X250620213Y-103389890D01*
X250469890Y-103540213D01*
X250344951Y-103712179D01*
X250248444Y-103901585D01*
X250182753Y-104103760D01*
X250149500Y-104313713D01*
X250149500Y-104526286D01*
X250166480Y-104633497D01*
X250182754Y-104736243D01*
X250239306Y-104910292D01*
X250248444Y-104938414D01*
X250344951Y-105127820D01*
X250469890Y-105299786D01*
X250620213Y-105450109D01*
X250792182Y-105575050D01*
X250800946Y-105579516D01*
X250851742Y-105627491D01*
X250868536Y-105695312D01*
X250845998Y-105761447D01*
X250800946Y-105800484D01*
X250792182Y-105804949D01*
X250620213Y-105929890D01*
X250469890Y-106080213D01*
X250344951Y-106252179D01*
X250248444Y-106441585D01*
X250182753Y-106643760D01*
X250149500Y-106853713D01*
X250149500Y-107066286D01*
X250181210Y-107266498D01*
X250182754Y-107276243D01*
X250229838Y-107421153D01*
X250248444Y-107478414D01*
X250344951Y-107667820D01*
X250469890Y-107839786D01*
X250620213Y-107990109D01*
X250792182Y-108115050D01*
X250800946Y-108119516D01*
X250851742Y-108167491D01*
X250868536Y-108235312D01*
X250845998Y-108301447D01*
X250800946Y-108340484D01*
X250792182Y-108344949D01*
X250620213Y-108469890D01*
X250469890Y-108620213D01*
X250344951Y-108792179D01*
X250248444Y-108981585D01*
X250182753Y-109183760D01*
X250176418Y-109223760D01*
X250149500Y-109393713D01*
X250149500Y-109606287D01*
X250153298Y-109630264D01*
X250180260Y-109800500D01*
X250182754Y-109816243D01*
X250206625Y-109889711D01*
X250248444Y-110018414D01*
X250344951Y-110207820D01*
X250469890Y-110379786D01*
X250620213Y-110530109D01*
X250792182Y-110655050D01*
X250800946Y-110659516D01*
X250851742Y-110707491D01*
X250868536Y-110775312D01*
X250845998Y-110841447D01*
X250800946Y-110880484D01*
X250792182Y-110884949D01*
X250620213Y-111009890D01*
X250469890Y-111160213D01*
X250344951Y-111332179D01*
X250248444Y-111521585D01*
X250182753Y-111723760D01*
X250149500Y-111933713D01*
X250149500Y-112146286D01*
X250182753Y-112356239D01*
X250248444Y-112558414D01*
X250344951Y-112747820D01*
X250469890Y-112919786D01*
X250620209Y-113070105D01*
X250627108Y-113075117D01*
X250669777Y-113130445D01*
X250675759Y-113200058D01*
X250643157Y-113261855D01*
X250582319Y-113296215D01*
X250567488Y-113298728D01*
X250542625Y-113301401D01*
X250542620Y-113301403D01*
X250407913Y-113351645D01*
X250407906Y-113351649D01*
X250292812Y-113437809D01*
X250292809Y-113437812D01*
X250206649Y-113552906D01*
X250206645Y-113552913D01*
X250156403Y-113687620D01*
X250156401Y-113687627D01*
X250150000Y-113747155D01*
X250150000Y-114330000D01*
X251009238Y-114330000D01*
X250987470Y-114367703D01*
X250949988Y-114507590D01*
X250949988Y-114652410D01*
X250987470Y-114792297D01*
X251009238Y-114830000D01*
X250150000Y-114830000D01*
X250150000Y-115412844D01*
X250156401Y-115472372D01*
X250156403Y-115472379D01*
X250206645Y-115607086D01*
X250206649Y-115607093D01*
X250292809Y-115722187D01*
X250292812Y-115722190D01*
X250407906Y-115808350D01*
X250407913Y-115808354D01*
X250542620Y-115858596D01*
X250542627Y-115858598D01*
X250602155Y-115864999D01*
X250602172Y-115865000D01*
X251250000Y-115865000D01*
X251250000Y-115070761D01*
X251287703Y-115092530D01*
X251427590Y-115130012D01*
X251572410Y-115130012D01*
X251712297Y-115092530D01*
X251750000Y-115070761D01*
X251750000Y-115865000D01*
X252397828Y-115865000D01*
X252397844Y-115864999D01*
X252457372Y-115858598D01*
X252457379Y-115858596D01*
X252592086Y-115808354D01*
X252592093Y-115808350D01*
X252707187Y-115722190D01*
X252707190Y-115722187D01*
X252793350Y-115607093D01*
X252793354Y-115607086D01*
X252843596Y-115472379D01*
X252843598Y-115472372D01*
X252849999Y-115412844D01*
X252850000Y-115412827D01*
X252850000Y-114830000D01*
X251990762Y-114830000D01*
X252012530Y-114792297D01*
X252050012Y-114652410D01*
X252050012Y-114507590D01*
X252012530Y-114367703D01*
X251990762Y-114330000D01*
X252850000Y-114330000D01*
X252850000Y-113747172D01*
X252849999Y-113747155D01*
X252843598Y-113687627D01*
X252843596Y-113687620D01*
X252793354Y-113552913D01*
X252793350Y-113552906D01*
X252707190Y-113437812D01*
X252707187Y-113437809D01*
X252592093Y-113351649D01*
X252592086Y-113351645D01*
X252457379Y-113301403D01*
X252457373Y-113301401D01*
X252432512Y-113298728D01*
X252367961Y-113271988D01*
X252328115Y-113214594D01*
X252325624Y-113144769D01*
X252361278Y-113084681D01*
X252372885Y-113075121D01*
X252379792Y-113070104D01*
X252530104Y-112919792D01*
X252530106Y-112919788D01*
X252530109Y-112919786D01*
X252655048Y-112747820D01*
X252655047Y-112747820D01*
X252655051Y-112747816D01*
X252751557Y-112558412D01*
X252817246Y-112356243D01*
X252850500Y-112146287D01*
X252850500Y-111933713D01*
X252817246Y-111723757D01*
X252751557Y-111521588D01*
X252655051Y-111332184D01*
X252655049Y-111332181D01*
X252655048Y-111332179D01*
X252530109Y-111160213D01*
X252379786Y-111009890D01*
X252207820Y-110884951D01*
X252207115Y-110884591D01*
X252199054Y-110880485D01*
X252148259Y-110832512D01*
X252131463Y-110764692D01*
X252153999Y-110698556D01*
X252199054Y-110659515D01*
X252207816Y-110655051D01*
X252254940Y-110620814D01*
X252379786Y-110530109D01*
X252379788Y-110530106D01*
X252379792Y-110530104D01*
X252530104Y-110379792D01*
X252530106Y-110379788D01*
X252530109Y-110379786D01*
X252655048Y-110207820D01*
X252655047Y-110207820D01*
X252655051Y-110207816D01*
X252751557Y-110018412D01*
X252817246Y-109816243D01*
X252850500Y-109606287D01*
X252850500Y-109393713D01*
X252817246Y-109183757D01*
X252751557Y-108981588D01*
X252655051Y-108792184D01*
X252655049Y-108792181D01*
X252655048Y-108792179D01*
X252530109Y-108620213D01*
X252379786Y-108469890D01*
X252207820Y-108344951D01*
X252207115Y-108344591D01*
X252199054Y-108340485D01*
X252148259Y-108292512D01*
X252131463Y-108224692D01*
X252153999Y-108158556D01*
X252199054Y-108119515D01*
X252207816Y-108115051D01*
X252257654Y-108078842D01*
X252379786Y-107990109D01*
X252379788Y-107990106D01*
X252379792Y-107990104D01*
X252530104Y-107839792D01*
X252530106Y-107839788D01*
X252530109Y-107839786D01*
X252655048Y-107667820D01*
X252655047Y-107667820D01*
X252655051Y-107667816D01*
X252751557Y-107478412D01*
X252817246Y-107276243D01*
X252850500Y-107066287D01*
X252850500Y-106853713D01*
X252817246Y-106643757D01*
X252751557Y-106441588D01*
X252655051Y-106252184D01*
X252655049Y-106252181D01*
X252655048Y-106252179D01*
X252530109Y-106080213D01*
X252379786Y-105929890D01*
X252207820Y-105804951D01*
X252207115Y-105804591D01*
X252199054Y-105800485D01*
X252148259Y-105752512D01*
X252131463Y-105684692D01*
X252153999Y-105618556D01*
X252199054Y-105579515D01*
X252207816Y-105575051D01*
X252229789Y-105559086D01*
X252379786Y-105450109D01*
X252379788Y-105450106D01*
X252379792Y-105450104D01*
X252530104Y-105299792D01*
X252530106Y-105299788D01*
X252530109Y-105299786D01*
X252655048Y-105127820D01*
X252655047Y-105127820D01*
X252655051Y-105127816D01*
X252751557Y-104938412D01*
X252817246Y-104736243D01*
X252850500Y-104526287D01*
X252850500Y-104313713D01*
X252817246Y-104103757D01*
X252751557Y-103901588D01*
X252655051Y-103712184D01*
X252655049Y-103712181D01*
X252655048Y-103712179D01*
X252530109Y-103540213D01*
X252379786Y-103389890D01*
X252207820Y-103264951D01*
X252207115Y-103264591D01*
X252199054Y-103260485D01*
X252148259Y-103212512D01*
X252131463Y-103144692D01*
X252153999Y-103078556D01*
X252199054Y-103039515D01*
X252207816Y-103035051D01*
X252229789Y-103019086D01*
X252379786Y-102910109D01*
X252379788Y-102910106D01*
X252379792Y-102910104D01*
X252530104Y-102759792D01*
X252530106Y-102759788D01*
X252530109Y-102759786D01*
X252655048Y-102587820D01*
X252655047Y-102587820D01*
X252655051Y-102587816D01*
X252751557Y-102398412D01*
X252817246Y-102196243D01*
X252850500Y-101986287D01*
X252850500Y-101773713D01*
X252817246Y-101563757D01*
X252751557Y-101361588D01*
X252655051Y-101172184D01*
X252655049Y-101172181D01*
X252655048Y-101172179D01*
X252530109Y-101000213D01*
X252379786Y-100849890D01*
X252207820Y-100724951D01*
X252207115Y-100724591D01*
X252199054Y-100720485D01*
X252148259Y-100672512D01*
X252131463Y-100604692D01*
X252153999Y-100538556D01*
X252199054Y-100499515D01*
X252207816Y-100495051D01*
X252229789Y-100479086D01*
X252379786Y-100370109D01*
X252379788Y-100370106D01*
X252379792Y-100370104D01*
X252530104Y-100219792D01*
X252530106Y-100219788D01*
X252530109Y-100219786D01*
X252655048Y-100047820D01*
X252655047Y-100047820D01*
X252655051Y-100047816D01*
X252751557Y-99858412D01*
X252817246Y-99656243D01*
X252850500Y-99446287D01*
X252850500Y-99233713D01*
X252817246Y-99023757D01*
X252751557Y-98821588D01*
X252655051Y-98632184D01*
X252655049Y-98632181D01*
X252655048Y-98632179D01*
X252530109Y-98460213D01*
X252379786Y-98309890D01*
X252207820Y-98184951D01*
X252207115Y-98184591D01*
X252199054Y-98180485D01*
X252148259Y-98132512D01*
X252131463Y-98064692D01*
X252153999Y-97998556D01*
X252199054Y-97959515D01*
X252207816Y-97955051D01*
X252254473Y-97921153D01*
X252379786Y-97830109D01*
X252379788Y-97830106D01*
X252379792Y-97830104D01*
X252530104Y-97679792D01*
X252530106Y-97679788D01*
X252530109Y-97679786D01*
X252655048Y-97507820D01*
X252655047Y-97507820D01*
X252655051Y-97507816D01*
X252751557Y-97318412D01*
X252817246Y-97116243D01*
X252850500Y-96906287D01*
X252850500Y-96693713D01*
X252817246Y-96483757D01*
X252751557Y-96281588D01*
X252655051Y-96092184D01*
X252655049Y-96092181D01*
X252655048Y-96092179D01*
X252530109Y-95920213D01*
X252379786Y-95769890D01*
X252207820Y-95644951D01*
X252207115Y-95644591D01*
X252199054Y-95640485D01*
X252148259Y-95592512D01*
X252131463Y-95524692D01*
X252153999Y-95458556D01*
X252199054Y-95419515D01*
X252207816Y-95415051D01*
X252241467Y-95390602D01*
X252379786Y-95290109D01*
X252379788Y-95290106D01*
X252379792Y-95290104D01*
X252530104Y-95139792D01*
X252530106Y-95139788D01*
X252530109Y-95139786D01*
X252655048Y-94967820D01*
X252655047Y-94967820D01*
X252655051Y-94967816D01*
X252751557Y-94778412D01*
X252817246Y-94576243D01*
X252850500Y-94366287D01*
X252850500Y-94153713D01*
X252817246Y-93943757D01*
X252751557Y-93741588D01*
X252655051Y-93552184D01*
X252655049Y-93552181D01*
X252655048Y-93552179D01*
X252530109Y-93380213D01*
X252379786Y-93229890D01*
X252207820Y-93104951D01*
X252207115Y-93104591D01*
X252199054Y-93100485D01*
X252148259Y-93052512D01*
X252131463Y-92984692D01*
X252153999Y-92918556D01*
X252199054Y-92879515D01*
X252207816Y-92875051D01*
X252298186Y-92809394D01*
X252379786Y-92750109D01*
X252379788Y-92750106D01*
X252379792Y-92750104D01*
X252530104Y-92599792D01*
X252530106Y-92599788D01*
X252530109Y-92599786D01*
X252655048Y-92427820D01*
X252655047Y-92427820D01*
X252655051Y-92427816D01*
X252751557Y-92238412D01*
X252817246Y-92036243D01*
X252850500Y-91826287D01*
X252850500Y-91613713D01*
X252817246Y-91403757D01*
X252751557Y-91201588D01*
X252655051Y-91012184D01*
X252655049Y-91012181D01*
X252655048Y-91012179D01*
X252530109Y-90840213D01*
X252379786Y-90689890D01*
X252207820Y-90564951D01*
X252018414Y-90468444D01*
X252018413Y-90468443D01*
X252018412Y-90468443D01*
X251816243Y-90402754D01*
X251816241Y-90402753D01*
X251816240Y-90402753D01*
X251654957Y-90377208D01*
X251606287Y-90369500D01*
X251393713Y-90369500D01*
X251345042Y-90377208D01*
X251183760Y-90402753D01*
X250981585Y-90468444D01*
X250792179Y-90564951D01*
X250620213Y-90689890D01*
X250469890Y-90840213D01*
X250344951Y-91012179D01*
X250248444Y-91201585D01*
X250182753Y-91403760D01*
X250149500Y-91613713D01*
X214357415Y-91613713D01*
X214353816Y-91602219D01*
X214372297Y-91534838D01*
X214374676Y-91531136D01*
X214409394Y-91479179D01*
X214469737Y-91333497D01*
X214500500Y-91178842D01*
X214500500Y-91021158D01*
X214500500Y-91021155D01*
X214500499Y-91021153D01*
X214469738Y-90866510D01*
X214469737Y-90866503D01*
X214469735Y-90866498D01*
X214409397Y-90720827D01*
X214409390Y-90720814D01*
X214321789Y-90589711D01*
X214321786Y-90589707D01*
X214210292Y-90478213D01*
X214210288Y-90478210D01*
X214079185Y-90390609D01*
X214079172Y-90390602D01*
X213933501Y-90330264D01*
X213933489Y-90330261D01*
X213778845Y-90299500D01*
X213778842Y-90299500D01*
X213621158Y-90299500D01*
X213621155Y-90299500D01*
X213466510Y-90330261D01*
X213466498Y-90330264D01*
X213320827Y-90390602D01*
X213320814Y-90390609D01*
X213189711Y-90478210D01*
X213189707Y-90478213D01*
X213078213Y-90589707D01*
X213078210Y-90589711D01*
X212990609Y-90720814D01*
X212990602Y-90720827D01*
X212930264Y-90866498D01*
X212930261Y-90866510D01*
X212899500Y-91021153D01*
X189732507Y-91021153D01*
X189630109Y-90880213D01*
X189479786Y-90729890D01*
X189307820Y-90604951D01*
X189118414Y-90508444D01*
X189118413Y-90508443D01*
X189118412Y-90508443D01*
X188916243Y-90442754D01*
X188916241Y-90442753D01*
X188916240Y-90442753D01*
X188754957Y-90417208D01*
X188706287Y-90409500D01*
X188493713Y-90409500D01*
X188445042Y-90417208D01*
X188283760Y-90442753D01*
X188081585Y-90508444D01*
X187892179Y-90604951D01*
X187720213Y-90729890D01*
X187569890Y-90880213D01*
X187444951Y-91052179D01*
X187348444Y-91241585D01*
X187282753Y-91443760D01*
X187268328Y-91534838D01*
X187249500Y-91653713D01*
X185200500Y-91653713D01*
X185200500Y-85421153D01*
X190449497Y-85421153D01*
X190449497Y-85578846D01*
X190480258Y-85733489D01*
X190480261Y-85733501D01*
X190540599Y-85879172D01*
X190540606Y-85879185D01*
X190628207Y-86010288D01*
X190628210Y-86010292D01*
X190739704Y-86121786D01*
X190739708Y-86121789D01*
X190870811Y-86209390D01*
X190870824Y-86209397D01*
X191016495Y-86269735D01*
X191016500Y-86269737D01*
X191171150Y-86300499D01*
X191171153Y-86300500D01*
X191171155Y-86300500D01*
X191328841Y-86300500D01*
X191328842Y-86300499D01*
X191483494Y-86269737D01*
X191577547Y-86230778D01*
X191647014Y-86223310D01*
X191672446Y-86230777D01*
X191766503Y-86269737D01*
X191921153Y-86300499D01*
X191921156Y-86300500D01*
X191921158Y-86300500D01*
X192078844Y-86300500D01*
X192078845Y-86300499D01*
X192233497Y-86269737D01*
X192327550Y-86230778D01*
X192397017Y-86223310D01*
X192422449Y-86230777D01*
X192516506Y-86269737D01*
X192671156Y-86300499D01*
X192671159Y-86300500D01*
X192671161Y-86300500D01*
X192828847Y-86300500D01*
X192828848Y-86300499D01*
X192983500Y-86269737D01*
X193096169Y-86223067D01*
X193129175Y-86209397D01*
X193129175Y-86209396D01*
X193129182Y-86209394D01*
X193260292Y-86121789D01*
X193371792Y-86010289D01*
X193431351Y-85921153D01*
X242949497Y-85921153D01*
X242949497Y-86078846D01*
X242980258Y-86233489D01*
X242980261Y-86233501D01*
X243040599Y-86379172D01*
X243040606Y-86379185D01*
X243128207Y-86510288D01*
X243128210Y-86510292D01*
X243239704Y-86621786D01*
X243239708Y-86621789D01*
X243370811Y-86709390D01*
X243370824Y-86709397D01*
X243516495Y-86769735D01*
X243516500Y-86769737D01*
X243671150Y-86800499D01*
X243671153Y-86800500D01*
X243671155Y-86800500D01*
X243828841Y-86800500D01*
X243828842Y-86800499D01*
X243983494Y-86769737D01*
X244077547Y-86730778D01*
X244147014Y-86723310D01*
X244172446Y-86730777D01*
X244266503Y-86769737D01*
X244421153Y-86800499D01*
X244421156Y-86800500D01*
X244421158Y-86800500D01*
X244578844Y-86800500D01*
X244578845Y-86800499D01*
X244733497Y-86769737D01*
X244827550Y-86730778D01*
X244897017Y-86723310D01*
X244922449Y-86730777D01*
X245016506Y-86769737D01*
X245171156Y-86800499D01*
X245171159Y-86800500D01*
X245171161Y-86800500D01*
X245328847Y-86800500D01*
X245328848Y-86800499D01*
X245483500Y-86769737D01*
X245596169Y-86723067D01*
X245629175Y-86709397D01*
X245629175Y-86709396D01*
X245629182Y-86709394D01*
X245760292Y-86621789D01*
X245871792Y-86510289D01*
X245959397Y-86379179D01*
X246019740Y-86233497D01*
X246050503Y-86078842D01*
X246050503Y-85921158D01*
X246050503Y-85921155D01*
X246050502Y-85921153D01*
X246039718Y-85866941D01*
X246019740Y-85766503D01*
X246006065Y-85733489D01*
X245959400Y-85620827D01*
X245959393Y-85620814D01*
X245871792Y-85489711D01*
X245871789Y-85489707D01*
X245760295Y-85378213D01*
X245760291Y-85378210D01*
X245629188Y-85290609D01*
X245629175Y-85290602D01*
X245483504Y-85230264D01*
X245483492Y-85230261D01*
X245328848Y-85199500D01*
X245328845Y-85199500D01*
X245171161Y-85199500D01*
X245171158Y-85199500D01*
X245016514Y-85230260D01*
X245016513Y-85230261D01*
X245016510Y-85230262D01*
X245016506Y-85230263D01*
X244922450Y-85269221D01*
X244852983Y-85276689D01*
X244827549Y-85269220D01*
X244733498Y-85230263D01*
X244733488Y-85230260D01*
X244578845Y-85199500D01*
X244578842Y-85199500D01*
X244421158Y-85199500D01*
X244421155Y-85199500D01*
X244266511Y-85230260D01*
X244266510Y-85230261D01*
X244266507Y-85230262D01*
X244266503Y-85230263D01*
X244172447Y-85269221D01*
X244102980Y-85276689D01*
X244077546Y-85269220D01*
X243983495Y-85230263D01*
X243983485Y-85230260D01*
X243828842Y-85199500D01*
X243828839Y-85199500D01*
X243671155Y-85199500D01*
X243671152Y-85199500D01*
X243516507Y-85230261D01*
X243516495Y-85230264D01*
X243370824Y-85290602D01*
X243370811Y-85290609D01*
X243239708Y-85378210D01*
X243239704Y-85378213D01*
X243128210Y-85489707D01*
X243128207Y-85489711D01*
X243040606Y-85620814D01*
X243040599Y-85620827D01*
X242980261Y-85766498D01*
X242980258Y-85766510D01*
X242949497Y-85921153D01*
X193431351Y-85921153D01*
X193459397Y-85879179D01*
X193519740Y-85733497D01*
X193550503Y-85578842D01*
X193550503Y-85421158D01*
X193550503Y-85421155D01*
X193550502Y-85421153D01*
X193541960Y-85378210D01*
X193519740Y-85266503D01*
X193519738Y-85266498D01*
X193459400Y-85120827D01*
X193459393Y-85120814D01*
X193371792Y-84989711D01*
X193371789Y-84989707D01*
X193260295Y-84878213D01*
X193260291Y-84878210D01*
X193129188Y-84790609D01*
X193129175Y-84790602D01*
X192983504Y-84730264D01*
X192983492Y-84730261D01*
X192828848Y-84699500D01*
X192828845Y-84699500D01*
X192671161Y-84699500D01*
X192671158Y-84699500D01*
X192516514Y-84730260D01*
X192516513Y-84730261D01*
X192516510Y-84730262D01*
X192516506Y-84730263D01*
X192422450Y-84769221D01*
X192352983Y-84776689D01*
X192327549Y-84769220D01*
X192233498Y-84730263D01*
X192233488Y-84730260D01*
X192078845Y-84699500D01*
X192078842Y-84699500D01*
X191921158Y-84699500D01*
X191921155Y-84699500D01*
X191766511Y-84730260D01*
X191766510Y-84730261D01*
X191766507Y-84730262D01*
X191766503Y-84730263D01*
X191672447Y-84769221D01*
X191602980Y-84776689D01*
X191577546Y-84769220D01*
X191483495Y-84730263D01*
X191483485Y-84730260D01*
X191328842Y-84699500D01*
X191328839Y-84699500D01*
X191171155Y-84699500D01*
X191171152Y-84699500D01*
X191016507Y-84730261D01*
X191016495Y-84730264D01*
X190870824Y-84790602D01*
X190870811Y-84790609D01*
X190739708Y-84878210D01*
X190739704Y-84878213D01*
X190628210Y-84989707D01*
X190628207Y-84989711D01*
X190540606Y-85120814D01*
X190540599Y-85120827D01*
X190480261Y-85266498D01*
X190480258Y-85266510D01*
X190449497Y-85421153D01*
X185200500Y-85421153D01*
X185200500Y-83896861D01*
X187393449Y-83896861D01*
X187393449Y-84103138D01*
X187425718Y-84306877D01*
X187425718Y-84306880D01*
X187489459Y-84503054D01*
X187547063Y-84616107D01*
X187583109Y-84686852D01*
X187704356Y-84853733D01*
X187850216Y-84999593D01*
X188017097Y-85120840D01*
X188200892Y-85214488D01*
X188200894Y-85214489D01*
X188397069Y-85278230D01*
X188397070Y-85278230D01*
X188397073Y-85278231D01*
X188600810Y-85310500D01*
X188600811Y-85310500D01*
X188807087Y-85310500D01*
X188807088Y-85310500D01*
X189010825Y-85278231D01*
X189010828Y-85278230D01*
X189010829Y-85278230D01*
X189207003Y-85214489D01*
X189207003Y-85214488D01*
X189207006Y-85214488D01*
X189390801Y-85120840D01*
X189557682Y-84999593D01*
X189703542Y-84853733D01*
X189824789Y-84686852D01*
X189918437Y-84503057D01*
X189982180Y-84306876D01*
X190014449Y-84103139D01*
X190014449Y-83896861D01*
X189982180Y-83693124D01*
X189982179Y-83693120D01*
X189982179Y-83693119D01*
X189955856Y-83612105D01*
X189953861Y-83542264D01*
X189989941Y-83482431D01*
X190052642Y-83451603D01*
X190112105Y-83455856D01*
X190193120Y-83482179D01*
X190193121Y-83482179D01*
X190193124Y-83482180D01*
X190396861Y-83514449D01*
X190396862Y-83514449D01*
X190603138Y-83514449D01*
X190603139Y-83514449D01*
X190806876Y-83482180D01*
X190806879Y-83482179D01*
X190806880Y-83482179D01*
X191003054Y-83418438D01*
X191003054Y-83418437D01*
X191003057Y-83418437D01*
X191186852Y-83324789D01*
X191353733Y-83203542D01*
X191499593Y-83057682D01*
X191620840Y-82890801D01*
X191714488Y-82707006D01*
X191720371Y-82688899D01*
X191725012Y-82674618D01*
X191725012Y-82674617D01*
X191778230Y-82510829D01*
X191778230Y-82510828D01*
X191778231Y-82510825D01*
X191810500Y-82307088D01*
X191810500Y-82100810D01*
X191778231Y-81897073D01*
X191778230Y-81897069D01*
X191778230Y-81897068D01*
X191751715Y-81815464D01*
X191749720Y-81745623D01*
X191785800Y-81685790D01*
X191848501Y-81654962D01*
X191907965Y-81659215D01*
X191989288Y-81685639D01*
X192046052Y-81694629D01*
X192046052Y-80852464D01*
X192099197Y-80883148D01*
X192228908Y-80917904D01*
X192363196Y-80917904D01*
X192492907Y-80883148D01*
X192546052Y-80852464D01*
X192546052Y-81694628D01*
X192602817Y-81685639D01*
X192798920Y-81621920D01*
X192982642Y-81528309D01*
X193149461Y-81407106D01*
X193149462Y-81407106D01*
X193295261Y-81261307D01*
X193295261Y-81261306D01*
X193416464Y-81094487D01*
X193510075Y-80910765D01*
X193573796Y-80714653D01*
X193573796Y-80714652D01*
X193582786Y-80657897D01*
X192740620Y-80657897D01*
X192771303Y-80604752D01*
X192806059Y-80475041D01*
X192806059Y-80340753D01*
X192771303Y-80211042D01*
X192740620Y-80157897D01*
X193582786Y-80157897D01*
X193588737Y-80150929D01*
X193647243Y-80112735D01*
X193717111Y-80112235D01*
X193769447Y-80143035D01*
X193769574Y-80142894D01*
X193770271Y-80143520D01*
X193770708Y-80143777D01*
X193772047Y-80145116D01*
X193818730Y-80182736D01*
X193818731Y-80182736D01*
X193818733Y-80182738D01*
X193949643Y-80242523D01*
X193949644Y-80242523D01*
X193949646Y-80242524D01*
X194092103Y-80263005D01*
X194234560Y-80242524D01*
X194365476Y-80182736D01*
X194412159Y-80145117D01*
X194471439Y-80085837D01*
X238549500Y-80085837D01*
X238549500Y-80314162D01*
X238585215Y-80539660D01*
X238655770Y-80756803D01*
X238725395Y-80893449D01*
X238759421Y-80960228D01*
X238893621Y-81144937D01*
X239055063Y-81306379D01*
X239239772Y-81440579D01*
X239335884Y-81489550D01*
X239443196Y-81544229D01*
X239443198Y-81544229D01*
X239443201Y-81544231D01*
X239559592Y-81582049D01*
X239660339Y-81614784D01*
X239885838Y-81650500D01*
X239885843Y-81650500D01*
X240114162Y-81650500D01*
X240339660Y-81614784D01*
X240556799Y-81544231D01*
X240760228Y-81440579D01*
X240944937Y-81306379D01*
X241106379Y-81144937D01*
X241240579Y-80960228D01*
X241344231Y-80756799D01*
X241414784Y-80539660D01*
X241437368Y-80397070D01*
X241450500Y-80314162D01*
X241450500Y-80085837D01*
X241414784Y-79860339D01*
X241369609Y-79721306D01*
X241344231Y-79643201D01*
X241344229Y-79643198D01*
X241344229Y-79643196D01*
X241265895Y-79489458D01*
X241240579Y-79439772D01*
X241106379Y-79255063D01*
X240944937Y-79093621D01*
X240760228Y-78959421D01*
X240708845Y-78933240D01*
X240663962Y-78910371D01*
X240556803Y-78855770D01*
X240399806Y-78804758D01*
X244597397Y-78804758D01*
X244597397Y-79011035D01*
X244629666Y-79214774D01*
X244629666Y-79214777D01*
X244693407Y-79410951D01*
X244774963Y-79571014D01*
X244787057Y-79594749D01*
X244908304Y-79761630D01*
X245054164Y-79907490D01*
X245221045Y-80028737D01*
X245385901Y-80112735D01*
X245404842Y-80122386D01*
X245601017Y-80186127D01*
X245601018Y-80186127D01*
X245601021Y-80186128D01*
X245804758Y-80218397D01*
X245804759Y-80218397D01*
X246011035Y-80218397D01*
X246011036Y-80218397D01*
X246214773Y-80186128D01*
X246295793Y-80159802D01*
X246365632Y-80157807D01*
X246425465Y-80193887D01*
X246456294Y-80256588D01*
X246452041Y-80316052D01*
X246425717Y-80397067D01*
X246425717Y-80397070D01*
X246425717Y-80397072D01*
X246393448Y-80600809D01*
X246393448Y-80807087D01*
X246409582Y-80908955D01*
X246425717Y-81010825D01*
X246425717Y-81010828D01*
X246489458Y-81207002D01*
X246540092Y-81306377D01*
X246583108Y-81390800D01*
X246704355Y-81557681D01*
X246850215Y-81703541D01*
X247017096Y-81824788D01*
X247158954Y-81897068D01*
X247200893Y-81918437D01*
X247397068Y-81982178D01*
X247397069Y-81982178D01*
X247397072Y-81982179D01*
X247600809Y-82014448D01*
X247600810Y-82014448D01*
X247807086Y-82014448D01*
X247807087Y-82014448D01*
X248010824Y-81982179D01*
X248092432Y-81955662D01*
X248162272Y-81953668D01*
X248222105Y-81989748D01*
X248252934Y-82052448D01*
X248248681Y-82111911D01*
X248222256Y-82193239D01*
X248222255Y-82193244D01*
X248213266Y-82250000D01*
X249055432Y-82250000D01*
X249024749Y-82303145D01*
X248989993Y-82432856D01*
X248989993Y-82567144D01*
X249024749Y-82696855D01*
X249055432Y-82750000D01*
X248213266Y-82750000D01*
X248222255Y-82806755D01*
X248222255Y-82806756D01*
X248285976Y-83002868D01*
X248379587Y-83186590D01*
X248500790Y-83353409D01*
X248500790Y-83353410D01*
X248646589Y-83499209D01*
X248813409Y-83620412D01*
X248997131Y-83714023D01*
X249193234Y-83777742D01*
X249250000Y-83786732D01*
X249250000Y-82944567D01*
X249303145Y-82975251D01*
X249432856Y-83010007D01*
X249567144Y-83010007D01*
X249696855Y-82975251D01*
X249750000Y-82944567D01*
X249750000Y-83786732D01*
X249756969Y-83792685D01*
X249795163Y-83851191D01*
X249795662Y-83921059D01*
X249764864Y-83973397D01*
X249765003Y-83973522D01*
X249764388Y-83974205D01*
X249764131Y-83974644D01*
X249762794Y-83975981D01*
X249762782Y-83975994D01*
X249725160Y-84022679D01*
X249725158Y-84022681D01*
X249665373Y-84153591D01*
X249665372Y-84153595D01*
X249644892Y-84296051D01*
X249665372Y-84438506D01*
X249665373Y-84438510D01*
X249725159Y-84569421D01*
X249725160Y-84569422D01*
X249725161Y-84569424D01*
X249762780Y-84616107D01*
X249762783Y-84616110D01*
X249762788Y-84616116D01*
X250725516Y-85578842D01*
X250975995Y-85829321D01*
X251022678Y-85866941D01*
X251022679Y-85866941D01*
X251022681Y-85866943D01*
X251153591Y-85926728D01*
X251153592Y-85926728D01*
X251153594Y-85926729D01*
X251296051Y-85947210D01*
X251438508Y-85926729D01*
X251569424Y-85866941D01*
X251616107Y-85829322D01*
X252829321Y-84616107D01*
X252866941Y-84569424D01*
X252926729Y-84438508D01*
X252947210Y-84296051D01*
X252926729Y-84153594D01*
X252903686Y-84103138D01*
X252866942Y-84022680D01*
X252866941Y-84022679D01*
X252866941Y-84022678D01*
X252829322Y-83975995D01*
X252829317Y-83975990D01*
X252829313Y-83975985D01*
X251616114Y-82762788D01*
X251616107Y-82762781D01*
X251569424Y-82725161D01*
X251569422Y-82725160D01*
X251569420Y-82725158D01*
X251438510Y-82665373D01*
X251438506Y-82665372D01*
X251296051Y-82644892D01*
X251153595Y-82665372D01*
X251153591Y-82665373D01*
X251022680Y-82725159D01*
X251022678Y-82725161D01*
X250975995Y-82762780D01*
X250975994Y-82762781D01*
X250975982Y-82762791D01*
X250974644Y-82764129D01*
X250974256Y-82764340D01*
X250973512Y-82765009D01*
X250973354Y-82764833D01*
X250913317Y-82797606D01*
X250843626Y-82792612D01*
X250792684Y-82756967D01*
X250786734Y-82750000D01*
X249944568Y-82750000D01*
X249975251Y-82696855D01*
X250010007Y-82567144D01*
X250010007Y-82432856D01*
X249975251Y-82303145D01*
X249944568Y-82250000D01*
X250786734Y-82250000D01*
X250777744Y-82193244D01*
X250777744Y-82193243D01*
X250714023Y-81997131D01*
X250620412Y-81813409D01*
X250499209Y-81646590D01*
X250499209Y-81646589D01*
X250353410Y-81500790D01*
X250186590Y-81379587D01*
X250002868Y-81285976D01*
X249806755Y-81222255D01*
X249750000Y-81213265D01*
X249750000Y-82055432D01*
X249696855Y-82024749D01*
X249567144Y-81989993D01*
X249432856Y-81989993D01*
X249303145Y-82024749D01*
X249250000Y-82055432D01*
X249250000Y-81213265D01*
X249193244Y-81222255D01*
X249193239Y-81222256D01*
X249111911Y-81248681D01*
X249042070Y-81250676D01*
X248982237Y-81214595D01*
X248951410Y-81151894D01*
X248955663Y-81092431D01*
X248982179Y-81010824D01*
X248991459Y-80952233D01*
X249014448Y-80807087D01*
X249014448Y-80600809D01*
X248982179Y-80397072D01*
X248982178Y-80397068D01*
X248982178Y-80397067D01*
X248918437Y-80200893D01*
X248897501Y-80159803D01*
X248824788Y-80017096D01*
X248703541Y-79850215D01*
X248557681Y-79704355D01*
X248390800Y-79583108D01*
X248334626Y-79554486D01*
X248207002Y-79489458D01*
X248010827Y-79425717D01*
X247858021Y-79401515D01*
X247807087Y-79393448D01*
X247600809Y-79393448D01*
X247532896Y-79404204D01*
X247397070Y-79425717D01*
X247397067Y-79425717D01*
X247316052Y-79452041D01*
X247246210Y-79454036D01*
X247186378Y-79417955D01*
X247155550Y-79355254D01*
X247159802Y-79295793D01*
X247186128Y-79214773D01*
X247218397Y-79011036D01*
X247218397Y-78804758D01*
X247186128Y-78601021D01*
X247186127Y-78601017D01*
X247186127Y-78601016D01*
X247138159Y-78453384D01*
X247127686Y-78421153D01*
X250449497Y-78421153D01*
X250449497Y-78578846D01*
X250480258Y-78733489D01*
X250480261Y-78733501D01*
X250540599Y-78879172D01*
X250540606Y-78879185D01*
X250628207Y-79010288D01*
X250628210Y-79010292D01*
X250739704Y-79121786D01*
X250739708Y-79121789D01*
X250870811Y-79209390D01*
X250870824Y-79209397D01*
X251016495Y-79269735D01*
X251016500Y-79269737D01*
X251171150Y-79300499D01*
X251171153Y-79300500D01*
X251171155Y-79300500D01*
X251328841Y-79300500D01*
X251328842Y-79300499D01*
X251483494Y-79269737D01*
X251577547Y-79230778D01*
X251647014Y-79223310D01*
X251672446Y-79230777D01*
X251766503Y-79269737D01*
X251921153Y-79300499D01*
X251921156Y-79300500D01*
X251921158Y-79300500D01*
X252078844Y-79300500D01*
X252078845Y-79300499D01*
X252233497Y-79269737D01*
X252327550Y-79230778D01*
X252397017Y-79223310D01*
X252422449Y-79230777D01*
X252516506Y-79269737D01*
X252671156Y-79300499D01*
X252671159Y-79300500D01*
X252671161Y-79300500D01*
X252828847Y-79300500D01*
X252828848Y-79300499D01*
X252983500Y-79269737D01*
X253116186Y-79214777D01*
X253129175Y-79209397D01*
X253129175Y-79209396D01*
X253129182Y-79209394D01*
X253260292Y-79121789D01*
X253371792Y-79010289D01*
X253459397Y-78879179D01*
X253519740Y-78733497D01*
X253550503Y-78578842D01*
X253550503Y-78421158D01*
X253550503Y-78421155D01*
X253550502Y-78421153D01*
X253548341Y-78410288D01*
X253519740Y-78266503D01*
X253500911Y-78221045D01*
X253459400Y-78120827D01*
X253459393Y-78120814D01*
X253371792Y-77989711D01*
X253371789Y-77989707D01*
X253260295Y-77878213D01*
X253260291Y-77878210D01*
X253129188Y-77790609D01*
X253129175Y-77790602D01*
X252983504Y-77730264D01*
X252983492Y-77730261D01*
X252828848Y-77699500D01*
X252828845Y-77699500D01*
X252671161Y-77699500D01*
X252671158Y-77699500D01*
X252516514Y-77730260D01*
X252516513Y-77730261D01*
X252516510Y-77730262D01*
X252516506Y-77730263D01*
X252422450Y-77769221D01*
X252352983Y-77776689D01*
X252327549Y-77769220D01*
X252233498Y-77730263D01*
X252233488Y-77730260D01*
X252078845Y-77699500D01*
X252078842Y-77699500D01*
X251921158Y-77699500D01*
X251921155Y-77699500D01*
X251766511Y-77730260D01*
X251766510Y-77730261D01*
X251766507Y-77730262D01*
X251766503Y-77730263D01*
X251672447Y-77769221D01*
X251602980Y-77776689D01*
X251577546Y-77769220D01*
X251483495Y-77730263D01*
X251483485Y-77730260D01*
X251328842Y-77699500D01*
X251328839Y-77699500D01*
X251171155Y-77699500D01*
X251171152Y-77699500D01*
X251016507Y-77730261D01*
X251016495Y-77730264D01*
X250870824Y-77790602D01*
X250870811Y-77790609D01*
X250739708Y-77878210D01*
X250739704Y-77878213D01*
X250628210Y-77989707D01*
X250628207Y-77989711D01*
X250540606Y-78120814D01*
X250540599Y-78120827D01*
X250480261Y-78266498D01*
X250480258Y-78266510D01*
X250449497Y-78421153D01*
X247127686Y-78421153D01*
X247124155Y-78410288D01*
X247122385Y-78404840D01*
X247028737Y-78221045D01*
X246907490Y-78054164D01*
X246761630Y-77908304D01*
X246594749Y-77787057D01*
X246559742Y-77769220D01*
X246410951Y-77693407D01*
X246214776Y-77629666D01*
X246061970Y-77605464D01*
X246011036Y-77597397D01*
X245804758Y-77597397D01*
X245736845Y-77608153D01*
X245601019Y-77629666D01*
X245601016Y-77629666D01*
X245404842Y-77693407D01*
X245221044Y-77787057D01*
X245054162Y-77908305D01*
X244908305Y-78054162D01*
X244787057Y-78221044D01*
X244693407Y-78404842D01*
X244629666Y-78601016D01*
X244629666Y-78601019D01*
X244597397Y-78804758D01*
X240399806Y-78804758D01*
X240339660Y-78785215D01*
X240114162Y-78749500D01*
X240114157Y-78749500D01*
X239885843Y-78749500D01*
X239885838Y-78749500D01*
X239660339Y-78785215D01*
X239443196Y-78855770D01*
X239239771Y-78959421D01*
X239055061Y-79093622D01*
X238893622Y-79255061D01*
X238759421Y-79439771D01*
X238655770Y-79643196D01*
X238585215Y-79860339D01*
X238549500Y-80085837D01*
X194471439Y-80085837D01*
X194563987Y-79993290D01*
X195442064Y-79115211D01*
X195625373Y-78931902D01*
X195662993Y-78885219D01*
X195665752Y-78879179D01*
X195708664Y-78785215D01*
X195722781Y-78754303D01*
X195743262Y-78611846D01*
X195722781Y-78469389D01*
X195706391Y-78433501D01*
X195662994Y-78338475D01*
X195662993Y-78338474D01*
X195662993Y-78338473D01*
X195625374Y-78291790D01*
X195625369Y-78291785D01*
X195625365Y-78291780D01*
X195536332Y-78202747D01*
X195454738Y-78121153D01*
X198399500Y-78121153D01*
X198399500Y-78278846D01*
X198430261Y-78433489D01*
X198430264Y-78433501D01*
X198490602Y-78579172D01*
X198490609Y-78579185D01*
X198578210Y-78710288D01*
X198578213Y-78710292D01*
X198689707Y-78821786D01*
X198689711Y-78821789D01*
X198820814Y-78909390D01*
X198820827Y-78909397D01*
X198966498Y-78969735D01*
X198966503Y-78969737D01*
X199091311Y-78994563D01*
X199121153Y-79000499D01*
X199121156Y-79000500D01*
X199121158Y-79000500D01*
X199278844Y-79000500D01*
X199278845Y-79000499D01*
X199433497Y-78969737D01*
X199546166Y-78923067D01*
X199579172Y-78909397D01*
X199579172Y-78909396D01*
X199579179Y-78909394D01*
X199710289Y-78821789D01*
X199710925Y-78821153D01*
X204099500Y-78821153D01*
X204099500Y-78978846D01*
X204130261Y-79133489D01*
X204130264Y-79133501D01*
X204190602Y-79279172D01*
X204190609Y-79279185D01*
X204278210Y-79410288D01*
X204278213Y-79410292D01*
X204389707Y-79521786D01*
X204389711Y-79521789D01*
X204520814Y-79609390D01*
X204520827Y-79609397D01*
X204666498Y-79669735D01*
X204666503Y-79669737D01*
X204821153Y-79700499D01*
X204821156Y-79700500D01*
X204821158Y-79700500D01*
X204978844Y-79700500D01*
X204978845Y-79700499D01*
X205133497Y-79669737D01*
X205279179Y-79609394D01*
X205410289Y-79521789D01*
X205521789Y-79410289D01*
X205609394Y-79279179D01*
X205669737Y-79133497D01*
X205700500Y-78978842D01*
X205700500Y-78821158D01*
X205700500Y-78821155D01*
X205700499Y-78821153D01*
X211999500Y-78821153D01*
X211999500Y-78978846D01*
X212030261Y-79133489D01*
X212030264Y-79133501D01*
X212090602Y-79279172D01*
X212090609Y-79279185D01*
X212178210Y-79410288D01*
X212178213Y-79410292D01*
X212289707Y-79521786D01*
X212289711Y-79521789D01*
X212420814Y-79609390D01*
X212420827Y-79609397D01*
X212566498Y-79669735D01*
X212566503Y-79669737D01*
X212721153Y-79700499D01*
X212721156Y-79700500D01*
X212721158Y-79700500D01*
X212878844Y-79700500D01*
X212878845Y-79700499D01*
X213033497Y-79669737D01*
X213179179Y-79609394D01*
X213310289Y-79521789D01*
X213421789Y-79410289D01*
X213509394Y-79279179D01*
X213569737Y-79133497D01*
X213600500Y-78978842D01*
X213600500Y-78821158D01*
X213600500Y-78821155D01*
X213600499Y-78821153D01*
X213593350Y-78785215D01*
X213569737Y-78666503D01*
X213554278Y-78629182D01*
X213509397Y-78520827D01*
X213509390Y-78520814D01*
X213421789Y-78389711D01*
X213421786Y-78389707D01*
X213310292Y-78278213D01*
X213310288Y-78278210D01*
X213179185Y-78190609D01*
X213179172Y-78190602D01*
X213033501Y-78130264D01*
X213033489Y-78130261D01*
X212878845Y-78099500D01*
X212878842Y-78099500D01*
X212721158Y-78099500D01*
X212721155Y-78099500D01*
X212566510Y-78130261D01*
X212566498Y-78130264D01*
X212420827Y-78190602D01*
X212420814Y-78190609D01*
X212289711Y-78278210D01*
X212289707Y-78278213D01*
X212178213Y-78389707D01*
X212178210Y-78389711D01*
X212090609Y-78520814D01*
X212090602Y-78520827D01*
X212030264Y-78666498D01*
X212030261Y-78666510D01*
X211999500Y-78821153D01*
X205700499Y-78821153D01*
X205693350Y-78785215D01*
X205669737Y-78666503D01*
X205654278Y-78629182D01*
X205609397Y-78520827D01*
X205609390Y-78520814D01*
X205521789Y-78389711D01*
X205521786Y-78389707D01*
X205410292Y-78278213D01*
X205410288Y-78278210D01*
X205279185Y-78190609D01*
X205279172Y-78190602D01*
X205133501Y-78130264D01*
X205133489Y-78130261D01*
X204978845Y-78099500D01*
X204978842Y-78099500D01*
X204821158Y-78099500D01*
X204821155Y-78099500D01*
X204666510Y-78130261D01*
X204666498Y-78130264D01*
X204520827Y-78190602D01*
X204520814Y-78190609D01*
X204389711Y-78278210D01*
X204389707Y-78278213D01*
X204278213Y-78389707D01*
X204278210Y-78389711D01*
X204190609Y-78520814D01*
X204190602Y-78520827D01*
X204130264Y-78666498D01*
X204130261Y-78666510D01*
X204099500Y-78821153D01*
X199710925Y-78821153D01*
X199746863Y-78785215D01*
X199804694Y-78727385D01*
X199821786Y-78710292D01*
X199821789Y-78710289D01*
X199909394Y-78579179D01*
X199969737Y-78433497D01*
X200000500Y-78278842D01*
X200000500Y-78121158D01*
X200000500Y-78121155D01*
X200000499Y-78121153D01*
X199987174Y-78054164D01*
X199969737Y-77966503D01*
X199969735Y-77966498D01*
X199926666Y-77862518D01*
X199909532Y-77821153D01*
X207699500Y-77821153D01*
X207699500Y-77978846D01*
X207730261Y-78133489D01*
X207730264Y-78133501D01*
X207790602Y-78279172D01*
X207790609Y-78279185D01*
X207878210Y-78410288D01*
X207878213Y-78410292D01*
X207989707Y-78521786D01*
X207989711Y-78521789D01*
X208120814Y-78609390D01*
X208120827Y-78609397D01*
X208258683Y-78666498D01*
X208266503Y-78669737D01*
X208421153Y-78700499D01*
X208421156Y-78700500D01*
X208421158Y-78700500D01*
X208578844Y-78700500D01*
X208578845Y-78700499D01*
X208589179Y-78698443D01*
X208614287Y-78693450D01*
X208614292Y-78693449D01*
X208699800Y-78676439D01*
X208733497Y-78669737D01*
X208846166Y-78623067D01*
X208879172Y-78609397D01*
X208879172Y-78609396D01*
X208879179Y-78609394D01*
X209010289Y-78521789D01*
X209121789Y-78410289D01*
X209209394Y-78279179D01*
X209269737Y-78133497D01*
X209300500Y-77978842D01*
X209300500Y-77821158D01*
X209300500Y-77821155D01*
X209300499Y-77821153D01*
X209293717Y-77787057D01*
X209269737Y-77666503D01*
X209233427Y-77578842D01*
X209209397Y-77520827D01*
X209209390Y-77520814D01*
X209121789Y-77389711D01*
X209121786Y-77389707D01*
X209010292Y-77278213D01*
X209010288Y-77278210D01*
X208879185Y-77190609D01*
X208879172Y-77190602D01*
X208733501Y-77130264D01*
X208733489Y-77130261D01*
X208578845Y-77099500D01*
X208578842Y-77099500D01*
X208421158Y-77099500D01*
X208421155Y-77099500D01*
X208266510Y-77130261D01*
X208266498Y-77130264D01*
X208120827Y-77190602D01*
X208120814Y-77190609D01*
X207989711Y-77278210D01*
X207989707Y-77278213D01*
X207878213Y-77389707D01*
X207878210Y-77389711D01*
X207790609Y-77520814D01*
X207790602Y-77520827D01*
X207730264Y-77666498D01*
X207730261Y-77666510D01*
X207699500Y-77821153D01*
X199909532Y-77821153D01*
X199909395Y-77820823D01*
X199909390Y-77820814D01*
X199821789Y-77689711D01*
X199821786Y-77689707D01*
X199710292Y-77578213D01*
X199710288Y-77578210D01*
X199579185Y-77490609D01*
X199579172Y-77490602D01*
X199433501Y-77430264D01*
X199433489Y-77430261D01*
X199278845Y-77399500D01*
X199278842Y-77399500D01*
X199121158Y-77399500D01*
X199121155Y-77399500D01*
X198966510Y-77430261D01*
X198966498Y-77430264D01*
X198820827Y-77490602D01*
X198820814Y-77490609D01*
X198689711Y-77578210D01*
X198689707Y-77578213D01*
X198578213Y-77689707D01*
X198578210Y-77689711D01*
X198490609Y-77820814D01*
X198490602Y-77820827D01*
X198430264Y-77966498D01*
X198430261Y-77966510D01*
X198399500Y-78121153D01*
X195454738Y-78121153D01*
X194412166Y-77078583D01*
X194412159Y-77078576D01*
X194365476Y-77040956D01*
X194365474Y-77040955D01*
X194365472Y-77040953D01*
X194234562Y-76981168D01*
X194234558Y-76981167D01*
X194092103Y-76960687D01*
X193949647Y-76981167D01*
X193949643Y-76981168D01*
X193818732Y-77040954D01*
X193772037Y-77078583D01*
X192558840Y-78291782D01*
X192558834Y-78291789D01*
X192521212Y-78338474D01*
X192521210Y-78338476D01*
X192461425Y-78469386D01*
X192461424Y-78469390D01*
X192440944Y-78611846D01*
X192461424Y-78754301D01*
X192461425Y-78754305D01*
X192521211Y-78885216D01*
X192521212Y-78885217D01*
X192521213Y-78885219D01*
X192558832Y-78931902D01*
X192558835Y-78931905D01*
X192558840Y-78931911D01*
X192560169Y-78933240D01*
X192560380Y-78933627D01*
X192561061Y-78934385D01*
X192560881Y-78934545D01*
X192593654Y-78994563D01*
X192588670Y-79064255D01*
X192553020Y-79115211D01*
X192546052Y-79121162D01*
X192546052Y-79963329D01*
X192492907Y-79932646D01*
X192363196Y-79897890D01*
X192228908Y-79897890D01*
X192099197Y-79932646D01*
X192046052Y-79963329D01*
X192046052Y-79121162D01*
X191989296Y-79130152D01*
X191989295Y-79130152D01*
X191793183Y-79193873D01*
X191609461Y-79287484D01*
X191442642Y-79408687D01*
X191442641Y-79408687D01*
X191296842Y-79554486D01*
X191296842Y-79554487D01*
X191175639Y-79721306D01*
X191082028Y-79905028D01*
X191018307Y-80101140D01*
X191018307Y-80101141D01*
X191009318Y-80157897D01*
X191851484Y-80157897D01*
X191820801Y-80211042D01*
X191786045Y-80340753D01*
X191786045Y-80475041D01*
X191820801Y-80604752D01*
X191851484Y-80657897D01*
X191009318Y-80657897D01*
X191018307Y-80714652D01*
X191018307Y-80714653D01*
X191044733Y-80795984D01*
X191046728Y-80865826D01*
X191010647Y-80925658D01*
X190947946Y-80956486D01*
X190888484Y-80952233D01*
X190806879Y-80925718D01*
X190654073Y-80901516D01*
X190603139Y-80893449D01*
X190396861Y-80893449D01*
X190328948Y-80904205D01*
X190193122Y-80925718D01*
X190193119Y-80925718D01*
X189996945Y-80989459D01*
X189813147Y-81083109D01*
X189646265Y-81204357D01*
X189500408Y-81350214D01*
X189379160Y-81517096D01*
X189285510Y-81700894D01*
X189221769Y-81897068D01*
X189221769Y-81897071D01*
X189189500Y-82100810D01*
X189189500Y-82307087D01*
X189221769Y-82510826D01*
X189221770Y-82510833D01*
X189248092Y-82591844D01*
X189250087Y-82661685D01*
X189214006Y-82721518D01*
X189151305Y-82752345D01*
X189091844Y-82748092D01*
X189010833Y-82721770D01*
X189010826Y-82721769D01*
X188853525Y-82696855D01*
X188807088Y-82689500D01*
X188600810Y-82689500D01*
X188554373Y-82696855D01*
X188397071Y-82721769D01*
X188397068Y-82721769D01*
X188200894Y-82785510D01*
X188017096Y-82879160D01*
X187850214Y-83000408D01*
X187704357Y-83146265D01*
X187583109Y-83313147D01*
X187489459Y-83496945D01*
X187425718Y-83693119D01*
X187425718Y-83693122D01*
X187393449Y-83896861D01*
X185200500Y-83896861D01*
X185200500Y-76671150D01*
X187699500Y-76671150D01*
X187699500Y-76828843D01*
X187730260Y-76983485D01*
X187730263Y-76983495D01*
X187769220Y-77077546D01*
X187776689Y-77147015D01*
X187769223Y-77172443D01*
X187730263Y-77266503D01*
X187730262Y-77266507D01*
X187730261Y-77266510D01*
X187730260Y-77266511D01*
X187699500Y-77421153D01*
X187699500Y-77578846D01*
X187730260Y-77733488D01*
X187730263Y-77733498D01*
X187769220Y-77827549D01*
X187776689Y-77897018D01*
X187769223Y-77922446D01*
X187730263Y-78016506D01*
X187730262Y-78016510D01*
X187730261Y-78016513D01*
X187730260Y-78016514D01*
X187699500Y-78171156D01*
X187699500Y-78328849D01*
X187730261Y-78483492D01*
X187730264Y-78483504D01*
X187790602Y-78629175D01*
X187790609Y-78629188D01*
X187878210Y-78760291D01*
X187878213Y-78760295D01*
X187989707Y-78871789D01*
X187989711Y-78871792D01*
X188120814Y-78959393D01*
X188120827Y-78959400D01*
X188266498Y-79019738D01*
X188266503Y-79019740D01*
X188421153Y-79050502D01*
X188421156Y-79050503D01*
X188421158Y-79050503D01*
X188578844Y-79050503D01*
X188578845Y-79050502D01*
X188733497Y-79019740D01*
X188879179Y-78959397D01*
X189010289Y-78871792D01*
X189121789Y-78760292D01*
X189209394Y-78629182D01*
X189269737Y-78483500D01*
X189300500Y-78328845D01*
X189300500Y-78171161D01*
X189300500Y-78171158D01*
X189300499Y-78171156D01*
X189293008Y-78133497D01*
X189269737Y-78016506D01*
X189230778Y-77922452D01*
X189223310Y-77852985D01*
X189230779Y-77827549D01*
X189269737Y-77733497D01*
X189300500Y-77578842D01*
X189300500Y-77421158D01*
X189300500Y-77421155D01*
X189300499Y-77421153D01*
X189272066Y-77278211D01*
X189269737Y-77266503D01*
X189230778Y-77172449D01*
X189223310Y-77102982D01*
X189230779Y-77077546D01*
X189269737Y-76983494D01*
X189300500Y-76828839D01*
X189300500Y-76671155D01*
X189300500Y-76671152D01*
X189300499Y-76671150D01*
X189269738Y-76516507D01*
X189269737Y-76516500D01*
X189269735Y-76516495D01*
X189209397Y-76370824D01*
X189209390Y-76370811D01*
X189121789Y-76239708D01*
X189121786Y-76239704D01*
X189010292Y-76128210D01*
X189010288Y-76128207D01*
X188879185Y-76040606D01*
X188879172Y-76040599D01*
X188733501Y-75980261D01*
X188733489Y-75980258D01*
X188578845Y-75949497D01*
X188578842Y-75949497D01*
X188421158Y-75949497D01*
X188421155Y-75949497D01*
X188266510Y-75980258D01*
X188266498Y-75980261D01*
X188120827Y-76040599D01*
X188120814Y-76040606D01*
X187989711Y-76128207D01*
X187989707Y-76128210D01*
X187878213Y-76239704D01*
X187878210Y-76239708D01*
X187790609Y-76370811D01*
X187790602Y-76370824D01*
X187730264Y-76516495D01*
X187730261Y-76516507D01*
X187699500Y-76671150D01*
X185200500Y-76671150D01*
X185200500Y-76006092D01*
X185201097Y-75993939D01*
X185209805Y-75905519D01*
X185214665Y-75856171D01*
X185219403Y-75832349D01*
X185257816Y-75705719D01*
X185267113Y-75683278D01*
X185329485Y-75566587D01*
X185342982Y-75546387D01*
X185426924Y-75444103D01*
X185444103Y-75426924D01*
X185546387Y-75342982D01*
X185566587Y-75329485D01*
X185683278Y-75267113D01*
X185705719Y-75257816D01*
X185832349Y-75219403D01*
X185856173Y-75214665D01*
X185985170Y-75201960D01*
X185993939Y-75201097D01*
X186006092Y-75200500D01*
X186039882Y-75200500D01*
X253960118Y-75200500D01*
X253993908Y-75200500D01*
X254006061Y-75201097D01*
G37*
%TD.AperFunction*%
%TD*%
M02*
