%TF.GenerationSoftware,KiCad,Pcbnew,9.0.7*%
%TF.CreationDate,2026-02-28T17:01:53+01:00*%
%TF.ProjectId,esp32-drone-controller,65737033-322d-4647-926f-6e652d636f6e,rev?*%
%TF.SameCoordinates,Original*%
%TF.FileFunction,Legend,Top*%
%TF.FilePolarity,Positive*%
%FSLAX46Y46*%
G04 Gerber Fmt 4.6, Leading zero omitted, Abs format (unit mm)*
G04 Created by KiCad (PCBNEW 9.0.7) date 2026-02-28 17:01:53*
%MOMM*%
%LPD*%
G01*
G04 APERTURE LIST*
%ADD10C,0.150000*%
%ADD11C,0.250000*%
%ADD12C,0.120000*%
G04 APERTURE END LIST*
D10*
X242033333Y-119759580D02*
X241985714Y-119807200D01*
X241985714Y-119807200D02*
X241842857Y-119854819D01*
X241842857Y-119854819D02*
X241747619Y-119854819D01*
X241747619Y-119854819D02*
X241604762Y-119807200D01*
X241604762Y-119807200D02*
X241509524Y-119711961D01*
X241509524Y-119711961D02*
X241461905Y-119616723D01*
X241461905Y-119616723D02*
X241414286Y-119426247D01*
X241414286Y-119426247D02*
X241414286Y-119283390D01*
X241414286Y-119283390D02*
X241461905Y-119092914D01*
X241461905Y-119092914D02*
X241509524Y-118997676D01*
X241509524Y-118997676D02*
X241604762Y-118902438D01*
X241604762Y-118902438D02*
X241747619Y-118854819D01*
X241747619Y-118854819D02*
X241842857Y-118854819D01*
X241842857Y-118854819D02*
X241985714Y-118902438D01*
X241985714Y-118902438D02*
X242033333Y-118950057D01*
X242890476Y-118854819D02*
X242700000Y-118854819D01*
X242700000Y-118854819D02*
X242604762Y-118902438D01*
X242604762Y-118902438D02*
X242557143Y-118950057D01*
X242557143Y-118950057D02*
X242461905Y-119092914D01*
X242461905Y-119092914D02*
X242414286Y-119283390D01*
X242414286Y-119283390D02*
X242414286Y-119664342D01*
X242414286Y-119664342D02*
X242461905Y-119759580D01*
X242461905Y-119759580D02*
X242509524Y-119807200D01*
X242509524Y-119807200D02*
X242604762Y-119854819D01*
X242604762Y-119854819D02*
X242795238Y-119854819D01*
X242795238Y-119854819D02*
X242890476Y-119807200D01*
X242890476Y-119807200D02*
X242938095Y-119759580D01*
X242938095Y-119759580D02*
X242985714Y-119664342D01*
X242985714Y-119664342D02*
X242985714Y-119426247D01*
X242985714Y-119426247D02*
X242938095Y-119331009D01*
X242938095Y-119331009D02*
X242890476Y-119283390D01*
X242890476Y-119283390D02*
X242795238Y-119235771D01*
X242795238Y-119235771D02*
X242604762Y-119235771D01*
X242604762Y-119235771D02*
X242509524Y-119283390D01*
X242509524Y-119283390D02*
X242461905Y-119331009D01*
X242461905Y-119331009D02*
X242414286Y-119426247D01*
X208037142Y-109109580D02*
X207989523Y-109157200D01*
X207989523Y-109157200D02*
X207846666Y-109204819D01*
X207846666Y-109204819D02*
X207751428Y-109204819D01*
X207751428Y-109204819D02*
X207608571Y-109157200D01*
X207608571Y-109157200D02*
X207513333Y-109061961D01*
X207513333Y-109061961D02*
X207465714Y-108966723D01*
X207465714Y-108966723D02*
X207418095Y-108776247D01*
X207418095Y-108776247D02*
X207418095Y-108633390D01*
X207418095Y-108633390D02*
X207465714Y-108442914D01*
X207465714Y-108442914D02*
X207513333Y-108347676D01*
X207513333Y-108347676D02*
X207608571Y-108252438D01*
X207608571Y-108252438D02*
X207751428Y-108204819D01*
X207751428Y-108204819D02*
X207846666Y-108204819D01*
X207846666Y-108204819D02*
X207989523Y-108252438D01*
X207989523Y-108252438D02*
X208037142Y-108300057D01*
X208989523Y-109204819D02*
X208418095Y-109204819D01*
X208703809Y-109204819D02*
X208703809Y-108204819D01*
X208703809Y-108204819D02*
X208608571Y-108347676D01*
X208608571Y-108347676D02*
X208513333Y-108442914D01*
X208513333Y-108442914D02*
X208418095Y-108490533D01*
X209322857Y-108204819D02*
X209941904Y-108204819D01*
X209941904Y-108204819D02*
X209608571Y-108585771D01*
X209608571Y-108585771D02*
X209751428Y-108585771D01*
X209751428Y-108585771D02*
X209846666Y-108633390D01*
X209846666Y-108633390D02*
X209894285Y-108681009D01*
X209894285Y-108681009D02*
X209941904Y-108776247D01*
X209941904Y-108776247D02*
X209941904Y-109014342D01*
X209941904Y-109014342D02*
X209894285Y-109109580D01*
X209894285Y-109109580D02*
X209846666Y-109157200D01*
X209846666Y-109157200D02*
X209751428Y-109204819D01*
X209751428Y-109204819D02*
X209465714Y-109204819D01*
X209465714Y-109204819D02*
X209370476Y-109157200D01*
X209370476Y-109157200D02*
X209322857Y-109109580D01*
X234238095Y-141954819D02*
X234238095Y-140954819D01*
X234238095Y-141431009D02*
X234809523Y-141431009D01*
X234809523Y-141954819D02*
X234809523Y-140954819D01*
X235714285Y-141288152D02*
X235714285Y-141954819D01*
X235476190Y-140907200D02*
X235238095Y-141621485D01*
X235238095Y-141621485D02*
X235857142Y-141621485D01*
X242033333Y-117029580D02*
X241985714Y-117077200D01*
X241985714Y-117077200D02*
X241842857Y-117124819D01*
X241842857Y-117124819D02*
X241747619Y-117124819D01*
X241747619Y-117124819D02*
X241604762Y-117077200D01*
X241604762Y-117077200D02*
X241509524Y-116981961D01*
X241509524Y-116981961D02*
X241461905Y-116886723D01*
X241461905Y-116886723D02*
X241414286Y-116696247D01*
X241414286Y-116696247D02*
X241414286Y-116553390D01*
X241414286Y-116553390D02*
X241461905Y-116362914D01*
X241461905Y-116362914D02*
X241509524Y-116267676D01*
X241509524Y-116267676D02*
X241604762Y-116172438D01*
X241604762Y-116172438D02*
X241747619Y-116124819D01*
X241747619Y-116124819D02*
X241842857Y-116124819D01*
X241842857Y-116124819D02*
X241985714Y-116172438D01*
X241985714Y-116172438D02*
X242033333Y-116220057D01*
X242366667Y-116124819D02*
X243033333Y-116124819D01*
X243033333Y-116124819D02*
X242604762Y-117124819D01*
X247738095Y-103604819D02*
X247738095Y-102604819D01*
X247738095Y-103081009D02*
X248309523Y-103081009D01*
X248309523Y-103604819D02*
X248309523Y-102604819D01*
X248738095Y-102700057D02*
X248785714Y-102652438D01*
X248785714Y-102652438D02*
X248880952Y-102604819D01*
X248880952Y-102604819D02*
X249119047Y-102604819D01*
X249119047Y-102604819D02*
X249214285Y-102652438D01*
X249214285Y-102652438D02*
X249261904Y-102700057D01*
X249261904Y-102700057D02*
X249309523Y-102795295D01*
X249309523Y-102795295D02*
X249309523Y-102890533D01*
X249309523Y-102890533D02*
X249261904Y-103033390D01*
X249261904Y-103033390D02*
X248690476Y-103604819D01*
X248690476Y-103604819D02*
X249309523Y-103604819D01*
X194733333Y-118254819D02*
X194400000Y-117778628D01*
X194161905Y-118254819D02*
X194161905Y-117254819D01*
X194161905Y-117254819D02*
X194542857Y-117254819D01*
X194542857Y-117254819D02*
X194638095Y-117302438D01*
X194638095Y-117302438D02*
X194685714Y-117350057D01*
X194685714Y-117350057D02*
X194733333Y-117445295D01*
X194733333Y-117445295D02*
X194733333Y-117588152D01*
X194733333Y-117588152D02*
X194685714Y-117683390D01*
X194685714Y-117683390D02*
X194638095Y-117731009D01*
X194638095Y-117731009D02*
X194542857Y-117778628D01*
X194542857Y-117778628D02*
X194161905Y-117778628D01*
X195590476Y-117254819D02*
X195400000Y-117254819D01*
X195400000Y-117254819D02*
X195304762Y-117302438D01*
X195304762Y-117302438D02*
X195257143Y-117350057D01*
X195257143Y-117350057D02*
X195161905Y-117492914D01*
X195161905Y-117492914D02*
X195114286Y-117683390D01*
X195114286Y-117683390D02*
X195114286Y-118064342D01*
X195114286Y-118064342D02*
X195161905Y-118159580D01*
X195161905Y-118159580D02*
X195209524Y-118207200D01*
X195209524Y-118207200D02*
X195304762Y-118254819D01*
X195304762Y-118254819D02*
X195495238Y-118254819D01*
X195495238Y-118254819D02*
X195590476Y-118207200D01*
X195590476Y-118207200D02*
X195638095Y-118159580D01*
X195638095Y-118159580D02*
X195685714Y-118064342D01*
X195685714Y-118064342D02*
X195685714Y-117826247D01*
X195685714Y-117826247D02*
X195638095Y-117731009D01*
X195638095Y-117731009D02*
X195590476Y-117683390D01*
X195590476Y-117683390D02*
X195495238Y-117635771D01*
X195495238Y-117635771D02*
X195304762Y-117635771D01*
X195304762Y-117635771D02*
X195209524Y-117683390D01*
X195209524Y-117683390D02*
X195161905Y-117731009D01*
X195161905Y-117731009D02*
X195114286Y-117826247D01*
X216933333Y-113559580D02*
X216885714Y-113607200D01*
X216885714Y-113607200D02*
X216742857Y-113654819D01*
X216742857Y-113654819D02*
X216647619Y-113654819D01*
X216647619Y-113654819D02*
X216504762Y-113607200D01*
X216504762Y-113607200D02*
X216409524Y-113511961D01*
X216409524Y-113511961D02*
X216361905Y-113416723D01*
X216361905Y-113416723D02*
X216314286Y-113226247D01*
X216314286Y-113226247D02*
X216314286Y-113083390D01*
X216314286Y-113083390D02*
X216361905Y-112892914D01*
X216361905Y-112892914D02*
X216409524Y-112797676D01*
X216409524Y-112797676D02*
X216504762Y-112702438D01*
X216504762Y-112702438D02*
X216647619Y-112654819D01*
X216647619Y-112654819D02*
X216742857Y-112654819D01*
X216742857Y-112654819D02*
X216885714Y-112702438D01*
X216885714Y-112702438D02*
X216933333Y-112750057D01*
X217409524Y-113654819D02*
X217600000Y-113654819D01*
X217600000Y-113654819D02*
X217695238Y-113607200D01*
X217695238Y-113607200D02*
X217742857Y-113559580D01*
X217742857Y-113559580D02*
X217838095Y-113416723D01*
X217838095Y-113416723D02*
X217885714Y-113226247D01*
X217885714Y-113226247D02*
X217885714Y-112845295D01*
X217885714Y-112845295D02*
X217838095Y-112750057D01*
X217838095Y-112750057D02*
X217790476Y-112702438D01*
X217790476Y-112702438D02*
X217695238Y-112654819D01*
X217695238Y-112654819D02*
X217504762Y-112654819D01*
X217504762Y-112654819D02*
X217409524Y-112702438D01*
X217409524Y-112702438D02*
X217361905Y-112750057D01*
X217361905Y-112750057D02*
X217314286Y-112845295D01*
X217314286Y-112845295D02*
X217314286Y-113083390D01*
X217314286Y-113083390D02*
X217361905Y-113178628D01*
X217361905Y-113178628D02*
X217409524Y-113226247D01*
X217409524Y-113226247D02*
X217504762Y-113273866D01*
X217504762Y-113273866D02*
X217695238Y-113273866D01*
X217695238Y-113273866D02*
X217790476Y-113226247D01*
X217790476Y-113226247D02*
X217838095Y-113178628D01*
X217838095Y-113178628D02*
X217885714Y-113083390D01*
X208538095Y-120454819D02*
X208538095Y-121264342D01*
X208538095Y-121264342D02*
X208585714Y-121359580D01*
X208585714Y-121359580D02*
X208633333Y-121407200D01*
X208633333Y-121407200D02*
X208728571Y-121454819D01*
X208728571Y-121454819D02*
X208919047Y-121454819D01*
X208919047Y-121454819D02*
X209014285Y-121407200D01*
X209014285Y-121407200D02*
X209061904Y-121359580D01*
X209061904Y-121359580D02*
X209109523Y-121264342D01*
X209109523Y-121264342D02*
X209109523Y-120454819D01*
X210109523Y-121454819D02*
X209538095Y-121454819D01*
X209823809Y-121454819D02*
X209823809Y-120454819D01*
X209823809Y-120454819D02*
X209728571Y-120597676D01*
X209728571Y-120597676D02*
X209633333Y-120692914D01*
X209633333Y-120692914D02*
X209538095Y-120740533D01*
X190938095Y-103654819D02*
X190938095Y-102654819D01*
X190938095Y-103131009D02*
X191509523Y-103131009D01*
X191509523Y-103654819D02*
X191509523Y-102654819D01*
X191890476Y-102654819D02*
X192509523Y-102654819D01*
X192509523Y-102654819D02*
X192176190Y-103035771D01*
X192176190Y-103035771D02*
X192319047Y-103035771D01*
X192319047Y-103035771D02*
X192414285Y-103083390D01*
X192414285Y-103083390D02*
X192461904Y-103131009D01*
X192461904Y-103131009D02*
X192509523Y-103226247D01*
X192509523Y-103226247D02*
X192509523Y-103464342D01*
X192509523Y-103464342D02*
X192461904Y-103559580D01*
X192461904Y-103559580D02*
X192414285Y-103607200D01*
X192414285Y-103607200D02*
X192319047Y-103654819D01*
X192319047Y-103654819D02*
X192033333Y-103654819D01*
X192033333Y-103654819D02*
X191938095Y-103607200D01*
X191938095Y-103607200D02*
X191890476Y-103559580D01*
X206057142Y-83359580D02*
X206009523Y-83407200D01*
X206009523Y-83407200D02*
X205866666Y-83454819D01*
X205866666Y-83454819D02*
X205771428Y-83454819D01*
X205771428Y-83454819D02*
X205628571Y-83407200D01*
X205628571Y-83407200D02*
X205533333Y-83311961D01*
X205533333Y-83311961D02*
X205485714Y-83216723D01*
X205485714Y-83216723D02*
X205438095Y-83026247D01*
X205438095Y-83026247D02*
X205438095Y-82883390D01*
X205438095Y-82883390D02*
X205485714Y-82692914D01*
X205485714Y-82692914D02*
X205533333Y-82597676D01*
X205533333Y-82597676D02*
X205628571Y-82502438D01*
X205628571Y-82502438D02*
X205771428Y-82454819D01*
X205771428Y-82454819D02*
X205866666Y-82454819D01*
X205866666Y-82454819D02*
X206009523Y-82502438D01*
X206009523Y-82502438D02*
X206057142Y-82550057D01*
X207009523Y-83454819D02*
X206438095Y-83454819D01*
X206723809Y-83454819D02*
X206723809Y-82454819D01*
X206723809Y-82454819D02*
X206628571Y-82597676D01*
X206628571Y-82597676D02*
X206533333Y-82692914D01*
X206533333Y-82692914D02*
X206438095Y-82740533D01*
X207961904Y-83454819D02*
X207390476Y-83454819D01*
X207676190Y-83454819D02*
X207676190Y-82454819D01*
X207676190Y-82454819D02*
X207580952Y-82597676D01*
X207580952Y-82597676D02*
X207485714Y-82692914D01*
X207485714Y-82692914D02*
X207390476Y-82740533D01*
X203433333Y-131959580D02*
X203385714Y-132007200D01*
X203385714Y-132007200D02*
X203242857Y-132054819D01*
X203242857Y-132054819D02*
X203147619Y-132054819D01*
X203147619Y-132054819D02*
X203004762Y-132007200D01*
X203004762Y-132007200D02*
X202909524Y-131911961D01*
X202909524Y-131911961D02*
X202861905Y-131816723D01*
X202861905Y-131816723D02*
X202814286Y-131626247D01*
X202814286Y-131626247D02*
X202814286Y-131483390D01*
X202814286Y-131483390D02*
X202861905Y-131292914D01*
X202861905Y-131292914D02*
X202909524Y-131197676D01*
X202909524Y-131197676D02*
X203004762Y-131102438D01*
X203004762Y-131102438D02*
X203147619Y-131054819D01*
X203147619Y-131054819D02*
X203242857Y-131054819D01*
X203242857Y-131054819D02*
X203385714Y-131102438D01*
X203385714Y-131102438D02*
X203433333Y-131150057D01*
X204385714Y-132054819D02*
X203814286Y-132054819D01*
X204100000Y-132054819D02*
X204100000Y-131054819D01*
X204100000Y-131054819D02*
X204004762Y-131197676D01*
X204004762Y-131197676D02*
X203909524Y-131292914D01*
X203909524Y-131292914D02*
X203814286Y-131340533D01*
X245933333Y-118354819D02*
X245600000Y-117878628D01*
X245361905Y-118354819D02*
X245361905Y-117354819D01*
X245361905Y-117354819D02*
X245742857Y-117354819D01*
X245742857Y-117354819D02*
X245838095Y-117402438D01*
X245838095Y-117402438D02*
X245885714Y-117450057D01*
X245885714Y-117450057D02*
X245933333Y-117545295D01*
X245933333Y-117545295D02*
X245933333Y-117688152D01*
X245933333Y-117688152D02*
X245885714Y-117783390D01*
X245885714Y-117783390D02*
X245838095Y-117831009D01*
X245838095Y-117831009D02*
X245742857Y-117878628D01*
X245742857Y-117878628D02*
X245361905Y-117878628D01*
X246266667Y-117354819D02*
X246933333Y-117354819D01*
X246933333Y-117354819D02*
X246504762Y-118354819D01*
X223133333Y-126754819D02*
X222800000Y-126278628D01*
X222561905Y-126754819D02*
X222561905Y-125754819D01*
X222561905Y-125754819D02*
X222942857Y-125754819D01*
X222942857Y-125754819D02*
X223038095Y-125802438D01*
X223038095Y-125802438D02*
X223085714Y-125850057D01*
X223085714Y-125850057D02*
X223133333Y-125945295D01*
X223133333Y-125945295D02*
X223133333Y-126088152D01*
X223133333Y-126088152D02*
X223085714Y-126183390D01*
X223085714Y-126183390D02*
X223038095Y-126231009D01*
X223038095Y-126231009D02*
X222942857Y-126278628D01*
X222942857Y-126278628D02*
X222561905Y-126278628D01*
X223466667Y-125754819D02*
X224085714Y-125754819D01*
X224085714Y-125754819D02*
X223752381Y-126135771D01*
X223752381Y-126135771D02*
X223895238Y-126135771D01*
X223895238Y-126135771D02*
X223990476Y-126183390D01*
X223990476Y-126183390D02*
X224038095Y-126231009D01*
X224038095Y-126231009D02*
X224085714Y-126326247D01*
X224085714Y-126326247D02*
X224085714Y-126564342D01*
X224085714Y-126564342D02*
X224038095Y-126659580D01*
X224038095Y-126659580D02*
X223990476Y-126707200D01*
X223990476Y-126707200D02*
X223895238Y-126754819D01*
X223895238Y-126754819D02*
X223609524Y-126754819D01*
X223609524Y-126754819D02*
X223514286Y-126707200D01*
X223514286Y-126707200D02*
X223466667Y-126659580D01*
X221633333Y-97854819D02*
X221300000Y-97378628D01*
X221061905Y-97854819D02*
X221061905Y-96854819D01*
X221061905Y-96854819D02*
X221442857Y-96854819D01*
X221442857Y-96854819D02*
X221538095Y-96902438D01*
X221538095Y-96902438D02*
X221585714Y-96950057D01*
X221585714Y-96950057D02*
X221633333Y-97045295D01*
X221633333Y-97045295D02*
X221633333Y-97188152D01*
X221633333Y-97188152D02*
X221585714Y-97283390D01*
X221585714Y-97283390D02*
X221538095Y-97331009D01*
X221538095Y-97331009D02*
X221442857Y-97378628D01*
X221442857Y-97378628D02*
X221061905Y-97378628D01*
X222204762Y-97283390D02*
X222109524Y-97235771D01*
X222109524Y-97235771D02*
X222061905Y-97188152D01*
X222061905Y-97188152D02*
X222014286Y-97092914D01*
X222014286Y-97092914D02*
X222014286Y-97045295D01*
X222014286Y-97045295D02*
X222061905Y-96950057D01*
X222061905Y-96950057D02*
X222109524Y-96902438D01*
X222109524Y-96902438D02*
X222204762Y-96854819D01*
X222204762Y-96854819D02*
X222395238Y-96854819D01*
X222395238Y-96854819D02*
X222490476Y-96902438D01*
X222490476Y-96902438D02*
X222538095Y-96950057D01*
X222538095Y-96950057D02*
X222585714Y-97045295D01*
X222585714Y-97045295D02*
X222585714Y-97092914D01*
X222585714Y-97092914D02*
X222538095Y-97188152D01*
X222538095Y-97188152D02*
X222490476Y-97235771D01*
X222490476Y-97235771D02*
X222395238Y-97283390D01*
X222395238Y-97283390D02*
X222204762Y-97283390D01*
X222204762Y-97283390D02*
X222109524Y-97331009D01*
X222109524Y-97331009D02*
X222061905Y-97378628D01*
X222061905Y-97378628D02*
X222014286Y-97473866D01*
X222014286Y-97473866D02*
X222014286Y-97664342D01*
X222014286Y-97664342D02*
X222061905Y-97759580D01*
X222061905Y-97759580D02*
X222109524Y-97807200D01*
X222109524Y-97807200D02*
X222204762Y-97854819D01*
X222204762Y-97854819D02*
X222395238Y-97854819D01*
X222395238Y-97854819D02*
X222490476Y-97807200D01*
X222490476Y-97807200D02*
X222538095Y-97759580D01*
X222538095Y-97759580D02*
X222585714Y-97664342D01*
X222585714Y-97664342D02*
X222585714Y-97473866D01*
X222585714Y-97473866D02*
X222538095Y-97378628D01*
X222538095Y-97378628D02*
X222490476Y-97331009D01*
X222490476Y-97331009D02*
X222395238Y-97283390D01*
X230787142Y-108484580D02*
X230739523Y-108532200D01*
X230739523Y-108532200D02*
X230596666Y-108579819D01*
X230596666Y-108579819D02*
X230501428Y-108579819D01*
X230501428Y-108579819D02*
X230358571Y-108532200D01*
X230358571Y-108532200D02*
X230263333Y-108436961D01*
X230263333Y-108436961D02*
X230215714Y-108341723D01*
X230215714Y-108341723D02*
X230168095Y-108151247D01*
X230168095Y-108151247D02*
X230168095Y-108008390D01*
X230168095Y-108008390D02*
X230215714Y-107817914D01*
X230215714Y-107817914D02*
X230263333Y-107722676D01*
X230263333Y-107722676D02*
X230358571Y-107627438D01*
X230358571Y-107627438D02*
X230501428Y-107579819D01*
X230501428Y-107579819D02*
X230596666Y-107579819D01*
X230596666Y-107579819D02*
X230739523Y-107627438D01*
X230739523Y-107627438D02*
X230787142Y-107675057D01*
X231739523Y-108579819D02*
X231168095Y-108579819D01*
X231453809Y-108579819D02*
X231453809Y-107579819D01*
X231453809Y-107579819D02*
X231358571Y-107722676D01*
X231358571Y-107722676D02*
X231263333Y-107817914D01*
X231263333Y-107817914D02*
X231168095Y-107865533D01*
X232596666Y-107913152D02*
X232596666Y-108579819D01*
X232358571Y-107532200D02*
X232120476Y-108246485D01*
X232120476Y-108246485D02*
X232739523Y-108246485D01*
X220461905Y-99954819D02*
X220461905Y-98954819D01*
X220461905Y-98954819D02*
X220700000Y-98954819D01*
X220700000Y-98954819D02*
X220842857Y-99002438D01*
X220842857Y-99002438D02*
X220938095Y-99097676D01*
X220938095Y-99097676D02*
X220985714Y-99192914D01*
X220985714Y-99192914D02*
X221033333Y-99383390D01*
X221033333Y-99383390D02*
X221033333Y-99526247D01*
X221033333Y-99526247D02*
X220985714Y-99716723D01*
X220985714Y-99716723D02*
X220938095Y-99811961D01*
X220938095Y-99811961D02*
X220842857Y-99907200D01*
X220842857Y-99907200D02*
X220700000Y-99954819D01*
X220700000Y-99954819D02*
X220461905Y-99954819D01*
X221890476Y-98954819D02*
X221700000Y-98954819D01*
X221700000Y-98954819D02*
X221604762Y-99002438D01*
X221604762Y-99002438D02*
X221557143Y-99050057D01*
X221557143Y-99050057D02*
X221461905Y-99192914D01*
X221461905Y-99192914D02*
X221414286Y-99383390D01*
X221414286Y-99383390D02*
X221414286Y-99764342D01*
X221414286Y-99764342D02*
X221461905Y-99859580D01*
X221461905Y-99859580D02*
X221509524Y-99907200D01*
X221509524Y-99907200D02*
X221604762Y-99954819D01*
X221604762Y-99954819D02*
X221795238Y-99954819D01*
X221795238Y-99954819D02*
X221890476Y-99907200D01*
X221890476Y-99907200D02*
X221938095Y-99859580D01*
X221938095Y-99859580D02*
X221985714Y-99764342D01*
X221985714Y-99764342D02*
X221985714Y-99526247D01*
X221985714Y-99526247D02*
X221938095Y-99431009D01*
X221938095Y-99431009D02*
X221890476Y-99383390D01*
X221890476Y-99383390D02*
X221795238Y-99335771D01*
X221795238Y-99335771D02*
X221604762Y-99335771D01*
X221604762Y-99335771D02*
X221509524Y-99383390D01*
X221509524Y-99383390D02*
X221461905Y-99431009D01*
X221461905Y-99431009D02*
X221414286Y-99526247D01*
X186057142Y-132754819D02*
X185723809Y-132278628D01*
X185485714Y-132754819D02*
X185485714Y-131754819D01*
X185485714Y-131754819D02*
X185866666Y-131754819D01*
X185866666Y-131754819D02*
X185961904Y-131802438D01*
X185961904Y-131802438D02*
X186009523Y-131850057D01*
X186009523Y-131850057D02*
X186057142Y-131945295D01*
X186057142Y-131945295D02*
X186057142Y-132088152D01*
X186057142Y-132088152D02*
X186009523Y-132183390D01*
X186009523Y-132183390D02*
X185961904Y-132231009D01*
X185961904Y-132231009D02*
X185866666Y-132278628D01*
X185866666Y-132278628D02*
X185485714Y-132278628D01*
X187009523Y-132754819D02*
X186438095Y-132754819D01*
X186723809Y-132754819D02*
X186723809Y-131754819D01*
X186723809Y-131754819D02*
X186628571Y-131897676D01*
X186628571Y-131897676D02*
X186533333Y-131992914D01*
X186533333Y-131992914D02*
X186438095Y-132040533D01*
X187628571Y-131754819D02*
X187723809Y-131754819D01*
X187723809Y-131754819D02*
X187819047Y-131802438D01*
X187819047Y-131802438D02*
X187866666Y-131850057D01*
X187866666Y-131850057D02*
X187914285Y-131945295D01*
X187914285Y-131945295D02*
X187961904Y-132135771D01*
X187961904Y-132135771D02*
X187961904Y-132373866D01*
X187961904Y-132373866D02*
X187914285Y-132564342D01*
X187914285Y-132564342D02*
X187866666Y-132659580D01*
X187866666Y-132659580D02*
X187819047Y-132707200D01*
X187819047Y-132707200D02*
X187723809Y-132754819D01*
X187723809Y-132754819D02*
X187628571Y-132754819D01*
X187628571Y-132754819D02*
X187533333Y-132707200D01*
X187533333Y-132707200D02*
X187485714Y-132659580D01*
X187485714Y-132659580D02*
X187438095Y-132564342D01*
X187438095Y-132564342D02*
X187390476Y-132373866D01*
X187390476Y-132373866D02*
X187390476Y-132135771D01*
X187390476Y-132135771D02*
X187438095Y-131945295D01*
X187438095Y-131945295D02*
X187485714Y-131850057D01*
X187485714Y-131850057D02*
X187533333Y-131802438D01*
X187533333Y-131802438D02*
X187628571Y-131754819D01*
X248143333Y-131459580D02*
X248095714Y-131507200D01*
X248095714Y-131507200D02*
X247952857Y-131554819D01*
X247952857Y-131554819D02*
X247857619Y-131554819D01*
X247857619Y-131554819D02*
X247714762Y-131507200D01*
X247714762Y-131507200D02*
X247619524Y-131411961D01*
X247619524Y-131411961D02*
X247571905Y-131316723D01*
X247571905Y-131316723D02*
X247524286Y-131126247D01*
X247524286Y-131126247D02*
X247524286Y-130983390D01*
X247524286Y-130983390D02*
X247571905Y-130792914D01*
X247571905Y-130792914D02*
X247619524Y-130697676D01*
X247619524Y-130697676D02*
X247714762Y-130602438D01*
X247714762Y-130602438D02*
X247857619Y-130554819D01*
X247857619Y-130554819D02*
X247952857Y-130554819D01*
X247952857Y-130554819D02*
X248095714Y-130602438D01*
X248095714Y-130602438D02*
X248143333Y-130650057D01*
X249048095Y-130554819D02*
X248571905Y-130554819D01*
X248571905Y-130554819D02*
X248524286Y-131031009D01*
X248524286Y-131031009D02*
X248571905Y-130983390D01*
X248571905Y-130983390D02*
X248667143Y-130935771D01*
X248667143Y-130935771D02*
X248905238Y-130935771D01*
X248905238Y-130935771D02*
X249000476Y-130983390D01*
X249000476Y-130983390D02*
X249048095Y-131031009D01*
X249048095Y-131031009D02*
X249095714Y-131126247D01*
X249095714Y-131126247D02*
X249095714Y-131364342D01*
X249095714Y-131364342D02*
X249048095Y-131459580D01*
X249048095Y-131459580D02*
X249000476Y-131507200D01*
X249000476Y-131507200D02*
X248905238Y-131554819D01*
X248905238Y-131554819D02*
X248667143Y-131554819D01*
X248667143Y-131554819D02*
X248571905Y-131507200D01*
X248571905Y-131507200D02*
X248524286Y-131459580D01*
X214057142Y-100859580D02*
X214009523Y-100907200D01*
X214009523Y-100907200D02*
X213866666Y-100954819D01*
X213866666Y-100954819D02*
X213771428Y-100954819D01*
X213771428Y-100954819D02*
X213628571Y-100907200D01*
X213628571Y-100907200D02*
X213533333Y-100811961D01*
X213533333Y-100811961D02*
X213485714Y-100716723D01*
X213485714Y-100716723D02*
X213438095Y-100526247D01*
X213438095Y-100526247D02*
X213438095Y-100383390D01*
X213438095Y-100383390D02*
X213485714Y-100192914D01*
X213485714Y-100192914D02*
X213533333Y-100097676D01*
X213533333Y-100097676D02*
X213628571Y-100002438D01*
X213628571Y-100002438D02*
X213771428Y-99954819D01*
X213771428Y-99954819D02*
X213866666Y-99954819D01*
X213866666Y-99954819D02*
X214009523Y-100002438D01*
X214009523Y-100002438D02*
X214057142Y-100050057D01*
X215009523Y-100954819D02*
X214438095Y-100954819D01*
X214723809Y-100954819D02*
X214723809Y-99954819D01*
X214723809Y-99954819D02*
X214628571Y-100097676D01*
X214628571Y-100097676D02*
X214533333Y-100192914D01*
X214533333Y-100192914D02*
X214438095Y-100240533D01*
X215914285Y-99954819D02*
X215438095Y-99954819D01*
X215438095Y-99954819D02*
X215390476Y-100431009D01*
X215390476Y-100431009D02*
X215438095Y-100383390D01*
X215438095Y-100383390D02*
X215533333Y-100335771D01*
X215533333Y-100335771D02*
X215771428Y-100335771D01*
X215771428Y-100335771D02*
X215866666Y-100383390D01*
X215866666Y-100383390D02*
X215914285Y-100431009D01*
X215914285Y-100431009D02*
X215961904Y-100526247D01*
X215961904Y-100526247D02*
X215961904Y-100764342D01*
X215961904Y-100764342D02*
X215914285Y-100859580D01*
X215914285Y-100859580D02*
X215866666Y-100907200D01*
X215866666Y-100907200D02*
X215771428Y-100954819D01*
X215771428Y-100954819D02*
X215533333Y-100954819D01*
X215533333Y-100954819D02*
X215438095Y-100907200D01*
X215438095Y-100907200D02*
X215390476Y-100859580D01*
X232638095Y-120754819D02*
X232638095Y-121564342D01*
X232638095Y-121564342D02*
X232685714Y-121659580D01*
X232685714Y-121659580D02*
X232733333Y-121707200D01*
X232733333Y-121707200D02*
X232828571Y-121754819D01*
X232828571Y-121754819D02*
X233019047Y-121754819D01*
X233019047Y-121754819D02*
X233114285Y-121707200D01*
X233114285Y-121707200D02*
X233161904Y-121659580D01*
X233161904Y-121659580D02*
X233209523Y-121564342D01*
X233209523Y-121564342D02*
X233209523Y-120754819D01*
X233638095Y-120850057D02*
X233685714Y-120802438D01*
X233685714Y-120802438D02*
X233780952Y-120754819D01*
X233780952Y-120754819D02*
X234019047Y-120754819D01*
X234019047Y-120754819D02*
X234114285Y-120802438D01*
X234114285Y-120802438D02*
X234161904Y-120850057D01*
X234161904Y-120850057D02*
X234209523Y-120945295D01*
X234209523Y-120945295D02*
X234209523Y-121040533D01*
X234209523Y-121040533D02*
X234161904Y-121183390D01*
X234161904Y-121183390D02*
X233590476Y-121754819D01*
X233590476Y-121754819D02*
X234209523Y-121754819D01*
X222457142Y-113659580D02*
X222409523Y-113707200D01*
X222409523Y-113707200D02*
X222266666Y-113754819D01*
X222266666Y-113754819D02*
X222171428Y-113754819D01*
X222171428Y-113754819D02*
X222028571Y-113707200D01*
X222028571Y-113707200D02*
X221933333Y-113611961D01*
X221933333Y-113611961D02*
X221885714Y-113516723D01*
X221885714Y-113516723D02*
X221838095Y-113326247D01*
X221838095Y-113326247D02*
X221838095Y-113183390D01*
X221838095Y-113183390D02*
X221885714Y-112992914D01*
X221885714Y-112992914D02*
X221933333Y-112897676D01*
X221933333Y-112897676D02*
X222028571Y-112802438D01*
X222028571Y-112802438D02*
X222171428Y-112754819D01*
X222171428Y-112754819D02*
X222266666Y-112754819D01*
X222266666Y-112754819D02*
X222409523Y-112802438D01*
X222409523Y-112802438D02*
X222457142Y-112850057D01*
X223409523Y-113754819D02*
X222838095Y-113754819D01*
X223123809Y-113754819D02*
X223123809Y-112754819D01*
X223123809Y-112754819D02*
X223028571Y-112897676D01*
X223028571Y-112897676D02*
X222933333Y-112992914D01*
X222933333Y-112992914D02*
X222838095Y-113040533D01*
X224028571Y-112754819D02*
X224123809Y-112754819D01*
X224123809Y-112754819D02*
X224219047Y-112802438D01*
X224219047Y-112802438D02*
X224266666Y-112850057D01*
X224266666Y-112850057D02*
X224314285Y-112945295D01*
X224314285Y-112945295D02*
X224361904Y-113135771D01*
X224361904Y-113135771D02*
X224361904Y-113373866D01*
X224361904Y-113373866D02*
X224314285Y-113564342D01*
X224314285Y-113564342D02*
X224266666Y-113659580D01*
X224266666Y-113659580D02*
X224219047Y-113707200D01*
X224219047Y-113707200D02*
X224123809Y-113754819D01*
X224123809Y-113754819D02*
X224028571Y-113754819D01*
X224028571Y-113754819D02*
X223933333Y-113707200D01*
X223933333Y-113707200D02*
X223885714Y-113659580D01*
X223885714Y-113659580D02*
X223838095Y-113564342D01*
X223838095Y-113564342D02*
X223790476Y-113373866D01*
X223790476Y-113373866D02*
X223790476Y-113135771D01*
X223790476Y-113135771D02*
X223838095Y-112945295D01*
X223838095Y-112945295D02*
X223885714Y-112850057D01*
X223885714Y-112850057D02*
X223933333Y-112802438D01*
X223933333Y-112802438D02*
X224028571Y-112754819D01*
X200633333Y-113859580D02*
X200585714Y-113907200D01*
X200585714Y-113907200D02*
X200442857Y-113954819D01*
X200442857Y-113954819D02*
X200347619Y-113954819D01*
X200347619Y-113954819D02*
X200204762Y-113907200D01*
X200204762Y-113907200D02*
X200109524Y-113811961D01*
X200109524Y-113811961D02*
X200061905Y-113716723D01*
X200061905Y-113716723D02*
X200014286Y-113526247D01*
X200014286Y-113526247D02*
X200014286Y-113383390D01*
X200014286Y-113383390D02*
X200061905Y-113192914D01*
X200061905Y-113192914D02*
X200109524Y-113097676D01*
X200109524Y-113097676D02*
X200204762Y-113002438D01*
X200204762Y-113002438D02*
X200347619Y-112954819D01*
X200347619Y-112954819D02*
X200442857Y-112954819D01*
X200442857Y-112954819D02*
X200585714Y-113002438D01*
X200585714Y-113002438D02*
X200633333Y-113050057D01*
X201490476Y-113288152D02*
X201490476Y-113954819D01*
X201252381Y-112907200D02*
X201014286Y-113621485D01*
X201014286Y-113621485D02*
X201633333Y-113621485D01*
X194939646Y-139682857D02*
X195646753Y-138975750D01*
X195310035Y-139312468D02*
X195714096Y-139716529D01*
X195343707Y-140086918D02*
X196050814Y-139379811D01*
X196185501Y-140120590D02*
X196151829Y-140019575D01*
X196151829Y-140019575D02*
X196151829Y-139952231D01*
X196151829Y-139952231D02*
X196185501Y-139851216D01*
X196185501Y-139851216D02*
X196219172Y-139817544D01*
X196219172Y-139817544D02*
X196320188Y-139783872D01*
X196320188Y-139783872D02*
X196387531Y-139783872D01*
X196387531Y-139783872D02*
X196488546Y-139817544D01*
X196488546Y-139817544D02*
X196623233Y-139952231D01*
X196623233Y-139952231D02*
X196656905Y-140053246D01*
X196656905Y-140053246D02*
X196656905Y-140120590D01*
X196656905Y-140120590D02*
X196623233Y-140221605D01*
X196623233Y-140221605D02*
X196589562Y-140255277D01*
X196589562Y-140255277D02*
X196488546Y-140288949D01*
X196488546Y-140288949D02*
X196421203Y-140288949D01*
X196421203Y-140288949D02*
X196320188Y-140255277D01*
X196320188Y-140255277D02*
X196185501Y-140120590D01*
X196185501Y-140120590D02*
X196084485Y-140086918D01*
X196084485Y-140086918D02*
X196017142Y-140086918D01*
X196017142Y-140086918D02*
X195916127Y-140120590D01*
X195916127Y-140120590D02*
X195781440Y-140255277D01*
X195781440Y-140255277D02*
X195747768Y-140356292D01*
X195747768Y-140356292D02*
X195747768Y-140423636D01*
X195747768Y-140423636D02*
X195781440Y-140524651D01*
X195781440Y-140524651D02*
X195916127Y-140659338D01*
X195916127Y-140659338D02*
X196017142Y-140693010D01*
X196017142Y-140693010D02*
X196084485Y-140693010D01*
X196084485Y-140693010D02*
X196185501Y-140659338D01*
X196185501Y-140659338D02*
X196320188Y-140524651D01*
X196320188Y-140524651D02*
X196353859Y-140423636D01*
X196353859Y-140423636D02*
X196353859Y-140356292D01*
X196353859Y-140356292D02*
X196320188Y-140255277D01*
X187033333Y-119054819D02*
X186700000Y-118578628D01*
X186461905Y-119054819D02*
X186461905Y-118054819D01*
X186461905Y-118054819D02*
X186842857Y-118054819D01*
X186842857Y-118054819D02*
X186938095Y-118102438D01*
X186938095Y-118102438D02*
X186985714Y-118150057D01*
X186985714Y-118150057D02*
X187033333Y-118245295D01*
X187033333Y-118245295D02*
X187033333Y-118388152D01*
X187033333Y-118388152D02*
X186985714Y-118483390D01*
X186985714Y-118483390D02*
X186938095Y-118531009D01*
X186938095Y-118531009D02*
X186842857Y-118578628D01*
X186842857Y-118578628D02*
X186461905Y-118578628D01*
X187509524Y-119054819D02*
X187700000Y-119054819D01*
X187700000Y-119054819D02*
X187795238Y-119007200D01*
X187795238Y-119007200D02*
X187842857Y-118959580D01*
X187842857Y-118959580D02*
X187938095Y-118816723D01*
X187938095Y-118816723D02*
X187985714Y-118626247D01*
X187985714Y-118626247D02*
X187985714Y-118245295D01*
X187985714Y-118245295D02*
X187938095Y-118150057D01*
X187938095Y-118150057D02*
X187890476Y-118102438D01*
X187890476Y-118102438D02*
X187795238Y-118054819D01*
X187795238Y-118054819D02*
X187604762Y-118054819D01*
X187604762Y-118054819D02*
X187509524Y-118102438D01*
X187509524Y-118102438D02*
X187461905Y-118150057D01*
X187461905Y-118150057D02*
X187414286Y-118245295D01*
X187414286Y-118245295D02*
X187414286Y-118483390D01*
X187414286Y-118483390D02*
X187461905Y-118578628D01*
X187461905Y-118578628D02*
X187509524Y-118626247D01*
X187509524Y-118626247D02*
X187604762Y-118673866D01*
X187604762Y-118673866D02*
X187795238Y-118673866D01*
X187795238Y-118673866D02*
X187890476Y-118626247D01*
X187890476Y-118626247D02*
X187938095Y-118578628D01*
X187938095Y-118578628D02*
X187985714Y-118483390D01*
X215433333Y-125004819D02*
X215100000Y-124528628D01*
X214861905Y-125004819D02*
X214861905Y-124004819D01*
X214861905Y-124004819D02*
X215242857Y-124004819D01*
X215242857Y-124004819D02*
X215338095Y-124052438D01*
X215338095Y-124052438D02*
X215385714Y-124100057D01*
X215385714Y-124100057D02*
X215433333Y-124195295D01*
X215433333Y-124195295D02*
X215433333Y-124338152D01*
X215433333Y-124338152D02*
X215385714Y-124433390D01*
X215385714Y-124433390D02*
X215338095Y-124481009D01*
X215338095Y-124481009D02*
X215242857Y-124528628D01*
X215242857Y-124528628D02*
X214861905Y-124528628D01*
X216385714Y-125004819D02*
X215814286Y-125004819D01*
X216100000Y-125004819D02*
X216100000Y-124004819D01*
X216100000Y-124004819D02*
X216004762Y-124147676D01*
X216004762Y-124147676D02*
X215909524Y-124242914D01*
X215909524Y-124242914D02*
X215814286Y-124290533D01*
X186534405Y-124854819D02*
X186534405Y-125664342D01*
X186534405Y-125664342D02*
X186582024Y-125759580D01*
X186582024Y-125759580D02*
X186629643Y-125807200D01*
X186629643Y-125807200D02*
X186724881Y-125854819D01*
X186724881Y-125854819D02*
X186915357Y-125854819D01*
X186915357Y-125854819D02*
X187010595Y-125807200D01*
X187010595Y-125807200D02*
X187058214Y-125759580D01*
X187058214Y-125759580D02*
X187105833Y-125664342D01*
X187105833Y-125664342D02*
X187105833Y-124854819D01*
X187534405Y-125807200D02*
X187677262Y-125854819D01*
X187677262Y-125854819D02*
X187915357Y-125854819D01*
X187915357Y-125854819D02*
X188010595Y-125807200D01*
X188010595Y-125807200D02*
X188058214Y-125759580D01*
X188058214Y-125759580D02*
X188105833Y-125664342D01*
X188105833Y-125664342D02*
X188105833Y-125569104D01*
X188105833Y-125569104D02*
X188058214Y-125473866D01*
X188058214Y-125473866D02*
X188010595Y-125426247D01*
X188010595Y-125426247D02*
X187915357Y-125378628D01*
X187915357Y-125378628D02*
X187724881Y-125331009D01*
X187724881Y-125331009D02*
X187629643Y-125283390D01*
X187629643Y-125283390D02*
X187582024Y-125235771D01*
X187582024Y-125235771D02*
X187534405Y-125140533D01*
X187534405Y-125140533D02*
X187534405Y-125045295D01*
X187534405Y-125045295D02*
X187582024Y-124950057D01*
X187582024Y-124950057D02*
X187629643Y-124902438D01*
X187629643Y-124902438D02*
X187724881Y-124854819D01*
X187724881Y-124854819D02*
X187962976Y-124854819D01*
X187962976Y-124854819D02*
X188105833Y-124902438D01*
X188867738Y-125331009D02*
X189010595Y-125378628D01*
X189010595Y-125378628D02*
X189058214Y-125426247D01*
X189058214Y-125426247D02*
X189105833Y-125521485D01*
X189105833Y-125521485D02*
X189105833Y-125664342D01*
X189105833Y-125664342D02*
X189058214Y-125759580D01*
X189058214Y-125759580D02*
X189010595Y-125807200D01*
X189010595Y-125807200D02*
X188915357Y-125854819D01*
X188915357Y-125854819D02*
X188534405Y-125854819D01*
X188534405Y-125854819D02*
X188534405Y-124854819D01*
X188534405Y-124854819D02*
X188867738Y-124854819D01*
X188867738Y-124854819D02*
X188962976Y-124902438D01*
X188962976Y-124902438D02*
X189010595Y-124950057D01*
X189010595Y-124950057D02*
X189058214Y-125045295D01*
X189058214Y-125045295D02*
X189058214Y-125140533D01*
X189058214Y-125140533D02*
X189010595Y-125235771D01*
X189010595Y-125235771D02*
X188962976Y-125283390D01*
X188962976Y-125283390D02*
X188867738Y-125331009D01*
X188867738Y-125331009D02*
X188534405Y-125331009D01*
X190105833Y-125759580D02*
X190058214Y-125807200D01*
X190058214Y-125807200D02*
X189915357Y-125854819D01*
X189915357Y-125854819D02*
X189820119Y-125854819D01*
X189820119Y-125854819D02*
X189677262Y-125807200D01*
X189677262Y-125807200D02*
X189582024Y-125711961D01*
X189582024Y-125711961D02*
X189534405Y-125616723D01*
X189534405Y-125616723D02*
X189486786Y-125426247D01*
X189486786Y-125426247D02*
X189486786Y-125283390D01*
X189486786Y-125283390D02*
X189534405Y-125092914D01*
X189534405Y-125092914D02*
X189582024Y-124997676D01*
X189582024Y-124997676D02*
X189677262Y-124902438D01*
X189677262Y-124902438D02*
X189820119Y-124854819D01*
X189820119Y-124854819D02*
X189915357Y-124854819D01*
X189915357Y-124854819D02*
X190058214Y-124902438D01*
X190058214Y-124902438D02*
X190105833Y-124950057D01*
X191058214Y-125854819D02*
X190486786Y-125854819D01*
X190772500Y-125854819D02*
X190772500Y-124854819D01*
X190772500Y-124854819D02*
X190677262Y-124997676D01*
X190677262Y-124997676D02*
X190582024Y-125092914D01*
X190582024Y-125092914D02*
X190486786Y-125140533D01*
X225933333Y-122254819D02*
X225600000Y-121778628D01*
X225361905Y-122254819D02*
X225361905Y-121254819D01*
X225361905Y-121254819D02*
X225742857Y-121254819D01*
X225742857Y-121254819D02*
X225838095Y-121302438D01*
X225838095Y-121302438D02*
X225885714Y-121350057D01*
X225885714Y-121350057D02*
X225933333Y-121445295D01*
X225933333Y-121445295D02*
X225933333Y-121588152D01*
X225933333Y-121588152D02*
X225885714Y-121683390D01*
X225885714Y-121683390D02*
X225838095Y-121731009D01*
X225838095Y-121731009D02*
X225742857Y-121778628D01*
X225742857Y-121778628D02*
X225361905Y-121778628D01*
X226314286Y-121350057D02*
X226361905Y-121302438D01*
X226361905Y-121302438D02*
X226457143Y-121254819D01*
X226457143Y-121254819D02*
X226695238Y-121254819D01*
X226695238Y-121254819D02*
X226790476Y-121302438D01*
X226790476Y-121302438D02*
X226838095Y-121350057D01*
X226838095Y-121350057D02*
X226885714Y-121445295D01*
X226885714Y-121445295D02*
X226885714Y-121540533D01*
X226885714Y-121540533D02*
X226838095Y-121683390D01*
X226838095Y-121683390D02*
X226266667Y-122254819D01*
X226266667Y-122254819D02*
X226885714Y-122254819D01*
X224438095Y-79354819D02*
X224438095Y-80164342D01*
X224438095Y-80164342D02*
X224485714Y-80259580D01*
X224485714Y-80259580D02*
X224533333Y-80307200D01*
X224533333Y-80307200D02*
X224628571Y-80354819D01*
X224628571Y-80354819D02*
X224819047Y-80354819D01*
X224819047Y-80354819D02*
X224914285Y-80307200D01*
X224914285Y-80307200D02*
X224961904Y-80259580D01*
X224961904Y-80259580D02*
X225009523Y-80164342D01*
X225009523Y-80164342D02*
X225009523Y-79354819D01*
X225914285Y-79688152D02*
X225914285Y-80354819D01*
X225676190Y-79307200D02*
X225438095Y-80021485D01*
X225438095Y-80021485D02*
X226057142Y-80021485D01*
X214988094Y-72059104D02*
X215464284Y-72059104D01*
X214892856Y-72344819D02*
X215226189Y-71344819D01*
X215226189Y-71344819D02*
X215559522Y-72344819D01*
X215892856Y-71678152D02*
X215892856Y-72344819D01*
X215892856Y-71773390D02*
X215940475Y-71725771D01*
X215940475Y-71725771D02*
X216035713Y-71678152D01*
X216035713Y-71678152D02*
X216178570Y-71678152D01*
X216178570Y-71678152D02*
X216273808Y-71725771D01*
X216273808Y-71725771D02*
X216321427Y-71821009D01*
X216321427Y-71821009D02*
X216321427Y-72344819D01*
X216654761Y-71678152D02*
X217035713Y-71678152D01*
X216797618Y-71344819D02*
X216797618Y-72201961D01*
X216797618Y-72201961D02*
X216845237Y-72297200D01*
X216845237Y-72297200D02*
X216940475Y-72344819D01*
X216940475Y-72344819D02*
X217035713Y-72344819D01*
X217749999Y-72297200D02*
X217654761Y-72344819D01*
X217654761Y-72344819D02*
X217464285Y-72344819D01*
X217464285Y-72344819D02*
X217369047Y-72297200D01*
X217369047Y-72297200D02*
X217321428Y-72201961D01*
X217321428Y-72201961D02*
X217321428Y-71821009D01*
X217321428Y-71821009D02*
X217369047Y-71725771D01*
X217369047Y-71725771D02*
X217464285Y-71678152D01*
X217464285Y-71678152D02*
X217654761Y-71678152D01*
X217654761Y-71678152D02*
X217749999Y-71725771D01*
X217749999Y-71725771D02*
X217797618Y-71821009D01*
X217797618Y-71821009D02*
X217797618Y-71916247D01*
X217797618Y-71916247D02*
X217321428Y-72011485D01*
X218226190Y-71678152D02*
X218226190Y-72344819D01*
X218226190Y-71773390D02*
X218273809Y-71725771D01*
X218273809Y-71725771D02*
X218369047Y-71678152D01*
X218369047Y-71678152D02*
X218511904Y-71678152D01*
X218511904Y-71678152D02*
X218607142Y-71725771D01*
X218607142Y-71725771D02*
X218654761Y-71821009D01*
X218654761Y-71821009D02*
X218654761Y-72344819D01*
X219130952Y-71678152D02*
X219130952Y-72344819D01*
X219130952Y-71773390D02*
X219178571Y-71725771D01*
X219178571Y-71725771D02*
X219273809Y-71678152D01*
X219273809Y-71678152D02*
X219416666Y-71678152D01*
X219416666Y-71678152D02*
X219511904Y-71725771D01*
X219511904Y-71725771D02*
X219559523Y-71821009D01*
X219559523Y-71821009D02*
X219559523Y-72344819D01*
X220464285Y-72344819D02*
X220464285Y-71821009D01*
X220464285Y-71821009D02*
X220416666Y-71725771D01*
X220416666Y-71725771D02*
X220321428Y-71678152D01*
X220321428Y-71678152D02*
X220130952Y-71678152D01*
X220130952Y-71678152D02*
X220035714Y-71725771D01*
X220464285Y-72297200D02*
X220369047Y-72344819D01*
X220369047Y-72344819D02*
X220130952Y-72344819D01*
X220130952Y-72344819D02*
X220035714Y-72297200D01*
X220035714Y-72297200D02*
X219988095Y-72201961D01*
X219988095Y-72201961D02*
X219988095Y-72106723D01*
X219988095Y-72106723D02*
X220035714Y-72011485D01*
X220035714Y-72011485D02*
X220130952Y-71963866D01*
X220130952Y-71963866D02*
X220369047Y-71963866D01*
X220369047Y-71963866D02*
X220464285Y-71916247D01*
X221654762Y-72059104D02*
X222130952Y-72059104D01*
X221559524Y-72344819D02*
X221892857Y-71344819D01*
X221892857Y-71344819D02*
X222226190Y-72344819D01*
X222559524Y-72344819D02*
X222559524Y-71678152D01*
X222559524Y-71868628D02*
X222607143Y-71773390D01*
X222607143Y-71773390D02*
X222654762Y-71725771D01*
X222654762Y-71725771D02*
X222750000Y-71678152D01*
X222750000Y-71678152D02*
X222845238Y-71678152D01*
X223559524Y-72297200D02*
X223464286Y-72344819D01*
X223464286Y-72344819D02*
X223273810Y-72344819D01*
X223273810Y-72344819D02*
X223178572Y-72297200D01*
X223178572Y-72297200D02*
X223130953Y-72201961D01*
X223130953Y-72201961D02*
X223130953Y-71821009D01*
X223130953Y-71821009D02*
X223178572Y-71725771D01*
X223178572Y-71725771D02*
X223273810Y-71678152D01*
X223273810Y-71678152D02*
X223464286Y-71678152D01*
X223464286Y-71678152D02*
X223559524Y-71725771D01*
X223559524Y-71725771D02*
X223607143Y-71821009D01*
X223607143Y-71821009D02*
X223607143Y-71916247D01*
X223607143Y-71916247D02*
X223130953Y-72011485D01*
X224464286Y-72344819D02*
X224464286Y-71821009D01*
X224464286Y-71821009D02*
X224416667Y-71725771D01*
X224416667Y-71725771D02*
X224321429Y-71678152D01*
X224321429Y-71678152D02*
X224130953Y-71678152D01*
X224130953Y-71678152D02*
X224035715Y-71725771D01*
X224464286Y-72297200D02*
X224369048Y-72344819D01*
X224369048Y-72344819D02*
X224130953Y-72344819D01*
X224130953Y-72344819D02*
X224035715Y-72297200D01*
X224035715Y-72297200D02*
X223988096Y-72201961D01*
X223988096Y-72201961D02*
X223988096Y-72106723D01*
X223988096Y-72106723D02*
X224035715Y-72011485D01*
X224035715Y-72011485D02*
X224130953Y-71963866D01*
X224130953Y-71963866D02*
X224369048Y-71963866D01*
X224369048Y-71963866D02*
X224464286Y-71916247D01*
X199133333Y-77404819D02*
X198800000Y-76928628D01*
X198561905Y-77404819D02*
X198561905Y-76404819D01*
X198561905Y-76404819D02*
X198942857Y-76404819D01*
X198942857Y-76404819D02*
X199038095Y-76452438D01*
X199038095Y-76452438D02*
X199085714Y-76500057D01*
X199085714Y-76500057D02*
X199133333Y-76595295D01*
X199133333Y-76595295D02*
X199133333Y-76738152D01*
X199133333Y-76738152D02*
X199085714Y-76833390D01*
X199085714Y-76833390D02*
X199038095Y-76881009D01*
X199038095Y-76881009D02*
X198942857Y-76928628D01*
X198942857Y-76928628D02*
X198561905Y-76928628D01*
X200038095Y-76404819D02*
X199561905Y-76404819D01*
X199561905Y-76404819D02*
X199514286Y-76881009D01*
X199514286Y-76881009D02*
X199561905Y-76833390D01*
X199561905Y-76833390D02*
X199657143Y-76785771D01*
X199657143Y-76785771D02*
X199895238Y-76785771D01*
X199895238Y-76785771D02*
X199990476Y-76833390D01*
X199990476Y-76833390D02*
X200038095Y-76881009D01*
X200038095Y-76881009D02*
X200085714Y-76976247D01*
X200085714Y-76976247D02*
X200085714Y-77214342D01*
X200085714Y-77214342D02*
X200038095Y-77309580D01*
X200038095Y-77309580D02*
X199990476Y-77357200D01*
X199990476Y-77357200D02*
X199895238Y-77404819D01*
X199895238Y-77404819D02*
X199657143Y-77404819D01*
X199657143Y-77404819D02*
X199561905Y-77357200D01*
X199561905Y-77357200D02*
X199514286Y-77309580D01*
X244961905Y-109954819D02*
X244961905Y-108954819D01*
X244961905Y-108954819D02*
X245200000Y-108954819D01*
X245200000Y-108954819D02*
X245342857Y-109002438D01*
X245342857Y-109002438D02*
X245438095Y-109097676D01*
X245438095Y-109097676D02*
X245485714Y-109192914D01*
X245485714Y-109192914D02*
X245533333Y-109383390D01*
X245533333Y-109383390D02*
X245533333Y-109526247D01*
X245533333Y-109526247D02*
X245485714Y-109716723D01*
X245485714Y-109716723D02*
X245438095Y-109811961D01*
X245438095Y-109811961D02*
X245342857Y-109907200D01*
X245342857Y-109907200D02*
X245200000Y-109954819D01*
X245200000Y-109954819D02*
X244961905Y-109954819D01*
X246438095Y-108954819D02*
X245961905Y-108954819D01*
X245961905Y-108954819D02*
X245914286Y-109431009D01*
X245914286Y-109431009D02*
X245961905Y-109383390D01*
X245961905Y-109383390D02*
X246057143Y-109335771D01*
X246057143Y-109335771D02*
X246295238Y-109335771D01*
X246295238Y-109335771D02*
X246390476Y-109383390D01*
X246390476Y-109383390D02*
X246438095Y-109431009D01*
X246438095Y-109431009D02*
X246485714Y-109526247D01*
X246485714Y-109526247D02*
X246485714Y-109764342D01*
X246485714Y-109764342D02*
X246438095Y-109859580D01*
X246438095Y-109859580D02*
X246390476Y-109907200D01*
X246390476Y-109907200D02*
X246295238Y-109954819D01*
X246295238Y-109954819D02*
X246057143Y-109954819D01*
X246057143Y-109954819D02*
X245961905Y-109907200D01*
X245961905Y-109907200D02*
X245914286Y-109859580D01*
X194461905Y-109654819D02*
X194461905Y-108654819D01*
X194461905Y-108654819D02*
X194700000Y-108654819D01*
X194700000Y-108654819D02*
X194842857Y-108702438D01*
X194842857Y-108702438D02*
X194938095Y-108797676D01*
X194938095Y-108797676D02*
X194985714Y-108892914D01*
X194985714Y-108892914D02*
X195033333Y-109083390D01*
X195033333Y-109083390D02*
X195033333Y-109226247D01*
X195033333Y-109226247D02*
X194985714Y-109416723D01*
X194985714Y-109416723D02*
X194938095Y-109511961D01*
X194938095Y-109511961D02*
X194842857Y-109607200D01*
X194842857Y-109607200D02*
X194700000Y-109654819D01*
X194700000Y-109654819D02*
X194461905Y-109654819D01*
X195890476Y-108988152D02*
X195890476Y-109654819D01*
X195652381Y-108607200D02*
X195414286Y-109321485D01*
X195414286Y-109321485D02*
X196033333Y-109321485D01*
X252309523Y-121759580D02*
X252261904Y-121807200D01*
X252261904Y-121807200D02*
X252119047Y-121854819D01*
X252119047Y-121854819D02*
X252023809Y-121854819D01*
X252023809Y-121854819D02*
X251880952Y-121807200D01*
X251880952Y-121807200D02*
X251785714Y-121711961D01*
X251785714Y-121711961D02*
X251738095Y-121616723D01*
X251738095Y-121616723D02*
X251690476Y-121426247D01*
X251690476Y-121426247D02*
X251690476Y-121283390D01*
X251690476Y-121283390D02*
X251738095Y-121092914D01*
X251738095Y-121092914D02*
X251785714Y-120997676D01*
X251785714Y-120997676D02*
X251880952Y-120902438D01*
X251880952Y-120902438D02*
X252023809Y-120854819D01*
X252023809Y-120854819D02*
X252119047Y-120854819D01*
X252119047Y-120854819D02*
X252261904Y-120902438D01*
X252261904Y-120902438D02*
X252309523Y-120950057D01*
X252738095Y-121854819D02*
X252738095Y-120854819D01*
X252738095Y-120854819D02*
X253309523Y-121854819D01*
X253309523Y-121854819D02*
X253309523Y-120854819D01*
X254309523Y-121854819D02*
X253738095Y-121854819D01*
X254023809Y-121854819D02*
X254023809Y-120854819D01*
X254023809Y-120854819D02*
X253928571Y-120997676D01*
X253928571Y-120997676D02*
X253833333Y-121092914D01*
X253833333Y-121092914D02*
X253738095Y-121140533D01*
X215238095Y-104704819D02*
X215238095Y-105514342D01*
X215238095Y-105514342D02*
X215285714Y-105609580D01*
X215285714Y-105609580D02*
X215333333Y-105657200D01*
X215333333Y-105657200D02*
X215428571Y-105704819D01*
X215428571Y-105704819D02*
X215619047Y-105704819D01*
X215619047Y-105704819D02*
X215714285Y-105657200D01*
X215714285Y-105657200D02*
X215761904Y-105609580D01*
X215761904Y-105609580D02*
X215809523Y-105514342D01*
X215809523Y-105514342D02*
X215809523Y-104704819D01*
X216190476Y-104704819D02*
X216809523Y-104704819D01*
X216809523Y-104704819D02*
X216476190Y-105085771D01*
X216476190Y-105085771D02*
X216619047Y-105085771D01*
X216619047Y-105085771D02*
X216714285Y-105133390D01*
X216714285Y-105133390D02*
X216761904Y-105181009D01*
X216761904Y-105181009D02*
X216809523Y-105276247D01*
X216809523Y-105276247D02*
X216809523Y-105514342D01*
X216809523Y-105514342D02*
X216761904Y-105609580D01*
X216761904Y-105609580D02*
X216714285Y-105657200D01*
X216714285Y-105657200D02*
X216619047Y-105704819D01*
X216619047Y-105704819D02*
X216333333Y-105704819D01*
X216333333Y-105704819D02*
X216238095Y-105657200D01*
X216238095Y-105657200D02*
X216190476Y-105609580D01*
X195866667Y-83507200D02*
X196009524Y-83554819D01*
X196009524Y-83554819D02*
X196247619Y-83554819D01*
X196247619Y-83554819D02*
X196342857Y-83507200D01*
X196342857Y-83507200D02*
X196390476Y-83459580D01*
X196390476Y-83459580D02*
X196438095Y-83364342D01*
X196438095Y-83364342D02*
X196438095Y-83269104D01*
X196438095Y-83269104D02*
X196390476Y-83173866D01*
X196390476Y-83173866D02*
X196342857Y-83126247D01*
X196342857Y-83126247D02*
X196247619Y-83078628D01*
X196247619Y-83078628D02*
X196057143Y-83031009D01*
X196057143Y-83031009D02*
X195961905Y-82983390D01*
X195961905Y-82983390D02*
X195914286Y-82935771D01*
X195914286Y-82935771D02*
X195866667Y-82840533D01*
X195866667Y-82840533D02*
X195866667Y-82745295D01*
X195866667Y-82745295D02*
X195914286Y-82650057D01*
X195914286Y-82650057D02*
X195961905Y-82602438D01*
X195961905Y-82602438D02*
X196057143Y-82554819D01*
X196057143Y-82554819D02*
X196295238Y-82554819D01*
X196295238Y-82554819D02*
X196438095Y-82602438D01*
X196771429Y-82554819D02*
X197009524Y-83554819D01*
X197009524Y-83554819D02*
X197200000Y-82840533D01*
X197200000Y-82840533D02*
X197390476Y-83554819D01*
X197390476Y-83554819D02*
X197628572Y-82554819D01*
X198533333Y-83554819D02*
X197961905Y-83554819D01*
X198247619Y-83554819D02*
X198247619Y-82554819D01*
X198247619Y-82554819D02*
X198152381Y-82697676D01*
X198152381Y-82697676D02*
X198057143Y-82792914D01*
X198057143Y-82792914D02*
X197961905Y-82840533D01*
X239466667Y-104207200D02*
X239609524Y-104254819D01*
X239609524Y-104254819D02*
X239847619Y-104254819D01*
X239847619Y-104254819D02*
X239942857Y-104207200D01*
X239942857Y-104207200D02*
X239990476Y-104159580D01*
X239990476Y-104159580D02*
X240038095Y-104064342D01*
X240038095Y-104064342D02*
X240038095Y-103969104D01*
X240038095Y-103969104D02*
X239990476Y-103873866D01*
X239990476Y-103873866D02*
X239942857Y-103826247D01*
X239942857Y-103826247D02*
X239847619Y-103778628D01*
X239847619Y-103778628D02*
X239657143Y-103731009D01*
X239657143Y-103731009D02*
X239561905Y-103683390D01*
X239561905Y-103683390D02*
X239514286Y-103635771D01*
X239514286Y-103635771D02*
X239466667Y-103540533D01*
X239466667Y-103540533D02*
X239466667Y-103445295D01*
X239466667Y-103445295D02*
X239514286Y-103350057D01*
X239514286Y-103350057D02*
X239561905Y-103302438D01*
X239561905Y-103302438D02*
X239657143Y-103254819D01*
X239657143Y-103254819D02*
X239895238Y-103254819D01*
X239895238Y-103254819D02*
X240038095Y-103302438D01*
X240371429Y-103254819D02*
X240609524Y-104254819D01*
X240609524Y-104254819D02*
X240800000Y-103540533D01*
X240800000Y-103540533D02*
X240990476Y-104254819D01*
X240990476Y-104254819D02*
X241228572Y-103254819D01*
X241561905Y-103350057D02*
X241609524Y-103302438D01*
X241609524Y-103302438D02*
X241704762Y-103254819D01*
X241704762Y-103254819D02*
X241942857Y-103254819D01*
X241942857Y-103254819D02*
X242038095Y-103302438D01*
X242038095Y-103302438D02*
X242085714Y-103350057D01*
X242085714Y-103350057D02*
X242133333Y-103445295D01*
X242133333Y-103445295D02*
X242133333Y-103540533D01*
X242133333Y-103540533D02*
X242085714Y-103683390D01*
X242085714Y-103683390D02*
X241514286Y-104254819D01*
X241514286Y-104254819D02*
X242133333Y-104254819D01*
X186782857Y-83360353D02*
X186075750Y-82653246D01*
X186412468Y-82989964D02*
X186816529Y-82585903D01*
X187186918Y-82956292D02*
X186479811Y-82249185D01*
X187119575Y-81609422D02*
X186984888Y-81744109D01*
X186984888Y-81744109D02*
X186951216Y-81845124D01*
X186951216Y-81845124D02*
X186951216Y-81912468D01*
X186951216Y-81912468D02*
X186984888Y-82080827D01*
X186984888Y-82080827D02*
X187085903Y-82249185D01*
X187085903Y-82249185D02*
X187355277Y-82518559D01*
X187355277Y-82518559D02*
X187456292Y-82552231D01*
X187456292Y-82552231D02*
X187523636Y-82552231D01*
X187523636Y-82552231D02*
X187624651Y-82518559D01*
X187624651Y-82518559D02*
X187759338Y-82383872D01*
X187759338Y-82383872D02*
X187793010Y-82282857D01*
X187793010Y-82282857D02*
X187793010Y-82215514D01*
X187793010Y-82215514D02*
X187759338Y-82114498D01*
X187759338Y-82114498D02*
X187590979Y-81946140D01*
X187590979Y-81946140D02*
X187489964Y-81912468D01*
X187489964Y-81912468D02*
X187422620Y-81912468D01*
X187422620Y-81912468D02*
X187321605Y-81946140D01*
X187321605Y-81946140D02*
X187186918Y-82080827D01*
X187186918Y-82080827D02*
X187153246Y-82181842D01*
X187153246Y-82181842D02*
X187153246Y-82249185D01*
X187153246Y-82249185D02*
X187186918Y-82350201D01*
X234238095Y-137454819D02*
X234238095Y-136454819D01*
X234238095Y-136931009D02*
X234809523Y-136931009D01*
X234809523Y-137454819D02*
X234809523Y-136454819D01*
X235809523Y-137454819D02*
X235238095Y-137454819D01*
X235523809Y-137454819D02*
X235523809Y-136454819D01*
X235523809Y-136454819D02*
X235428571Y-136597676D01*
X235428571Y-136597676D02*
X235333333Y-136692914D01*
X235333333Y-136692914D02*
X235238095Y-136740533D01*
X200633333Y-116759580D02*
X200585714Y-116807200D01*
X200585714Y-116807200D02*
X200442857Y-116854819D01*
X200442857Y-116854819D02*
X200347619Y-116854819D01*
X200347619Y-116854819D02*
X200204762Y-116807200D01*
X200204762Y-116807200D02*
X200109524Y-116711961D01*
X200109524Y-116711961D02*
X200061905Y-116616723D01*
X200061905Y-116616723D02*
X200014286Y-116426247D01*
X200014286Y-116426247D02*
X200014286Y-116283390D01*
X200014286Y-116283390D02*
X200061905Y-116092914D01*
X200061905Y-116092914D02*
X200109524Y-115997676D01*
X200109524Y-115997676D02*
X200204762Y-115902438D01*
X200204762Y-115902438D02*
X200347619Y-115854819D01*
X200347619Y-115854819D02*
X200442857Y-115854819D01*
X200442857Y-115854819D02*
X200585714Y-115902438D01*
X200585714Y-115902438D02*
X200633333Y-115950057D01*
X200966667Y-115854819D02*
X201585714Y-115854819D01*
X201585714Y-115854819D02*
X201252381Y-116235771D01*
X201252381Y-116235771D02*
X201395238Y-116235771D01*
X201395238Y-116235771D02*
X201490476Y-116283390D01*
X201490476Y-116283390D02*
X201538095Y-116331009D01*
X201538095Y-116331009D02*
X201585714Y-116426247D01*
X201585714Y-116426247D02*
X201585714Y-116664342D01*
X201585714Y-116664342D02*
X201538095Y-116759580D01*
X201538095Y-116759580D02*
X201490476Y-116807200D01*
X201490476Y-116807200D02*
X201395238Y-116854819D01*
X201395238Y-116854819D02*
X201109524Y-116854819D01*
X201109524Y-116854819D02*
X201014286Y-116807200D01*
X201014286Y-116807200D02*
X200966667Y-116759580D01*
X243139646Y-80182857D02*
X243846753Y-79475750D01*
X243510035Y-79812468D02*
X243914096Y-80216529D01*
X243543707Y-80586918D02*
X244250814Y-79879811D01*
X244924249Y-80553246D02*
X244587531Y-80216529D01*
X244587531Y-80216529D02*
X244217142Y-80519575D01*
X244217142Y-80519575D02*
X244284485Y-80519575D01*
X244284485Y-80519575D02*
X244385501Y-80553246D01*
X244385501Y-80553246D02*
X244553859Y-80721605D01*
X244553859Y-80721605D02*
X244587531Y-80822620D01*
X244587531Y-80822620D02*
X244587531Y-80889964D01*
X244587531Y-80889964D02*
X244553859Y-80990979D01*
X244553859Y-80990979D02*
X244385501Y-81159338D01*
X244385501Y-81159338D02*
X244284485Y-81193010D01*
X244284485Y-81193010D02*
X244217142Y-81193010D01*
X244217142Y-81193010D02*
X244116127Y-81159338D01*
X244116127Y-81159338D02*
X243947768Y-80990979D01*
X243947768Y-80990979D02*
X243914096Y-80889964D01*
X243914096Y-80889964D02*
X243914096Y-80822620D01*
X219338095Y-126754819D02*
X219338095Y-127564342D01*
X219338095Y-127564342D02*
X219385714Y-127659580D01*
X219385714Y-127659580D02*
X219433333Y-127707200D01*
X219433333Y-127707200D02*
X219528571Y-127754819D01*
X219528571Y-127754819D02*
X219719047Y-127754819D01*
X219719047Y-127754819D02*
X219814285Y-127707200D01*
X219814285Y-127707200D02*
X219861904Y-127659580D01*
X219861904Y-127659580D02*
X219909523Y-127564342D01*
X219909523Y-127564342D02*
X219909523Y-126754819D01*
X220861904Y-126754819D02*
X220385714Y-126754819D01*
X220385714Y-126754819D02*
X220338095Y-127231009D01*
X220338095Y-127231009D02*
X220385714Y-127183390D01*
X220385714Y-127183390D02*
X220480952Y-127135771D01*
X220480952Y-127135771D02*
X220719047Y-127135771D01*
X220719047Y-127135771D02*
X220814285Y-127183390D01*
X220814285Y-127183390D02*
X220861904Y-127231009D01*
X220861904Y-127231009D02*
X220909523Y-127326247D01*
X220909523Y-127326247D02*
X220909523Y-127564342D01*
X220909523Y-127564342D02*
X220861904Y-127659580D01*
X220861904Y-127659580D02*
X220814285Y-127707200D01*
X220814285Y-127707200D02*
X220719047Y-127754819D01*
X220719047Y-127754819D02*
X220480952Y-127754819D01*
X220480952Y-127754819D02*
X220385714Y-127707200D01*
X220385714Y-127707200D02*
X220338095Y-127659580D01*
X223133333Y-129254819D02*
X222800000Y-128778628D01*
X222561905Y-129254819D02*
X222561905Y-128254819D01*
X222561905Y-128254819D02*
X222942857Y-128254819D01*
X222942857Y-128254819D02*
X223038095Y-128302438D01*
X223038095Y-128302438D02*
X223085714Y-128350057D01*
X223085714Y-128350057D02*
X223133333Y-128445295D01*
X223133333Y-128445295D02*
X223133333Y-128588152D01*
X223133333Y-128588152D02*
X223085714Y-128683390D01*
X223085714Y-128683390D02*
X223038095Y-128731009D01*
X223038095Y-128731009D02*
X222942857Y-128778628D01*
X222942857Y-128778628D02*
X222561905Y-128778628D01*
X223990476Y-128588152D02*
X223990476Y-129254819D01*
X223752381Y-128207200D02*
X223514286Y-128921485D01*
X223514286Y-128921485D02*
X224133333Y-128921485D01*
X200613333Y-119659580D02*
X200565714Y-119707200D01*
X200565714Y-119707200D02*
X200422857Y-119754819D01*
X200422857Y-119754819D02*
X200327619Y-119754819D01*
X200327619Y-119754819D02*
X200184762Y-119707200D01*
X200184762Y-119707200D02*
X200089524Y-119611961D01*
X200089524Y-119611961D02*
X200041905Y-119516723D01*
X200041905Y-119516723D02*
X199994286Y-119326247D01*
X199994286Y-119326247D02*
X199994286Y-119183390D01*
X199994286Y-119183390D02*
X200041905Y-118992914D01*
X200041905Y-118992914D02*
X200089524Y-118897676D01*
X200089524Y-118897676D02*
X200184762Y-118802438D01*
X200184762Y-118802438D02*
X200327619Y-118754819D01*
X200327619Y-118754819D02*
X200422857Y-118754819D01*
X200422857Y-118754819D02*
X200565714Y-118802438D01*
X200565714Y-118802438D02*
X200613333Y-118850057D01*
X200994286Y-118850057D02*
X201041905Y-118802438D01*
X201041905Y-118802438D02*
X201137143Y-118754819D01*
X201137143Y-118754819D02*
X201375238Y-118754819D01*
X201375238Y-118754819D02*
X201470476Y-118802438D01*
X201470476Y-118802438D02*
X201518095Y-118850057D01*
X201518095Y-118850057D02*
X201565714Y-118945295D01*
X201565714Y-118945295D02*
X201565714Y-119040533D01*
X201565714Y-119040533D02*
X201518095Y-119183390D01*
X201518095Y-119183390D02*
X200946667Y-119754819D01*
X200946667Y-119754819D02*
X201565714Y-119754819D01*
X242033333Y-114559580D02*
X241985714Y-114607200D01*
X241985714Y-114607200D02*
X241842857Y-114654819D01*
X241842857Y-114654819D02*
X241747619Y-114654819D01*
X241747619Y-114654819D02*
X241604762Y-114607200D01*
X241604762Y-114607200D02*
X241509524Y-114511961D01*
X241509524Y-114511961D02*
X241461905Y-114416723D01*
X241461905Y-114416723D02*
X241414286Y-114226247D01*
X241414286Y-114226247D02*
X241414286Y-114083390D01*
X241414286Y-114083390D02*
X241461905Y-113892914D01*
X241461905Y-113892914D02*
X241509524Y-113797676D01*
X241509524Y-113797676D02*
X241604762Y-113702438D01*
X241604762Y-113702438D02*
X241747619Y-113654819D01*
X241747619Y-113654819D02*
X241842857Y-113654819D01*
X241842857Y-113654819D02*
X241985714Y-113702438D01*
X241985714Y-113702438D02*
X242033333Y-113750057D01*
X242604762Y-114083390D02*
X242509524Y-114035771D01*
X242509524Y-114035771D02*
X242461905Y-113988152D01*
X242461905Y-113988152D02*
X242414286Y-113892914D01*
X242414286Y-113892914D02*
X242414286Y-113845295D01*
X242414286Y-113845295D02*
X242461905Y-113750057D01*
X242461905Y-113750057D02*
X242509524Y-113702438D01*
X242509524Y-113702438D02*
X242604762Y-113654819D01*
X242604762Y-113654819D02*
X242795238Y-113654819D01*
X242795238Y-113654819D02*
X242890476Y-113702438D01*
X242890476Y-113702438D02*
X242938095Y-113750057D01*
X242938095Y-113750057D02*
X242985714Y-113845295D01*
X242985714Y-113845295D02*
X242985714Y-113892914D01*
X242985714Y-113892914D02*
X242938095Y-113988152D01*
X242938095Y-113988152D02*
X242890476Y-114035771D01*
X242890476Y-114035771D02*
X242795238Y-114083390D01*
X242795238Y-114083390D02*
X242604762Y-114083390D01*
X242604762Y-114083390D02*
X242509524Y-114131009D01*
X242509524Y-114131009D02*
X242461905Y-114178628D01*
X242461905Y-114178628D02*
X242414286Y-114273866D01*
X242414286Y-114273866D02*
X242414286Y-114464342D01*
X242414286Y-114464342D02*
X242461905Y-114559580D01*
X242461905Y-114559580D02*
X242509524Y-114607200D01*
X242509524Y-114607200D02*
X242604762Y-114654819D01*
X242604762Y-114654819D02*
X242795238Y-114654819D01*
X242795238Y-114654819D02*
X242890476Y-114607200D01*
X242890476Y-114607200D02*
X242938095Y-114559580D01*
X242938095Y-114559580D02*
X242985714Y-114464342D01*
X242985714Y-114464342D02*
X242985714Y-114273866D01*
X242985714Y-114273866D02*
X242938095Y-114178628D01*
X242938095Y-114178628D02*
X242890476Y-114131009D01*
X242890476Y-114131009D02*
X242795238Y-114083390D01*
X249482857Y-135060353D02*
X248775750Y-134353246D01*
X249112468Y-134689964D02*
X249516529Y-134285903D01*
X249886918Y-134656292D02*
X249179811Y-133949185D01*
X249449185Y-133679811D02*
X249920590Y-133208407D01*
X249920590Y-133208407D02*
X250324651Y-134218559D01*
X230607142Y-104859580D02*
X230559523Y-104907200D01*
X230559523Y-104907200D02*
X230416666Y-104954819D01*
X230416666Y-104954819D02*
X230321428Y-104954819D01*
X230321428Y-104954819D02*
X230178571Y-104907200D01*
X230178571Y-104907200D02*
X230083333Y-104811961D01*
X230083333Y-104811961D02*
X230035714Y-104716723D01*
X230035714Y-104716723D02*
X229988095Y-104526247D01*
X229988095Y-104526247D02*
X229988095Y-104383390D01*
X229988095Y-104383390D02*
X230035714Y-104192914D01*
X230035714Y-104192914D02*
X230083333Y-104097676D01*
X230083333Y-104097676D02*
X230178571Y-104002438D01*
X230178571Y-104002438D02*
X230321428Y-103954819D01*
X230321428Y-103954819D02*
X230416666Y-103954819D01*
X230416666Y-103954819D02*
X230559523Y-104002438D01*
X230559523Y-104002438D02*
X230607142Y-104050057D01*
X231559523Y-104954819D02*
X230988095Y-104954819D01*
X231273809Y-104954819D02*
X231273809Y-103954819D01*
X231273809Y-103954819D02*
X231178571Y-104097676D01*
X231178571Y-104097676D02*
X231083333Y-104192914D01*
X231083333Y-104192914D02*
X230988095Y-104240533D01*
X231940476Y-104050057D02*
X231988095Y-104002438D01*
X231988095Y-104002438D02*
X232083333Y-103954819D01*
X232083333Y-103954819D02*
X232321428Y-103954819D01*
X232321428Y-103954819D02*
X232416666Y-104002438D01*
X232416666Y-104002438D02*
X232464285Y-104050057D01*
X232464285Y-104050057D02*
X232511904Y-104145295D01*
X232511904Y-104145295D02*
X232511904Y-104240533D01*
X232511904Y-104240533D02*
X232464285Y-104383390D01*
X232464285Y-104383390D02*
X231892857Y-104954819D01*
X231892857Y-104954819D02*
X232511904Y-104954819D01*
%TO.C,C6*%
X235050000Y-118460000D02*
X235050000Y-120340000D01*
X235200000Y-120490000D02*
X236680000Y-120490000D01*
X236680000Y-118310000D02*
X235200000Y-118310000D01*
X238540000Y-118310000D02*
X240020000Y-118310000D01*
X240020000Y-120490000D02*
X238540000Y-120490000D01*
X240170000Y-118460000D02*
X240170000Y-120340000D01*
X235050000Y-118460000D02*
G75*
G02*
X235200000Y-118310000I150000J0D01*
G01*
X235200000Y-120490000D02*
G75*
G02*
X235050000Y-120340000I0J150000D01*
G01*
X240020000Y-118310000D02*
G75*
G02*
X240170000Y-118460000I0J-150000D01*
G01*
X240170000Y-120340000D02*
G75*
G02*
X240020000Y-120490000I-150000J0D01*
G01*
%TO.C,C13*%
X211030000Y-108060000D02*
X211030000Y-109940000D01*
X211180000Y-110090000D02*
X212660000Y-110090000D01*
X212660000Y-107910000D02*
X211180000Y-107910000D01*
X214520000Y-107910000D02*
X216000000Y-107910000D01*
X216000000Y-110090000D02*
X214520000Y-110090000D01*
X216150000Y-108060000D02*
X216150000Y-109940000D01*
X211030000Y-108060000D02*
G75*
G02*
X211180000Y-107910000I150000J0D01*
G01*
X211180000Y-110090000D02*
G75*
G02*
X211030000Y-109940000I0J150000D01*
G01*
X216000000Y-107910000D02*
G75*
G02*
X216150000Y-108060000I0J-150000D01*
G01*
X216150000Y-109940000D02*
G75*
G02*
X216000000Y-110090000I-150000J0D01*
G01*
D11*
%TO.C,H4*%
X207170000Y-140230000D02*
X207170000Y-142770000D01*
X207170000Y-142770000D02*
X233020000Y-142770000D01*
X209900000Y-140230000D02*
X209900000Y-142770000D01*
X232970000Y-140230000D02*
X207170000Y-140230000D01*
X232970000Y-140230000D02*
X232970000Y-142770000D01*
D10*
%TO.C,C7*%
X235050000Y-115560000D02*
X235050000Y-117440000D01*
X235200000Y-117590000D02*
X236680000Y-117590000D01*
X236680000Y-115410000D02*
X235200000Y-115410000D01*
X238540000Y-115410000D02*
X240020000Y-115410000D01*
X240020000Y-117590000D02*
X238540000Y-117590000D01*
X240170000Y-115560000D02*
X240170000Y-117440000D01*
X235050000Y-115560000D02*
G75*
G02*
X235200000Y-115410000I150000J0D01*
G01*
X235200000Y-117590000D02*
G75*
G02*
X235050000Y-117440000I0J150000D01*
G01*
X240020000Y-115410000D02*
G75*
G02*
X240170000Y-115560000I0J-150000D01*
G01*
X240170000Y-117440000D02*
G75*
G02*
X240020000Y-117590000I-150000J0D01*
G01*
D11*
%TO.C,H2*%
X250230000Y-90250000D02*
X250230000Y-116050000D01*
X250230000Y-90250000D02*
X252770000Y-90250000D01*
X250230000Y-113320000D02*
X252770000Y-113320000D01*
X250230000Y-116050000D02*
X252770000Y-116050000D01*
X252770000Y-116050000D02*
X252770000Y-90200000D01*
D10*
%TO.C,R6*%
X192340000Y-116420000D02*
X193660000Y-116420000D01*
X192340000Y-117380000D02*
X192340000Y-116420000D01*
X192340000Y-118240000D02*
X192340000Y-119200000D01*
X192340000Y-119200000D02*
X193660000Y-119200000D01*
X193660000Y-116420000D02*
X193660000Y-117380000D01*
X193660000Y-119200000D02*
X193660000Y-118240000D01*
%TO.C,C9*%
X216100000Y-114230000D02*
X216100000Y-115710000D01*
X216100000Y-119050000D02*
X216100000Y-117570000D01*
X218130000Y-114080000D02*
X216250000Y-114080000D01*
X218130000Y-119200000D02*
X216250000Y-119200000D01*
X218280000Y-115710000D02*
X218280000Y-114230000D01*
X218280000Y-117570000D02*
X218280000Y-119050000D01*
X216100000Y-114230000D02*
G75*
G02*
X216250000Y-114080000I150000J0D01*
G01*
X216250000Y-119200000D02*
G75*
G02*
X216100000Y-119050000I0J150000D01*
G01*
X218130000Y-114080000D02*
G75*
G02*
X218280000Y-114230000I0J-150000D01*
G01*
X218280000Y-119050000D02*
G75*
G02*
X218130000Y-119200000I-150000J0D01*
G01*
D12*
%TO.C,U1*%
X201550000Y-121790000D02*
X205310000Y-121790000D01*
X201550000Y-128610000D02*
X205310000Y-128610000D01*
X205310000Y-121790000D02*
X205310000Y-123050000D01*
X205310000Y-128610000D02*
X205310000Y-127350000D01*
X200270000Y-121890000D02*
X200030000Y-121560000D01*
X200510000Y-121560000D01*
X200270000Y-121890000D01*
G36*
X200270000Y-121890000D02*
G01*
X200030000Y-121560000D01*
X200510000Y-121560000D01*
X200270000Y-121890000D01*
G37*
D11*
%TO.C,H3*%
X187330000Y-90290000D02*
X187330000Y-116090000D01*
X187330000Y-90290000D02*
X189870000Y-90290000D01*
X187330000Y-113360000D02*
X189870000Y-113360000D01*
X187330000Y-116090000D02*
X189870000Y-116090000D01*
X189870000Y-116090000D02*
X189870000Y-90240000D01*
D10*
%TO.C,C11*%
X202810000Y-82160000D02*
X202810000Y-80680000D01*
X202810000Y-84020000D02*
X202810000Y-85500000D01*
X202960000Y-80530000D02*
X204840000Y-80530000D01*
X202960000Y-85650000D02*
X204840000Y-85650000D01*
X204990000Y-80680000D02*
X204990000Y-82160000D01*
X204990000Y-85500000D02*
X204990000Y-84020000D01*
X202810000Y-80680000D02*
G75*
G02*
X202960000Y-80530000I150000J0D01*
G01*
X202960000Y-85650000D02*
G75*
G02*
X202810000Y-85500000I0J150000D01*
G01*
X204840000Y-80530000D02*
G75*
G02*
X204990000Y-80680000I0J-150000D01*
G01*
X204990000Y-85500000D02*
G75*
G02*
X204840000Y-85650000I-150000J0D01*
G01*
%TO.C,C1*%
X196250000Y-132440000D02*
X196250000Y-130560000D01*
X196400000Y-130410000D02*
X197880000Y-130410000D01*
X197880000Y-132590000D02*
X196400000Y-132590000D01*
X199740000Y-132590000D02*
X201220000Y-132590000D01*
X201220000Y-130410000D02*
X199740000Y-130410000D01*
X201370000Y-132440000D02*
X201370000Y-130560000D01*
X196250000Y-130560000D02*
G75*
G02*
X196400000Y-130410000I150000J0D01*
G01*
X196400000Y-132590000D02*
G75*
G02*
X196250000Y-132440000I0J150000D01*
G01*
X201220000Y-130410000D02*
G75*
G02*
X201370000Y-130560000I0J-150000D01*
G01*
X201370000Y-132440000D02*
G75*
G02*
X201220000Y-132590000I-150000J0D01*
G01*
%TO.C,R7*%
X247440000Y-116410000D02*
X247440000Y-117370000D01*
X247440000Y-119190000D02*
X247440000Y-118230000D01*
X248760000Y-116410000D02*
X247440000Y-116410000D01*
X248760000Y-117370000D02*
X248760000Y-116410000D01*
X248760000Y-118230000D02*
X248760000Y-119190000D01*
X248760000Y-119190000D02*
X247440000Y-119190000D01*
%TO.C,R3*%
X224460000Y-125640000D02*
X225420000Y-125640000D01*
X224460000Y-126960000D02*
X224460000Y-125640000D01*
X225420000Y-126960000D02*
X224460000Y-126960000D01*
X226280000Y-126960000D02*
X227240000Y-126960000D01*
X227240000Y-125640000D02*
X226280000Y-125640000D01*
X227240000Y-126960000D02*
X227240000Y-125640000D01*
%TO.C,R8*%
X222960000Y-96640000D02*
X223920000Y-96640000D01*
X222960000Y-97960000D02*
X222960000Y-96640000D01*
X223920000Y-97960000D02*
X222960000Y-97960000D01*
X224780000Y-97960000D02*
X225740000Y-97960000D01*
X225740000Y-96640000D02*
X224780000Y-96640000D01*
X225740000Y-97960000D02*
X225740000Y-96640000D01*
%TO.C,C14*%
X224530000Y-109940000D02*
X224530000Y-108060000D01*
X224680000Y-107910000D02*
X226160000Y-107910000D01*
X226160000Y-110090000D02*
X224680000Y-110090000D01*
X228020000Y-110090000D02*
X229500000Y-110090000D01*
X229500000Y-107910000D02*
X228020000Y-107910000D01*
X229650000Y-109940000D02*
X229650000Y-108060000D01*
X224530000Y-108060000D02*
G75*
G02*
X224680000Y-107910000I150000J0D01*
G01*
X224680000Y-110090000D02*
G75*
G02*
X224530000Y-109940000I0J150000D01*
G01*
X229500000Y-107910000D02*
G75*
G02*
X229650000Y-108060000I0J-150000D01*
G01*
X229650000Y-109940000D02*
G75*
G02*
X229500000Y-110090000I-150000J0D01*
G01*
%TO.C,D6*%
X222410000Y-98460000D02*
X227360000Y-98460000D01*
X222410000Y-100570000D02*
X222410000Y-98460000D01*
X227370000Y-100570000D02*
X222410000Y-100570000D01*
X227570000Y-98670000D02*
X227360000Y-98460000D01*
X227570000Y-100290000D02*
X227570000Y-98670000D01*
X227570000Y-100290000D02*
X227570000Y-100370000D01*
X227570000Y-100370000D02*
X227370000Y-100570000D01*
%TO.C,R10*%
X188460000Y-131640000D02*
X189420000Y-131640000D01*
X188460000Y-132960000D02*
X188460000Y-131640000D01*
X189420000Y-132960000D02*
X188460000Y-132960000D01*
X190280000Y-132960000D02*
X191240000Y-132960000D01*
X191240000Y-131640000D02*
X190280000Y-131640000D01*
X191240000Y-132960000D02*
X191240000Y-131640000D01*
%TO.C,C5*%
X241750000Y-130160000D02*
X241750000Y-132040000D01*
X241900000Y-132190000D02*
X243380000Y-132190000D01*
X243380000Y-130010000D02*
X241900000Y-130010000D01*
X245240000Y-130010000D02*
X246720000Y-130010000D01*
X246720000Y-132190000D02*
X245240000Y-132190000D01*
X246870000Y-130160000D02*
X246870000Y-132040000D01*
X241750000Y-130160000D02*
G75*
G02*
X241900000Y-130010000I150000J0D01*
G01*
X241900000Y-132190000D02*
G75*
G02*
X241750000Y-132040000I0J150000D01*
G01*
X246720000Y-130010000D02*
G75*
G02*
X246870000Y-130160000I0J-150000D01*
G01*
X246870000Y-132040000D02*
G75*
G02*
X246720000Y-132190000I-150000J0D01*
G01*
%TO.C,C15*%
X216280000Y-101310000D02*
X216280000Y-103190000D01*
X216430000Y-103340000D02*
X217910000Y-103340000D01*
X217910000Y-101160000D02*
X216430000Y-101160000D01*
X219770000Y-101160000D02*
X221250000Y-101160000D01*
X221250000Y-103340000D02*
X219770000Y-103340000D01*
X221400000Y-101310000D02*
X221400000Y-103190000D01*
X216280000Y-101310000D02*
G75*
G02*
X216430000Y-101160000I150000J0D01*
G01*
X216430000Y-103340000D02*
G75*
G02*
X216280000Y-103190000I0J150000D01*
G01*
X221250000Y-101160000D02*
G75*
G02*
X221400000Y-101310000I0J-150000D01*
G01*
X221400000Y-103190000D02*
G75*
G02*
X221250000Y-103340000I-150000J0D01*
G01*
D12*
%TO.C,U2*%
X237590000Y-122090000D02*
X237590000Y-123350000D01*
X237590000Y-128910000D02*
X237590000Y-127650000D01*
X241350000Y-122090000D02*
X237590000Y-122090000D01*
X241350000Y-128910000D02*
X237590000Y-128910000D01*
X242870000Y-129140000D02*
X242390000Y-129140000D01*
X242630000Y-128810000D01*
X242870000Y-129140000D01*
G36*
X242870000Y-129140000D02*
G01*
X242390000Y-129140000D01*
X242630000Y-128810000D01*
X242870000Y-129140000D01*
G37*
D10*
%TO.C,C10*%
X222010000Y-114300000D02*
X222010000Y-115780000D01*
X222010000Y-119120000D02*
X222010000Y-117640000D01*
X224040000Y-114150000D02*
X222160000Y-114150000D01*
X224040000Y-119270000D02*
X222160000Y-119270000D01*
X224190000Y-115780000D02*
X224190000Y-114300000D01*
X224190000Y-117640000D02*
X224190000Y-119120000D01*
X222010000Y-114300000D02*
G75*
G02*
X222160000Y-114150000I150000J0D01*
G01*
X222160000Y-119270000D02*
G75*
G02*
X222010000Y-119120000I0J150000D01*
G01*
X224040000Y-114150000D02*
G75*
G02*
X224190000Y-114300000I0J-150000D01*
G01*
X224190000Y-119120000D02*
G75*
G02*
X224040000Y-119270000I-150000J0D01*
G01*
%TO.C,C4*%
X202650000Y-114440000D02*
X202650000Y-112560000D01*
X202800000Y-112410000D02*
X204280000Y-112410000D01*
X204280000Y-114590000D02*
X202800000Y-114590000D01*
X206140000Y-114590000D02*
X207620000Y-114590000D01*
X207620000Y-112410000D02*
X206140000Y-112410000D01*
X207770000Y-114440000D02*
X207770000Y-112560000D01*
X202650000Y-112560000D02*
G75*
G02*
X202800000Y-112410000I150000J0D01*
G01*
X202800000Y-114590000D02*
G75*
G02*
X202650000Y-114440000I0J150000D01*
G01*
X207620000Y-112410000D02*
G75*
G02*
X207770000Y-112560000I0J-150000D01*
G01*
X207770000Y-114440000D02*
G75*
G02*
X207620000Y-114590000I-150000J0D01*
G01*
D11*
%TO.C,H8*%
X186911846Y-136007897D02*
X188707897Y-134211846D01*
X188707897Y-134211846D02*
X190518091Y-136022039D01*
X190518091Y-136022039D02*
X188722039Y-137818091D01*
X190518091Y-136022039D02*
X195892102Y-141396051D01*
X194096051Y-143192102D02*
X186911846Y-136007897D01*
X195892102Y-141396051D02*
X194096051Y-143192102D01*
D10*
%TO.C,R9*%
X188460000Y-117840000D02*
X189420000Y-117840000D01*
X188460000Y-119160000D02*
X188460000Y-117840000D01*
X189420000Y-119160000D02*
X188460000Y-119160000D01*
X190280000Y-119160000D02*
X191240000Y-119160000D01*
X191240000Y-117840000D02*
X190280000Y-117840000D01*
X191240000Y-119160000D02*
X191240000Y-117840000D01*
%TO.C,R1*%
X216690000Y-123160000D02*
X216690000Y-124120000D01*
X216690000Y-125940000D02*
X216690000Y-124980000D01*
X218010000Y-123160000D02*
X216690000Y-123160000D01*
X218010000Y-124120000D02*
X218010000Y-123160000D01*
X218010000Y-124980000D02*
X218010000Y-125940000D01*
X218010000Y-125940000D02*
X216690000Y-125940000D01*
D11*
%TO.C,USBC1*%
X185200000Y-120930000D02*
X186680000Y-120930000D01*
X185200000Y-129870000D02*
X185200000Y-120930000D01*
X185200000Y-129870000D02*
X186680000Y-129870000D01*
X188920000Y-120930000D02*
X190780000Y-120930000D01*
X188920000Y-129870000D02*
X190780000Y-129870000D01*
D10*
%TO.C,R2*%
X224340000Y-122880000D02*
X225620000Y-122880000D01*
X224340000Y-124720000D02*
X224340000Y-122880000D01*
X225620000Y-124720000D02*
X224340000Y-124720000D01*
X226580000Y-124720000D02*
X227860000Y-124720000D01*
X227860000Y-122880000D02*
X226580000Y-122880000D01*
X227860000Y-124720000D02*
X227860000Y-122880000D01*
D12*
%TO.C,U4*%
X210750000Y-68890000D02*
X210750000Y-75640000D01*
X210750000Y-68890000D02*
X228750000Y-68890000D01*
X210750000Y-93640000D02*
X210750000Y-94390000D01*
X210750000Y-94390000D02*
X211750000Y-94390000D01*
X228750000Y-68890000D02*
X228750000Y-75640000D01*
X228750000Y-74830000D02*
X210750000Y-74830000D01*
X228750000Y-93640000D02*
X228750000Y-94390000D01*
X228750000Y-94390000D02*
X227750000Y-94390000D01*
D10*
%TO.C,R5*%
X200460000Y-77540000D02*
X201420000Y-77540000D01*
X200460000Y-78860000D02*
X200460000Y-77540000D01*
X201420000Y-78860000D02*
X200460000Y-78860000D01*
X202280000Y-78860000D02*
X203240000Y-78860000D01*
X203240000Y-77540000D02*
X202280000Y-77540000D01*
X203240000Y-78860000D02*
X203240000Y-77540000D01*
%TO.C,D5*%
X246930000Y-110110000D02*
X249040000Y-110110000D01*
X246930000Y-115070000D02*
X246930000Y-110110000D01*
X247130000Y-115270000D02*
X246930000Y-115070000D01*
X247210000Y-115270000D02*
X247130000Y-115270000D01*
X247210000Y-115270000D02*
X248830000Y-115270000D01*
X248830000Y-115270000D02*
X249040000Y-115060000D01*
X249040000Y-110110000D02*
X249040000Y-115060000D01*
%TO.C,D4*%
X191930000Y-109850000D02*
X194040000Y-109850000D01*
X191930000Y-114810000D02*
X191930000Y-109850000D01*
X192130000Y-115010000D02*
X191930000Y-114810000D01*
X192210000Y-115010000D02*
X192130000Y-115010000D01*
X192210000Y-115010000D02*
X193830000Y-115010000D01*
X193830000Y-115010000D02*
X194040000Y-114800000D01*
X194040000Y-109850000D02*
X194040000Y-114800000D01*
D11*
%TO.C,CN1*%
X250990000Y-122960000D02*
X252890000Y-122960000D01*
X250990000Y-127910000D02*
X250990000Y-122960000D01*
X252890000Y-122960000D02*
X252890000Y-122570000D01*
X252890000Y-127910000D02*
X250990000Y-127910000D01*
X252890000Y-128420000D02*
X252890000Y-127910000D01*
X253530000Y-122490000D02*
X253530000Y-123000000D01*
X253530000Y-123000000D02*
X254290000Y-123000000D01*
X253530000Y-127910000D02*
X254290000Y-127910000D01*
X253530000Y-128420000D02*
X253530000Y-127910000D01*
X254290000Y-123000000D02*
X254290000Y-125160000D01*
X254290000Y-125160000D02*
X254800000Y-125160000D01*
X254290000Y-125750000D02*
X254800000Y-125750000D01*
X254290000Y-127910000D02*
X254290000Y-125750000D01*
D12*
%TO.C,U3*%
X217850000Y-105515000D02*
X217850000Y-105290000D01*
X217850000Y-109350000D02*
X217850000Y-108825000D01*
X217850000Y-109350000D02*
X218375000Y-109350000D01*
X218375000Y-105050000D02*
X218150000Y-105050000D01*
X222150000Y-105050000D02*
X221625000Y-105050000D01*
X222150000Y-105050000D02*
X222150000Y-105575000D01*
X222150000Y-109350000D02*
X221625000Y-109350000D01*
X222150000Y-109350000D02*
X222150000Y-108825000D01*
X217850000Y-105050000D02*
X217610000Y-104720000D01*
X218090000Y-104720000D01*
X217850000Y-105050000D01*
G36*
X217850000Y-105050000D02*
G01*
X217610000Y-104720000D01*
X218090000Y-104720000D01*
X217850000Y-105050000D01*
G37*
D10*
%TO.C,SW1*%
X198960000Y-81150000D02*
X198960000Y-85210000D01*
X198960000Y-81150000D02*
X199390000Y-81150000D01*
X198960000Y-85210000D02*
X199390000Y-85210000D01*
X201610000Y-81150000D02*
X202040000Y-81150000D01*
X202040000Y-81150000D02*
X202040000Y-85210000D01*
X202040000Y-85210000D02*
X201610000Y-85210000D01*
D11*
X201400000Y-83180000D02*
G75*
G02*
X199600000Y-83180000I-900000J0D01*
G01*
X199600000Y-83180000D02*
G75*
G02*
X201400000Y-83180000I900000J0D01*
G01*
D10*
%TO.C,SW2*%
X235960000Y-101650000D02*
X235960000Y-105710000D01*
X235960000Y-101650000D02*
X236390000Y-101650000D01*
X235960000Y-105710000D02*
X236390000Y-105710000D01*
X238610000Y-101650000D02*
X239040000Y-101650000D01*
X239040000Y-101650000D02*
X239040000Y-105710000D01*
X239040000Y-105710000D02*
X238610000Y-105710000D01*
D11*
X238400000Y-103680000D02*
G75*
G02*
X236600000Y-103680000I-900000J0D01*
G01*
X236600000Y-103680000D02*
G75*
G02*
X238400000Y-103680000I900000J0D01*
G01*
%TO.C,H6*%
X186907898Y-84000000D02*
X194092103Y-76815795D01*
X188703949Y-85796051D02*
X186907898Y-84000000D01*
X194077961Y-80422040D02*
X188703949Y-85796051D01*
X194077961Y-80422040D02*
X192281909Y-78625988D01*
X194092103Y-76815795D02*
X195888154Y-78611846D01*
X195888154Y-78611846D02*
X194077961Y-80422040D01*
%TO.C,H1*%
X207270000Y-135730000D02*
X207270000Y-138270000D01*
X207270000Y-138270000D02*
X233120000Y-138270000D01*
X210000000Y-135730000D02*
X210000000Y-138270000D01*
X233070000Y-135730000D02*
X207270000Y-135730000D01*
X233070000Y-135730000D02*
X233070000Y-138270000D01*
D10*
%TO.C,C3*%
X202650000Y-117340000D02*
X202650000Y-115460000D01*
X202800000Y-115310000D02*
X204280000Y-115310000D01*
X204280000Y-117490000D02*
X202800000Y-117490000D01*
X206140000Y-117490000D02*
X207620000Y-117490000D01*
X207620000Y-115310000D02*
X206140000Y-115310000D01*
X207770000Y-117340000D02*
X207770000Y-115460000D01*
X202650000Y-115460000D02*
G75*
G02*
X202800000Y-115310000I150000J0D01*
G01*
X202800000Y-117490000D02*
G75*
G02*
X202650000Y-117340000I0J150000D01*
G01*
X207620000Y-115310000D02*
G75*
G02*
X207770000Y-115460000I0J-150000D01*
G01*
X207770000Y-117340000D02*
G75*
G02*
X207620000Y-117490000I-150000J0D01*
G01*
D11*
%TO.C,H5*%
X244111846Y-78907897D02*
X245907897Y-77111846D01*
X245907897Y-77111846D02*
X253092102Y-84296051D01*
X249485857Y-84281909D02*
X244111846Y-78907897D01*
X249485857Y-84281909D02*
X251281909Y-82485857D01*
X251296051Y-86092102D02*
X249485857Y-84281909D01*
X253092102Y-84296051D02*
X251296051Y-86092102D01*
%TO.C,U5*%
X218600000Y-122150000D02*
X218700000Y-122150000D01*
X218600000Y-125450000D02*
X218600000Y-122150000D01*
X218600000Y-125450000D02*
X218700000Y-125450000D01*
X221490000Y-122150000D02*
X221600000Y-122150000D01*
X221490000Y-125450000D02*
X221600000Y-125450000D01*
X221600000Y-125450000D02*
X221600000Y-122150000D01*
X219280000Y-125900000D02*
G75*
G02*
X218940000Y-125900000I-170000J0D01*
G01*
X218940000Y-125900000D02*
G75*
G02*
X219280000Y-125900000I170000J0D01*
G01*
D10*
%TO.C,R4*%
X224460000Y-128140000D02*
X224460000Y-129460000D01*
X224460000Y-129460000D02*
X225420000Y-129460000D01*
X225420000Y-128140000D02*
X224460000Y-128140000D01*
X226280000Y-128140000D02*
X227240000Y-128140000D01*
X227240000Y-128140000D02*
X227240000Y-129460000D01*
X227240000Y-129460000D02*
X226280000Y-129460000D01*
%TO.C,C2*%
X202630000Y-120240000D02*
X202630000Y-118360000D01*
X202780000Y-118210000D02*
X204260000Y-118210000D01*
X204260000Y-120390000D02*
X202780000Y-120390000D01*
X206120000Y-120390000D02*
X207600000Y-120390000D01*
X207600000Y-118210000D02*
X206120000Y-118210000D01*
X207750000Y-120240000D02*
X207750000Y-118360000D01*
X202630000Y-118360000D02*
G75*
G02*
X202780000Y-118210000I150000J0D01*
G01*
X202780000Y-120390000D02*
G75*
G02*
X202630000Y-120240000I0J150000D01*
G01*
X207600000Y-118210000D02*
G75*
G02*
X207750000Y-118360000I0J-150000D01*
G01*
X207750000Y-120240000D02*
G75*
G02*
X207600000Y-120390000I-150000J0D01*
G01*
%TO.C,C8*%
X235050000Y-112760000D02*
X235050000Y-114640000D01*
X235200000Y-114790000D02*
X236680000Y-114790000D01*
X236680000Y-112610000D02*
X235200000Y-112610000D01*
X238540000Y-112610000D02*
X240020000Y-112610000D01*
X240020000Y-114790000D02*
X238540000Y-114790000D01*
X240170000Y-112760000D02*
X240170000Y-114640000D01*
X235050000Y-112760000D02*
G75*
G02*
X235200000Y-112610000I150000J0D01*
G01*
X235200000Y-114790000D02*
G75*
G02*
X235050000Y-114640000I0J150000D01*
G01*
X240020000Y-112610000D02*
G75*
G02*
X240170000Y-112760000I0J-150000D01*
G01*
X240170000Y-114640000D02*
G75*
G02*
X240020000Y-114790000I-150000J0D01*
G01*
D11*
%TO.C,H7*%
X244209872Y-141294077D02*
X246020065Y-139483883D01*
X246005923Y-143090128D02*
X244209872Y-141294077D01*
X246020065Y-139483883D02*
X247816117Y-141279935D01*
X246020065Y-139483883D02*
X251394077Y-134109872D01*
X251394077Y-134109872D02*
X253190128Y-135905923D01*
X253190128Y-135905923D02*
X246005923Y-143090128D01*
D10*
%TO.C,C12*%
X224600000Y-107190000D02*
X224600000Y-105310000D01*
X224750000Y-105160000D02*
X226230000Y-105160000D01*
X226230000Y-107340000D02*
X224750000Y-107340000D01*
X228090000Y-107340000D02*
X229570000Y-107340000D01*
X229570000Y-105160000D02*
X228090000Y-105160000D01*
X229720000Y-107190000D02*
X229720000Y-105310000D01*
X224600000Y-105310000D02*
G75*
G02*
X224750000Y-105160000I150000J0D01*
G01*
X224750000Y-107340000D02*
G75*
G02*
X224600000Y-107190000I0J150000D01*
G01*
X229570000Y-105160000D02*
G75*
G02*
X229720000Y-105310000I0J-150000D01*
G01*
X229720000Y-107190000D02*
G75*
G02*
X229570000Y-107340000I-150000J0D01*
G01*
%TD*%
M02*
