%TF.GenerationSoftware,KiCad,Pcbnew,9.0.7*%
%TF.CreationDate,2026-02-28T17:01:53+01:00*%
%TF.ProjectId,esp32-drone-controller,65737033-322d-4647-926f-6e652d636f6e,rev?*%
%TF.SameCoordinates,Original*%
%TF.FileFunction,Copper,L4,Bot*%
%TF.FilePolarity,Positive*%
%FSLAX46Y46*%
G04 Gerber Fmt 4.6, Leading zero omitted, Abs format (unit mm)*
G04 Created by KiCad (PCBNEW 9.0.7) date 2026-02-28 17:01:53*
%MOMM*%
%LPD*%
G01*
G04 APERTURE LIST*
G04 Aperture macros list*
%AMRotRect*
0 Rectangle, with rotation*
0 The origin of the aperture is its center*
0 $1 length*
0 $2 width*
0 $3 Rotation angle, in degrees counterclockwise*
0 Add horizontal line*
21,1,$1,$2,0,0,$3*%
G04 Aperture macros list end*
%TA.AperFunction,ComponentPad*%
%ADD10R,1.570000X1.700000*%
%TD*%
%TA.AperFunction,ComponentPad*%
%ADD11C,1.700000*%
%TD*%
%TA.AperFunction,ComponentPad*%
%ADD12R,1.700000X1.570000*%
%TD*%
%TA.AperFunction,ComponentPad*%
%ADD13RotRect,1.620000X1.620000X315.000000*%
%TD*%
%TA.AperFunction,ComponentPad*%
%ADD14C,1.620000*%
%TD*%
%TA.AperFunction,ComponentPad*%
%ADD15C,0.750000*%
%TD*%
%TA.AperFunction,ComponentPad*%
%ADD16O,2.000000X1.200000*%
%TD*%
%TA.AperFunction,ComponentPad*%
%ADD17O,1.800000X1.200000*%
%TD*%
%TA.AperFunction,ComponentPad*%
%ADD18C,1.600000*%
%TD*%
%TA.AperFunction,ComponentPad*%
%ADD19RotRect,1.620000X1.620000X225.000000*%
%TD*%
%TA.AperFunction,ComponentPad*%
%ADD20RotRect,1.620000X1.620000X135.000000*%
%TD*%
%TA.AperFunction,ComponentPad*%
%ADD21RotRect,1.620000X1.620000X45.000000*%
%TD*%
%TA.AperFunction,ViaPad*%
%ADD22C,0.600000*%
%TD*%
%TA.AperFunction,Conductor*%
%ADD23C,2.000000*%
%TD*%
%TA.AperFunction,Conductor*%
%ADD24C,0.200000*%
%TD*%
%TA.AperFunction,Conductor*%
%ADD25C,0.500000*%
%TD*%
G04 APERTURE END LIST*
D10*
%TO.P,H4,1,1*%
%TO.N,GND*%
X208640000Y-141500000D03*
D11*
%TO.P,H4,2,2*%
%TO.N,+3V3*%
X211180000Y-141500000D03*
%TO.P,H4,3,3*%
%TO.N,GPIO08*%
X213720000Y-141500000D03*
%TO.P,H4,4,4*%
%TO.N,GPIO46*%
X216260000Y-141500000D03*
%TO.P,H4,5,5*%
%TO.N,GPIO10*%
X218800000Y-141500000D03*
%TO.P,H4,6,6*%
%TO.N,GPIO12*%
X221340000Y-141500000D03*
%TO.P,H4,7,7*%
%TO.N,GPIO14*%
X223880000Y-141500000D03*
%TO.P,H4,8,8*%
%TO.N,GPIO48*%
X226420000Y-141500000D03*
%TO.P,H4,9,9*%
%TO.N,GPIO35*%
X228960000Y-141500000D03*
%TO.P,H4,10,10*%
%TO.N,GPIO37*%
X231500000Y-141500000D03*
%TD*%
D12*
%TO.P,H2,1,1*%
%TO.N,GND*%
X251500000Y-114580000D03*
D11*
%TO.P,H2,2,2*%
%TO.N,+3V3*%
X251500000Y-112040000D03*
%TO.P,H2,3,3*%
%TO.N,GPIO39*%
X251500000Y-109500000D03*
%TO.P,H2,4,4*%
%TO.N,GPIO40*%
X251500000Y-106960000D03*
%TO.P,H2,5,5*%
%TO.N,GPIO41*%
X251500000Y-104420000D03*
%TO.P,H2,6,6*%
%TO.N,GPIO42*%
X251500000Y-101880000D03*
%TO.P,H2,7,7*%
%TO.N,GPIO44*%
X251500000Y-99340000D03*
%TO.P,H2,8,8*%
%TO.N,GPIO43*%
X251500000Y-96800000D03*
%TO.P,H2,9,9*%
%TO.N,GPIO02*%
X251500000Y-94260000D03*
%TO.P,H2,10,10*%
%TO.N,GPIO01*%
X251500000Y-91720000D03*
%TD*%
D12*
%TO.P,H3,1,1*%
%TO.N,GND*%
X188600000Y-114620000D03*
D11*
%TO.P,H3,2,2*%
%TO.N,+3V3*%
X188600000Y-112080000D03*
%TO.P,H3,3,3*%
%TO.N,GPIO18*%
X188600000Y-109540000D03*
%TO.P,H3,4,4*%
%TO.N,GPIO17*%
X188600000Y-107000000D03*
%TO.P,H3,5,5*%
%TO.N,GPIO16*%
X188600000Y-104460000D03*
%TO.P,H3,6,6*%
%TO.N,GPIO15*%
X188600000Y-101920000D03*
%TO.P,H3,7,7*%
%TO.N,GPIO07*%
X188600000Y-99380000D03*
%TO.P,H3,8,8*%
%TO.N,GPIO06*%
X188600000Y-96840000D03*
%TO.P,H3,9,9*%
%TO.N,GPIO05*%
X188600000Y-94300000D03*
%TO.P,H3,10,10*%
%TO.N,GPIO04*%
X188600000Y-91760000D03*
%TD*%
D13*
%TO.P,H8,1,1*%
%TO.N,+8V*%
X188707897Y-136007897D03*
D14*
%TO.P,H8,2,2*%
%TO.N,GND*%
X190503948Y-137803948D03*
%TO.P,H8,3,3*%
%TO.N,unconnected-(H8-Pad3)*%
X192300000Y-139600000D03*
%TO.P,H8,4,4*%
%TO.N,GPIO03*%
X194096051Y-141396051D03*
%TD*%
D15*
%TO.P,USBC1,*%
%TO.N,*%
X191510000Y-122500000D03*
X191510000Y-128300000D03*
D16*
%TO.P,USBC1,1,EH*%
%TO.N,GND*%
X192010000Y-129730000D03*
D17*
%TO.P,USBC1,2,EH*%
X187830000Y-129730000D03*
%TO.P,USBC1,3,EH*%
X187830000Y-121070000D03*
D16*
%TO.P,USBC1,4,EH*%
X192010000Y-121070000D03*
%TD*%
D18*
%TO.P,CN1,1,1*%
%TO.N,+8V*%
X253150000Y-124500000D03*
%TO.P,CN1,2,2*%
%TO.N,GND*%
X253150000Y-126500000D03*
%TD*%
D19*
%TO.P,H6,1,1*%
%TO.N,+8V*%
X194092103Y-78611846D03*
D14*
%TO.P,H6,2,2*%
%TO.N,GND*%
X192296052Y-80407897D03*
%TO.P,H6,3,3*%
%TO.N,unconnected-(H6-Pad3)*%
X190500000Y-82203949D03*
%TO.P,H6,4,4*%
%TO.N,GPIO04*%
X188703949Y-84000000D03*
%TD*%
D10*
%TO.P,H1,1,1*%
%TO.N,GND*%
X208740000Y-137000000D03*
D11*
%TO.P,H1,2,2*%
%TO.N,+3V3*%
X211280000Y-137000000D03*
%TO.P,H1,3,3*%
%TO.N,GPIO03*%
X213820000Y-137000000D03*
%TO.P,H1,4,4*%
%TO.N,GPIO09*%
X216360000Y-137000000D03*
%TO.P,H1,5,5*%
%TO.N,GPIO11*%
X218900000Y-137000000D03*
%TO.P,H1,6,6*%
%TO.N,GPIO13*%
X221440000Y-137000000D03*
%TO.P,H1,7,7*%
%TO.N,GPIO47*%
X223980000Y-137000000D03*
%TO.P,H1,8,8*%
%TO.N,GPIO45*%
X226520000Y-137000000D03*
%TO.P,H1,9,9*%
%TO.N,GPIO36*%
X229060000Y-137000000D03*
%TO.P,H1,10,10*%
%TO.N,GPIO38*%
X231600000Y-137000000D03*
%TD*%
D20*
%TO.P,H5,1,1*%
%TO.N,+8V*%
X251296051Y-84296051D03*
D14*
%TO.P,H5,2,2*%
%TO.N,GND*%
X249500000Y-82500000D03*
%TO.P,H5,3,3*%
%TO.N,unconnected-(H5-Pad3)*%
X247703948Y-80703948D03*
%TO.P,H5,4,4*%
%TO.N,GPIO01*%
X245907897Y-78907897D03*
%TD*%
D21*
%TO.P,H7,1,1*%
%TO.N,+8V*%
X246005923Y-141294077D03*
D14*
%TO.P,H7,2,2*%
%TO.N,GND*%
X247801974Y-139498026D03*
%TO.P,H7,3,3*%
%TO.N,unconnected-(H7-Pad3)*%
X249598026Y-137701974D03*
%TO.P,H7,4,4*%
%TO.N,GPIO38*%
X251394077Y-135905923D03*
%TD*%
D22*
%TO.N,GND*%
X231000000Y-106600000D03*
X250000000Y-127749997D03*
X223000000Y-110600000D03*
X206000000Y-142000000D03*
X243300000Y-138400000D03*
X222600000Y-121800000D03*
X220500000Y-84750000D03*
X243300000Y-137200000D03*
X212000000Y-106800000D03*
X231000000Y-109400000D03*
X220500000Y-82000000D03*
X194000000Y-135600000D03*
X248100000Y-107400000D03*
X209300000Y-116400000D03*
X233300000Y-116500000D03*
X194000000Y-135000000D03*
X214750000Y-102800000D03*
X222600000Y-123800000D03*
X219000000Y-82000000D03*
X197300000Y-122900000D03*
X195500000Y-83150003D03*
X190200000Y-122800000D03*
X233200000Y-113700000D03*
X209300000Y-113500000D03*
X220500000Y-83500000D03*
X248000000Y-87000000D03*
X214800000Y-105900000D03*
X200400000Y-134100000D03*
X247349997Y-87000000D03*
X217500000Y-82000000D03*
X217500000Y-83500000D03*
X223000000Y-103000000D03*
X243300000Y-137800000D03*
X250000000Y-128400000D03*
X244900000Y-127900000D03*
X248650003Y-87000000D03*
X250000000Y-127099994D03*
X240000000Y-131100000D03*
X219000000Y-84750000D03*
X195500000Y-110700000D03*
X186200000Y-115000000D03*
X202200000Y-86100000D03*
X233400000Y-119400000D03*
X216850000Y-127550000D03*
X228800000Y-123900000D03*
X188300000Y-122900000D03*
X208600000Y-76400000D03*
X219000000Y-83500000D03*
X217500000Y-84750000D03*
X237500000Y-108000000D03*
X230400000Y-76380000D03*
X224200000Y-101600000D03*
X195500000Y-81849997D03*
X228700000Y-126300000D03*
X205800000Y-137600000D03*
X190200000Y-128000000D03*
X194000000Y-134400000D03*
X195500000Y-82500000D03*
X209200000Y-119300000D03*
X225850000Y-114550000D03*
X214600000Y-114550000D03*
X254000000Y-115000000D03*
X188200000Y-128100000D03*
%TO.N,+5V*%
X197300000Y-127500000D03*
X194500000Y-119800000D03*
X194200000Y-123000000D03*
X194200000Y-127700000D03*
%TO.N,+8V*%
X250000000Y-123600000D03*
X192750003Y-85500000D03*
X250000000Y-122100000D03*
X251500000Y-143050003D03*
X252750003Y-78500000D03*
X244500000Y-86000000D03*
X188500000Y-77500000D03*
X188100000Y-141000000D03*
X192000000Y-85500000D03*
X252000000Y-78500000D03*
X191249997Y-85500000D03*
X188500000Y-76749997D03*
X251249997Y-78500000D03*
X188500000Y-78250003D03*
X186700000Y-141000000D03*
X244900000Y-123100000D03*
X245250003Y-86000000D03*
X249800000Y-118700000D03*
X251500000Y-141549997D03*
X187400000Y-141000000D03*
X250000000Y-122900000D03*
X243749997Y-86000000D03*
X251500000Y-142300000D03*
%TO.N,EN*%
X212800000Y-78900000D03*
X204900000Y-78900000D03*
%TO.N,+3V3*%
X199500000Y-107500000D03*
X208500000Y-77900000D03*
X219770000Y-120550000D03*
X199200000Y-78200000D03*
X215500000Y-111000000D03*
X239500000Y-108000000D03*
X239500000Y-109000000D03*
X217350000Y-122550000D03*
X212100000Y-130600000D03*
X225750000Y-104400000D03*
X199500000Y-109000000D03*
X211200000Y-130600000D03*
%TO.N,GPIO03*%
X209000000Y-98000000D03*
%TO.N,GPIO08*%
X208000000Y-98000000D03*
%TO.N,GPIO14*%
X219000000Y-98000000D03*
%TO.N,GPIO10*%
X212000000Y-98000000D03*
%TO.N,GPIO11*%
X213000000Y-98000000D03*
%TO.N,GPIO12*%
X214000000Y-98000000D03*
X219500000Y-110400000D03*
%TO.N,GPIO13*%
X218100000Y-98000000D03*
%TO.N,GPIO09*%
X211000000Y-98000000D03*
%TO.N,GPIO35*%
X231000000Y-98000000D03*
%TO.N,GPIO38*%
X233800000Y-98000000D03*
%TO.N,GPIO36*%
X231900000Y-98000000D03*
%TO.N,GPIO37*%
X232900000Y-98000000D03*
%TO.N,GPIO46*%
X210000000Y-98000000D03*
%TO.N,GPIO47*%
X228000000Y-98000000D03*
%TO.N,GPIO45*%
X230000000Y-98000000D03*
%TO.N,GPIO00*%
X237400000Y-100000000D03*
X229900000Y-96100000D03*
%TO.N,D-*%
X213700000Y-91100000D03*
X195000000Y-124500000D03*
%TO.N,D+*%
X195000000Y-125300000D03*
X213700000Y-92100000D03*
%TO.N,GPIO48*%
X229000000Y-98000000D03*
%TD*%
D23*
%TO.N,+8V*%
X242649000Y-87851000D02*
X244500000Y-86000000D01*
X192000000Y-85500000D02*
X194351000Y-87851000D01*
X191249997Y-85500000D02*
X192750003Y-85500000D01*
X194351000Y-87851000D02*
X242649000Y-87851000D01*
D24*
%TO.N,EN*%
X212800000Y-78900000D02*
X204900000Y-78900000D01*
D25*
%TO.N,+3V3*%
X204900000Y-136900000D02*
X211200000Y-130600000D01*
X211280000Y-130680000D02*
X211200000Y-130600000D01*
X204900000Y-138900000D02*
X204900000Y-136900000D01*
X251500000Y-112040000D02*
X248460000Y-109000000D01*
X211200000Y-139400000D02*
X210700000Y-138900000D01*
X211180000Y-139420000D02*
X211200000Y-139400000D01*
X211180000Y-141500000D02*
X211180000Y-139420000D01*
X212100000Y-132000000D02*
X212100000Y-130600000D01*
X199500000Y-107500000D02*
X199500000Y-109000000D01*
X239500000Y-109000000D02*
X239500000Y-108000000D01*
X210700000Y-138900000D02*
X204900000Y-138900000D01*
X211280000Y-132820000D02*
X212100000Y-132000000D01*
X248460000Y-109000000D02*
X239500000Y-109000000D01*
X188600000Y-112080000D02*
X193180000Y-107500000D01*
X211280000Y-137000000D02*
X211280000Y-132820000D01*
X193180000Y-107500000D02*
X199500000Y-107500000D01*
D24*
%TO.N,GPIO03*%
X209000000Y-98000000D02*
X213820000Y-102820000D01*
X213820000Y-102820000D02*
X213820000Y-137000000D01*
%TO.N,GPIO08*%
X212600000Y-132800000D02*
X212600000Y-140380000D01*
X213000000Y-132400000D02*
X212600000Y-132800000D01*
X212600000Y-140380000D02*
X213720000Y-141500000D01*
X213000000Y-130200000D02*
X213000000Y-132400000D01*
X212600000Y-129800000D02*
X213000000Y-130200000D01*
X208000000Y-98000000D02*
X212600000Y-102600000D01*
X212600000Y-102600000D02*
X212600000Y-129800000D01*
%TO.N,GPIO14*%
X219000000Y-98000000D02*
X221800000Y-100800000D01*
X222600000Y-140220000D02*
X223880000Y-141500000D01*
X222600000Y-124649943D02*
X222600000Y-140220000D01*
X221800000Y-100800000D02*
X221800000Y-123849943D01*
X221800000Y-123849943D02*
X222600000Y-124649943D01*
%TO.N,GPIO10*%
X217600000Y-121950057D02*
X217951000Y-122301057D01*
X217600000Y-140300000D02*
X218800000Y-141500000D01*
X212000000Y-98000000D02*
X217600000Y-103600000D01*
X217951000Y-122301057D02*
X217951000Y-122798943D01*
X217600000Y-103600000D02*
X217600000Y-121950057D01*
X217600000Y-123149943D02*
X217600000Y-140300000D01*
X217951000Y-122798943D02*
X217600000Y-123149943D01*
%TO.N,GPIO11*%
X218900000Y-103900000D02*
X218900000Y-137000000D01*
X213000000Y-98000000D02*
X218900000Y-103900000D01*
%TO.N,GPIO12*%
X220100000Y-121069943D02*
X220100000Y-140260000D01*
X220100000Y-104100000D02*
X220100000Y-110600000D01*
X220100000Y-120030057D02*
X220371000Y-120301057D01*
X220371000Y-120798943D02*
X220100000Y-121069943D01*
X220100000Y-140260000D02*
X221340000Y-141500000D01*
X214000000Y-98000000D02*
X220100000Y-104100000D01*
X219500000Y-110400000D02*
X220100000Y-111000000D01*
X220100000Y-111000000D02*
X220100000Y-120030057D01*
X220100000Y-110600000D02*
X220100000Y-111000000D01*
X220371000Y-120301057D02*
X220371000Y-120798943D01*
%TO.N,GPIO15*%
X188600000Y-101800000D02*
X188600000Y-101920000D01*
%TO.N,GPIO13*%
X218100000Y-98000000D02*
X221440000Y-101340000D01*
X221440000Y-101340000D02*
X221440000Y-137000000D01*
%TO.N,GPIO09*%
X216101000Y-136741000D02*
X216360000Y-137000000D01*
X216101000Y-103101000D02*
X216101000Y-136741000D01*
X211000000Y-98000000D02*
X216101000Y-103101000D01*
%TO.N,GPIO35*%
X231248943Y-108799000D02*
X231601000Y-109151057D01*
X231248943Y-105999000D02*
X231601000Y-106351057D01*
X227800000Y-133500000D02*
X227800000Y-140340000D01*
X231248943Y-107201000D02*
X231000000Y-107201000D01*
X231601000Y-106848943D02*
X231248943Y-107201000D01*
X231000000Y-108799000D02*
X231248943Y-108799000D01*
X231000000Y-98000000D02*
X231000000Y-105999000D01*
X231000000Y-110001000D02*
X231000000Y-130300000D01*
X231601000Y-109648943D02*
X231248943Y-110001000D01*
X231000000Y-105999000D02*
X231248943Y-105999000D01*
X231248943Y-110001000D02*
X231000000Y-110001000D01*
X227800000Y-140340000D02*
X228960000Y-141500000D01*
X231000000Y-130300000D02*
X227800000Y-133500000D01*
X231601000Y-109151057D02*
X231601000Y-109648943D01*
X231601000Y-106351057D02*
X231601000Y-106848943D01*
X231000000Y-107201000D02*
X231000000Y-108799000D01*
%TO.N,GPIO38*%
X231600000Y-133800000D02*
X231600000Y-137000000D01*
X233901000Y-116748943D02*
X233800000Y-116849943D01*
X234001000Y-119151057D02*
X234001000Y-119648943D01*
X233800000Y-98000000D02*
X233800000Y-116150057D01*
X233901000Y-116251057D02*
X233901000Y-116748943D01*
X233800000Y-118950057D02*
X234001000Y-119151057D01*
X233800000Y-116849943D02*
X233800000Y-118950057D01*
X233800000Y-119849943D02*
X233800000Y-131600000D01*
X234001000Y-119648943D02*
X233800000Y-119849943D01*
X233800000Y-116150057D02*
X233901000Y-116251057D01*
X233800000Y-131600000D02*
X231600000Y-133800000D01*
%TO.N,GPIO36*%
X232035339Y-130564661D02*
X229060000Y-133540000D01*
X229060000Y-133540000D02*
X229060000Y-137000000D01*
X231900000Y-98000000D02*
X232035339Y-98135339D01*
X232035339Y-98135339D02*
X232035339Y-130564661D01*
%TO.N,GPIO37*%
X232799000Y-119151057D02*
X232799000Y-119648943D01*
X232599000Y-113948943D02*
X232900000Y-114249943D01*
X232900000Y-114249943D02*
X232900000Y-116050057D01*
X230300000Y-140300000D02*
X231500000Y-141500000D01*
X230300000Y-133700000D02*
X230300000Y-140300000D01*
X232900000Y-98000000D02*
X232900000Y-113150057D01*
X232699000Y-116748943D02*
X232900000Y-116949943D01*
X232599000Y-113451057D02*
X232599000Y-113948943D01*
X232900000Y-113150057D02*
X232599000Y-113451057D01*
X232900000Y-116949943D02*
X232900000Y-119050057D01*
X232900000Y-116050057D02*
X232699000Y-116251057D01*
X232799000Y-119648943D02*
X232900000Y-119749943D01*
X232900000Y-119749943D02*
X232900000Y-131100000D01*
X232900000Y-131100000D02*
X230300000Y-133700000D01*
X232900000Y-119050057D02*
X232799000Y-119151057D01*
X232699000Y-116251057D02*
X232699000Y-116748943D01*
%TO.N,GPIO46*%
X215201000Y-114301057D02*
X215201000Y-114798943D01*
X215100000Y-114899943D02*
X215100000Y-140340000D01*
X214121000Y-102121000D02*
X214121000Y-113221057D01*
X210000000Y-98000000D02*
X214121000Y-102121000D01*
X215201000Y-114798943D02*
X215100000Y-114899943D01*
X214121000Y-113221057D02*
X215201000Y-114301057D01*
X215100000Y-140340000D02*
X216260000Y-141500000D01*
%TO.N,GPIO47*%
X228000000Y-98000000D02*
X228100000Y-98100000D01*
X228100000Y-129200000D02*
X224000000Y-133300000D01*
X228100000Y-98100000D02*
X228100000Y-129200000D01*
X224000000Y-133300000D02*
X224000000Y-136980000D01*
X224000000Y-136980000D02*
X223980000Y-137000000D01*
%TO.N,GPIO45*%
X230000000Y-130000000D02*
X226520000Y-133480000D01*
X230000000Y-98000000D02*
X230000000Y-130000000D01*
X226520000Y-133480000D02*
X226520000Y-137000000D01*
%TO.N,GPIO00*%
X237400000Y-97300000D02*
X237400000Y-100000000D01*
X236200000Y-96100000D02*
X237400000Y-97300000D01*
X229900000Y-96100000D02*
X236200000Y-96100000D01*
%TO.N,D-*%
X197051057Y-122299000D02*
X196699000Y-122651057D01*
X197364603Y-122299000D02*
X197051057Y-122299000D01*
X213250000Y-91550000D02*
X213250000Y-91841479D01*
X207049020Y-97606091D02*
X207049020Y-112614583D01*
X213250000Y-92358521D02*
X213250000Y-97049020D01*
X196699000Y-122964603D02*
X195163603Y-124500000D01*
X213250000Y-91841479D02*
X213199000Y-91892479D01*
X213700000Y-91100000D02*
X213250000Y-91550000D01*
X213199000Y-91892479D02*
X213199000Y-92307521D01*
X213199000Y-92307521D02*
X213250000Y-92358521D01*
X213250000Y-97049020D02*
X207606091Y-97049020D01*
X207049020Y-112614583D02*
X197364603Y-122299000D01*
X196699000Y-122651057D02*
X196699000Y-122964603D01*
X195163603Y-124500000D02*
X195000000Y-124500000D01*
X207606091Y-97049020D02*
X207049020Y-97606091D01*
%TO.N,D+*%
X207792479Y-97499000D02*
X207499000Y-97792479D01*
X197548943Y-123501000D02*
X197051057Y-123501000D01*
X207499000Y-97792479D02*
X207499000Y-112801000D01*
X197051057Y-123501000D02*
X196925028Y-123374972D01*
X213700000Y-97591479D02*
X213607521Y-97499000D01*
X197901000Y-122399000D02*
X197901000Y-123148943D01*
X213700000Y-92100000D02*
X213700000Y-97591479D01*
X197901000Y-123148943D02*
X197548943Y-123501000D01*
X213607521Y-97499000D02*
X207792479Y-97499000D01*
X207499000Y-112801000D02*
X197901000Y-122399000D01*
X196925028Y-123374972D02*
X195000000Y-125300000D01*
%TO.N,GPIO48*%
X229401000Y-123651057D02*
X229401000Y-124148943D01*
X229048943Y-124501000D02*
X229000000Y-124501000D01*
X229301000Y-126548943D02*
X229000000Y-126849943D01*
X225300000Y-140380000D02*
X226420000Y-141500000D01*
X229401000Y-124148943D02*
X229048943Y-124501000D01*
X229000000Y-98000000D02*
X229000000Y-123299000D01*
X229000000Y-125750057D02*
X229301000Y-126051057D01*
X229000000Y-123299000D02*
X229048943Y-123299000D01*
X229048943Y-123299000D02*
X229401000Y-123651057D01*
X229301000Y-126051057D02*
X229301000Y-126548943D01*
X229000000Y-126849943D02*
X229000000Y-129600000D01*
X229000000Y-129600000D02*
X225300000Y-133300000D01*
X229000000Y-124501000D02*
X229000000Y-125750057D01*
X225300000Y-133300000D02*
X225300000Y-140380000D01*
%TD*%
M02*
