%TF.GenerationSoftware,KiCad,Pcbnew,9.0.7*%
%TF.CreationDate,2026-02-28T17:01:53+01:00*%
%TF.ProjectId,esp32-drone-controller,65737033-322d-4647-926f-6e652d636f6e,rev?*%
%TF.SameCoordinates,Original*%
%TF.FileFunction,Copper,L1,Top*%
%TF.FilePolarity,Positive*%
%FSLAX46Y46*%
G04 Gerber Fmt 4.6, Leading zero omitted, Abs format (unit mm)*
G04 Created by KiCad (PCBNEW 9.0.7) date 2026-02-28 17:01:53*
%MOMM*%
%LPD*%
G01*
G04 APERTURE LIST*
G04 Aperture macros list*
%AMRoundRect*
0 Rectangle with rounded corners*
0 $1 Rounding radius*
0 $2 $3 $4 $5 $6 $7 $8 $9 X,Y pos of 4 corners*
0 Add a 4 corners polygon primitive as box body*
4,1,4,$2,$3,$4,$5,$6,$7,$8,$9,$2,$3,0*
0 Add four circle primitives for the rounded corners*
1,1,$1+$1,$2,$3*
1,1,$1+$1,$4,$5*
1,1,$1+$1,$6,$7*
1,1,$1+$1,$8,$9*
0 Add four rect primitives between the rounded corners*
20,1,$1+$1,$2,$3,$4,$5,0*
20,1,$1+$1,$4,$5,$6,$7,0*
20,1,$1+$1,$6,$7,$8,$9,0*
20,1,$1+$1,$8,$9,$2,$3,0*%
%AMRotRect*
0 Rectangle, with rotation*
0 The origin of the aperture is its center*
0 $1 length*
0 $2 width*
0 $3 Rotation angle, in degrees counterclockwise*
0 Add horizontal line*
21,1,$1,$2,0,0,$3*%
%AMFreePoly0*
4,1,13,0.335355,0.685355,0.350000,0.650000,0.350000,-0.650000,0.335355,-0.685355,0.300000,-0.700000,-0.300000,-0.700000,-0.335355,-0.685355,-0.350000,-0.650000,-0.350000,0.650000,-0.335355,0.685355,-0.300000,0.700000,0.300000,0.700000,0.335355,0.685355,0.335355,0.685355,$1*%
G04 Aperture macros list end*
%TA.AperFunction,SMDPad,CuDef*%
%ADD10R,1.490000X1.730000*%
%TD*%
%TA.AperFunction,ComponentPad*%
%ADD11R,1.570000X1.700000*%
%TD*%
%TA.AperFunction,ComponentPad*%
%ADD12C,1.700000*%
%TD*%
%TA.AperFunction,ComponentPad*%
%ADD13R,1.700000X1.570000*%
%TD*%
%TA.AperFunction,SMDPad,CuDef*%
%ADD14R,0.860000X0.810000*%
%TD*%
%TA.AperFunction,SMDPad,CuDef*%
%ADD15R,1.730000X1.490000*%
%TD*%
%TA.AperFunction,SMDPad,CuDef*%
%ADD16RoundRect,0.375000X-0.625000X-0.375000X0.625000X-0.375000X0.625000X0.375000X-0.625000X0.375000X0*%
%TD*%
%TA.AperFunction,SMDPad,CuDef*%
%ADD17RoundRect,0.500000X-0.500000X-1.400000X0.500000X-1.400000X0.500000X1.400000X-0.500000X1.400000X0*%
%TD*%
%TA.AperFunction,SMDPad,CuDef*%
%ADD18R,0.810000X0.860000*%
%TD*%
%TA.AperFunction,SMDPad,CuDef*%
%ADD19R,1.630000X1.600000*%
%TD*%
%TA.AperFunction,SMDPad,CuDef*%
%ADD20RoundRect,0.375000X0.625000X0.375000X-0.625000X0.375000X-0.625000X-0.375000X0.625000X-0.375000X0*%
%TD*%
%TA.AperFunction,SMDPad,CuDef*%
%ADD21RoundRect,0.500000X0.500000X1.400000X-0.500000X1.400000X-0.500000X-1.400000X0.500000X-1.400000X0*%
%TD*%
%TA.AperFunction,ComponentPad*%
%ADD22RotRect,1.620000X1.620000X315.000000*%
%TD*%
%TA.AperFunction,ComponentPad*%
%ADD23C,1.620000*%
%TD*%
%TA.AperFunction,ComponentPad*%
%ADD24C,0.750000*%
%TD*%
%TA.AperFunction,ComponentPad*%
%ADD25O,2.000000X1.200000*%
%TD*%
%TA.AperFunction,ComponentPad*%
%ADD26O,1.800000X1.200000*%
%TD*%
%TA.AperFunction,SMDPad,CuDef*%
%ADD27FreePoly0,270.000000*%
%TD*%
%TA.AperFunction,SMDPad,CuDef*%
%ADD28R,1.300000X0.300000*%
%TD*%
%TA.AperFunction,SMDPad,CuDef*%
%ADD29R,1.130000X1.380000*%
%TD*%
%TA.AperFunction,SMDPad,CuDef*%
%ADD30R,1.500000X0.900000*%
%TD*%
%TA.AperFunction,SMDPad,CuDef*%
%ADD31R,0.900000X1.500000*%
%TD*%
%TA.AperFunction,SMDPad,CuDef*%
%ADD32R,0.900000X0.900000*%
%TD*%
%TA.AperFunction,SMDPad,CuDef*%
%ADD33R,1.600000X1.630000*%
%TD*%
%TA.AperFunction,ComponentPad*%
%ADD34C,1.600000*%
%TD*%
%TA.AperFunction,SMDPad,CuDef*%
%ADD35RoundRect,0.075000X-0.350000X-0.075000X0.350000X-0.075000X0.350000X0.075000X-0.350000X0.075000X0*%
%TD*%
%TA.AperFunction,SMDPad,CuDef*%
%ADD36RoundRect,0.075000X0.075000X-0.350000X0.075000X0.350000X-0.075000X0.350000X-0.075000X-0.350000X0*%
%TD*%
%TA.AperFunction,SMDPad,CuDef*%
%ADD37R,1.860000X1.230000*%
%TD*%
%TA.AperFunction,ComponentPad*%
%ADD38RotRect,1.620000X1.620000X225.000000*%
%TD*%
%TA.AperFunction,ComponentPad*%
%ADD39RotRect,1.620000X1.620000X135.000000*%
%TD*%
%TA.AperFunction,SMDPad,CuDef*%
%ADD40R,0.350000X0.600000*%
%TD*%
%TA.AperFunction,SMDPad,CuDef*%
%ADD41R,2.400000X1.600000*%
%TD*%
%TA.AperFunction,ComponentPad*%
%ADD42RotRect,1.620000X1.620000X45.000000*%
%TD*%
%TA.AperFunction,ViaPad*%
%ADD43C,0.600000*%
%TD*%
%TA.AperFunction,Conductor*%
%ADD44C,0.500000*%
%TD*%
%TA.AperFunction,Conductor*%
%ADD45C,0.200000*%
%TD*%
%TA.AperFunction,Conductor*%
%ADD46C,2.000000*%
%TD*%
%TA.AperFunction,Conductor*%
%ADD47C,0.400000*%
%TD*%
G04 APERTURE END LIST*
D10*
%TO.P,C6,1*%
%TO.N,IN2*%
X239200000Y-119400000D03*
%TO.P,C6,2*%
%TO.N,GND*%
X236020000Y-119400000D03*
%TD*%
%TO.P,C13,1*%
%TO.N,+3V3*%
X215180000Y-109000000D03*
%TO.P,C13,2*%
%TO.N,GND*%
X212000000Y-109000000D03*
%TD*%
D11*
%TO.P,H4,1,1*%
%TO.N,GND*%
X208640000Y-141500000D03*
D12*
%TO.P,H4,2,2*%
%TO.N,+3V3*%
X211180000Y-141500000D03*
%TO.P,H4,3,3*%
%TO.N,GPIO08*%
X213720000Y-141500000D03*
%TO.P,H4,4,4*%
%TO.N,GPIO46*%
X216260000Y-141500000D03*
%TO.P,H4,5,5*%
%TO.N,GPIO10*%
X218800000Y-141500000D03*
%TO.P,H4,6,6*%
%TO.N,GPIO12*%
X221340000Y-141500000D03*
%TO.P,H4,7,7*%
%TO.N,GPIO14*%
X223880000Y-141500000D03*
%TO.P,H4,8,8*%
%TO.N,GPIO48*%
X226420000Y-141500000D03*
%TO.P,H4,9,9*%
%TO.N,GPIO35*%
X228960000Y-141500000D03*
%TO.P,H4,10,10*%
%TO.N,GPIO37*%
X231500000Y-141500000D03*
%TD*%
D10*
%TO.P,C7,1*%
%TO.N,IN2*%
X239200000Y-116500000D03*
%TO.P,C7,2*%
%TO.N,GND*%
X236020000Y-116500000D03*
%TD*%
D13*
%TO.P,H2,1,1*%
%TO.N,GND*%
X251500000Y-114580000D03*
D12*
%TO.P,H2,2,2*%
%TO.N,+3V3*%
X251500000Y-112040000D03*
%TO.P,H2,3,3*%
%TO.N,GPIO39*%
X251500000Y-109500000D03*
%TO.P,H2,4,4*%
%TO.N,GPIO40*%
X251500000Y-106960000D03*
%TO.P,H2,5,5*%
%TO.N,GPIO41*%
X251500000Y-104420000D03*
%TO.P,H2,6,6*%
%TO.N,GPIO42*%
X251500000Y-101880000D03*
%TO.P,H2,7,7*%
%TO.N,GPIO44*%
X251500000Y-99340000D03*
%TO.P,H2,8,8*%
%TO.N,GPIO43*%
X251500000Y-96800000D03*
%TO.P,H2,9,9*%
%TO.N,GPIO02*%
X251500000Y-94260000D03*
%TO.P,H2,10,10*%
%TO.N,GPIO01*%
X251500000Y-91720000D03*
%TD*%
D14*
%TO.P,R6,1*%
%TO.N,Net-(D4-A)*%
X193000000Y-117060000D03*
%TO.P,R6,2*%
%TO.N,+5V*%
X193000000Y-118560000D03*
%TD*%
D15*
%TO.P,C9,1*%
%TO.N,IN1*%
X217190000Y-118230000D03*
%TO.P,C9,2*%
%TO.N,GND*%
X217190000Y-115050000D03*
%TD*%
D16*
%TO.P,U1,1,GND*%
%TO.N,GND*%
X200250000Y-122900000D03*
%TO.P,U1,2,VO*%
%TO.N,IN1*%
X200250000Y-125200000D03*
D17*
X206550000Y-125200000D03*
D16*
%TO.P,U1,3,VI*%
%TO.N,+5V*%
X200250000Y-127500000D03*
%TD*%
D13*
%TO.P,H3,1,1*%
%TO.N,GND*%
X188600000Y-114620000D03*
D12*
%TO.P,H3,2,2*%
%TO.N,+3V3*%
X188600000Y-112080000D03*
%TO.P,H3,3,3*%
%TO.N,GPIO18*%
X188600000Y-109540000D03*
%TO.P,H3,4,4*%
%TO.N,GPIO17*%
X188600000Y-107000000D03*
%TO.P,H3,5,5*%
%TO.N,GPIO16*%
X188600000Y-104460000D03*
%TO.P,H3,6,6*%
%TO.N,GPIO15*%
X188600000Y-101920000D03*
%TO.P,H3,7,7*%
%TO.N,GPIO07*%
X188600000Y-99380000D03*
%TO.P,H3,8,8*%
%TO.N,GPIO06*%
X188600000Y-96840000D03*
%TO.P,H3,9,9*%
%TO.N,GPIO05*%
X188600000Y-94300000D03*
%TO.P,H3,10,10*%
%TO.N,GPIO04*%
X188600000Y-91760000D03*
%TD*%
D15*
%TO.P,C11,1*%
%TO.N,EN*%
X203900000Y-81500000D03*
%TO.P,C11,2*%
%TO.N,GND*%
X203900000Y-84680000D03*
%TD*%
D10*
%TO.P,C1,1*%
%TO.N,+5V*%
X197220000Y-131500000D03*
%TO.P,C1,2*%
%TO.N,GND*%
X200400000Y-131500000D03*
%TD*%
D14*
%TO.P,R7,1*%
%TO.N,+8V*%
X248100000Y-118550000D03*
%TO.P,R7,2*%
%TO.N,Net-(D5-A)*%
X248100000Y-117050000D03*
%TD*%
D18*
%TO.P,R3,1*%
%TO.N,Net-(U5-VSNS)*%
X225100000Y-126300000D03*
%TO.P,R3,2*%
%TO.N,GND*%
X226600000Y-126300000D03*
%TD*%
%TO.P,R8,1*%
%TO.N,GPIO21*%
X223600000Y-97300000D03*
%TO.P,R8,2*%
%TO.N,Net-(D6-A)*%
X225100000Y-97300000D03*
%TD*%
D10*
%TO.P,C14,1*%
%TO.N,Net-(U3-REGOUT)*%
X225500000Y-109000000D03*
%TO.P,C14,2*%
%TO.N,GND*%
X228680000Y-109000000D03*
%TD*%
D19*
%TO.P,D6,1,K*%
%TO.N,GND*%
X223460000Y-99500000D03*
%TO.P,D6,2,A*%
%TO.N,Net-(D6-A)*%
X226500000Y-99500000D03*
%TD*%
D18*
%TO.P,R10,1*%
%TO.N,GND*%
X189100000Y-132300000D03*
%TO.P,R10,2*%
%TO.N,Net-(USBC1-CC2)*%
X190600000Y-132300000D03*
%TD*%
D10*
%TO.P,C5,1*%
%TO.N,+8V*%
X245900000Y-131100000D03*
%TO.P,C5,2*%
%TO.N,GND*%
X242720000Y-131100000D03*
%TD*%
%TO.P,C15,1*%
%TO.N,Net-(U3-CPOUT)*%
X220430000Y-102250000D03*
%TO.P,C15,2*%
%TO.N,GND*%
X217250000Y-102250000D03*
%TD*%
D20*
%TO.P,U2,1,GND*%
%TO.N,GND*%
X242650000Y-127800000D03*
%TO.P,U2,2,VO*%
%TO.N,IN2*%
X242650000Y-125500000D03*
D21*
X236350000Y-125500000D03*
D20*
%TO.P,U2,3,VI*%
%TO.N,+8V*%
X242650000Y-123200000D03*
%TD*%
D15*
%TO.P,C10,1*%
%TO.N,IN2*%
X223100000Y-118300000D03*
%TO.P,C10,2*%
%TO.N,GND*%
X223100000Y-115120000D03*
%TD*%
D10*
%TO.P,C4,1*%
%TO.N,IN1*%
X203620000Y-113500000D03*
%TO.P,C4,2*%
%TO.N,GND*%
X206800000Y-113500000D03*
%TD*%
D22*
%TO.P,H8,1,1*%
%TO.N,+8V*%
X188707897Y-136007897D03*
D23*
%TO.P,H8,2,2*%
%TO.N,GND*%
X190503948Y-137803948D03*
%TO.P,H8,3,3*%
%TO.N,unconnected-(H8-Pad3)*%
X192300000Y-139600000D03*
%TO.P,H8,4,4*%
%TO.N,GPIO03*%
X194096051Y-141396051D03*
%TD*%
D18*
%TO.P,R9,1*%
%TO.N,GND*%
X189100000Y-118500000D03*
%TO.P,R9,2*%
%TO.N,Net-(USBC1-CC1)*%
X190600000Y-118500000D03*
%TD*%
D14*
%TO.P,R1,1*%
%TO.N,Net-(U5-STAT)*%
X217350000Y-125300000D03*
%TO.P,R1,2*%
%TO.N,+3V3*%
X217350000Y-123800000D03*
%TD*%
D24*
%TO.P,USBC1,*%
%TO.N,*%
X191510000Y-122500000D03*
X191510000Y-128300000D03*
D25*
%TO.P,USBC1,1,EH*%
%TO.N,GND*%
X192010000Y-129730000D03*
D26*
%TO.P,USBC1,2,EH*%
X187830000Y-129730000D03*
%TO.P,USBC1,3,EH*%
X187830000Y-121070000D03*
D25*
%TO.P,USBC1,4,EH*%
X192010000Y-121070000D03*
D27*
%TO.P,USBC1,A1B12,GND*%
X192770000Y-122200000D03*
%TO.P,USBC1,A4B9,VBUS*%
%TO.N,+5V*%
X192770000Y-123000000D03*
D28*
%TO.P,USBC1,A5,CC1*%
%TO.N,Net-(USBC1-CC1)*%
X192770000Y-124150000D03*
%TO.P,USBC1,A6,DP1*%
%TO.N,D+*%
X192770000Y-125150000D03*
%TO.P,USBC1,A7,DN1*%
%TO.N,D-*%
X192770000Y-125650000D03*
%TO.P,USBC1,A8,SBU1*%
%TO.N,unconnected-(USBC1-SBU1-PadA8)*%
X192770000Y-126650000D03*
D27*
%TO.P,USBC1,B1A12,GND*%
%TO.N,GND*%
X192770000Y-128600000D03*
%TO.P,USBC1,B4A9,VBUS*%
%TO.N,+5V*%
X192770000Y-127800000D03*
D28*
%TO.P,USBC1,B5,CC2*%
%TO.N,Net-(USBC1-CC2)*%
X192770000Y-127150000D03*
%TO.P,USBC1,B6,DP2*%
%TO.N,D+*%
X192770000Y-126150000D03*
%TO.P,USBC1,B7,DN2*%
%TO.N,D-*%
X192770000Y-124650000D03*
%TO.P,USBC1,B8,SBU2*%
%TO.N,unconnected-(USBC1-SBU2-PadB8)*%
X192770000Y-123650000D03*
%TD*%
D29*
%TO.P,R2,1*%
%TO.N,Net-(U5-ILIM)*%
X225100000Y-123800000D03*
%TO.P,R2,2*%
%TO.N,GND*%
X227100000Y-123800000D03*
%TD*%
D30*
%TO.P,U4,1,GND*%
%TO.N,GND*%
X211000000Y-76380000D03*
%TO.P,U4,2,3V3*%
%TO.N,+3V3*%
X211000000Y-77650000D03*
%TO.P,U4,3,EN*%
%TO.N,EN*%
X211000000Y-78920000D03*
%TO.P,U4,4,GPIO4/TOUCH4/ADC1_CH3*%
%TO.N,GPIO04*%
X211000000Y-80190000D03*
%TO.P,U4,5,GPIO5/TOUCH5/ADC1_CH4*%
%TO.N,GPIO05*%
X211000000Y-81460000D03*
%TO.P,U4,6,GPIO6/TOUCH6/ADC1_CH5*%
%TO.N,GPIO06*%
X211000000Y-82730000D03*
%TO.P,U4,7,GPIO7/TOUCH7/ADC1_CH6*%
%TO.N,GPIO07*%
X211000000Y-84000000D03*
%TO.P,U4,8,GPIO15/U0RTS/ADC2_CH4/XTAL_32K_P*%
%TO.N,GPIO15*%
X211000000Y-85270000D03*
%TO.P,U4,9,GPIO16/U0CTS/ADC2_CH5/XTAL_32K_N*%
%TO.N,GPIO16*%
X211000000Y-86540000D03*
%TO.P,U4,10,GPIO17/U1TXD/ADC2_CH6*%
%TO.N,GPIO17*%
X211000000Y-87810000D03*
%TO.P,U4,11,GPIO18/U1RXD/ADC2_CH7/CLK_OUT3*%
%TO.N,GPIO18*%
X211000000Y-89080000D03*
%TO.P,U4,12,GPIO8/TOUCH8/ADC1_CH7/SUBSPICS1*%
%TO.N,GPIO08*%
X211000000Y-90350000D03*
%TO.P,U4,13,GPIO19/U1RTS/ADC2_CH8/CLK_OUT2/USB_D-*%
%TO.N,D-*%
X211000000Y-91620000D03*
%TO.P,U4,14,GPIO20/U1CTS/ADC2_CH9/CLK_OUT1/USB_D+*%
%TO.N,D+*%
X211000000Y-92890000D03*
D31*
%TO.P,U4,15,GPIO3/TOUCH3/ADC1_CH2*%
%TO.N,GPIO03*%
X212765000Y-94140000D03*
%TO.P,U4,16,GPIO46*%
%TO.N,GPIO46*%
X214035000Y-94140000D03*
%TO.P,U4,17,GPIO9/TOUCH9/ADC1_CH8/FSPIHD/SUBSPIHD*%
%TO.N,GPIO09*%
X215305000Y-94140000D03*
%TO.P,U4,18,GPIO10/TOUCH10/ADC1_CH9/FSPICS0/FSPIIO4/SUBSPICS0*%
%TO.N,GPIO10*%
X216575000Y-94140000D03*
%TO.P,U4,19,GPIO11/TOUCH11/ADC2_CH0/FSPID/FSPIIO5/SUBSPID*%
%TO.N,GPIO11*%
X217845000Y-94140000D03*
%TO.P,U4,20,GPIO12/TOUCH12/ADC2_CH1/FSPICLK/FSPIIO6/SUBSPICLK*%
%TO.N,GPIO12*%
X219115000Y-94140000D03*
%TO.P,U4,21,GPIO13/TOUCH13/ADC2_CH2/FSPIQ/FSPIIO7/SUBSPIQ*%
%TO.N,GPIO13*%
X220385000Y-94140000D03*
%TO.P,U4,22,GPIO14/TOUCH14/ADC2_CH3/FSPIWP/FSPIDQS/SUBSPIWP*%
%TO.N,GPIO14*%
X221655000Y-94140000D03*
%TO.P,U4,23,GPIO21*%
%TO.N,GPIO21*%
X222925000Y-94140000D03*
%TO.P,U4,24,GPIO47/SPICLK_P/SUBSPICLK_P_DIFF*%
%TO.N,GPIO47*%
X224195000Y-94140000D03*
%TO.P,U4,25,GPIO48/SPICLK_N/SUBSPICLK_N_DIFF*%
%TO.N,GPIO48*%
X225465000Y-94140000D03*
%TO.P,U4,26,GPIO45*%
%TO.N,GPIO45*%
X226735000Y-94140000D03*
D30*
%TO.P,U4,27,GPIO0/BOOT*%
%TO.N,GPIO00*%
X228500000Y-92890000D03*
%TO.P,U4,28,SPIIO6/GPIO35/FSPID/SUBSPID*%
%TO.N,GPIO35*%
X228500000Y-91620000D03*
%TO.P,U4,29,SPIIO7/GPIO36/FSPICLK/SUBSPICLK*%
%TO.N,GPIO36*%
X228500000Y-90350000D03*
%TO.P,U4,30,SPIDQS/GPIO37/FSPIQ/SUBSPIQ*%
%TO.N,GPIO37*%
X228500000Y-89080000D03*
%TO.P,U4,31,GPIO38/FSPIWP/SUBSPIWP*%
%TO.N,GPIO38*%
X228500000Y-87810000D03*
%TO.P,U4,32,MTCK/GPIO39/CLK_OUT3/SUBSPICS1*%
%TO.N,GPIO39*%
X228500000Y-86540000D03*
%TO.P,U4,33,MTDO/GPIO40/CLK_OUT2*%
%TO.N,GPIO40*%
X228500000Y-85270000D03*
%TO.P,U4,34,MTDI/GPIO41/CLK_OUT1*%
%TO.N,GPIO41*%
X228500000Y-84000000D03*
%TO.P,U4,35,MTMS/GPIO42*%
%TO.N,GPIO42*%
X228500000Y-82730000D03*
%TO.P,U4,36,U0RXD/GPIO44/CLK_OUT2*%
%TO.N,GPIO44*%
X228500000Y-81460000D03*
%TO.P,U4,37,U0TXD/GPIO43/CLK_OUT1*%
%TO.N,GPIO43*%
X228500000Y-80190000D03*
%TO.P,U4,38,GPIO2/TOUCH2/ADC1_CH1*%
%TO.N,GPIO02*%
X228500000Y-78920000D03*
%TO.P,U4,39,GPIO1/TOUCH1/ADC1_CH0*%
%TO.N,GPIO01*%
X228500000Y-77650000D03*
%TO.P,U4,40,GND*%
%TO.N,GND*%
X228500000Y-76380000D03*
D32*
%TO.P,U4,41,GND*%
X216850000Y-82700000D03*
X216850000Y-84100000D03*
X216850000Y-85500000D03*
X216850000Y-85500000D03*
X218250000Y-82700000D03*
X218250000Y-82700000D03*
X218250000Y-84100000D03*
X218250000Y-85500000D03*
X219650000Y-82700000D03*
X219650000Y-84100000D03*
X219650000Y-85500000D03*
%TD*%
D18*
%TO.P,R5,1*%
%TO.N,+3V3*%
X201100000Y-78200000D03*
%TO.P,R5,2*%
%TO.N,EN*%
X202600000Y-78200000D03*
%TD*%
D33*
%TO.P,D5,1,K*%
%TO.N,GND*%
X248000000Y-111160000D03*
%TO.P,D5,2,A*%
%TO.N,Net-(D5-A)*%
X248000000Y-114200000D03*
%TD*%
%TO.P,D4,1,K*%
%TO.N,GND*%
X193000000Y-110900000D03*
%TO.P,D4,2,A*%
%TO.N,Net-(D4-A)*%
X193000000Y-113940000D03*
%TD*%
D34*
%TO.P,CN1,1,1*%
%TO.N,+8V*%
X253150000Y-124500000D03*
%TO.P,CN1,2,2*%
%TO.N,GND*%
X253150000Y-126500000D03*
%TD*%
D35*
%TO.P,U3,1,CLKIN*%
%TO.N,GND*%
X218050000Y-105950000D03*
%TO.P,U3,2,NC*%
%TO.N,unconnected-(U3-NC-Pad2)*%
X218050000Y-106450000D03*
%TO.P,U3,3,NC*%
%TO.N,unconnected-(U3-NC-Pad3)*%
X218050000Y-106950000D03*
%TO.P,U3,4,NC*%
%TO.N,unconnected-(U3-NC-Pad4)*%
X218050000Y-107450000D03*
%TO.P,U3,5,NC*%
%TO.N,unconnected-(U3-NC-Pad5)*%
X218050000Y-107950000D03*
%TO.P,U3,6,AUX_DA*%
%TO.N,unconnected-(U3-AUX_DA-Pad6)*%
X218050000Y-108450000D03*
D36*
%TO.P,U3,7,AUX_CL*%
%TO.N,unconnected-(U3-AUX_CL-Pad7)*%
X218750000Y-109150000D03*
%TO.P,U3,8,VLOGIC*%
%TO.N,+3V3*%
X219250000Y-109150000D03*
%TO.P,U3,9,AD0*%
%TO.N,GPIO12*%
X219750000Y-109150000D03*
%TO.P,U3,10,REGOUT*%
%TO.N,Net-(U3-REGOUT)*%
X220250000Y-109150000D03*
%TO.P,U3,11,FSYNC*%
%TO.N,GND*%
X220750000Y-109150000D03*
%TO.P,U3,12,INT*%
%TO.N,GPIO13*%
X221250000Y-109150000D03*
D35*
%TO.P,U3,13,VDD*%
%TO.N,+3V3*%
X221950000Y-108450000D03*
%TO.P,U3,14,NC*%
%TO.N,unconnected-(U3-NC-Pad14)*%
X221950000Y-107950000D03*
%TO.P,U3,15,NC*%
%TO.N,unconnected-(U3-NC-Pad15)*%
X221950000Y-107450000D03*
%TO.P,U3,16,NC*%
%TO.N,unconnected-(U3-NC-Pad16)*%
X221950000Y-106950000D03*
%TO.P,U3,17,NC*%
%TO.N,unconnected-(U3-NC-Pad17)*%
X221950000Y-106450000D03*
%TO.P,U3,18,GND*%
%TO.N,GND*%
X221950000Y-105950000D03*
D36*
%TO.P,U3,19,RESV*%
%TO.N,unconnected-(U3-RESV-Pad19)*%
X221250000Y-105250000D03*
%TO.P,U3,20,CPOUT*%
%TO.N,Net-(U3-CPOUT)*%
X220750000Y-105250000D03*
%TO.P,U3,21,RESV*%
%TO.N,unconnected-(U3-RESV-Pad21)*%
X220250000Y-105250000D03*
%TO.P,U3,22,RESV*%
%TO.N,unconnected-(U3-RESV-Pad22)*%
X219750000Y-105250000D03*
%TO.P,U3,23,SCL*%
%TO.N,GPIO11*%
X219250000Y-105250000D03*
%TO.P,U3,24,SDA*%
%TO.N,GPIO10*%
X218750000Y-105250000D03*
%TD*%
D37*
%TO.P,SW1,1,A*%
%TO.N,GND*%
X200500000Y-85360000D03*
%TO.P,SW1,2,B*%
%TO.N,EN*%
X200500000Y-81000000D03*
%TD*%
%TO.P,SW2,1,A*%
%TO.N,GND*%
X237500000Y-105860000D03*
%TO.P,SW2,2,B*%
%TO.N,GPIO00*%
X237500000Y-101500000D03*
%TD*%
D38*
%TO.P,H6,1,1*%
%TO.N,+8V*%
X194092103Y-78611846D03*
D23*
%TO.P,H6,2,2*%
%TO.N,GND*%
X192296052Y-80407897D03*
%TO.P,H6,3,3*%
%TO.N,unconnected-(H6-Pad3)*%
X190500000Y-82203949D03*
%TO.P,H6,4,4*%
%TO.N,GPIO04*%
X188703949Y-84000000D03*
%TD*%
D11*
%TO.P,H1,1,1*%
%TO.N,GND*%
X208740000Y-137000000D03*
D12*
%TO.P,H1,2,2*%
%TO.N,+3V3*%
X211280000Y-137000000D03*
%TO.P,H1,3,3*%
%TO.N,GPIO03*%
X213820000Y-137000000D03*
%TO.P,H1,4,4*%
%TO.N,GPIO09*%
X216360000Y-137000000D03*
%TO.P,H1,5,5*%
%TO.N,GPIO11*%
X218900000Y-137000000D03*
%TO.P,H1,6,6*%
%TO.N,GPIO13*%
X221440000Y-137000000D03*
%TO.P,H1,7,7*%
%TO.N,GPIO47*%
X223980000Y-137000000D03*
%TO.P,H1,8,8*%
%TO.N,GPIO45*%
X226520000Y-137000000D03*
%TO.P,H1,9,9*%
%TO.N,GPIO36*%
X229060000Y-137000000D03*
%TO.P,H1,10,10*%
%TO.N,GPIO38*%
X231600000Y-137000000D03*
%TD*%
D10*
%TO.P,C3,1*%
%TO.N,IN1*%
X203620000Y-116400000D03*
%TO.P,C3,2*%
%TO.N,GND*%
X206800000Y-116400000D03*
%TD*%
D39*
%TO.P,H5,1,1*%
%TO.N,+8V*%
X251296051Y-84296051D03*
D23*
%TO.P,H5,2,2*%
%TO.N,GND*%
X249500000Y-82500000D03*
%TO.P,H5,3,3*%
%TO.N,unconnected-(H5-Pad3)*%
X247703948Y-80703948D03*
%TO.P,H5,4,4*%
%TO.N,GPIO01*%
X245907897Y-78907897D03*
%TD*%
D40*
%TO.P,U5,1,STAT*%
%TO.N,Net-(U5-STAT)*%
X219110000Y-125200000D03*
%TO.P,U5,2,~{EN}*%
%TO.N,GND*%
X219770000Y-125200000D03*
%TO.P,U5,3,VSNS*%
%TO.N,Net-(U5-VSNS)*%
X220430000Y-125200000D03*
%TO.P,U5,4,ILIM*%
%TO.N,Net-(U5-ILIM)*%
X221090000Y-125200000D03*
%TO.P,U5,5,GND*%
%TO.N,GND*%
X221090000Y-122400000D03*
%TO.P,U5,6,IN2*%
%TO.N,IN2*%
X220430000Y-122400000D03*
%TO.P,U5,7,OUT*%
%TO.N,+3V3*%
X219770000Y-122400000D03*
%TO.P,U5,8,IN1*%
%TO.N,IN1*%
X219110000Y-122400000D03*
D41*
%TO.P,U5,9,EP*%
%TO.N,GND*%
X220100000Y-123800000D03*
%TD*%
D18*
%TO.P,R4,1*%
%TO.N,IN1*%
X226600000Y-128800000D03*
%TO.P,R4,2*%
%TO.N,Net-(U5-VSNS)*%
X225100000Y-128800000D03*
%TD*%
D10*
%TO.P,C2,1*%
%TO.N,IN1*%
X203600000Y-119300000D03*
%TO.P,C2,2*%
%TO.N,GND*%
X206780000Y-119300000D03*
%TD*%
%TO.P,C8,1*%
%TO.N,IN2*%
X239200000Y-113700000D03*
%TO.P,C8,2*%
%TO.N,GND*%
X236020000Y-113700000D03*
%TD*%
D42*
%TO.P,H7,1,1*%
%TO.N,+8V*%
X246005923Y-141294077D03*
D23*
%TO.P,H7,2,2*%
%TO.N,GND*%
X247801974Y-139498026D03*
%TO.P,H7,3,3*%
%TO.N,unconnected-(H7-Pad3)*%
X249598026Y-137701974D03*
%TO.P,H7,4,4*%
%TO.N,GPIO38*%
X251394077Y-135905923D03*
%TD*%
D10*
%TO.P,C12,1*%
%TO.N,+3V3*%
X225570000Y-106250000D03*
%TO.P,C12,2*%
%TO.N,GND*%
X228750000Y-106250000D03*
%TD*%
D43*
%TO.N,GND*%
X231000000Y-106600000D03*
X250000000Y-127749997D03*
X223000000Y-110600000D03*
X206000000Y-142000000D03*
X243300000Y-138400000D03*
X222600000Y-121800000D03*
X220500000Y-84750000D03*
X243300000Y-137200000D03*
X212000000Y-106800000D03*
X231000000Y-109400000D03*
X220500000Y-82000000D03*
X194000000Y-135600000D03*
X248100000Y-107400000D03*
X209300000Y-116400000D03*
X233300000Y-116500000D03*
X194000000Y-135000000D03*
X214750000Y-102800000D03*
X222600000Y-123800000D03*
X219000000Y-82000000D03*
X197300000Y-122900000D03*
X195500000Y-83150003D03*
X190200000Y-122800000D03*
X233200000Y-113700000D03*
X209300000Y-113500000D03*
X220500000Y-83500000D03*
X248000000Y-87000000D03*
X214800000Y-105900000D03*
X200400000Y-134100000D03*
X247349997Y-87000000D03*
X217500000Y-82000000D03*
X217500000Y-83500000D03*
X223000000Y-103000000D03*
X243300000Y-137800000D03*
X250000000Y-128400000D03*
X244900000Y-127900000D03*
X248650003Y-87000000D03*
X250000000Y-127099994D03*
X240000000Y-131100000D03*
X219000000Y-84750000D03*
X195500000Y-110700000D03*
X186200000Y-115000000D03*
X202200000Y-86100000D03*
X233400000Y-119400000D03*
X216850000Y-127550000D03*
X228800000Y-123900000D03*
X188300000Y-122900000D03*
X208600000Y-76400000D03*
X219000000Y-83500000D03*
X217500000Y-84750000D03*
X237500000Y-108000000D03*
X230400000Y-76380000D03*
X224200000Y-101600000D03*
X195500000Y-81849997D03*
X228700000Y-126300000D03*
X205800000Y-137600000D03*
X190200000Y-128000000D03*
X194000000Y-134400000D03*
X195500000Y-82500000D03*
X209200000Y-119300000D03*
X225850000Y-114550000D03*
X214600000Y-114550000D03*
X254000000Y-115000000D03*
X188200000Y-128100000D03*
%TO.N,+5V*%
X197300000Y-127500000D03*
X194500000Y-119800000D03*
X194200000Y-123000000D03*
X194200000Y-127700000D03*
%TO.N,+8V*%
X250000000Y-123600000D03*
X192750003Y-85500000D03*
X250000000Y-122100000D03*
X251500000Y-143050003D03*
X252750003Y-78500000D03*
X244500000Y-86000000D03*
X188500000Y-77500000D03*
X188100000Y-141000000D03*
X192000000Y-85500000D03*
X252000000Y-78500000D03*
X191249997Y-85500000D03*
X188500000Y-76749997D03*
X251249997Y-78500000D03*
X188500000Y-78250003D03*
X186700000Y-141000000D03*
X244900000Y-123100000D03*
X245250003Y-86000000D03*
X249800000Y-118700000D03*
X251500000Y-141549997D03*
X187400000Y-141000000D03*
X250000000Y-122900000D03*
X243749997Y-86000000D03*
X251500000Y-142300000D03*
%TO.N,EN*%
X212800000Y-78900000D03*
X204900000Y-78900000D03*
%TO.N,+3V3*%
X199500000Y-107500000D03*
X208500000Y-77900000D03*
X219770000Y-120550000D03*
X199200000Y-78200000D03*
X215500000Y-111000000D03*
X239500000Y-108000000D03*
X239500000Y-109000000D03*
X217350000Y-122550000D03*
X212100000Y-130600000D03*
X225750000Y-104400000D03*
X199500000Y-109000000D03*
X211200000Y-130600000D03*
%TO.N,GPIO03*%
X209000000Y-98000000D03*
%TO.N,GPIO08*%
X208000000Y-98000000D03*
%TO.N,GPIO14*%
X219000000Y-98000000D03*
%TO.N,GPIO10*%
X212000000Y-98000000D03*
%TO.N,GPIO11*%
X213000000Y-98000000D03*
%TO.N,GPIO12*%
X214000000Y-98000000D03*
X219500000Y-110400000D03*
%TO.N,GPIO13*%
X218100000Y-98000000D03*
%TO.N,GPIO09*%
X211000000Y-98000000D03*
%TO.N,GPIO35*%
X231000000Y-98000000D03*
%TO.N,GPIO38*%
X233800000Y-98000000D03*
%TO.N,GPIO36*%
X231900000Y-98000000D03*
%TO.N,GPIO37*%
X232900000Y-98000000D03*
%TO.N,GPIO46*%
X210000000Y-98000000D03*
%TO.N,GPIO47*%
X228000000Y-98000000D03*
%TO.N,GPIO45*%
X230000000Y-98000000D03*
%TO.N,GPIO00*%
X237400000Y-100000000D03*
X229900000Y-96100000D03*
%TO.N,D-*%
X213700000Y-91100000D03*
X195000000Y-124500000D03*
%TO.N,D+*%
X195000000Y-125300000D03*
X213700000Y-92100000D03*
%TO.N,GPIO48*%
X229000000Y-98000000D03*
%TD*%
D44*
%TO.N,GND*%
X206500000Y-141500000D02*
X206000000Y-142000000D01*
X223000000Y-104900000D02*
X222051000Y-105849000D01*
X195300000Y-110900000D02*
X195500000Y-110700000D01*
D45*
X217250000Y-102250000D02*
X215300000Y-102250000D01*
X227100000Y-123800000D02*
X228700000Y-123800000D01*
D44*
X216900000Y-84100000D02*
X217500000Y-83500000D01*
X214600000Y-114550000D02*
X215100000Y-115050000D01*
X211000000Y-76380000D02*
X208620000Y-76380000D01*
X219750000Y-85500000D02*
X220500000Y-84750000D01*
X216850000Y-85400000D02*
X217500000Y-84750000D01*
D46*
X243300000Y-137800000D02*
X246103948Y-137800000D01*
D44*
X200250000Y-122900000D02*
X197300000Y-122900000D01*
D45*
X192770000Y-128970000D02*
X192010000Y-129730000D01*
D44*
X193000000Y-110900000D02*
X195300000Y-110900000D01*
D46*
X195500000Y-82500000D02*
X194388155Y-82500000D01*
D44*
X220100000Y-123800000D02*
X222600000Y-123800000D01*
D45*
X216850000Y-82700000D02*
X216850000Y-82650000D01*
D44*
X200400000Y-134100000D02*
X200400000Y-131500000D01*
X242720000Y-131100000D02*
X240000000Y-131100000D01*
X215100000Y-115050000D02*
X217190000Y-115050000D01*
D46*
X248000000Y-87000000D02*
X247349997Y-87000000D01*
D44*
X231000000Y-106600000D02*
X230650000Y-106250000D01*
D45*
X189100000Y-132300000D02*
X189100000Y-131000000D01*
D44*
X190200000Y-128000000D02*
X190200000Y-128760000D01*
D46*
X195500000Y-82500000D02*
X195500000Y-83150003D01*
D45*
X219650000Y-85500000D02*
X219750000Y-85500000D01*
D44*
X253500000Y-114500000D02*
X251580000Y-114500000D01*
X225850000Y-114550000D02*
X225350000Y-115050000D01*
X219800000Y-82700000D02*
X220500000Y-82000000D01*
X230650000Y-106250000D02*
X228750000Y-106250000D01*
X225350000Y-115050000D02*
X223170000Y-115050000D01*
X242700000Y-127850000D02*
X242650000Y-127800000D01*
X190200000Y-122800000D02*
X190200000Y-122140000D01*
D45*
X223460000Y-99500000D02*
X223460000Y-100860000D01*
X192770000Y-121830000D02*
X192010000Y-121070000D01*
D44*
X190200000Y-122140000D02*
X191270000Y-121070000D01*
D46*
X251049997Y-126700000D02*
X253150000Y-126700000D01*
D45*
X228700000Y-123800000D02*
X228800000Y-123900000D01*
D44*
X230400000Y-76380000D02*
X228500000Y-76380000D01*
D46*
X194000000Y-134400000D02*
X194000000Y-135600000D01*
D45*
X218250000Y-84100000D02*
X218400000Y-84100000D01*
D46*
X246103948Y-137800000D02*
X247801974Y-139498026D01*
D44*
X209200000Y-119300000D02*
X206780000Y-119300000D01*
X222051000Y-105849000D02*
X221950000Y-105849000D01*
D45*
X192770000Y-122200000D02*
X192770000Y-121830000D01*
D46*
X193307896Y-135000000D02*
X190503948Y-137803948D01*
D45*
X189100000Y-118500000D02*
X189100000Y-119800000D01*
X219650000Y-84100000D02*
X219900000Y-84100000D01*
X237500000Y-105860000D02*
X237500000Y-108000000D01*
D44*
X236020000Y-113700000D02*
X233200000Y-113700000D01*
X222600000Y-121800000D02*
X222000000Y-122400000D01*
D45*
X223460000Y-100860000D02*
X224200000Y-101600000D01*
D44*
X188300000Y-121540000D02*
X187830000Y-121070000D01*
D45*
X200500000Y-85360000D02*
X201460000Y-85360000D01*
X231000000Y-109400000D02*
X230600000Y-109000000D01*
D44*
X216850000Y-127550000D02*
X218137000Y-127550000D01*
D46*
X250000000Y-127099994D02*
X250000000Y-128400000D01*
D44*
X248000000Y-107500000D02*
X248100000Y-107400000D01*
D45*
X216850000Y-85500000D02*
X216850000Y-85400000D01*
D44*
X208620000Y-76380000D02*
X208600000Y-76400000D01*
X218137000Y-127550000D02*
X219770000Y-125917000D01*
D46*
X195500000Y-81849997D02*
X195500000Y-82500000D01*
D45*
X214850000Y-105950000D02*
X214800000Y-105900000D01*
X202480000Y-86100000D02*
X202200000Y-86100000D01*
D44*
X190200000Y-128760000D02*
X191170000Y-129730000D01*
X223170000Y-115050000D02*
X223100000Y-115120000D01*
D45*
X223000000Y-110600000D02*
X222900000Y-110500000D01*
D46*
X243300000Y-137200000D02*
X243300000Y-138400000D01*
D44*
X208740000Y-137000000D02*
X206400000Y-137000000D01*
X244800000Y-127800000D02*
X244900000Y-127900000D01*
X188300000Y-122900000D02*
X188300000Y-121540000D01*
X242650000Y-127800000D02*
X244800000Y-127800000D01*
X186200000Y-115000000D02*
X186700000Y-114500000D01*
X188200000Y-129360000D02*
X187830000Y-129730000D01*
X191170000Y-129730000D02*
X192010000Y-129730000D01*
X186700000Y-114500000D02*
X188480000Y-114500000D01*
X206800000Y-113500000D02*
X209300000Y-113500000D01*
D45*
X218050000Y-105950000D02*
X214850000Y-105950000D01*
D44*
X218300000Y-82700000D02*
X219000000Y-82000000D01*
X208740000Y-141500000D02*
X206500000Y-141500000D01*
X251580000Y-114500000D02*
X251500000Y-114580000D01*
D45*
X222900000Y-110500000D02*
X220750000Y-110500000D01*
D44*
X188200000Y-128100000D02*
X188200000Y-129360000D01*
D45*
X220750000Y-110500000D02*
X220750000Y-109150000D01*
X218250000Y-82700000D02*
X218300000Y-82700000D01*
D44*
X206400000Y-137000000D02*
X205800000Y-137600000D01*
X219900000Y-84100000D02*
X220500000Y-83500000D01*
D46*
X248000000Y-84000000D02*
X249500000Y-82500000D01*
D45*
X189100000Y-131000000D02*
X187830000Y-129730000D01*
D44*
X216850000Y-82650000D02*
X217500000Y-82000000D01*
X233300000Y-116500000D02*
X236020000Y-116500000D01*
D46*
X250000000Y-127749997D02*
X251049997Y-126700000D01*
D45*
X189100000Y-119800000D02*
X187830000Y-121070000D01*
D44*
X222000000Y-122400000D02*
X221131000Y-122400000D01*
D45*
X201460000Y-85360000D02*
X202200000Y-86100000D01*
D46*
X194000000Y-135000000D02*
X193307896Y-135000000D01*
D45*
X230600000Y-109000000D02*
X228680000Y-109000000D01*
D44*
X254000000Y-115000000D02*
X253500000Y-114500000D01*
D45*
X203900000Y-84680000D02*
X202480000Y-86100000D01*
D46*
X248000000Y-87000000D02*
X248000000Y-84000000D01*
D44*
X223000000Y-103000000D02*
X223000000Y-104900000D01*
D45*
X219650000Y-82700000D02*
X219800000Y-82700000D01*
X212000000Y-106800000D02*
X212000000Y-109000000D01*
X192770000Y-128600000D02*
X192770000Y-128970000D01*
D44*
X248000000Y-111160000D02*
X248000000Y-107500000D01*
X218400000Y-84100000D02*
X219000000Y-83500000D01*
X218250000Y-85500000D02*
X219000000Y-84750000D01*
D45*
X215300000Y-102250000D02*
X214750000Y-102800000D01*
D46*
X194388155Y-82500000D02*
X192296052Y-80407897D01*
D45*
X226600000Y-126300000D02*
X228700000Y-126300000D01*
D44*
X219770000Y-125917000D02*
X219770000Y-125200000D01*
X233400000Y-119400000D02*
X236020000Y-119400000D01*
X191270000Y-121070000D02*
X192010000Y-121070000D01*
D45*
X216850000Y-84100000D02*
X216900000Y-84100000D01*
D46*
X248650003Y-87000000D02*
X248000000Y-87000000D01*
D44*
X188480000Y-114500000D02*
X188600000Y-114620000D01*
X206800000Y-116400000D02*
X209300000Y-116400000D01*
%TO.N,+5V*%
X197220000Y-131500000D02*
X200250000Y-128470000D01*
X200250000Y-128470000D02*
X200250000Y-127500000D01*
X194111000Y-127789000D02*
X192770000Y-127789000D01*
X194200000Y-123000000D02*
X194189000Y-123011000D01*
X200250000Y-127500000D02*
X197300000Y-127500000D01*
X194200000Y-127700000D02*
X194111000Y-127789000D01*
X194500000Y-119800000D02*
X194240000Y-119800000D01*
X194189000Y-123011000D02*
X192770000Y-123011000D01*
X194240000Y-119800000D02*
X193000000Y-118560000D01*
D45*
%TO.N,IN1*%
X225200000Y-130200000D02*
X217800000Y-130200000D01*
X215600000Y-122800000D02*
X217430000Y-120970000D01*
X215600000Y-128000000D02*
X215600000Y-122800000D01*
D44*
X217190000Y-118480000D02*
X217190000Y-120480000D01*
X217190000Y-120480000D02*
X217680000Y-120970000D01*
X206550000Y-122250000D02*
X203600000Y-119300000D01*
X203600000Y-119300000D02*
X203600000Y-113520000D01*
X200250000Y-125200000D02*
X203600000Y-121850000D01*
X203600000Y-121850000D02*
X203600000Y-119300000D01*
X213520000Y-118230000D02*
X217190000Y-118230000D01*
D45*
X217800000Y-130200000D02*
X215600000Y-128000000D01*
D44*
X203600000Y-113520000D02*
X203620000Y-113500000D01*
X206550000Y-125200000D02*
X213520000Y-118230000D01*
X217430000Y-120970000D02*
X217680000Y-120970000D01*
X219110000Y-122400000D02*
X217680000Y-120970000D01*
X206550000Y-125200000D02*
X206550000Y-122250000D01*
X216620000Y-118800000D02*
X217190000Y-118230000D01*
D45*
X226600000Y-128800000D02*
X225200000Y-130200000D01*
D44*
X216870000Y-118800000D02*
X217190000Y-118480000D01*
%TO.N,+8V*%
X244800000Y-123200000D02*
X244900000Y-123100000D01*
D46*
X192980257Y-77500000D02*
X194092103Y-78611846D01*
X187400000Y-137315794D02*
X188707897Y-136007897D01*
X252000000Y-78500000D02*
X252000000Y-83592102D01*
D44*
X245880000Y-125430000D02*
X243650000Y-123200000D01*
X243650000Y-123200000D02*
X242650000Y-123200000D01*
D46*
X187400000Y-141000000D02*
X187400000Y-137315794D01*
X252000000Y-83592102D02*
X251296051Y-84296051D01*
D44*
X249650000Y-118550000D02*
X249800000Y-118700000D01*
D46*
X251500000Y-142300000D02*
X247011846Y-142300000D01*
D44*
X242650000Y-123200000D02*
X244800000Y-123200000D01*
D46*
X251500000Y-141549997D02*
X251500000Y-143050003D01*
D44*
X245880000Y-130600000D02*
X245880000Y-125430000D01*
D46*
X186700000Y-141000000D02*
X188100000Y-141000000D01*
X252599000Y-124399000D02*
X253150000Y-124399000D01*
X251100000Y-122900000D02*
X252599000Y-124399000D01*
X250000000Y-122900000D02*
X251100000Y-122900000D01*
X251249997Y-78500000D02*
X252750003Y-78500000D01*
X188500000Y-77500000D02*
X192980257Y-77500000D01*
X247011846Y-142300000D02*
X246005923Y-141294077D01*
X188500000Y-78250003D02*
X188500000Y-76749997D01*
X250000000Y-122100000D02*
X250000000Y-123600000D01*
D44*
X248100000Y-118550000D02*
X249650000Y-118550000D01*
%TO.N,IN2*%
X239200000Y-119400000D02*
X239200000Y-113700000D01*
X223082075Y-118300000D02*
X223100000Y-118300000D01*
X239200000Y-123050000D02*
X239200000Y-119400000D01*
X229150000Y-118300000D02*
X223100000Y-118300000D01*
X241650000Y-125500000D02*
X239200000Y-123050000D01*
X220430000Y-122400000D02*
X220430000Y-120952075D01*
X236350000Y-125500000D02*
X236350000Y-122250000D01*
X220430000Y-120952075D02*
X223082075Y-118300000D01*
X236350000Y-125500000D02*
X229150000Y-118300000D01*
X242650000Y-125500000D02*
X241650000Y-125500000D01*
X236350000Y-122250000D02*
X239200000Y-119400000D01*
D45*
%TO.N,EN*%
X203400000Y-81000000D02*
X203900000Y-81500000D01*
X204900000Y-78900000D02*
X204900000Y-79000000D01*
X211000000Y-78920000D02*
X212780000Y-78920000D01*
X204900000Y-78900000D02*
X204200000Y-78200000D01*
X203900000Y-80000000D02*
X203900000Y-81500000D01*
X212780000Y-78920000D02*
X212800000Y-78900000D01*
X204900000Y-79000000D02*
X203900000Y-80000000D01*
X200500000Y-81000000D02*
X203400000Y-81000000D01*
X204200000Y-78200000D02*
X202600000Y-78200000D01*
%TO.N,+3V3*%
X218982824Y-109876000D02*
X216056000Y-109876000D01*
X201100000Y-78200000D02*
X199200000Y-78200000D01*
D44*
X211000000Y-77650000D02*
X208750000Y-77650000D01*
X224820956Y-106250000D02*
X222519956Y-108551000D01*
X208750000Y-77650000D02*
X208500000Y-77900000D01*
X225570000Y-106250000D02*
X224820956Y-106250000D01*
D45*
X216000000Y-110500000D02*
X218358824Y-110500000D01*
X218358824Y-110500000D02*
X219250000Y-109608824D01*
D47*
X219770000Y-120550000D02*
X219770000Y-122400000D01*
D44*
X225750000Y-106070000D02*
X225570000Y-106250000D01*
X217350000Y-122550000D02*
X217350000Y-123800000D01*
D47*
X219770000Y-120550000D02*
X219745000Y-120575000D01*
D45*
X215500000Y-111000000D02*
X216000000Y-110500000D01*
D44*
X222519956Y-108551000D02*
X221950000Y-108551000D01*
X217199997Y-123649997D02*
X217350000Y-123800000D01*
D45*
X216056000Y-109876000D02*
X215180000Y-109000000D01*
D44*
X225750000Y-104400000D02*
X225750000Y-106070000D01*
D45*
X219250000Y-109150000D02*
X219250000Y-109608824D01*
X219250000Y-109608824D02*
X218982824Y-109876000D01*
%TO.N,Net-(U3-REGOUT)*%
X225500000Y-109000000D02*
X225500000Y-111250000D01*
X225500000Y-111250000D02*
X220250000Y-111250000D01*
X220250000Y-111250000D02*
X220250000Y-109150000D01*
%TO.N,Net-(U3-CPOUT)*%
X220750000Y-101750000D02*
X220750000Y-105250000D01*
D44*
%TO.N,Net-(D4-A)*%
X193000000Y-117060000D02*
X193000000Y-113600000D01*
%TO.N,Net-(D5-A)*%
X248100000Y-117050000D02*
X248100000Y-114300000D01*
X248100000Y-114300000D02*
X248000000Y-114200000D01*
D45*
%TO.N,Net-(D6-A)*%
X225100000Y-97300000D02*
X225100000Y-98100000D01*
X225100000Y-98100000D02*
X226500000Y-99500000D01*
%TO.N,GPIO06*%
X210700000Y-82730000D02*
X196590000Y-96840000D01*
X211000000Y-82730000D02*
X210700000Y-82730000D01*
X196590000Y-96840000D02*
X188600000Y-96840000D01*
%TO.N,GPIO03*%
X213820000Y-137000000D02*
X211520000Y-139300000D01*
X201537009Y-143460000D02*
X201537009Y-142940000D01*
X211501000Y-95299000D02*
X209000000Y-97800000D01*
X211520000Y-139300000D02*
X207000000Y-139300000D01*
X212765000Y-95299000D02*
X211501000Y-95299000D01*
X200337009Y-144460000D02*
X200337009Y-143940000D01*
X201297009Y-142700000D02*
X201177009Y-142700000D01*
X200937009Y-142940000D02*
X200937009Y-143460000D01*
X199951144Y-143700000D02*
X196400000Y-143700000D01*
X209000000Y-97800000D02*
X209000000Y-98000000D01*
X212765000Y-94140000D02*
X212765000Y-95299000D01*
X200937009Y-143460000D02*
X200937009Y-143940000D01*
X200937009Y-143940000D02*
X200937009Y-144460000D01*
X196400000Y-143700000D02*
X194096051Y-141396051D01*
X199977009Y-143700000D02*
X199951144Y-143700000D01*
X202600000Y-143700000D02*
X201777009Y-143700000D01*
X200097009Y-143700000D02*
X199977009Y-143700000D01*
X207000000Y-139300000D02*
X202600000Y-143700000D01*
X200697009Y-144700000D02*
X200577009Y-144700000D01*
X200337009Y-143940000D02*
G75*
G03*
X200097009Y-143699991I-240009J0D01*
G01*
X201537009Y-142940000D02*
G75*
G03*
X201297009Y-142699991I-240009J0D01*
G01*
X200577009Y-144700000D02*
G75*
G02*
X200337000Y-144460000I-9J240000D01*
G01*
X200937009Y-144460000D02*
G75*
G02*
X200697009Y-144700009I-240009J0D01*
G01*
X201177009Y-142700000D02*
G75*
G03*
X200937000Y-142940000I-9J-240000D01*
G01*
X201777009Y-143700000D02*
G75*
G02*
X201537000Y-143460000I-9J240000D01*
G01*
%TO.N,GPIO02*%
X244140000Y-94260000D02*
X228800000Y-78920000D01*
X251500000Y-94260000D02*
X244140000Y-94260000D01*
X228800000Y-78920000D02*
X228500000Y-78920000D01*
%TO.N,GPIO04*%
X205260000Y-76060000D02*
X205260000Y-75540000D01*
X199209698Y-76300000D02*
X196800000Y-76300000D01*
X201060000Y-76300000D02*
X201060000Y-76525000D01*
X188600000Y-91760000D02*
X199130000Y-91760000D01*
X203460000Y-75540000D02*
X203460000Y-76300000D01*
X201060000Y-75540000D02*
X201060000Y-76300000D01*
X187099000Y-76169684D02*
X187099000Y-82395051D01*
X196800000Y-76300000D02*
X195848997Y-75348997D01*
X202860000Y-76660000D02*
X202860000Y-76300000D01*
X204660000Y-76300000D02*
X204660000Y-77060000D01*
X199620000Y-76300000D02*
X199500000Y-76300000D01*
X209390000Y-80190000D02*
X205500000Y-76300000D01*
X201660000Y-76610000D02*
X201660000Y-76300000D01*
X199860000Y-75540000D02*
X199860000Y-76060000D01*
X187919687Y-75348997D02*
X187099000Y-76169684D01*
X204420000Y-77300000D02*
X204300000Y-77300000D01*
X200460000Y-76060000D02*
X200460000Y-75540000D01*
X211000000Y-80190000D02*
X209390000Y-80190000D01*
X199500000Y-76300000D02*
X199209698Y-76300000D01*
X201420000Y-75300000D02*
X201300000Y-75300000D01*
X204660000Y-75540000D02*
X204660000Y-76060000D01*
X200220000Y-75300000D02*
X200100000Y-75300000D01*
X202860000Y-76300000D02*
X202860000Y-75540000D01*
X204660000Y-76060000D02*
X204660000Y-76300000D01*
X202020000Y-76850000D02*
X201900000Y-76850000D01*
X204060000Y-77060000D02*
X204060000Y-76300000D01*
X203820000Y-75300000D02*
X203700000Y-75300000D01*
X205020000Y-75300000D02*
X204900000Y-75300000D01*
X203220000Y-76900000D02*
X203100000Y-76900000D01*
X202260000Y-75540000D02*
X202260000Y-76300000D01*
X200835000Y-76750000D02*
X200685000Y-76750000D01*
X202260000Y-76300000D02*
X202260000Y-76610000D01*
X204060000Y-76300000D02*
X204060000Y-75540000D01*
X195848997Y-75348997D02*
X187919687Y-75348997D01*
X210700000Y-80190000D02*
X211000000Y-80190000D01*
X199130000Y-91760000D02*
X210700000Y-80190000D01*
X200460000Y-76525000D02*
X200460000Y-76300000D01*
X201660000Y-76300000D02*
X201660000Y-75540000D01*
X187099000Y-82395051D02*
X188703949Y-84000000D01*
X200460000Y-76300000D02*
X200460000Y-76060000D01*
X202620000Y-75300000D02*
X202500000Y-75300000D01*
X203460000Y-76300000D02*
X203460000Y-76660000D01*
X203700000Y-75300000D02*
G75*
G03*
X203460000Y-75540000I0J-240000D01*
G01*
X201660000Y-75540000D02*
G75*
G03*
X201420000Y-75300000I-240000J0D01*
G01*
X201060000Y-76525000D02*
G75*
G02*
X200835000Y-76750000I-225000J0D01*
G01*
X202860000Y-75540000D02*
G75*
G03*
X202620000Y-75300000I-240000J0D01*
G01*
X204300000Y-77300000D02*
G75*
G02*
X204060000Y-77060000I0J240000D01*
G01*
X205260000Y-75540000D02*
G75*
G03*
X205020000Y-75300000I-240000J0D01*
G01*
X200685000Y-76750000D02*
G75*
G02*
X200460000Y-76525000I0J225000D01*
G01*
X202260000Y-76610000D02*
G75*
G02*
X202020000Y-76850000I-240000J0D01*
G01*
X202500000Y-75300000D02*
G75*
G03*
X202260000Y-75540000I0J-240000D01*
G01*
X201900000Y-76850000D02*
G75*
G02*
X201660000Y-76610000I0J240000D01*
G01*
X204900000Y-75300000D02*
G75*
G03*
X204660000Y-75540000I0J-240000D01*
G01*
X200460000Y-75540000D02*
G75*
G03*
X200220000Y-75300000I-240000J0D01*
G01*
X203100000Y-76900000D02*
G75*
G02*
X202860000Y-76660000I0J240000D01*
G01*
X204660000Y-77060000D02*
G75*
G02*
X204420000Y-77300000I-240000J0D01*
G01*
X203460000Y-76660000D02*
G75*
G02*
X203220000Y-76900000I-240000J0D01*
G01*
X201300000Y-75300000D02*
G75*
G03*
X201060000Y-75540000I0J-240000D01*
G01*
X199860000Y-76060000D02*
G75*
G02*
X199620000Y-76300000I-240000J0D01*
G01*
X204060000Y-75540000D02*
G75*
G03*
X203820000Y-75300000I-240000J0D01*
G01*
X200100000Y-75300000D02*
G75*
G03*
X199860000Y-75540000I0J-240000D01*
G01*
X205500000Y-76300000D02*
G75*
G02*
X205260000Y-76060000I0J240000D01*
G01*
%TO.N,GPIO01*%
X237749725Y-78410000D02*
X237749725Y-77650000D01*
X234389725Y-76650000D02*
X234509725Y-76650000D01*
X238949725Y-77650000D02*
X238949725Y-76890000D01*
X237989725Y-76650000D02*
X238109725Y-76650000D01*
X238589725Y-78650000D02*
X238709725Y-78650000D01*
X239189725Y-76650000D02*
X239309725Y-76650000D01*
X240149725Y-78410000D02*
X240149725Y-77650000D01*
X233549725Y-77650000D02*
X233549725Y-78410000D01*
X232349725Y-77650000D02*
X232349725Y-78410000D01*
X234989725Y-78650000D02*
X235109725Y-78650000D01*
X232949725Y-78410000D02*
X232949725Y-77650000D01*
X239789725Y-78650000D02*
X239909725Y-78650000D01*
X236189725Y-78650000D02*
X236309725Y-78650000D01*
X228500000Y-77650000D02*
X228832000Y-77650000D01*
X231389725Y-78650000D02*
X231509725Y-78650000D01*
X237389725Y-78650000D02*
X237509725Y-78650000D01*
X240389725Y-76650000D02*
X240509725Y-76650000D01*
X240149725Y-77410000D02*
X240149725Y-76890000D01*
X231749725Y-78410000D02*
X231749725Y-77890000D01*
X239549725Y-77650000D02*
X239549725Y-78410000D01*
X231989725Y-76650000D02*
X232109725Y-76650000D01*
X242902000Y-91720000D02*
X251500000Y-91720000D01*
X238949725Y-78410000D02*
X238949725Y-77650000D01*
X228500000Y-77650000D02*
X230909725Y-77650000D01*
X238349725Y-76890000D02*
X238349725Y-77650000D01*
X237149725Y-77650000D02*
X237149725Y-78410000D01*
X238349725Y-77650000D02*
X238349725Y-78410000D01*
X234749725Y-76890000D02*
X234749725Y-77650000D01*
X233789725Y-78650000D02*
X233909725Y-78650000D01*
X240749725Y-76890000D02*
X240749725Y-77410000D01*
X232589725Y-78650000D02*
X232709725Y-78650000D01*
X231749725Y-77650000D02*
X231749725Y-76890000D01*
X233189725Y-76650000D02*
X233309725Y-76650000D01*
X235349725Y-78410000D02*
X235349725Y-77650000D01*
X234749725Y-77650000D02*
X234749725Y-78410000D01*
X235349725Y-77650000D02*
X235349725Y-76890000D01*
X241378016Y-77650000D02*
X244650000Y-77650000D01*
X231149725Y-77890000D02*
X231149725Y-78410000D01*
X241109725Y-77650000D02*
X241378016Y-77650000D01*
X236549725Y-78410000D02*
X236549725Y-77650000D01*
X232349725Y-76890000D02*
X232349725Y-77650000D01*
X236549725Y-77650000D02*
X236549725Y-76890000D01*
X235949725Y-77650000D02*
X235949725Y-78410000D01*
X231749725Y-77890000D02*
X231749725Y-77650000D01*
X240989725Y-77650000D02*
X241109725Y-77650000D01*
X240149725Y-77650000D02*
X240149725Y-77410000D01*
X236789725Y-76650000D02*
X236909725Y-76650000D01*
X233549725Y-76890000D02*
X233549725Y-77650000D01*
X237149725Y-76890000D02*
X237149725Y-77650000D01*
X232949725Y-77650000D02*
X232949725Y-76890000D01*
X228832000Y-77650000D02*
X242902000Y-91720000D01*
X239549725Y-76890000D02*
X239549725Y-77650000D01*
X244650000Y-77650000D02*
X245907897Y-78907897D01*
X235589725Y-76650000D02*
X235709725Y-76650000D01*
X234149725Y-78410000D02*
X234149725Y-77650000D01*
X234149725Y-77650000D02*
X234149725Y-76890000D01*
X235949725Y-76890000D02*
X235949725Y-77650000D01*
X237749725Y-77650000D02*
X237749725Y-76890000D01*
X235949725Y-78410000D02*
G75*
G03*
X236189725Y-78649975I239975J0D01*
G01*
X236549725Y-76890000D02*
G75*
G02*
X236789725Y-76650025I239975J0D01*
G01*
X238949725Y-76890000D02*
G75*
G02*
X239189725Y-76650025I239975J0D01*
G01*
X237749725Y-76890000D02*
G75*
G02*
X237989725Y-76650025I239975J0D01*
G01*
X231149725Y-78410000D02*
G75*
G03*
X231389725Y-78649975I239975J0D01*
G01*
X239549725Y-78410000D02*
G75*
G03*
X239789725Y-78649975I239975J0D01*
G01*
X236909725Y-76650000D02*
G75*
G02*
X237149700Y-76890000I-25J-240000D01*
G01*
X240509725Y-76650000D02*
G75*
G02*
X240749700Y-76890000I-25J-240000D01*
G01*
X230909725Y-77650000D02*
G75*
G02*
X231149700Y-77890000I-25J-240000D01*
G01*
X240149725Y-76890000D02*
G75*
G02*
X240389725Y-76650025I239975J0D01*
G01*
X233309725Y-76650000D02*
G75*
G02*
X233549700Y-76890000I-25J-240000D01*
G01*
X239909725Y-78650000D02*
G75*
G03*
X240149700Y-78410000I-25J240000D01*
G01*
X231749725Y-76890000D02*
G75*
G02*
X231989725Y-76650025I239975J0D01*
G01*
X238709725Y-78650000D02*
G75*
G03*
X238949700Y-78410000I-25J240000D01*
G01*
X240749725Y-77410000D02*
G75*
G03*
X240989725Y-77649975I239975J0D01*
G01*
X232349725Y-78410000D02*
G75*
G03*
X232589725Y-78649975I239975J0D01*
G01*
X234749725Y-78410000D02*
G75*
G03*
X234989725Y-78649975I239975J0D01*
G01*
X237149725Y-78410000D02*
G75*
G03*
X237389725Y-78649975I239975J0D01*
G01*
X232709725Y-78650000D02*
G75*
G03*
X232949700Y-78410000I-25J240000D01*
G01*
X239309725Y-76650000D02*
G75*
G02*
X239549700Y-76890000I-25J-240000D01*
G01*
X235109725Y-78650000D02*
G75*
G03*
X235349700Y-78410000I-25J240000D01*
G01*
X232949725Y-76890000D02*
G75*
G02*
X233189725Y-76650025I239975J0D01*
G01*
X236309725Y-78650000D02*
G75*
G03*
X236549700Y-78410000I-25J240000D01*
G01*
X231509725Y-78650000D02*
G75*
G03*
X231749700Y-78410000I-25J240000D01*
G01*
X238109725Y-76650000D02*
G75*
G02*
X238349700Y-76890000I-25J-240000D01*
G01*
X233909725Y-78650000D02*
G75*
G03*
X234149700Y-78410000I-25J240000D01*
G01*
X238349725Y-78410000D02*
G75*
G03*
X238589725Y-78649975I239975J0D01*
G01*
X237509725Y-78650000D02*
G75*
G03*
X237749700Y-78410000I-25J240000D01*
G01*
X234149725Y-76890000D02*
G75*
G02*
X234389725Y-76650025I239975J0D01*
G01*
X232109725Y-76650000D02*
G75*
G02*
X232349700Y-76890000I-25J-240000D01*
G01*
X235709725Y-76650000D02*
G75*
G02*
X235949700Y-76890000I-25J-240000D01*
G01*
X234509725Y-76650000D02*
G75*
G02*
X234749700Y-76890000I-25J-240000D01*
G01*
X233549725Y-78410000D02*
G75*
G03*
X233789725Y-78649975I239975J0D01*
G01*
X235349725Y-76890000D02*
G75*
G02*
X235589725Y-76650025I239975J0D01*
G01*
%TO.N,GPIO08*%
X208000000Y-98000000D02*
X208000000Y-93018000D01*
X208000000Y-93018000D02*
X210668000Y-90350000D01*
X210668000Y-90350000D02*
X211000000Y-90350000D01*
%TO.N,GPIO07*%
X210700000Y-84000000D02*
X195320000Y-99380000D01*
X211000000Y-84000000D02*
X210700000Y-84000000D01*
X195320000Y-99380000D02*
X188600000Y-99380000D01*
%TO.N,GPIO05*%
X197860000Y-94300000D02*
X188600000Y-94300000D01*
X210700000Y-81460000D02*
X197860000Y-94300000D01*
X211000000Y-81460000D02*
X210700000Y-81460000D01*
%TO.N,GPIO14*%
X221655000Y-95345000D02*
X219000000Y-98000000D01*
X221655000Y-94140000D02*
X221655000Y-95345000D01*
%TO.N,GPIO10*%
X214100000Y-103900000D02*
X212000000Y-101800000D01*
X217400000Y-103900000D02*
X214100000Y-103900000D01*
X212000000Y-98000000D02*
X213200000Y-96800000D01*
X216575000Y-95325000D02*
X216575000Y-94140000D01*
X213200000Y-96800000D02*
X215100000Y-96800000D01*
X212000000Y-101800000D02*
X212000000Y-98000000D01*
X218750000Y-105250000D02*
X217400000Y-103900000D01*
X215100000Y-96800000D02*
X216575000Y-95325000D01*
%TO.N,GPIO16*%
X192840000Y-104460000D02*
X188600000Y-104460000D01*
X211000000Y-86540000D02*
X210760000Y-86540000D01*
X210760000Y-86540000D02*
X192840000Y-104460000D01*
%TO.N,GPIO11*%
X217845000Y-95155000D02*
X217845000Y-94140000D01*
X215600000Y-97400000D02*
X217845000Y-95155000D01*
X214516057Y-103416000D02*
X213000000Y-101899943D01*
X213000000Y-98000000D02*
X213600000Y-97400000D01*
X219250000Y-104750000D02*
X217916000Y-103416000D01*
X217916000Y-103416000D02*
X214516057Y-103416000D01*
X213000000Y-101899943D02*
X213000000Y-98000000D01*
X213600000Y-97400000D02*
X215600000Y-97400000D01*
X219250000Y-105250000D02*
X219250000Y-104750000D01*
%TO.N,GPIO12*%
X216300000Y-98000000D02*
X219115000Y-95185000D01*
X219750000Y-110150000D02*
X219500000Y-110400000D01*
X219115000Y-95185000D02*
X219115000Y-94140000D01*
X219750000Y-109150000D02*
X219750000Y-110150000D01*
X214000000Y-98000000D02*
X216300000Y-98000000D01*
%TO.N,GPIO15*%
X194018000Y-101920000D02*
X188600000Y-101920000D01*
X210668000Y-85270000D02*
X194018000Y-101920000D01*
X211000000Y-85270000D02*
X210668000Y-85270000D01*
%TO.N,GPIO13*%
X222593000Y-102201000D02*
X219292000Y-98900000D01*
X221250000Y-109150000D02*
X222790000Y-109150000D01*
X226616000Y-107416000D02*
X226616000Y-104416057D01*
X224524000Y-107416000D02*
X226616000Y-107416000D01*
X226616000Y-104416057D02*
X224400943Y-102201000D01*
X224400943Y-102201000D02*
X222593000Y-102201000D01*
X219000000Y-98900000D02*
X218100000Y-98000000D01*
X220385000Y-95715000D02*
X218100000Y-98000000D01*
X222790000Y-109150000D02*
X224524000Y-107416000D01*
X219292000Y-98900000D02*
X219000000Y-98900000D01*
X220385000Y-94140000D02*
X220385000Y-95715000D01*
%TO.N,GPIO09*%
X214400000Y-96200000D02*
X215305000Y-95295000D01*
X215305000Y-95295000D02*
X215305000Y-94140000D01*
X211000000Y-98000000D02*
X212800000Y-96200000D01*
X212800000Y-96200000D02*
X214400000Y-96200000D01*
%TO.N,GPIO17*%
X210700000Y-87810000D02*
X191510000Y-107000000D01*
X191510000Y-107000000D02*
X188600000Y-107000000D01*
X211000000Y-87810000D02*
X210700000Y-87810000D01*
%TO.N,GPIO35*%
X228500000Y-91620000D02*
X229020000Y-91620000D01*
X231000000Y-93600000D02*
X231000000Y-98000000D01*
X229020000Y-91620000D02*
X231000000Y-93600000D01*
D44*
%TO.N,GPIO38*%
X251394077Y-135905923D02*
X251394077Y-136094077D01*
D45*
X228500000Y-87810000D02*
X228800000Y-87810000D01*
X228800000Y-87810000D02*
X233800000Y-92810000D01*
X233800000Y-92810000D02*
X233800000Y-98000000D01*
X250888154Y-135400000D02*
X251394077Y-135905923D01*
X233200000Y-135400000D02*
X250888154Y-135400000D01*
X231600000Y-137000000D02*
X233200000Y-135400000D01*
%TO.N,GPIO39*%
X228800000Y-86540000D02*
X251500000Y-109240000D01*
X228500000Y-86540000D02*
X228800000Y-86540000D01*
X251500000Y-109240000D02*
X251500000Y-109500000D01*
%TO.N,GPIO36*%
X228500000Y-90350000D02*
X228800000Y-90350000D01*
X231900000Y-93450000D02*
X231900000Y-98000000D01*
X228800000Y-90350000D02*
X231900000Y-93450000D01*
%TO.N,GPIO37*%
X232900000Y-93180000D02*
X232900000Y-98000000D01*
X228800000Y-89080000D02*
X232900000Y-93180000D01*
X228500000Y-89080000D02*
X228800000Y-89080000D01*
%TO.N,GPIO18*%
X210720000Y-89080000D02*
X190260000Y-109540000D01*
X211000000Y-89080000D02*
X210720000Y-89080000D01*
X190260000Y-109540000D02*
X188600000Y-109540000D01*
X211000000Y-89080000D02*
X210700000Y-89080000D01*
%TO.N,GPIO21*%
X222925000Y-96625000D02*
X222925000Y-94140000D01*
X223000000Y-94215000D02*
X222925000Y-94140000D01*
X223600000Y-97300000D02*
X222925000Y-96625000D01*
%TO.N,GPIO41*%
X249220000Y-104420000D02*
X251500000Y-104420000D01*
X228800000Y-84000000D02*
X249220000Y-104420000D01*
X228500000Y-84000000D02*
X228800000Y-84000000D01*
%TO.N,GPIO42*%
X228832000Y-82730000D02*
X247982000Y-101880000D01*
X247982000Y-101880000D02*
X251500000Y-101880000D01*
X228500000Y-82730000D02*
X228832000Y-82730000D01*
%TO.N,GPIO46*%
X213600000Y-95700000D02*
X214035000Y-95265000D01*
X214035000Y-95265000D02*
X214035000Y-94140000D01*
X210000000Y-98000000D02*
X212300000Y-95700000D01*
X212300000Y-95700000D02*
X213600000Y-95700000D01*
%TO.N,GPIO43*%
X228500000Y-80190000D02*
X228832000Y-80190000D01*
X245442000Y-96800000D02*
X251500000Y-96800000D01*
X228832000Y-80190000D02*
X245442000Y-96800000D01*
%TO.N,GPIO47*%
X224195000Y-94140000D02*
X224195000Y-94440000D01*
X227755000Y-98000000D02*
X228000000Y-98000000D01*
X224195000Y-94440000D02*
X227755000Y-98000000D01*
%TO.N,GPIO40*%
X228500000Y-85270000D02*
X228832000Y-85270000D01*
X228832000Y-85270000D02*
X250522000Y-106960000D01*
X250522000Y-106960000D02*
X251500000Y-106960000D01*
%TO.N,GPIO44*%
X228500000Y-81460000D02*
X228800000Y-81460000D01*
X246680000Y-99340000D02*
X251500000Y-99340000D01*
X228800000Y-81460000D02*
X246680000Y-99340000D01*
%TO.N,GPIO45*%
X226735000Y-94140000D02*
X226735000Y-94735000D01*
X226735000Y-94735000D02*
X230000000Y-98000000D01*
%TO.N,Net-(U5-STAT)*%
X219010000Y-125300000D02*
X219110000Y-125200000D01*
D44*
X217350000Y-125300000D02*
X219010000Y-125300000D01*
%TO.N,Net-(U5-ILIM)*%
X225100000Y-123800000D02*
X223700000Y-125200000D01*
X223700000Y-125200000D02*
X221090000Y-125200000D01*
D45*
%TO.N,Net-(U5-VSNS)*%
X220430000Y-125200000D02*
X220430000Y-125700000D01*
X220430000Y-125700000D02*
X222230000Y-127500000D01*
X222230000Y-127500000D02*
X225100000Y-127500000D01*
X225100000Y-128800000D02*
X225100000Y-127500000D01*
X225100000Y-127500000D02*
X225100000Y-126300000D01*
%TO.N,Net-(USBC1-CC1)*%
X189599000Y-123048943D02*
X190700057Y-124150000D01*
X190600000Y-118500000D02*
X189599000Y-119501000D01*
X189599000Y-119501000D02*
X189599000Y-123048943D01*
X190700057Y-124150000D02*
X192770000Y-124150000D01*
%TO.N,Net-(USBC1-CC2)*%
X190600000Y-132300000D02*
X189599000Y-131299000D01*
X189599000Y-131299000D02*
X189599000Y-127751057D01*
X189599000Y-127751057D02*
X190211057Y-127139000D01*
X190211057Y-127139000D02*
X192770000Y-127139000D01*
%TO.N,GPIO00*%
X237400000Y-100000000D02*
X237400000Y-101400000D01*
X230000000Y-96000000D02*
X230000000Y-93800000D01*
X237400000Y-101400000D02*
X237500000Y-101500000D01*
X228610000Y-93000000D02*
X228500000Y-92890000D01*
X230000000Y-93800000D02*
X229090000Y-92890000D01*
X229090000Y-92890000D02*
X228500000Y-92890000D01*
X229900000Y-96100000D02*
X230000000Y-96000000D01*
%TO.N,D-*%
X212535001Y-92030000D02*
X212125001Y-91620000D01*
X213700000Y-91100000D02*
X212770000Y-92030000D01*
X191919000Y-124881000D02*
X191919000Y-125519000D01*
X212770000Y-92030000D02*
X212535001Y-92030000D01*
X195000000Y-124500000D02*
X194850000Y-124650000D01*
X192770000Y-124650000D02*
X192150000Y-124650000D01*
X212125001Y-91620000D02*
X211000000Y-91620000D01*
X194850000Y-124650000D02*
X192770000Y-124650000D01*
X191919000Y-125519000D02*
X192050000Y-125650000D01*
X192050000Y-125650000D02*
X192770000Y-125650000D01*
X192150000Y-124650000D02*
X191919000Y-124881000D01*
%TO.N,D+*%
X192819000Y-126199000D02*
X192770000Y-126150000D01*
X193620000Y-125150000D02*
X193620000Y-126179000D01*
X192770000Y-125150000D02*
X193620000Y-125150000D01*
X212125001Y-92890000D02*
X211000000Y-92890000D01*
X212535001Y-92480000D02*
X212125001Y-92890000D01*
X212956397Y-92480000D02*
X212535001Y-92480000D01*
X192770000Y-125150000D02*
X192794999Y-125125001D01*
X193600000Y-126199000D02*
X192819000Y-126199000D01*
X194825001Y-125125001D02*
X195000000Y-125300000D01*
X213700000Y-92100000D02*
X213336397Y-92100000D01*
X193620000Y-126179000D02*
X193600000Y-126199000D01*
X192794999Y-125125001D02*
X194825001Y-125125001D01*
X213336397Y-92100000D02*
X212956397Y-92480000D01*
%TO.N,GPIO48*%
X225465000Y-94465000D02*
X229000000Y-98000000D01*
X225465000Y-94140000D02*
X225465000Y-94465000D01*
%TD*%
M02*
