%TF.GenerationSoftware,KiCad,Pcbnew,9.0.7*%
%TF.CreationDate,2026-02-28T17:01:53+01:00*%
%TF.ProjectId,esp32-drone-controller,65737033-322d-4647-926f-6e652d636f6e,rev?*%
%TF.SameCoordinates,Original*%
%TF.FileFunction,Soldermask,Top*%
%TF.FilePolarity,Negative*%
%FSLAX46Y46*%
G04 Gerber Fmt 4.6, Leading zero omitted, Abs format (unit mm)*
G04 Created by KiCad (PCBNEW 9.0.7) date 2026-02-28 17:01:53*
%MOMM*%
%LPD*%
G01*
G04 APERTURE LIST*
G04 Aperture macros list*
%AMRoundRect*
0 Rectangle with rounded corners*
0 $1 Rounding radius*
0 $2 $3 $4 $5 $6 $7 $8 $9 X,Y pos of 4 corners*
0 Add a 4 corners polygon primitive as box body*
4,1,4,$2,$3,$4,$5,$6,$7,$8,$9,$2,$3,0*
0 Add four circle primitives for the rounded corners*
1,1,$1+$1,$2,$3*
1,1,$1+$1,$4,$5*
1,1,$1+$1,$6,$7*
1,1,$1+$1,$8,$9*
0 Add four rect primitives between the rounded corners*
20,1,$1+$1,$2,$3,$4,$5,0*
20,1,$1+$1,$4,$5,$6,$7,0*
20,1,$1+$1,$6,$7,$8,$9,0*
20,1,$1+$1,$8,$9,$2,$3,0*%
%AMRotRect*
0 Rectangle, with rotation*
0 The origin of the aperture is its center*
0 $1 length*
0 $2 width*
0 $3 Rotation angle, in degrees counterclockwise*
0 Add horizontal line*
21,1,$1,$2,0,0,$3*%
%AMFreePoly0*
4,1,13,0.335355,0.685355,0.350000,0.650000,0.350000,-0.650000,0.335355,-0.685355,0.300000,-0.700000,-0.300000,-0.700000,-0.335355,-0.685355,-0.350000,-0.650000,-0.350000,0.650000,-0.335355,0.685355,-0.300000,0.700000,0.300000,0.700000,0.335355,0.685355,0.335355,0.685355,$1*%
G04 Aperture macros list end*
%ADD10R,1.490000X1.730000*%
%ADD11R,1.570000X1.700000*%
%ADD12C,1.700000*%
%ADD13R,1.700000X1.570000*%
%ADD14R,0.860000X0.810000*%
%ADD15R,1.730000X1.490000*%
%ADD16RoundRect,0.375000X-0.625000X-0.375000X0.625000X-0.375000X0.625000X0.375000X-0.625000X0.375000X0*%
%ADD17RoundRect,0.500000X-0.500000X-1.400000X0.500000X-1.400000X0.500000X1.400000X-0.500000X1.400000X0*%
%ADD18R,0.810000X0.860000*%
%ADD19R,1.630000X1.600000*%
%ADD20RoundRect,0.375000X0.625000X0.375000X-0.625000X0.375000X-0.625000X-0.375000X0.625000X-0.375000X0*%
%ADD21RoundRect,0.500000X0.500000X1.400000X-0.500000X1.400000X-0.500000X-1.400000X0.500000X-1.400000X0*%
%ADD22C,2.500000*%
%ADD23RotRect,1.620000X1.620000X315.000000*%
%ADD24C,1.620000*%
%ADD25C,0.750000*%
%ADD26O,2.000000X1.200000*%
%ADD27O,1.800000X1.200000*%
%ADD28FreePoly0,270.000000*%
%ADD29R,1.300000X0.300000*%
%ADD30R,1.130000X1.380000*%
%ADD31R,1.500000X0.900000*%
%ADD32R,0.900000X1.500000*%
%ADD33R,0.900000X0.900000*%
%ADD34R,1.600000X1.630000*%
%ADD35C,1.600000*%
%ADD36RoundRect,0.075000X-0.350000X-0.075000X0.350000X-0.075000X0.350000X0.075000X-0.350000X0.075000X0*%
%ADD37RoundRect,0.075000X0.075000X-0.350000X0.075000X0.350000X-0.075000X0.350000X-0.075000X-0.350000X0*%
%ADD38R,1.860000X1.230000*%
%ADD39RotRect,1.620000X1.620000X225.000000*%
%ADD40RotRect,1.620000X1.620000X135.000000*%
%ADD41R,0.350000X0.600000*%
%ADD42R,2.400000X1.600000*%
%ADD43RotRect,1.620000X1.620000X45.000000*%
G04 APERTURE END LIST*
D10*
%TO.C,C6*%
X239200000Y-119400000D03*
X236020000Y-119400000D03*
%TD*%
%TO.C,C13*%
X215180000Y-109000000D03*
X212000000Y-109000000D03*
%TD*%
D11*
%TO.C,H4*%
X208640000Y-141500000D03*
D12*
X211180000Y-141500000D03*
X213720000Y-141500000D03*
X216260000Y-141500000D03*
X218800000Y-141500000D03*
X221340000Y-141500000D03*
X223880000Y-141500000D03*
X226420000Y-141500000D03*
X228960000Y-141500000D03*
X231500000Y-141500000D03*
%TD*%
D10*
%TO.C,C7*%
X239200000Y-116500000D03*
X236020000Y-116500000D03*
%TD*%
D13*
%TO.C,H2*%
X251500000Y-114580000D03*
D12*
X251500000Y-112040000D03*
X251500000Y-109500000D03*
X251500000Y-106960000D03*
X251500000Y-104420000D03*
X251500000Y-101880000D03*
X251500000Y-99340000D03*
X251500000Y-96800000D03*
X251500000Y-94260000D03*
X251500000Y-91720000D03*
%TD*%
D14*
%TO.C,R6*%
X193000000Y-117060000D03*
X193000000Y-118560000D03*
%TD*%
D15*
%TO.C,C9*%
X217190000Y-118230000D03*
X217190000Y-115050000D03*
%TD*%
D16*
%TO.C,U1*%
X200250000Y-122900000D03*
X200250000Y-125200000D03*
D17*
X206550000Y-125200000D03*
D16*
X200250000Y-127500000D03*
%TD*%
D13*
%TO.C,H3*%
X188600000Y-114620000D03*
D12*
X188600000Y-112080000D03*
X188600000Y-109540000D03*
X188600000Y-107000000D03*
X188600000Y-104460000D03*
X188600000Y-101920000D03*
X188600000Y-99380000D03*
X188600000Y-96840000D03*
X188600000Y-94300000D03*
X188600000Y-91760000D03*
%TD*%
D15*
%TO.C,C11*%
X203900000Y-81500000D03*
X203900000Y-84680000D03*
%TD*%
D10*
%TO.C,C1*%
X197220000Y-131500000D03*
X200400000Y-131500000D03*
%TD*%
D14*
%TO.C,R7*%
X248100000Y-118550000D03*
X248100000Y-117050000D03*
%TD*%
D18*
%TO.C,R3*%
X225100000Y-126300000D03*
X226600000Y-126300000D03*
%TD*%
%TO.C,R8*%
X223600000Y-97300000D03*
X225100000Y-97300000D03*
%TD*%
D10*
%TO.C,C14*%
X225500000Y-109000000D03*
X228680000Y-109000000D03*
%TD*%
D19*
%TO.C,D6*%
X223460000Y-99500000D03*
X226500000Y-99500000D03*
%TD*%
D18*
%TO.C,R10*%
X189100000Y-132300000D03*
X190600000Y-132300000D03*
%TD*%
D10*
%TO.C,C5*%
X245900000Y-131100000D03*
X242720000Y-131100000D03*
%TD*%
%TO.C,C15*%
X220430000Y-102250000D03*
X217250000Y-102250000D03*
%TD*%
D20*
%TO.C,U2*%
X242650000Y-127800000D03*
X242650000Y-125500000D03*
D21*
X236350000Y-125500000D03*
D20*
X242650000Y-123200000D03*
%TD*%
D22*
%TO.C,REF\u002A\u002A*%
X240000000Y-80200000D03*
%TD*%
D15*
%TO.C,C10*%
X223100000Y-118300000D03*
X223100000Y-115120000D03*
%TD*%
D10*
%TO.C,C4*%
X203620000Y-113500000D03*
X206800000Y-113500000D03*
%TD*%
D23*
%TO.C,H8*%
X188707897Y-136007897D03*
D24*
X190503948Y-137803948D03*
X192300000Y-139600000D03*
X194096051Y-141396051D03*
%TD*%
D18*
%TO.C,R9*%
X189100000Y-118500000D03*
X190600000Y-118500000D03*
%TD*%
D14*
%TO.C,R1*%
X217350000Y-125300000D03*
X217350000Y-123800000D03*
%TD*%
D25*
%TO.C,USBC1*%
X191510000Y-122500000D03*
X191510000Y-128300000D03*
D26*
X192010000Y-129730000D03*
D27*
X187830000Y-129730000D03*
X187830000Y-121070000D03*
D26*
X192010000Y-121070000D03*
D28*
X192770000Y-122200000D03*
X192770000Y-123000000D03*
D29*
X192770000Y-124150000D03*
X192770000Y-125150000D03*
X192770000Y-125650000D03*
X192770000Y-126650000D03*
D28*
X192770000Y-128600000D03*
X192770000Y-127800000D03*
D29*
X192770000Y-127150000D03*
X192770000Y-126150000D03*
X192770000Y-124650000D03*
X192770000Y-123650000D03*
%TD*%
D30*
%TO.C,R2*%
X225100000Y-123800000D03*
X227100000Y-123800000D03*
%TD*%
D22*
%TO.C,REF\u002A\u002A*%
X200000000Y-140000000D03*
%TD*%
D31*
%TO.C,U4*%
X211000000Y-76380000D03*
X211000000Y-77650000D03*
X211000000Y-78920000D03*
X211000000Y-80190000D03*
X211000000Y-81460000D03*
X211000000Y-82730000D03*
X211000000Y-84000000D03*
X211000000Y-85270000D03*
X211000000Y-86540000D03*
X211000000Y-87810000D03*
X211000000Y-89080000D03*
X211000000Y-90350000D03*
X211000000Y-91620000D03*
X211000000Y-92890000D03*
D32*
X212765000Y-94140000D03*
X214035000Y-94140000D03*
X215305000Y-94140000D03*
X216575000Y-94140000D03*
X217845000Y-94140000D03*
X219115000Y-94140000D03*
X220385000Y-94140000D03*
X221655000Y-94140000D03*
X222925000Y-94140000D03*
X224195000Y-94140000D03*
X225465000Y-94140000D03*
X226735000Y-94140000D03*
D31*
X228500000Y-92890000D03*
X228500000Y-91620000D03*
X228500000Y-90350000D03*
X228500000Y-89080000D03*
X228500000Y-87810000D03*
X228500000Y-86540000D03*
X228500000Y-85270000D03*
X228500000Y-84000000D03*
X228500000Y-82730000D03*
X228500000Y-81460000D03*
X228500000Y-80190000D03*
X228500000Y-78920000D03*
X228500000Y-77650000D03*
X228500000Y-76380000D03*
D33*
X216850000Y-82700000D03*
X216850000Y-84100000D03*
X216850000Y-85500000D03*
X216850000Y-85500000D03*
X218250000Y-82700000D03*
X218250000Y-82700000D03*
X218250000Y-84100000D03*
X218250000Y-85500000D03*
X219650000Y-82700000D03*
X219650000Y-84100000D03*
X219650000Y-85500000D03*
%TD*%
D18*
%TO.C,R5*%
X201100000Y-78200000D03*
X202600000Y-78200000D03*
%TD*%
D34*
%TO.C,D5*%
X248000000Y-111160000D03*
X248000000Y-114200000D03*
%TD*%
%TO.C,D4*%
X193000000Y-110900000D03*
X193000000Y-113940000D03*
%TD*%
D35*
%TO.C,CN1*%
X253150000Y-124500000D03*
X253150000Y-126500000D03*
%TD*%
D36*
%TO.C,U3*%
X218050000Y-105950000D03*
X218050000Y-106450000D03*
X218050000Y-106950000D03*
X218050000Y-107450000D03*
X218050000Y-107950000D03*
X218050000Y-108450000D03*
D37*
X218750000Y-109150000D03*
X219250000Y-109150000D03*
X219750000Y-109150000D03*
X220250000Y-109150000D03*
X220750000Y-109150000D03*
X221250000Y-109150000D03*
D36*
X221950000Y-108450000D03*
X221950000Y-107950000D03*
X221950000Y-107450000D03*
X221950000Y-106950000D03*
X221950000Y-106450000D03*
X221950000Y-105950000D03*
D37*
X221250000Y-105250000D03*
X220750000Y-105250000D03*
X220250000Y-105250000D03*
X219750000Y-105250000D03*
X219250000Y-105250000D03*
X218750000Y-105250000D03*
%TD*%
D38*
%TO.C,SW1*%
X200500000Y-85360000D03*
X200500000Y-81000000D03*
%TD*%
%TO.C,SW2*%
X237500000Y-105860000D03*
X237500000Y-101500000D03*
%TD*%
D39*
%TO.C,H6*%
X194092103Y-78611846D03*
D24*
X192296052Y-80407897D03*
X190500000Y-82203949D03*
X188703949Y-84000000D03*
%TD*%
D11*
%TO.C,H1*%
X208740000Y-137000000D03*
D12*
X211280000Y-137000000D03*
X213820000Y-137000000D03*
X216360000Y-137000000D03*
X218900000Y-137000000D03*
X221440000Y-137000000D03*
X223980000Y-137000000D03*
X226520000Y-137000000D03*
X229060000Y-137000000D03*
X231600000Y-137000000D03*
%TD*%
D10*
%TO.C,C3*%
X203620000Y-116400000D03*
X206800000Y-116400000D03*
%TD*%
D40*
%TO.C,H5*%
X251296051Y-84296051D03*
D24*
X249500000Y-82500000D03*
X247703948Y-80703948D03*
X245907897Y-78907897D03*
%TD*%
D41*
%TO.C,U5*%
X219110000Y-125200000D03*
X219770000Y-125200000D03*
X220430000Y-125200000D03*
X221090000Y-125200000D03*
X221090000Y-122400000D03*
X220430000Y-122400000D03*
X219770000Y-122400000D03*
X219110000Y-122400000D03*
D42*
X220100000Y-123800000D03*
%TD*%
D18*
%TO.C,R4*%
X226600000Y-128800000D03*
X225100000Y-128800000D03*
%TD*%
D22*
%TO.C,REF\u002A\u002A*%
X240000000Y-140000000D03*
%TD*%
D10*
%TO.C,C2*%
X203600000Y-119300000D03*
X206780000Y-119300000D03*
%TD*%
%TO.C,C8*%
X239200000Y-113700000D03*
X236020000Y-113700000D03*
%TD*%
D43*
%TO.C,H7*%
X246005923Y-141294077D03*
D24*
X247801974Y-139498026D03*
X249598026Y-137701974D03*
X251394077Y-135905923D03*
%TD*%
D10*
%TO.C,C12*%
X225570000Y-106250000D03*
X228750000Y-106250000D03*
%TD*%
M02*
